<svg width="1268" height="376" fill="none" xmlns="http://www.w3.org/2000/svg"><path d="M1263.97-306.815c-2.69-1.58-7.04-1.58-9.73 0-2.01 1.185-2.51 2.919-1.49 4.367l-150.65 88.093v111.203l-36.71 21.463V39.258l-125.707 73.52-19.586-11.456 96.933-56.687v-66.3l-.39-.22L906.425-86.34v-22.495l62.335-36.453c2.687 1.141 6.457 1.009 8.883-.395 2.687-1.581 2.687-4.126 0-5.685-2.686-1.58-7.041-1.58-9.728 0-2.427 1.427-2.643 3.622-.693 5.202l-62.335 36.453v24.294l.39.22L1015.5-20.743v64.5l-73.238 42.84V58.965l33.583-19.642c2.687 1.141 6.457 1.01 8.883-.395 2.687-1.58 2.687-4.126 0-5.684-2.686-1.58-7.041-1.58-9.728 0-2.427 1.426-2.643 3.62-.693 5.2l-33.584 19.643v29.43l-22.143 12.948-26.195-15.318V37.04l49.4-28.903v-33.249l-.39-.22-104.022-60.835c1.95-1.58 1.734-3.775-.693-5.201-2.687-1.58-7.042-1.58-9.728 0-2.687 1.58-2.687 4.126 0 5.684 2.426 1.427 6.196 1.536 8.883.395l104.39 61.055v31.45L892.363 35.22V2.059l-.39-.22-63.635-37.22c1.95-1.58 1.734-3.776-.693-5.202-2.687-1.58-7.042-1.58-9.728 0-2.687 1.58-2.687 4.126 0 5.684 2.426 1.427 6.196 1.536 8.883.395l64.025 37.44v81.268L872.43 73.451l-30.312 17.732-27.451-16.065v-39.02l-.39-.22-72.584-42.444v-36.782c1.495-.088 2.947-.461 4.095-1.142 2.687-1.58 2.687-4.125 0-5.684-2.686-1.58-7.041-1.58-9.728 0-2.687 1.58-2.687 4.126 0 5.684 1.148.68 2.6 1.032 4.095 1.142v37.682l.39.22 72.583 42.444v37.22L695.002 5.132v-73.235l64.068-37.462h58.803l.174-.11 100.901-58.992c2.687 1.141 6.457 1.01 8.884-.395 2.686-1.58 2.686-4.126 0-5.684-2.687-1.58-7.042-1.58-9.729 0-2.426 1.426-2.643 3.621-.693 5.201l-99.948 58.443h-55.727l185.358-108.393c2.687 1.141 6.457 1.01 8.884-.395 2.686-1.58 2.686-4.126 0-5.684-2.687-1.58-7.042-1.58-9.729 0-2.426 1.426-2.643 3.621-.693 5.201L693.463-68.96V6.075l.39.22 146.749 85.81-29.532 17.272L560.517-37.137v-87.435l-.39-.219-85.215-49.819c1.95-1.58 1.733-3.775-.694-5.201-2.686-1.58-7.041-1.58-9.728 0-2.687 1.58-2.687 4.126 0 5.684 2.427 1.427 6.197 1.536 8.883.395l85.584 50.06v87.434l.39.22L809.51 110.277l-28.123 16.437-247.78-144.912H385.84l-92.343-54.01v-83.001c.975-.198 1.885-.505 2.665-.944 2.686-1.58 2.686-4.126 0-5.684-2.687-1.58-7.042-1.58-9.729 0-2.686 1.58-2.686 4.126 0 5.684 1.517.878 3.554 1.251 5.525 1.141v83.704l.39.22L385.45-16.64h147.767l209.17 122.33H700.31l-71.392-41.742h-54.99l-.173.11-76.267 44.594c-2.686-1.141-6.456-1.009-8.883.396-2.687 1.58-2.687 4.125 0 5.684 2.687 1.58 7.042 1.58 9.728 0 2.427-1.427 2.644-3.622.694-5.202l75.313-44.046h54.167l71.391 41.742h45.154l34.818 20.366-75.053 43.893-21.342-12.488v-32.765L629.2 94.519c1.95-1.58 1.733-3.775-.693-5.201-2.687-1.58-7.042-1.58-9.729 0-2.686 1.58-2.686 4.126 0 5.684 2.427 1.426 6.197 1.536 8.884.395l54.21 31.712v30.967l-57.807-33.82h-27.387l-.173.11-32.652 19.093c-2.686-1.141-6.456-1.009-8.883.395-2.687 1.581-2.687 4.126 0 5.685 2.687 1.58 7.042 1.58 9.728 0 2.427-1.427 2.644-3.621.694-5.202l31.698-18.544h26.542l79.581 46.526-14.451 8.449 46.128 26.973-21.602 12.641h-32.673l-23.378-13.673c1.863-1.558 1.603-3.731-.78-5.135-2.687-1.581-7.042-1.581-9.729 0-2.686 1.58-2.686 4.126 0 5.684 2.449 1.426 6.284 1.536 8.992.351l24.483 14.309h30.42l-55.098 32.217-129.61-75.803H432.64l-.173.11-52.52 30.703c-2.687-1.141-6.457-1.009-8.884.395-2.686 1.58-2.686 4.126 0 5.684 2.687 1.58 7.042 1.58 9.729 0 2.426-1.426 2.643-3.621.693-5.201l51.567-30.154h92.43l99.97 58.465H582.66l-41.817-24.449c1.95-1.58 1.734-3.774-.693-5.201-2.687-1.58-7.042-1.58-9.728 0-2.687 1.58-2.687 4.126 0 5.684 2.426 1.427 6.196 1.537 8.883.395l42.943 25.129h45.869l25.848 15.121-65.802 38.472H377.845L214.5 198.062c1.95-1.58 1.733-3.775-.693-5.201-2.687-1.58-7.042-1.58-9.729 0-2.686 1.58-2.686 4.126 0 5.684 2.427 1.426 6.197 1.536 8.884.395l164.515 96.213H585.52l-26.108 15.275H403.737l-.174.109-76.765 44.903c-2.686-1.142-6.456-1.01-8.883.395-2.687 1.58-2.687 4.126 0 5.684 2.687 1.58 7.042 1.58 9.728 0 2.427-1.426 2.644-3.621.694-5.201l75.833-44.332h155.675l.173-.11 176.432-103.17 19.587 11.456-185.489 108.481H434.893l-.173.11-163.843 95.818H43.875L0 398.894v1.799l43.463 25.414h227.825l.174-.11 102.83-60.133v35.597l-67.774 39.635c-2.686-1.141-6.456-1.009-8.883.396-2.687 1.58-2.687 4.126 0 5.684 2.687 1.58 7.042 1.58 9.728 0 2.427-1.427 2.644-3.621.694-5.202l67.773-39.635v-37.177h-.347l59.844-35.004h135.655l.173-.11 186.442-109.03 22.251 13.014-361.746 211.542v38.23h1.538v-37.33l361.747-211.542 27.495 16.087-186.594 109.117v19.511l-33.085 19.356v44.881l-64.155 37.528c-2.686-1.141-6.456-1.009-8.883.395-.975.571-1.603 1.273-1.863 2.019h13.411c-.195-.548-.563-1.053-1.126-1.514l64.155-37.528v-44.881l31.546-18.457v71.853l18.612 10.885-33.583 19.664h3.076l32.002-18.72 32.002 18.72h3.076l-53.711-31.405V361.08l186.593-109.118 25.025 14.639-132.058 77.229c-2.687-1.141-6.457-1.009-8.884.395-2.686 1.58-2.686 4.126 0 5.684 2.687 1.58 7.042 1.58 9.729 0 2.426-1.426 2.643-3.621.693-5.201l132.058-77.229 24.159 14.133-157.972 92.372h-42.922c-.26-.746-.888-1.47-1.885-2.062-2.686-1.581-7.041-1.581-9.728 0-2.687 1.58-2.687 4.125 0 5.684 2.687 1.58 7.042 1.58 9.728 0 .997-.593 1.625-1.317 1.885-2.063h43.334l.173-.11 158.903-92.921 9.75 5.706 7.497-4.389 37.852 22.122v30.812l-31.265 18.282v-.088h-49.075l-.174.11-53.841 31.493c-2.687-1.141-6.457-1.01-8.884.395-2.686 1.58-2.686 4.126 0 5.684 2.687 1.58 7.042 1.58 9.729 0 2.426-1.427 2.643-3.621.693-5.201l52.888-30.923h46.129l-91.932 53.747c-2.708-1.229-6.587-1.141-9.078.307-2.687 1.58-2.687 4.126 0 5.684 2.686 1.58 7.041 1.58 9.728 0 2.362-1.382 2.643-3.511.845-5.091l114.66-67.047v14.814l-68.207 39.899v28.157l-55.531 32.481c-2.687-1.141-6.457-1.01-8.884.395-2.686 1.58-2.686 4.126 0 5.684 2.687 1.58 7.042 1.58 9.729 0 2.426-1.427 2.643-3.621.693-5.201l55.532-32.481v-28.157l68.206-39.899v-16.613l9.555-5.597v-32.612l-37.851-22.122 24.873-14.55 77.87 45.538v51.772l-52.888 30.922c-2.709-1.229-6.587-1.141-9.079.308-2.686 1.58-2.686 4.126 0 5.684 2.687 1.58 7.042 1.58 9.729 0 2.361-1.383 2.643-3.512.845-5.092l51.371-30.044v41.829l-40.581 23.746v50.784h1.538v-49.884l39.043-22.846v72.708h1.539V312.93l-77.87-45.539 27.928-16.328 101.795 59.518v141.774l48.92 28.618v2.875h1.54v-3.687L1039 451.543V309.769l-101.787-59.518 20.692-12.115 137.365 80.324v120.947L1215.44 509h3.91l-122.41-70.471V317.582l-137.367-80.324 33.54-19.62 228.557 133.654v60.177l78.33 45.802v-1.8l-76.79-44.902v-60.177l-128.54-75.188h101.66L1300 335.842v-1.8l-103.26-60.396H1092l-97.327-56.907 38.997-22.803 83.66 48.919h134.33l48.34 28.267v-1.8l-10.59-6.189H1300v-1.558h-13.26l-34.67-20.278h-134.33l-23.42-13.695h57.11l.18-.11 28.64-16.745h119.34l.39.242v-1.8h-117.09l32.24-18.852c2.69 1.141 6.46 1.009 8.89-.395 2.68-1.58 2.68-4.126 0-5.684-2.69-1.58-7.05-1.58-9.73 0-2.43 1.426-2.65 3.621-.7 5.201l-62.61 36.629h-59.37l-56.46-33.008 20.86-12.202-13.43-7.857h39.02l51 29.825c-1.95 1.581-1.73 3.775.7 5.202 2.68 1.58 7.04 1.58 9.73 0 2.68-1.58 2.68-4.126 0-5.684-2.43-1.427-6.2-1.537-8.89-.395l-52.13-30.484h-42.1l-28.55-16.701 17.55-10.271h31.13l27.39-16.021h20.43l46.15 26.994c-2.08 1.58-1.91 3.841.56 5.289 2.69 1.58 7.04 1.58 9.73 0 2.69-1.58 2.69-4.126 0-5.684-2.38-1.383-6.04-1.536-8.73-.483l-47.3-27.652h-21.25l-27.39 16.021h-28.06l56.14-32.832h30.31l63.18 36.936h118.76v-1.559h-118.35l-63.18-36.935h-31.13l-.17.109-77.31 45.21-20.282-11.851 87.362-51.091h61.62l50.83 29.715h110.63v-1.558h-110.2l-48.16-28.157h158.36v-1.558h-223.47l-.17.11-88.297 51.639-23.053-13.475 121.81-71.238h213.18v-1.558h-155.35l155.35-90.858v-1.8l-158.43 92.658h-53.62l115.48-67.53v-14.879l55.27-32.305c2.69 1.141 6.46 1.01 8.89-.395 2.68-1.58 2.68-4.126 0-5.684-2.69-1.58-7.05-1.58-9.73 0-2.43 1.426-2.65 3.62-.7 5.201l-30.09 17.601v-40.798l72.95-42.796v-1.799l-74.49 43.563v42.598l-23.64 13.826v14.88l-116.43 68.1.39.68-122.378 71.567L941.2 113.7l125.71-73.52V-80.767L1300-217.098v-1.8l-196.36 114.846v-109.403l150.3-87.895c.11.066.19.153.3.219 2.69 1.58 7.04 1.58 9.73 0 2.69-1.58 2.69-4.126 0-5.684zm-210.99 487.649L872.408 286.44 691.86 180.856 872.43 75.25l180.55 105.584z" fill="#889CFF" fill-opacity=".4"/></svg>