<svg width="360" height="231" fill="none" xmlns="http://www.w3.org/2000/svg"><path d="M30.253 229.598s-30.406-58.726 1.666-109.482c138.586-219.315 342.256-76.58 281.293 17.543-25.137 38.81 53.976 47.22 30.25 92.034l-313.21-.095z" fill="#E3E2F9"/><path d="M311.202 107.445l-34.78 11.552 6.982 5.846-30.094 31.64-26.379-22.749-105.297 86.656.926.013h26.232l77.88-64.09 27.811 23.982 42.182-44.352h.001l7.535 6.308 7.001-34.806z" fill="#727BE2"/><path d="M359.592 230.002H.408a.41.41 0 01-.408-.41v-.139a.41.41 0 01.408-.41h359.184a.41.41 0 01.408.41v.139a.41.41 0 01-.408.41z" fill="#2E3552"/><path d="M142.573 174.985l-8.181 54.605-72.48-10.955-30.539-4.615 8.18-54.602 57.022 8.616 45.998 6.951z" fill="#BDBDEB"/><path d="M135.768 180.205l-6.351 42.391-92.597-13.994 6.351-42.391 92.597 13.994zm-6.857 36.996l4.789-31.97a3.972 3.972 0 00-3.324-4.521l-82.129-12.411a4.032 4.032 0 00-4.582 3.398l-4.77 31.841c-.328 2.19 1.174 4.234 3.355 4.563l82.183 12.42a3.937 3.937 0 004.478-3.32z" fill="#727BE2"/><path d="M84.586 205.804c-6.271-.948-10.59-6.822-9.647-13.121.944-6.299 6.792-10.637 13.065-9.69 6.27.947 10.59 6.822 9.647 13.122-.945 6.299-6.794 10.638-13.065 9.689z" fill="#727BE2"/><path d="M149.244 175.242L106.125 209.5l-45.472-57.736-.002-.001-19.159-24.327L84.611 93.18l35.774 45.422 28.859 36.64z" fill="#BDBDEB"/><path d="M140.727 174.382l-33.476 26.595-58.093-73.761 33.476-26.595 58.093 73.761zm-30.176 22.309l25.246-20.058a3.983 3.983 0 00.648-5.581L84.92 105.628a4.016 4.016 0 00-5.658-.663l-25.145 19.976a4.026 4.026 0 00-.655 5.636l51.56 65.464a3.924 3.924 0 005.529.65z" fill="#727BE2"/><path d="M100.472 160.912c5.558-3.068 7.588-10.081 4.533-15.663-3.054-5.583-10.036-7.621-15.594-4.554-5.558 3.068-7.588 10.081-4.534 15.663 3.055 5.583 10.036 7.621 15.595 4.554z" fill="#727BE2"/><path d="M242.458 114.417a1.22 1.22 0 01.163-.261v-.001c.048-.058.1-.112.158-.162l.24-.244.064.047c1.225-.602 3.758.036 6.318 1.716 3.094 2.03 5.082 4.824 4.509 6.309l.087.065-.345.345a.614.614 0 01-.051.051l-.01.01-.002.001a1.38 1.38 0 01-.298.208l-.001.002c-1.211.636-3.769.002-6.358-1.695-3.152-2.067-5.155-4.929-4.474-6.391z" fill="#FFA412"/><path d="M249.77 115.141c-3.153-2.067-6.261-2.559-6.944-1.095-.682 1.462 1.322 4.324 4.475 6.391 3.153 2.067 6.262 2.559 6.944 1.095.682-1.462-1.321-4.324-4.475-6.391z" fill="#FFB93E"/><path d="M247.476 120.021c-1.319-.868-2.457-1.915-3.203-2.946-.762-1.057-1.025-1.98-.741-2.603.145-.317.417-.536.81-.649 1.164-.337 3.225.307 5.253 1.64 1.32.868 2.456 1.915 3.202 2.946.762 1.057 1.026 1.98.742 2.603-.145.317-.418.536-.811.65a2.516 2.516 0 01-.693.088c-1.197-.001-2.89-.631-4.559-1.729zm-3.069-5.976c-.325.095-.548.27-.664.524-.244.536.018 1.398.718 2.37.729 1.009 1.844 2.035 3.142 2.888 1.615 1.063 3.296 1.691 4.439 1.691.231 0 .439-.027.623-.079.325-.095.548-.27.664-.524.244-.535-.018-1.398-.718-2.37-.729-1.009-1.845-2.035-3.142-2.888-1.617-1.063-3.296-1.689-4.439-1.689-.231 0-.441.025-.623.077zm17.096-73.937a.856.856 0 01.229-.299l.169-.173.044.033c.87-.427 2.668.027 4.486 1.219 2.198 1.441 3.608 3.425 3.201 4.48l.062.045-.244.245a.518.518 0 01-.035.036l-.007.007-.003.001a.998.998 0 01-.211.148l-.001.002c-.859.453-2.676.001-4.514-1.203-2.239-1.47-3.66-3.502-3.176-4.54z" fill="#FFA412"/><path d="M266.693 40.626c-2.239-1.468-4.446-1.817-4.93-.778-.483 1.038.938 3.07 3.177 4.537 2.239 1.468 4.446 1.817 4.93.778.485-1.037-.938-3.068-3.177-4.537z" fill="#FFB93E"/><path d="M265.065 44.093c-.937-.616-1.744-1.36-2.273-2.092-.542-.749-.728-1.405-.527-1.848.104-.226.297-.381.577-.461.825-.24 2.289.218 3.729 1.164.937.616 1.743 1.36 2.273 2.092.542.75.728 1.406.526 1.849-.103.226-.296.38-.576.46a1.8 1.8 0 01-.492.063c-.849.002-2.051-.446-3.237-1.227zm-2.179-4.24c-.232.066-.39.192-.472.37-.174.38.013.993.51 1.683.517.717 1.31 1.444 2.231 2.05 1.147.755 2.339 1.2 3.151 1.2.164 0 .313-.018.443-.056.231-.066.39-.192.471-.371.174-.38-.012-.993-.51-1.682-.517-.718-1.31-1.446-2.23-2.051-1.147-.755-2.34-1.2-3.152-1.2a1.5 1.5 0 00-.442.056zm6.652 59.159a.773.773 0 00-.12-.19.858.858 0 00-.115-.117l-.175-.179-.046.035c-.896-.44-2.746.026-4.617 1.253-2.262 1.483-3.713 3.525-3.294 4.611l-.064.047.251.252.037.037.007.007.003.002c.063.058.136.109.218.152l.001.001c.885.466 2.755.003 4.646-1.238 2.303-1.513 3.766-3.604 3.268-4.673z" fill="#FFA412"/><path d="M264.195 99.54c2.304-1.51 4.576-1.868 5.075-.8.497 1.07-.965 3.16-3.27 4.671-2.304 1.51-4.576 1.869-5.075.8-.497-1.068.967-3.16 3.27-4.67z" fill="#FFB93E"/><path d="M262.541 104.374c-.187 0-.357-.021-.507-.065-.287-.083-.487-.242-.593-.475-.208-.455-.015-1.13.542-1.902.544-.753 1.376-1.519 2.339-2.153 1.482-.975 2.988-1.444 3.838-1.2.287.084.487.243.593.476.208.455.015 1.129-.542 1.902-.544.755-1.376 1.519-2.339 2.153-1.22.803-2.457 1.264-3.331 1.264zm5.119-5.686c-.836 0-2.063.458-3.244 1.235-.947.623-1.763 1.372-2.295 2.11-.513.709-.703 1.34-.526 1.732.085.186.249.313.486.382.133.039.286.057.455.057.835 0 2.062-.458 3.243-1.235.947-.623 1.764-1.372 2.296-2.11.512-.709.703-1.34.525-1.732-.084-.184-.248-.313-.485-.382a1.65 1.65 0 00-.455-.057zM243.437 57.52a.554.554 0 01.143-.19l.106-.107.028.02c.545-.268 1.671.017 2.808.763 1.376.903 2.26 2.145 2.005 2.805l.038.03-.153.153-.022.022-.004.004-.001.002a.618.618 0 01-.133.093h-.001c-.538.282-1.675 0-2.826-.754-1.401-.92-2.291-2.191-1.988-2.842z" fill="#FFA412"/><path d="M246.686 57.842c-1.402-.92-2.783-1.137-3.086-.487-.304.649.587 1.921 1.989 2.84 1.402.92 2.783 1.137 3.086.488.304-.65-.587-1.922-1.989-2.841z" fill="#FFB93E"/><path d="M245.666 60.01c-.587-.386-1.092-.851-1.424-1.31-.339-.469-.456-.88-.33-1.157a.539.539 0 01.36-.289c.517-.15 1.434.137 2.336.73.587.386 1.091.851 1.422 1.31.339.469.457.88.33 1.157a.538.538 0 01-.361.289 1.116 1.116 0 01-.309.039c-.528 0-1.281-.28-2.024-.769zm-1.363-2.655a.438.438 0 00-.296.233c-.108.238.009.621.32 1.053.324.449.821.904 1.397 1.284.718.472 1.465.751 1.973.75a.985.985 0 00.277-.035.436.436 0 00.295-.232c.109-.238-.009-.622-.32-1.054-.324-.448-.82-.904-1.397-1.283-.718-.472-1.465-.752-1.972-.752a1.047 1.047 0 00-.277.036zm-105.659 44.544a1.052 1.052 0 00-.272-.354l-.201-.205-.053.038c-1.029-.506-3.158.031-5.31 1.442-2.601 1.706-4.271 4.054-3.789 5.301l-.074.054.29.29a.872.872 0 00.043.043l.008.008.003.001c.073.068.157.126.249.175l.002.001c1.017.536 3.168.003 5.343-1.424 2.651-1.737 4.334-4.14 3.761-5.37z" fill="#FFA412"/><path d="M132.5 102.508c2.649-1.738 5.262-2.151 5.835-.921.574 1.23-1.111 3.633-3.761 5.371-2.649 1.738-5.262 2.15-5.835.921-.572-1.228 1.111-3.634 3.761-5.371z" fill="#FFB93E"/><path d="M130.597 108.065c-.215 0-.411-.025-.583-.075-.331-.095-.56-.279-.681-.545-.239-.524-.018-1.3.623-2.188.626-.867 1.581-1.746 2.691-2.476 1.704-1.12 3.435-1.661 4.414-1.379.331.096.56.28.681.546.239.523.018 1.3-.623 2.187-.626.867-1.581 1.746-2.691 2.476-1.403.924-2.826 1.454-3.831 1.454zm5.886-6.541c-.96 0-2.372.526-3.73 1.421-1.09.717-2.028 1.578-2.64 2.427-.589.815-.809 1.542-.604 1.991.097.213.286.36.559.44.153.045.329.067.522.067.961 0 2.373-.526 3.73-1.421 1.091-.717 2.028-1.578 2.64-2.427.589-.816.81-1.543.604-1.991-.096-.214-.285-.36-.558-.441a1.86 1.86 0 00-.523-.066zm-25.922-32.988a.588.588 0 00-.157-.207l-.117-.119-.031.024c-.599-.295-1.839.018-3.092.839-1.515.992-2.487 2.36-2.207 3.087l-.042.032.168.169a.588.588 0 00.025.025l.004.004.001.001a.721.721 0 00.146.103h.002c.592.311 1.844.001 3.111-.83 1.543-1.013 2.523-2.413 2.189-3.128z" fill="#FFA412"/><path d="M106.982 68.894c1.543-1.013 3.065-1.252 3.399-.536.333.716-.647 2.115-2.19 3.127-1.542 1.013-3.064 1.252-3.398.536-.333-.716.647-2.115 2.189-3.127z" fill="#FFB93E"/><path d="M105.875 72.13c-.125 0-.24-.014-.339-.043a.587.587 0 01-.397-.319c-.139-.305-.01-.757.363-1.274.364-.505.92-1.016 1.567-1.44.993-.653 2-.969 2.57-.804a.586.586 0 01.397.319c.139.304.009.757-.363 1.273-.364.506-.921 1.017-1.567 1.442-.818.537-1.646.845-2.231.845zm3.427-3.808c-.559 0-1.381.307-2.172.827-.634.416-1.18.919-1.537 1.413-.344.475-.472.897-.352 1.16a.48.48 0 00.325.257c.09.026.192.038.305.038.56 0 1.381-.307 2.173-.826.634-.417 1.18-.92 1.537-1.414.343-.475.471-.897.351-1.16a.477.477 0 00-.325-.256 1.09 1.09 0 00-.305-.039zm26.608 9.895a.764.764 0 01.201-.263l.151-.153.04.03c.766-.377 2.349.022 3.949 1.071 1.934 1.268 3.176 3.016 2.818 3.944l.055.04-.215.216a.417.417 0 01-.032.031l-.005.006-.002.001a.944.944 0 01-.186.13l-.001.002c-.757.399-2.356.001-3.974-1.06-1.973-1.293-3.225-3.081-2.799-3.995z" fill="#FFA412"/><path d="M140.48 78.672c-1.971-1.291-3.914-1.599-4.34-.685-.426.914.826 2.703 2.797 3.995 1.972 1.291 3.914 1.599 4.34.685.426-.914-.826-2.703-2.797-3.995z" fill="#FFB93E"/><path d="M139.046 81.718c-.824-.543-1.535-1.196-2.001-1.841-.477-.66-.641-1.238-.464-1.627.091-.198.261-.335.508-.406.728-.21 2.015.193 3.282 1.026.824.543 1.536 1.196 2.002 1.842.477.66.641 1.237.463 1.626-.091.198-.261.336-.507.406a1.567 1.567 0 01-.435.055c-.745 0-1.804-.394-2.848-1.08zm-1.917-3.734c-.204.06-.344.169-.415.327-.153.335.011.875.449 1.481.455.632 1.153 1.273 1.963 1.806 1.011.664 2.06 1.056 2.775 1.056.145 0 .276-.016.389-.048.204-.06.343-.17.415-.327.153-.335-.011-.875-.449-1.482-.457-.63-1.153-1.272-1.964-1.805-1.01-.665-2.059-1.056-2.775-1.056a1.339 1.339 0 00-.388.048z" fill="#FFA412"/><path d="M211.521 225.961v2.396a.813.813 0 01-.188.515 1.089 1.089 0 01-.514.346 1.226 1.226 0 01-.393.062h-45.239c-.583 0-1.064-.39-1.093-.875l-.002-.047v-2.395c0-.016 0-.032.002-.047.029-.486.51-.877 1.093-.877h45.239a1.359 1.359 0 01.393.062c.209.068.389.191.514.347a.804.804 0 01.188.513z" fill="#FFD85A"/><path d="M189.305 229.28h-24.237c-.519 0-.95-.39-.976-.875l-.001-.047v-2.395l.001-.047c.026-.486.455-.877.976-.877h21.261c.34 1.249 1.131 2.976 2.976 4.241zm16.711-4.241h-.514v4.243h.514v-4.243zm-1.741 0h-.515v4.243h.515v-4.243zm-2.087 0h-.515v4.243h.515v-4.243zm-3.2 0h-.514v4.243h.514v-4.243zm-3.382 0h-.514v4.243h.514v-4.243zm-5.187 0h-.514v4.243h.514v-4.243z" fill="#F2B42A"/><path d="M185.563 225.039h-.514v4.243h.514v-4.243zm-4.335 0h-.514v4.243h.514v-4.243zm26.443 0h-.514v4.243h.514v-4.243zm1.095 0h-.514v4.243h.514v-4.243zm1.057 0h-.514v4.243h.514v-4.243zm.796.015v4.212c-.064.01-.127.016-.193.016h-.321v-4.243h.321c.066 0 .129.006.193.015zm.714.392v3.427a1.098 1.098 0 01-.514.347v-4.118c.209.067.389.189.514.344z" fill="#F2B42A"/><path d="M206.683 221.718v2.395a.818.818 0 01-.187.515 1.097 1.097 0 01-.515.346 1.08 1.08 0 01-.2.047c-.063.01-.126.016-.193.016h-45.239c-.583 0-1.064-.391-1.093-.875l-.001-.047v-2.396l.001-.047c.031-.486.51-.875 1.093-.875h45.239a1.264 1.264 0 01.124.005l.04.005.029.004c.069.009.137.026.2.047.01.003.02.005.029.009l.028.01.055.022.032.016c.009.004.019.008.027.013a.614.614 0 01.051.028c.02.011.039.024.057.035a.646.646 0 01.073.051.854.854 0 01.1.091l.021.022c.014.016.028.031.04.048.12.146.189.324.189.515z" fill="#FFD85A"/><path d="M184.469 225.037h-24.237c-.521 0-.95-.391-.976-.875l-.001-.047v-2.396l.001-.047c.026-.486.455-.875.976-.875h21.259l.029.104c.356 1.238 1.153 2.905 2.949 4.136zm16.71-4.244h-.515v4.242h.515v-4.242zm-1.742 0h-.514v4.242h.514v-4.242zm-2.087 0h-.514v4.242h.514v-4.242zm-3.198 0h-.514v4.242h.514v-4.242zm-3.383 0h-.514v4.242h.514v-4.242zm-5.186 0h-.514v4.242h.514v-4.242z" fill="#F2B42A"/><path d="M180.726 220.793h-.514v4.242h.514v-4.242zm-4.336 0h-.514v4.242h.514v-4.242zm26.446 0h-.515v4.242h.515v-4.242zm1.094 0h-.514v4.242h.514v-4.242zm1.056 0h-.514v4.242h.514v-4.242zm.796.015v4.212a1.37 1.37 0 01-.193.015h-.322v-4.242h.322c.066 0 .129.006.193.015zm.714.392v3.427a1.097 1.097 0 01-.515.346v-4.118c.211.067.39.19.515.345z" fill="#F2B42A"/><path d="M209.021 217.582v2.395a.819.819 0 01-.187.516 1.099 1.099 0 01-.515.346 1.31 1.31 0 01-.392.062h-45.241a1.24 1.24 0 01-.504-.104c-.32-.141-.549-.412-.585-.73l-.004-.041-.001-.047v-2.395l.001-.047c.03-.486.51-.877 1.093-.877h45.239a1.359 1.359 0 01.393.062c.21.068.389.19.514.347a.8.8 0 01.189.513z" fill="#FFD85A"/><path d="M186.805 220.901h-24.236a1.01 1.01 0 01-.451-.104.921.921 0 01-.522-.73l-.005-.041-.001-.047v-2.395l.001-.047c.027-.486.457-.877.976-.877h21.261c.331 1.214 1.087 2.881 2.827 4.137l.15.104zm16.711-4.241h-.514v4.242h.514v-4.242zm-1.741 0h-.514v4.242h.514v-4.242zm-2.087 0h-.514v4.242h.514v-4.242zm-3.2 0h-.514v4.242h.514v-4.242zm-3.383 0h-.514v4.242h.514v-4.242zm-5.186 0h-.514v4.242h.514v-4.242z" fill="#F2B42A"/><path d="M183.064 216.66h-.514v4.242h.514v-4.242zm-4.336 0h-.514v4.242h.514v-4.242zm26.444 0h-.514v4.242h.514v-4.242zm1.095 0h-.515v4.242h.515v-4.242zm1.057 0h-.514v4.242h.514v-4.242zm.795.015v4.212c-.063.01-.126.015-.193.015h-.321v-4.242h.321c.067 0 .13.006.193.015zm.714.392v3.427a1.089 1.089 0 01-.514.346v-4.117c.21.066.389.189.514.344z" fill="#F2B42A"/><path d="M210.105 213.344v2.396a.818.818 0 01-.187.515 1.094 1.094 0 01-.514.346 1.236 1.236 0 01-.393.062h-45.239c-.584 0-1.065-.39-1.094-.875l-.001-.047v-2.395l.001-.048c.028-.45.442-.817.964-.869.043-.004.085-.007.13-.007h45.239a1.236 1.236 0 01.393.062c.209.068.388.191.514.346a.815.815 0 01.187.514z" fill="#FFD85A"/><path d="M187.889 216.663h-24.237c-.519 0-.949-.39-.976-.875l-.001-.047v-2.395l.001-.048c.025-.448.393-.817.861-.869a1.06 1.06 0 01.115-.007h21.261l.001.007c.342 1.247 1.133 2.97 2.975 4.234zm16.711-4.245h-.514v4.242h.514v-4.242zm-1.741 0h-.514v4.242h.514v-4.242zm-2.087 0h-.515v4.242h.515v-4.242zm-3.199 0h-.514v4.242h.514v-4.242zm-3.383 0h-.514v4.242h.514v-4.242zm-5.187 0h-.514v4.242h.514v-4.242z" fill="#F2B42A"/><path d="M184.148 212.418h-.515v4.242h.515v-4.242zm-4.336 0h-.514v4.242h.514v-4.242zm26.444 0h-.515v4.242h.515v-4.242zm1.094 0h-.514v4.242h.514v-4.242zm1.057 0h-.514v4.242h.514v-4.242zm.796.015v4.212a1.359 1.359 0 01-.193.015h-.321v-4.242h.321c.066 0 .13.006.193.015zm.714.392v3.427a1.089 1.089 0 01-.514.346v-4.118c.209.068.389.19.514.345z" fill="#F2B42A"/><path d="M206.779 209.107v2.395a.811.811 0 01-.188.515 1.098 1.098 0 01-.514.347 1.1 1.1 0 01-.263.055l-.036.003-.036.002c-.019.002-.039.002-.058.002h-45.239c-.583 0-1.064-.391-1.093-.877l-.002-.047v-2.395c0-.015 0-.032.002-.047l.002-.039c.045-.39.381-.713.821-.808l.033-.007c.076-.014.156-.022.237-.022h45.239c.033 0 .066.001.098.004l.044.004a1.19 1.19 0 01.251.054c.209.068.389.191.514.346a.818.818 0 01.188.515z" fill="#FFD85A"/><path d="M184.563 212.426h-24.237c-.52 0-.95-.391-.976-.877l-.001-.047v-2.395l.001-.047c0-.014.001-.026.003-.039.04-.4.351-.727.758-.814.014-.004.028-.005.041-.008.057-.01.115-.015.174-.015h21.26a.568.568 0 01.009.03c.343 1.245 1.134 2.949 2.958 4.205a.2.2 0 00.01.007zm16.711-4.242h-.514v4.242h.514v-4.242zm-1.742 0h-.514v4.242h.514v-4.242zm-2.087 0h-.514v4.242h.514v-4.242zm-3.198 0h-.514v4.242h.514v-4.242zm-3.383 0h-.514v4.242h.514v-4.242zm-5.186 0h-.514v4.242h.514v-4.242z" fill="#F2B42A"/><path d="M180.821 208.184h-.514v4.242h.514v-4.242zm-4.335 0h-.515v4.242h.515v-4.242zm26.445 0h-.514v4.242h.514v-4.242zm1.094 0h-.514v4.242h.514v-4.242zm1.056 0h-.514v4.242h.514v-4.242zm.796.015v4.211c-.064.01-.127.016-.193.016h-.322v-4.242h.322c.066.001.129.005.193.015zm.714.392v3.427a1.092 1.092 0 01-.515.346v-4.118c.211.068.391.19.515.345z" fill="#F2B42A"/><path d="M206.683 204.896v2.395a.818.818 0 01-.187.515 1.097 1.097 0 01-.515.346 1.007 1.007 0 01-.155.04h-.002l-.043.009a1.347 1.347 0 01-.193.015h-45.239c-.048 0-.095-.003-.142-.008l-.053-.007c-.492-.075-.872-.431-.898-.86l-.001-.047v-2.395l.001-.047c.031-.486.51-.875 1.093-.875h45.239l.087.002.037.003.04.004.029.004a1.269 1.269 0 01.229.057l.028.01.055.022c.019.01.04.018.059.029a.416.416 0 01.051.028l.057.034.043.029.002.002a.854.854 0 01.149.134.804.804 0 01.229.561z" fill="#FFD85A"/><path d="M184.469 208.212h-24.237l-.058-.001-.062-.006c-.466-.054-.832-.421-.856-.868l-.001-.047v-2.395l.001-.047c.026-.486.455-.875.976-.875h21.259l.029.104c.352 1.229 1.14 2.878 2.903 4.106l.046.029zm16.71-4.239h-.515v4.242h.515v-4.242zm-1.742 0h-.514v4.242h.514v-4.242zm-2.087 0h-.514v4.242h.514v-4.242zm-3.198 0h-.514v4.242h.514v-4.242zm-3.383 0h-.514v4.242h.514v-4.242zm-5.186 0h-.514v4.242h.514v-4.242z" fill="#F2B42A"/><path d="M180.726 203.973h-.514v4.242h.514v-4.242zm-4.335 0h-.515v4.242h.515v-4.242zm26.445 0h-.515v4.242h.515v-4.242zm1.094 0h-.514v4.242h.514v-4.242zm1.056 0h-.514v4.242h.514v-4.242zm.795.015v4.212a1.345 1.345 0 01-.192.015h-.322v-4.242h.322c.066 0 .129.005.192.015zm.715.392v3.427a1.099 1.099 0 01-.515.346v-4.118c.211.068.391.19.515.345z" fill="#F2B42A"/><path d="M209.022 200.758v2.395a.811.811 0 01-.188.515 1.089 1.089 0 01-.514.346 1.359 1.359 0 01-.393.063h-45.24c-.182 0-.353-.038-.505-.104-.32-.141-.549-.413-.584-.73l-.005-.041-.001-.047v-2.396l.001-.047c.031-.486.51-.876 1.094-.876h45.239a1.236 1.236 0 01.393.062c.209.068.388.19.514.346.12.146.189.323.189.514z" fill="#FFD85A"/><path d="M186.805 204.073h-24.236a1.01 1.01 0 01-.451-.104.921.921 0 01-.522-.729l-.005-.042-.001-.047v-2.395l.001-.047c.027-.486.457-.877.976-.877h21.261c.331 1.214 1.087 2.881 2.827 4.137l.15.104zm16.711-4.241h-.514v4.242h.514v-4.242zm-1.741 0h-.514v4.242h.514v-4.242zm-2.087 0h-.514v4.242h.514v-4.242zm-3.2 0h-.514v4.242h.514v-4.242zm-3.383 0h-.514v4.242h.514v-4.242zm-5.186 0h-.514v4.242h.514v-4.242z" fill="#F2B42A"/><path d="M183.064 199.832h-.514v4.242h.514v-4.242zm-4.336 0h-.514v4.242h.514v-4.242zm26.444 0h-.514v4.242h.514v-4.242zm1.095 0h-.515v4.242h.515v-4.242zm1.057 0h-.514v4.242h.514v-4.242zm.795.015v4.212c-.063.01-.126.015-.193.015h-.321v-4.242h.321c.067 0 .13.006.193.015zm.714.392v3.427a1.089 1.089 0 01-.514.346v-4.117c.21.067.389.189.514.344z" fill="#F2B42A"/><path d="M212.717 196.52v2.395a.816.816 0 01-.187.515 1.097 1.097 0 01-.515.346 1.08 1.08 0 01-.2.047c-.063.01-.126.016-.193.016h-45.239c-.583 0-1.064-.391-1.093-.875l-.001-.047v-2.396l.001-.047c.028-.448.441-.817.964-.869.043-.005.085-.007.129-.007h45.239a1.217 1.217 0 01.393.062 1.1 1.1 0 01.515.346.813.813 0 01.187.514z" fill="#FFD85A"/><path d="M190.503 199.839h-24.237c-.519 0-.95-.391-.976-.875l-.001-.047v-2.396l.001-.047c.025-.448.393-.817.86-.869a.882.882 0 01.116-.007h21.26l.002.007c.34 1.247 1.132 2.97 2.975 4.234zm16.709-4.245h-.514v4.242h.514v-4.242zm-1.739 0h-.515v4.242h.515v-4.242zm-2.088 0h-.514v4.242h.514v-4.242zm-3.199 0h-.514v4.242h.514v-4.242zm-3.383 0h-.514v4.242h.514v-4.242zm-5.186 0h-.514v4.242h.514v-4.242z" fill="#F2B42A"/><path d="M186.761 195.594h-.514v4.242h.514v-4.242zm-4.335 0h-.514v4.242h.514v-4.242zm26.443 0h-.514v4.242h.514v-4.242zm1.095 0h-.514v4.242h.514v-4.242zm1.058 0h-.515v4.242h.515v-4.242zm.795.015v4.212c-.063.01-.127.015-.193.015h-.321v-4.242h.321c.065 0 .13.005.193.015zm.714.392v3.427a1.089 1.089 0 01-.514.346v-4.118c.209.068.389.19.514.345z" fill="#F2B42A"/><path d="M206.778 192.281v2.396a.818.818 0 01-.187.515 1.1 1.1 0 01-.514.346 1.1 1.1 0 01-.264.055l-.051.004-.025.002-.053.001h-45.239c-.583 0-1.065-.39-1.094-.876l-.001-.047v-2.396l.001-.047c.029-.486.511-.875 1.094-.875h45.239a1.013 1.013 0 01.193.016 1.1 1.1 0 01.295.083l.056.025.006.002.055.029.01.006c.016.01.033.019.049.03a.994.994 0 01.139.108c.002.002.005.003.006.006.007.005.012.011.019.018l.004.004.032.033.044.05a.809.809 0 01.186.512z" fill="#FFD85A"/><path d="M184.563 195.6h-24.237c-.52 0-.95-.39-.976-.876l-.001-.047v-2.396l.001-.047c.026-.486.455-.875.976-.875h21.26l.028.099c.353 1.237 1.148 2.904 2.939 4.136l.01.006zm16.711-4.241h-.514v4.242h.514v-4.242zm-1.742 0h-.514v4.242h.514v-4.242zm-2.087 0h-.514v4.242h.514v-4.242zm-3.198 0h-.514v4.242h.514v-4.242zm-3.383 0h-.514v4.242h.514v-4.242zm-5.186 0h-.514v4.242h.514v-4.242z" fill="#F2B42A"/><path d="M180.821 191.359h-.514v4.242h.514v-4.242zm-4.335 0h-.515v4.242h.515v-4.242zm26.445 0h-.514v4.242h.514v-4.242zm1.094 0h-.514v4.242h.514v-4.242zm1.056 0h-.514v4.242h.514v-4.242zm.796.016v4.211c-.064.01-.127.015-.193.015h-.322v-4.242h.322c.066 0 .129.006.193.016zm.714.396v3.426a1.092 1.092 0 01-.515.346v-4.117c.211.068.391.189.515.345z" fill="#F2B42A"/><path d="M210.105 188.133v2.395a.813.813 0 01-.188.515 1.089 1.089 0 01-.514.346 1.08 1.08 0 01-.2.047c-.063.01-.127.016-.193.016h-45.239c-.175 0-.342-.035-.489-.099-.33-.14-.566-.416-.601-.739a.24.24 0 01-.003-.037l-.001-.048v-2.395l.001-.047c.027-.45.441-.817.964-.869.042-.004.085-.007.129-.007h45.239a1.226 1.226 0 01.393.062c.21.068.389.191.514.346a.81.81 0 01.188.514z" fill="#FFD85A"/><path d="M187.889 191.452h-24.236a.987.987 0 01-.436-.099.925.925 0 01-.539-.776l-.001-.048v-2.395l.001-.047c.025-.448.393-.817.86-.869a1.08 1.08 0 01.116-.007h21.26l.002.007c.332 1.215 1.091 2.882 2.835 4.137l.138.097zm16.711-4.241h-.514v4.242h.514v-4.242zm-1.741 0h-.514v4.242h.514v-4.242zm-2.087 0h-.514v4.242h.514v-4.242zm-3.198 0h-.515v4.242h.515v-4.242zm-3.384 0h-.514v4.242h.514v-4.242zm-5.187 0h-.514v4.242h.514v-4.242z" fill="#F2B42A"/><path d="M184.148 187.211h-.514v4.242h.514v-4.242zm-4.336 0h-.514v4.242h.514v-4.242zm26.444 0h-.515v4.242h.515v-4.242zm1.094 0h-.514v4.242h.514v-4.242zm1.058 0h-.514v4.242h.514v-4.242zm.795.015v4.212c-.063.01-.127.015-.193.015h-.321v-4.242h.321c.066 0 .13.005.193.015zm.714.392v3.427a1.089 1.089 0 01-.514.346v-4.118c.209.068.389.19.514.345z" fill="#F2B42A"/><path d="M211.521 183.901v2.396a.818.818 0 01-.187.515 1.104 1.104 0 01-.515.346 1.1 1.1 0 01-.2.047l-.063.008-.036.003-.036.001c-.019.002-.038.002-.058.002h-45.239c-.583 0-1.064-.391-1.093-.877l-.001-.047V183.9l.001-.047c.029-.486.51-.876 1.093-.876h45.239a1.217 1.217 0 01.393.062 1.1 1.1 0 01.515.346c.118.15.187.327.187.516z" fill="#FFD85A"/><path d="M189.305 187.223h-24.237c-.519 0-.95-.39-.976-.876l-.001-.047v-2.396l.001-.047c.026-.486.455-.877.976-.877h21.261c.339 1.247 1.127 2.971 2.966 4.236a.03.03 0 00.01.007zm16.711-4.246h-.514v4.241h.514v-4.241zm-1.741 0h-.515v4.241h.515v-4.241zm-2.087 0h-.515v4.241h.515v-4.241zm-3.199 0h-.514v4.241h.514v-4.241zm-3.383 0h-.514v4.241h.514v-4.241zm-5.187 0h-.515v4.241h.515v-4.241z" fill="#F2B42A"/><path d="M185.563 182.977h-.514v4.241h.514v-4.241zm-4.335.003h-.514v4.243h.514v-4.243zm26.443-.003h-.514v4.241h.514v-4.241zm1.095 0h-.514v4.241h.514v-4.241zm1.057 0h-.514v4.241h.514v-4.241zm.796.015v4.211c-.064.01-.127.015-.193.015h-.321v-4.241h.321c.066.001.129.005.193.015zm.714.392v3.427a1.089 1.089 0 01-.514.346v-4.118a1.1 1.1 0 01.514.345z" fill="#F2B42A"/><path d="M209.167 179.576v2.395a.813.813 0 01-.188.515 1.089 1.089 0 01-.514.346 1.006 1.006 0 01-.2.047c-.063.01-.126.016-.193.016h-45.239c-.583 0-1.064-.391-1.093-.877l-.001-.047v-2.395l.001-.047c.03-.486.51-.877 1.093-.877h45.239c.067 0 .13.006.193.016.069.009.137.026.2.047.21.067.389.191.514.346a.816.816 0 01.188.515z" fill="#FFD85A"/><path d="M186.953 182.895h-24.237c-.52 0-.95-.391-.976-.877l-.001-.047v-2.395l.001-.047c.026-.486.456-.877.976-.877h21.26c.339 1.251 1.131 2.977 2.977 4.243zm16.709-4.243h-.514v4.243h.514v-4.243zm-1.739 0h-.515v4.243h.515v-4.243zm-2.087 0h-.515v4.243h.515v-4.243zm-3.2 0h-.514v4.243h.514v-4.243zm-3.383 0h-.514v4.243h.514v-4.243zm-5.186 0h-.515v4.243h.515v-4.243z" fill="#F2B42A"/><path d="M183.21 178.652h-.514v4.243h.514v-4.243zm-4.336.004h-.514v4.243h.514v-4.243zm26.445-.004h-.514v4.243h.514v-4.243zm1.095 0h-.514v4.243h.514v-4.243zm1.056 0h-.514v4.243h.514v-4.243zm.795.016v4.211c-.063.01-.126.016-.193.016h-.321v-4.243h.321c.067.002.131.006.193.016zm.714.392v3.427a1.089 1.089 0 01-.514.346v-4.118c.211.068.39.19.514.345z" fill="#F2B42A"/><path d="M204.331 175.343v2.395a.818.818 0 01-.187.515 1.097 1.097 0 01-.515.346 1.08 1.08 0 01-.2.047c-.063.01-.126.016-.193.016h-45.239c-.583 0-1.064-.391-1.093-.875l-.001-.047v-2.396l.001-.047c.031-.486.51-.875 1.093-.875h45.239a1.264 1.264 0 01.124.005l.04.005.029.004c.069.009.137.026.2.047.01.003.02.005.029.009l.028.01.055.022.032.016c.009.004.019.008.027.013a.614.614 0 01.051.028c.02.011.039.024.057.035a.646.646 0 01.045.03l.028.021c.027.022.055.044.08.069a.447.447 0 01.022.021l.021.022.04.047a.826.826 0 01.187.517z" fill="#FFD85A"/><path d="M182.115 178.662h-24.236c-.521 0-.95-.391-.976-.875l-.002-.047v-2.396c0-.017 0-.032.002-.047.026-.486.455-.875.976-.875h21.26l.03.105c.355 1.235 1.151 2.904 2.946 4.135zm16.71-4.24h-.514v4.242h.514v-4.242zm-1.74 0h-.514v4.242h.514v-4.242zm-2.087 0h-.514v4.242h.514v-4.242zm-3.2 0h-.514v4.242h.514v-4.242zm-3.383 0h-.514v4.242h.514v-4.242zm-5.186 0h-.514v4.242h.514v-4.242z" fill="#F2B42A"/><path d="M178.374 174.422h-.514v4.242h.514v-4.242zm-4.337 0h-.514v4.242h.514v-4.242zm26.445 0h-.514v4.242h.514v-4.242zm1.095 0h-.515v4.242h.515v-4.242zm1.057 0h-.514v4.242h.514v-4.242zm.795.015v4.212c-.063.01-.127.015-.193.015h-.321v-4.242h.321c.065 0 .13.005.193.015zm.713.392v3.427a1.089 1.089 0 01-.514.346v-4.118c.211.068.39.19.514.345z" fill="#F2B42A"/><path d="M206.668 171.209v2.395a.813.813 0 01-.188.515 1.089 1.089 0 01-.514.346 1.226 1.226 0 01-.393.062h-45.239c-.182 0-.353-.037-.504-.105-.32-.141-.549-.412-.585-.729l-.004-.042-.001-.047v-2.395l.001-.047c.03-.486.51-.877 1.093-.877h45.239a1.359 1.359 0 01.393.062c.21.068.389.19.514.347a.811.811 0 01.188.515z" fill="#FFD85A"/><path d="M184.452 174.527h-24.237a.997.997 0 01-.45-.105.926.926 0 01-.523-.729l-.004-.042-.001-.047v-2.395l.001-.047c.026-.486.456-.877.976-.877h21.262c.33 1.214 1.087 2.881 2.827 4.137l.149.105zm16.711-4.242h-.514v4.242h.514v-4.242zm-1.741 0h-.515v4.242h.515v-4.242zm-2.087 0h-.514v4.242h.514v-4.242zm-3.199 0h-.514v4.242h.514v-4.242zm-3.383 0h-.514v4.242h.514v-4.242zm-5.186 0h-.514v4.242h.514v-4.242z" fill="#F2B42A"/><path d="M180.711 170.285h-.515v4.242h.515v-4.242zm-4.336 0h-.514v4.242h.514v-4.242zm26.445 0h-.514v4.242h.514v-4.242zm1.094 0h-.514v4.242h.514v-4.242zm1.057 0h-.515v4.242h.515v-4.242zm.795.015v4.212c-.064.01-.127.015-.193.015h-.321v-4.242h.321c.066 0 .131.006.193.015zm.714.392v3.427a1.089 1.089 0 01-.514.346v-4.117c.211.067.39.189.514.344z" fill="#F2B42A"/><path d="M207.751 166.961v2.395a.816.816 0 01-.187.515 1.093 1.093 0 01-.515.347 1.283 1.283 0 01-.392.062h-45.239c-.584 0-1.065-.391-1.094-.875l-.001-.047v-2.395l.001-.048c.028-.45.442-.816.964-.869.043-.004.085-.007.13-.007h45.239a1.37 1.37 0 01.392.062 1.1 1.1 0 01.515.346.813.813 0 01.187.514z" fill="#FFD85A"/><path d="M185.537 170.28H161.3c-.519 0-.949-.391-.976-.875l-.001-.047v-2.395l.001-.048c.025-.448.393-.816.861-.869a1.06 1.06 0 01.115-.007h21.261l.001.007c.341 1.246 1.132 2.97 2.975 4.234zm16.71-4.237h-.515v4.242h.515v-4.242zm-1.74 0h-.514v4.242h.514v-4.242zm-2.089 0h-.514v4.242h.514v-4.242zm-3.198 0h-.514v4.242h.514v-4.242zm-3.383 0h-.514v4.242h.514v-4.242zm-5.186 0h-.514v4.242h.514v-4.242z" fill="#F2B42A"/><path d="M181.794 166.043h-.514v4.242h.514v-4.242zm-4.336 0h-.514v4.242h.514v-4.242zm26.446 0h-.515v4.242h.515v-4.242zm1.094 0h-.514v4.242h.514v-4.242zm1.056 0h-.514v4.242h.514v-4.242zm.795.015v4.212c-.063.01-.126.015-.193.015h-.321v-4.242h.321c.067 0 .131.006.193.015zm.715.392v3.427a1.092 1.092 0 01-.515.346v-4.118c.211.068.391.19.515.345z" fill="#F2B42A"/><path d="M204.425 162.734v2.395a.813.813 0 01-.188.515 1.089 1.089 0 01-.514.346 1.08 1.08 0 01-.2.047l-.063.009-.036.002c-.011.002-.023.002-.036.002l-.058.001h-45.239c-.583 0-1.064-.39-1.093-.876l-.001-.047v-2.396a.737.737 0 01.004-.086c.044-.39.38-.713.82-.808l.033-.007c.076-.014.156-.022.237-.022h45.239c.033 0 .066.001.098.004l.044.004a1.167 1.167 0 01.251.054c.21.068.389.191.514.346.119.15.188.325.188.517z" fill="#FFD85A"/><path d="M182.211 166.055h-24.237c-.52 0-.95-.39-.976-.876l-.001-.048v-2.395l.001-.047c0-.014.001-.026.003-.039.04-.4.351-.727.758-.814a1.005 1.005 0 01.215-.024h21.26l.009.031c.343 1.245 1.134 2.949 2.958 4.205a.03.03 0 00.01.007zm16.709-4.246h-.514v4.242h.514v-4.242zm-1.739 0h-.515v4.242h.515v-4.242zm-2.088 0h-.514v4.242h.514v-4.242zm-3.199 0h-.515v4.242h.515v-4.242zm-3.384 0h-.514v4.242h.514v-4.242zm-5.185 0h-.515v4.242h.515v-4.242z" fill="#F2B42A"/><path d="M178.469 161.809h-.514v4.242h.514v-4.242zm-4.337 0h-.514v4.242h.514v-4.242zm26.445 0h-.514v4.242h.514v-4.242zm1.095 0h-.515v4.242h.515v-4.242zm1.057 0h-.514v4.242h.514v-4.242zm.795.015v4.212c-.063.01-.126.015-.193.015h-.321v-4.242h.321c.065 0 .13.005.193.015zm.713.392v3.427a1.089 1.089 0 01-.514.346v-4.118c.211.068.39.19.514.345z" fill="#F2B42A"/><path d="M204.331 158.517v2.395a.811.811 0 01-.188.515 1.098 1.098 0 01-.514.347c-.049.016-.103.03-.156.04h-.001a1.217 1.217 0 01-.236.023h-45.239a1.337 1.337 0 01-.195-.015c-.492-.075-.872-.431-.898-.86l-.001-.047v-2.395l.001-.047c.031-.486.51-.875 1.093-.875h45.239l.087.002.037.003.04.004.029.004a1.168 1.168 0 01.229.057l.028.01.055.022c.021.01.04.018.059.029a2.866 2.866 0 01.108.062.764.764 0 01.073.053c.027.022.055.044.08.069l.022.021.02.022a.813.813 0 01.228.561z" fill="#FFD85A"/><path d="M182.115 161.837h-24.236l-.058-.001-.062-.006c-.466-.054-.831-.421-.856-.868l-.002-.047v-2.395c0-.017 0-.032.002-.047.026-.486.455-.875.976-.875h21.26l.03.105c.352 1.229 1.139 2.878 2.904 4.107l.042.027zm16.71-4.243h-.514v4.242h.514v-4.242zm-1.74 0h-.514v4.242h.514v-4.242zm-2.087 0h-.514v4.242h.514v-4.242zm-3.2 0h-.514v4.242h.514v-4.242zm-3.383 0h-.514v4.242h.514v-4.242zm-5.186 0h-.514v4.242h.514v-4.242z" fill="#F2B42A"/><path d="M178.374 157.594h-.514v4.242h.514v-4.242zm-4.337.004h-.514v4.242h.514v-4.242zm26.445-.004h-.514v4.242h.514v-4.242zm1.094 0h-.514v4.242h.514v-4.242zm1.058 0h-.514v4.242h.514v-4.242zm.795.015v4.212c-.063.01-.127.015-.193.015h-.321v-4.242h.321c.065.001.13.005.193.015zm.713.392v3.427a1.089 1.089 0 01-.514.346v-4.118c.211.068.39.19.514.345z" fill="#F2B42A"/><path d="M206.668 154.381v2.395a.811.811 0 01-.188.515 1.089 1.089 0 01-.514.346 1.359 1.359 0 01-.393.063h-45.239c-.182 0-.353-.038-.504-.105-.32-.142-.549-.413-.585-.73l-.004-.042-.001-.047v-2.395l.001-.047c.03-.486.51-.877 1.093-.877h45.239a1.359 1.359 0 01.393.062c.209.068.389.191.514.347a.816.816 0 01.188.515z" fill="#FFD85A"/><path d="M184.452 157.7h-24.237a1.01 1.01 0 01-.45-.105.93.93 0 01-.523-.73l-.004-.042-.001-.047v-2.395l.001-.047c.026-.486.456-.877.976-.877h21.262c.33 1.214 1.087 2.882 2.827 4.138l.149.105zm16.711-4.243h-.514v4.242h.514v-4.242zm-1.741 0h-.515v4.242h.515v-4.242zm-2.088 0h-.514v4.242h.514v-4.242zm-3.198 0h-.514v4.242h.514v-4.242zm-3.383 0h-.514v4.242h.514v-4.242zm-5.186 0h-.514v4.242h.514v-4.242z" fill="#F2B42A"/><path d="M180.711 153.457h-.515v4.242h.515v-4.242zm-4.336 0h-.514v4.243h.514v-4.243zm26.445 0h-.514v4.242h.514v-4.242zm1.094 0h-.514v4.242h.514v-4.242zm1.057 0h-.515v4.242h.515v-4.242zm.795.015v4.212c-.064.01-.127.015-.193.015h-.321v-4.242h.321c.066.001.131.006.193.015zm.714.392v3.428a1.096 1.096 0 01-.514.346v-4.118c.211.067.39.189.514.344z" fill="#F2B42A"/><path d="M210.365 150.141v2.395a.818.818 0 01-.187.515 1.089 1.089 0 01-.514.346 1.1 1.1 0 01-.2.047c-.064.01-.127.016-.193.016h-45.239c-.583 0-1.064-.391-1.093-.875l-.002-.048v-2.395c0-.015 0-.032.002-.047.027-.448.441-.817.963-.869.043-.004.086-.007.13-.007h45.239a1.236 1.236 0 01.393.062c.209.068.388.191.514.346a.813.813 0 01.187.514z" fill="#FFD85A"/><path d="M188.149 153.46h-24.236c-.52 0-.95-.391-.976-.875l-.002-.048v-2.395c0-.015 0-.032.002-.047.024-.448.393-.817.86-.869a1.08 1.08 0 01.116-.007h21.26l.001.007c.342 1.246 1.134 2.969 2.975 4.234zm16.711-4.237h-.514v4.242h.514v-4.242zm-1.741 0h-.514v4.242h.514v-4.242zm-2.087 0h-.514v4.242h.514v-4.242zm-3.198 0h-.514v4.242h.514v-4.242zm-3.383 0h-.514v4.242h.514v-4.242zm-5.186 0h-.515v4.242h.515v-4.242z" fill="#F2B42A"/><path d="M184.408 149.223h-.514v4.242h.514v-4.242zm-4.336 0h-.514v4.242h.514v-4.242zm26.445 0h-.514v4.242h.514v-4.242zm1.095 0h-.514v4.242h.514v-4.242zm1.056 0h-.514v4.242h.514v-4.242zm.795.015v4.212a1.347 1.347 0 01-.193.015h-.321v-4.242h.321c.067 0 .13.005.193.015zm.714.392v3.427a1.089 1.089 0 01-.514.346v-4.118c.211.068.389.19.514.345z" fill="#F2B42A"/><path d="M288.204 225.832v2.395a.822.822 0 01-.187.517 1.076 1.076 0 01-.514.344 1.06 1.06 0 01-.2.048 1.133 1.133 0 01-.195.015h-45.239c-.546 0-1.003-.342-1.083-.785-.006-.029-.008-.061-.01-.092v-2.49c.002-.029.004-.061.01-.089.08-.443.537-.785 1.083-.785h45.239a1.261 1.261 0 01.395.061c.21.068.388.19.514.346a.83.83 0 01.187.515z" fill="#FFD85A"/><path d="M265.987 229.151h-24.235a.969.969 0 01-.966-.785c-.006-.029-.008-.061-.01-.092v-2.49c.002-.029.004-.061.01-.089a.97.97 0 01.966-.785h21.26c.339 1.248 1.131 2.975 2.975 4.241zm16.711-4.241h-.514v4.242h.514v-4.242zm-1.74 0h-.514v4.242h.514v-4.242zm-2.087 0h-.514v4.242h.514v-4.242zm-3.199 0h-.515v4.242h.515v-4.242zm-3.383 0h-.515v4.242h.515v-4.242zm-5.187 0h-.514v4.242h.514v-4.242z" fill="#F2B42A"/><path d="M262.246 224.91h-.514v4.242h.514v-4.242zm-4.336 0h-.514v4.242h.514v-4.242zm26.445 0h-.514v4.242h.514v-4.242zm1.095 0h-.514v4.242h.514v-4.242zm1.057 0h-.514v4.242h.514v-4.242zm.794.015v4.212a1.359 1.359 0 01-.193.015h-.321v-4.242h.321c.066.002.131.007.193.015zm.715.392v3.427a1.098 1.098 0 01-.515.347v-4.118c.211.068.39.189.515.344z" fill="#F2B42A"/><path d="M283.365 221.594v2.396a.81.81 0 01-.186.513 1.065 1.065 0 01-.514.346 1.13 1.13 0 01-.201.047l-.095.012c-.033.002-.065.004-.098.004h-45.239c-.546 0-1.004-.344-1.084-.787-.005-.029-.008-.059-.011-.088l-.001-.047v-2.396l.001-.047a.656.656 0 01.011-.089c.08-.444.538-.786 1.084-.786h45.239c.029 0 .059.001.087.003l.031.002h.005l.041.005.028.004c.068.011.136.025.201.047l.027.008.028.011.021.008.034.014c.01.004.021.011.03.016a.036.036 0 01.009.004.108.108 0 01.019.008c.018.008.034.018.052.028.046.026.089.057.129.087.019.015.037.029.053.044.04.036.078.075.109.115.123.15.19.327.19.518z" fill="#FFD85A"/><path d="M261.151 224.913h-24.235a.97.97 0 01-.979-.877l-.001-.047v-2.395l.001-.047a.656.656 0 01.038-.19.968.968 0 01.94-.685h21.259c.011.034.019.069.029.104.183.641.486 1.397.984 2.149a7.281 7.281 0 001.964 1.988zm16.71-4.241h-.514v4.242h.514v-4.242zm-1.74 0h-.514v4.242h.514v-4.242zm-2.087 0h-.514v4.242h.514v-4.242zm-3.2 0h-.514v4.242h.514v-4.242zm-3.382 0h-.515v4.242h.515v-4.242zm-5.187 0h-.514v4.242h.514v-4.242z" fill="#F2B42A"/><path d="M257.41 220.672h-.514v4.242h.514v-4.242zm-4.337 0h-.514v4.242h.514v-4.242zm26.445 0h-.514v4.242h.514v-4.242zm1.095 0h-.515v4.242h.515v-4.242zm1.057 0h-.514v4.242h.514v-4.242zm.795.015v4.212c-.063.01-.127.015-.193.015h-.321v-4.242h.321c.065 0 .13.005.193.015zm.714.392v3.427a1.089 1.089 0 01-.514.346v-4.118c.21.067.389.19.514.345z" fill="#F2B42A"/><path d="M285.703 217.46v2.395a.821.821 0 01-.186.517 1.08 1.08 0 01-.514.344.98.98 0 01-.201.047 1.02 1.02 0 01-.193.016H239.37c-.182 0-.354-.038-.505-.104-.319-.141-.548-.414-.584-.73a.184.184 0 01-.004-.041l-.002-.047v-2.396l.002-.047a.441.441 0 01.011-.088c.08-.444.537-.787 1.083-.787h45.239a1.359 1.359 0 01.395.062c.208.068.387.191.514.347a.807.807 0 01.184.512z" fill="#FFD85A"/><path d="M263.489 220.776h-24.238c-.161 0-.315-.037-.45-.104a.928.928 0 01-.522-.729c-.002-.014-.004-.027-.004-.042l-.001-.047v-2.395l.001-.047c.002-.029.004-.06.011-.089a.97.97 0 01.965-.788h21.262a7.82 7.82 0 00.656 1.656 7.256 7.256 0 002.17 2.481l.15.104zm16.71-4.241h-.514v4.243h.514v-4.243zm-1.74 0h-.514v4.243h.514v-4.243zm-2.087 0h-.514v4.243h.514v-4.243zm-3.2 0h-.514v4.243h.514v-4.243zm-3.383 0h-.514v4.243h.514v-4.243zm-5.186 0h-.514v4.243h.514v-4.243z" fill="#F2B42A"/><path d="M259.746 216.535h-.514v4.243h.514v-4.243zm-4.335 0h-.514v4.243h.514v-4.243zm26.445 0h-.514v4.243h.514v-4.243zm1.094 0h-.514v4.243h.514v-4.243zm1.056 0h-.514v4.243h.514v-4.243zm.796.015v4.213a1.37 1.37 0 01-.193.015h-.321v-4.243h.321c.066 0 .131.006.193.015zm.714.392v3.427a1.089 1.089 0 01-.514.346v-4.117c.211.066.39.188.514.344z" fill="#F2B42A"/><path d="M286.787 213.214v2.395a.809.809 0 01-.187.515 1.11 1.11 0 01-.713.393c-.032.005-.064.007-.095.012l-.098.002h-45.239c-.546 0-1.004-.342-1.084-.785-.005-.027-.008-.059-.011-.088l-.001-.047v-2.396l.001-.047c.002-.028.004-.057.009-.083.068-.411.464-.737.955-.786.043-.005.085-.006.131-.006h45.239a1.224 1.224 0 01.394.062c.208.067.388.19.513.345a.799.799 0 01.186.514z" fill="#FFD85A"/><path d="M264.573 216.531h-24.237a.97.97 0 01-.965-.785c-.005-.027-.008-.059-.011-.088l-.001-.047v-2.396l.001-.047c.002-.028.004-.057.009-.083.062-.41.414-.737.85-.786a.902.902 0 01.116-.006h21.262l.001.006c.117.427.287.912.536 1.416a7.288 7.288 0 002.439 2.816zm16.709-4.242h-.514v4.242h.514v-4.242zm-1.739 0h-.514v4.242h.514v-4.242zm-2.087 0h-.515v4.242h.515v-4.242zm-3.2 0h-.514v4.242h.514v-4.242zm-3.383 0h-.514v4.242h.514v-4.242zm-5.186 0h-.514v4.242h.514v-4.242z" fill="#F2B42A"/><path d="M260.83 212.289h-.514v4.242h.514v-4.242zm-4.335 0h-.515v4.242h.515v-4.242zm26.445 0h-.515v4.242h.515v-4.242zm1.094 0h-.514v4.242h.514v-4.242zm1.056 0h-.514v4.242h.514v-4.242zm.796.015v4.212c-.064.01-.127.015-.193.015h-.322v-4.242h.322c.066 0 .131.006.193.015zm.714.392v3.427a1.102 1.102 0 01-.515.346v-4.117c.211.067.391.189.515.344z" fill="#F2B42A"/><path d="M283.462 208.97v2.396a.823.823 0 01-.187.516 1.083 1.083 0 01-.515.345 1.109 1.109 0 01-.199.047l-.064.008h-.008a.43.43 0 01-.062.004c-.019.002-.039.002-.059.002h-45.239c-.546 0-1.004-.342-1.084-.785-.006-.029-.008-.061-.011-.092v-2.49c.001-.013.003-.025.003-.039.044-.391.38-.712.821-.807a1.333 1.333 0 01.271-.028h45.239a1.5 1.5 0 01.097.003c.016.001.029.001.043.004h.002l.052.005c.067.011.136.027.2.047.211.068.39.191.514.347.116.15.186.328.186.517z" fill="#FFD85A"/><path d="M261.246 212.292h-24.235a.972.972 0 01-.968-.785c-.005-.029-.008-.061-.011-.092v-2.491a.225.225 0 00.003-.038c.04-.399.353-.727.76-.813a1.095 1.095 0 01.215-.022h21.26l.008.029c.342 1.245 1.135 2.949 2.959 4.205a.035.035 0 00.009.007zm16.71-4.245h-.514v4.242h.514v-4.242zm-1.74 0h-.514v4.242h.514v-4.242zm-2.087 0h-.514v4.242h.514v-4.242zm-3.2 0h-.514v4.242h.514v-4.242zm-3.383 0h-.514v4.242h.514v-4.242zm-5.186 0h-.514v4.242h.514v-4.242z" fill="#F2B42A"/><path d="M257.505 208.047h-.514v4.242h.514v-4.242zm-4.336.004h-.514v4.242h.514v-4.242zm26.444-.004h-.514v4.242h.514v-4.242zm1.095 0h-.515v4.242h.515v-4.242zm1.057 0h-.514v4.242h.514v-4.242zm.795.015v4.212c-.063.01-.127.015-.193.015h-.321v-4.242h.321c.065.001.13.005.193.015zm.714.392v3.427a1.089 1.089 0 01-.514.346v-4.118c.21.068.389.19.514.345z" fill="#F2B42A"/><path d="M283.366 204.768v2.396a.821.821 0 01-.187.516 1.085 1.085 0 01-.514.345 1.567 1.567 0 01-.157.04h-.001l-.043.007a1.48 1.48 0 01-.193.015h-45.239c-.047 0-.096-.003-.142-.008-.018-.002-.036-.003-.054-.007-.46-.069-.824-.386-.889-.781a.705.705 0 01-.008-.079l-.001-.047v-2.395l.001-.047a.442.442 0 01.011-.089c.08-.444.538-.786 1.083-.786h45.239l.087.002c.003 0 .007 0 .011.002a.2.2 0 01.025.001l.041.004.028.005c.069.009.136.026.201.047l.028.008.027.011.021.008a.51.51 0 01.035.014l.002.001a1.108 1.108 0 01.237.144c.02.016.038.03.054.045.017.015.033.029.047.045l.021.023.041.045c.12.146.188.324.188.515z" fill="#FFD85A"/><path d="M261.151 208.087h-24.235l-.058-.001c-.022-.002-.042-.003-.062-.006-.438-.051-.788-.379-.847-.789-.005-.026-.007-.053-.009-.079l-.001-.047v-2.395l.001-.047c.002-.029.004-.061.011-.089a.97.97 0 01.967-.786h21.259c.011.034.019.069.029.103.352 1.23 1.14 2.879 2.904 4.108.013.007.026.017.041.028zm16.71-4.239h-.514v4.242h.514v-4.242zm-1.74 0h-.514v4.242h.514v-4.242zm-2.087 0h-.514v4.242h.514v-4.242zm-3.2 0h-.514v4.242h.514v-4.242zm-3.382 0h-.515v4.242h.515v-4.242zm-5.187 0h-.514v4.242h.514v-4.242z" fill="#F2B42A"/><path d="M257.41 203.848h-.514v4.242h.514v-4.242zm-4.337 0h-.514v4.242h.514v-4.242zm26.445 0h-.514v4.242h.514v-4.242zm1.095 0h-.515v4.242h.515v-4.242zm1.057 0h-.514v4.242h.514v-4.242zm.795.015v4.211c-.063.01-.126.016-.193.016h-.321v-4.242h.321c.065 0 .13.005.193.015zm.715.392v3.426a1.092 1.092 0 01-.515.346v-4.117c.21.068.389.19.515.345z" fill="#F2B42A"/><path d="M285.703 200.628v2.395a.814.814 0 01-.186.515 1.084 1.084 0 01-.514.346 1.128 1.128 0 01-.201.046l-.095.012a1.603 1.603 0 01-.098.003H239.37c-.182 0-.354-.037-.505-.104-.319-.141-.548-.414-.584-.73a.178.178 0 01-.004-.041l-.002-.046v-2.395l.002-.047a.442.442 0 01.011-.089c.08-.444.537-.786 1.083-.786h45.239a1.236 1.236 0 01.395.062c.208.068.387.19.514.345a.81.81 0 01.184.514z" fill="#FFD85A"/><path d="M263.489 203.945h-24.238c-.161 0-.315-.037-.45-.104a.928.928 0 01-.526-.771l-.001-.046v-2.395l.001-.047c.002-.029.004-.061.011-.089a.968.968 0 01.965-.786h21.262c.329 1.214 1.086 2.881 2.826 4.137.051.033.099.066.15.101zm16.71-4.242h-.514v4.243h.514v-4.243zm-1.74 0h-.514v4.243h.514v-4.243zm-2.087 0h-.514v4.243h.514v-4.243zm-3.2 0h-.514v4.243h.514v-4.243zm-3.383 0h-.514v4.243h.514v-4.243zm-5.186 0h-.514v4.243h.514v-4.243z" fill="#F2B42A"/><path d="M259.746 199.703h-.514v4.243h.514v-4.243zm-4.335 0h-.514v4.243h.514v-4.243zm26.445 0h-.514v4.243h.514v-4.243zm1.094 0h-.514v4.243h.514v-4.243zm1.056 0h-.514v4.243h.514v-4.243zm.796.015v4.213a1.37 1.37 0 01-.193.015h-.321v-4.243h.321c.066 0 .131.006.193.015zm.714.392v3.427a1.09 1.09 0 01-.514.347v-4.118c.211.067.39.189.514.344z" fill="#F2B42A"/><path d="M289.401 196.393v2.396a.826.826 0 01-.186.515l-.051.056c-.12.129-.28.23-.464.29a1.295 1.295 0 01-.394.062h-45.239c-.546 0-1.003-.342-1.083-.786a.656.656 0 01-.011-.089l-.002-.047v-2.395l.002-.047c.027-.449.441-.817.963-.87.043-.004.086-.005.131-.005h45.239c.066 0 .131.004.194.015.069.011.136.025.2.047a1.103 1.103 0 01.515.345.818.818 0 01.186.513z" fill="#FFD85A"/><path d="M267.185 199.712h-24.236a.967.967 0 01-.976-.875l-.002-.047v-2.395l.002-.047a.964.964 0 01.976-.875h21.261l.001.005c.341 1.248 1.132 2.97 2.974 4.234zm16.711-4.239h-.514v4.242h.514v-4.242zm-1.741 0h-.514v4.242h.514v-4.242zm-2.087 0h-.514v4.242h.514v-4.242zm-3.198 0h-.515v4.242h.515v-4.242zm-3.383 0h-.515v4.242h.515v-4.242zm-5.186 0h-.515v4.242h.515v-4.242z" fill="#F2B42A"/><path d="M263.444 195.473h-.514v4.242h.514v-4.242zm-4.336 0h-.514v4.242h.514v-4.242zm26.445 0h-.514v4.242h.514v-4.242zm1.095 0h-.514v4.242h.514v-4.242zm1.056 0h-.514v4.242h.514v-4.242zm.795.015v4.212c-.063.01-.127.015-.193.015h-.321v-4.242h.321c.066 0 .13.005.193.015zm.715.396v3.427a1.097 1.097 0 01-.515.346v-4.118c.211.067.39.19.515.345z" fill="#F2B42A"/><path d="M283.462 192.151v2.396a.816.816 0 01-.188.515 1.075 1.075 0 01-.514.346 1.19 1.19 0 01-.263.054h-.004l-.032.003-.016.001-.025.001h-45.293c-.546 0-1.004-.342-1.084-.785-.005-.027-.008-.059-.011-.088v-2.491c.002-.029.004-.061.011-.091.08-.443.538-.785 1.084-.785h45.239l.059.001h.006c.018.001.034.001.051.004a1.19 1.19 0 01.278.055c.026.009.053.018.077.028.006.002.013.004.017.007h.001c.17.072.315.179.419.309a.84.84 0 01.188.52z" fill="#FFD85A"/><path d="M261.246 195.467h-24.235a.971.971 0 01-.968-.785c-.005-.027-.008-.059-.011-.088v-2.491c.002-.029.004-.061.011-.091a.969.969 0 01.968-.785h21.26l.028.098c.353 1.236 1.147 2.903 2.939 4.137a.018.018 0 00.008.005zm16.71-4.24h-.514v4.242h.514v-4.242zm-1.74 0h-.514v4.242h.514v-4.242zm-2.087 0h-.514v4.242h.514v-4.242zm-3.2 0h-.514v4.242h.514v-4.242zm-3.383 0h-.514v4.242h.514v-4.242zm-5.186 0h-.514v4.242h.514v-4.242z" fill="#F2B42A"/><path d="M257.505 191.227h-.514v4.242h.514v-4.242zm-4.336 0h-.514v4.241h.514v-4.241zm26.444 0h-.514v4.242h.514v-4.242zm1.094 0h-.514v4.242h.514v-4.242zm1.058 0h-.514v4.242h.514v-4.242zm.795.015v4.211c-.063.01-.127.016-.193.016h-.321v-4.242h.321c.065 0 .13.005.193.015zm.714.397v3.426a1.096 1.096 0 01-.514.346v-4.118c.209.069.389.191.514.346z" fill="#F2B42A"/><path d="M286.787 188v2.395a.809.809 0 01-.187.515 1.067 1.067 0 01-.513.346 1.358 1.358 0 01-.394.063h-45.24c-.176 0-.341-.036-.489-.099-.307-.131-.536-.382-.593-.681a.38.38 0 01-.008-.059c-.001-.013-.003-.025-.003-.038l-.001-.047V188l.001-.047c.002-.028.004-.057.009-.083.068-.41.464-.736.955-.786.043-.004.085-.006.131-.006h45.239a1.225 1.225 0 01.193.014c.069.011.136.025.201.047.208.068.388.19.513.345a.816.816 0 01.186.516z" fill="#FFD85A"/><path d="M264.573 191.322h-24.237c-.157 0-.304-.036-.435-.098a.927.927 0 01-.537-.741l-.002-.037-.002-.047v-2.395l.002-.047a.73.73 0 01.008-.083c.062-.41.415-.737.851-.786a.886.886 0 01.115-.006h21.262l.001.006c.333 1.216 1.092 2.883 2.836 4.137l.138.097zm16.709-4.244h-.514v4.242h.514v-4.242zm-1.739 0h-.514v4.242h.514v-4.242zm-2.087 0h-.515v4.242h.515v-4.242zm-3.2 0h-.514v4.242h.514v-4.242zm-3.383 0h-.514v4.242h.514v-4.242zm-5.186 0h-.514v4.242h.514v-4.242z" fill="#F2B42A"/><path d="M260.83 187.078h-.514v4.242h.514v-4.242zm-4.335 0h-.515v4.242h.515v-4.242zm26.445 0h-.515v4.242h.515v-4.242zm1.094 0h-.514v4.242h.514v-4.242zm1.056 0h-.514v4.242h.514v-4.242zm.796.015v4.212a1.37 1.37 0 01-.193.015h-.322v-4.242h.322c.066 0 .131.006.193.015zm.714.392v3.427a1.102 1.102 0 01-.515.346v-4.117c.211.067.391.189.515.344z" fill="#F2B42A"/><path d="M288.204 183.771v2.395c0 .19-.069.367-.187.515a1.121 1.121 0 01-.713.392.494.494 0 01-.063.008c-.009.002-.018.002-.026.002a1.19 1.19 0 01-.104.004h-45.239a.965.965 0 01-.12-.006c-.493-.045-.889-.368-.964-.78a.654.654 0 01-.009-.089v-2.489a.654.654 0 01.009-.089c.08-.444.538-.786 1.084-.786h45.239c.066 0 .131.004.195.015.068.011.136.025.199.047.211.066.389.191.515.345a.842.842 0 01.184.516z" fill="#FFD85A"/><path d="M265.987 187.091h-24.235a.908.908 0 01-.106-.005c-.441-.044-.795-.368-.86-.781-.006-.028-.008-.06-.01-.089v-2.489c.002-.029.004-.061.01-.089a.97.97 0 01.966-.786h21.26c.339 1.246 1.128 2.97 2.967 4.234l.008.005zm16.711-4.243h-.514v4.242h.514v-4.242zm-1.739 0h-.515v4.242h.515v-4.242zm-2.088 0h-.514v4.242h.514v-4.242zm-3.199 0h-.515v4.242h.515v-4.242zm-3.383 0h-.515v4.242h.515v-4.242zm-5.187 0h-.514v4.242h.514v-4.242z" fill="#F2B42A"/><path d="M262.247 182.848h-.514v4.242h.514v-4.242zm-4.337.004h-.514v4.242h.514v-4.242zm26.445-.004h-.514v4.242h.514v-4.242zm1.095 0h-.514v4.242h.514v-4.242zm1.057 0h-.514v4.242h.514v-4.242zm.794.015v4.212a1.359 1.359 0 01-.193.015h-.321v-4.242h.321c.066.001.131.005.193.015zm.714.392v3.427a1.089 1.089 0 01-.514.346v-4.118c.211.068.39.19.514.345z" fill="#F2B42A"/><path d="M145.583 225.836v2.395a.812.812 0 01-.187.515 1.089 1.089 0 01-.514.346 1.213 1.213 0 01-.393.062h-45.24c-.582 0-1.063-.39-1.092-.876l-.002-.047v-2.395c0-.015 0-.032.002-.047.029-.486.51-.875 1.093-.875h45.239a1.37 1.37 0 01.393.062c.209.068.389.191.514.346a.808.808 0 01.187.514z" fill="#FFD85A"/><path d="M123.368 229.154H99.131c-.52 0-.95-.39-.976-.876l-.001-.047v-2.395l.001-.047c.026-.486.455-.875.976-.875h21.26c.341 1.249 1.132 2.975 2.977 4.24zm16.711-4.244h-.514v4.242h.514v-4.242zm-1.741 0h-.515v4.242h.515v-4.242zm-2.088 0h-.514v4.242h.514v-4.242zm-3.198 0h-.514v4.242h.514v-4.242zm-3.383 0h-.514v4.242h.514v-4.242zm-5.186 0h-.514v4.242h.514v-4.242z" fill="#F2B42A"/><path d="M119.626 224.91h-.514v4.242h.514v-4.242zm-4.335.004h-.514v4.243h.514v-4.243zm26.445-.004h-.514v4.242h.514v-4.242zm1.094 0h-.514v4.242h.514v-4.242zm1.056 0h-.514v4.242h.514v-4.242zm.796.015v4.212a1.37 1.37 0 01-.193.015h-.321v-4.242h.321c.066.002.129.007.193.015zm.714.392v3.427a1.089 1.089 0 01-.514.346v-4.117c.211.068.39.189.514.344z" fill="#F2B42A"/><path d="M140.746 221.592v2.395a.818.818 0 01-.187.515 1.097 1.097 0 01-.515.346 1.217 1.217 0 01-.393.062H94.413c-.584 0-1.065-.39-1.094-.876l-.001-.047v-2.395l.001-.048c.03-.486.51-.876 1.093-.876h45.239a1.264 1.264 0 01.125.006l.039.004.029.004c.069.01.137.026.2.047.01.003.02.005.029.01.01.002.02.007.028.009.018.007.037.016.055.022l.032.016c.009.004.019.008.027.014.018.008.035.018.051.027.02.011.039.024.057.035l.043.029.002.001.028.021a.859.859 0 01.102.091l.021.023c.013.015.027.03.04.047a.829.829 0 01.187.518z" fill="#FFD85A"/><path d="M118.532 224.91H94.295c-.52 0-.95-.39-.976-.876l-.001-.047v-2.395l.001-.048c.026-.486.455-.876.976-.876h21.26l.029.105c.355 1.239 1.153 2.907 2.948 4.137zm16.71-4.242h-.515v4.242h.515v-4.242zm-1.74 0h-.514v4.242h.514v-4.242zm-2.087 0h-.515v4.242h.515v-4.242zm-3.2 0h-.514v4.242h.514v-4.242zm-3.383 0h-.514v4.242h.514v-4.242zm-5.186 0h-.514v4.242h.514v-4.242z" fill="#F2B42A"/><path d="M114.79 220.668h-.514v4.242h.514v-4.242zm-4.337 0h-.514v4.242h.514v-4.242zm26.445 0h-.514v4.242h.514v-4.242zm1.095 0h-.514v4.242h.514v-4.242zm1.056 0h-.514v4.242h.514v-4.242zm.796.015v4.212c-.064.01-.127.015-.193.015h-.322v-4.242h.322c.066 0 .131.006.193.015zm.714.392v3.427a1.092 1.092 0 01-.515.346v-4.118c.211.067.391.19.515.345z" fill="#F2B42A"/><path d="M143.084 217.461v2.395a.816.816 0 01-.187.515 1.093 1.093 0 01-.515.347 1.31 1.31 0 01-.392.062H96.75a1.23 1.23 0 01-.505-.105c-.32-.142-.55-.413-.585-.73l-.004-.042-.002-.047v-2.395c0-.015 0-.032.002-.047.029-.486.51-.875 1.093-.875h45.239a1.359 1.359 0 01.393.062c.21.068.389.191.514.347a.8.8 0 01.189.513z" fill="#FFD85A"/><path d="M120.868 220.78H96.632a.998.998 0 01-.45-.105.927.927 0 01-.528-.772v-2.489c.027-.486.455-.875.977-.875h21.26c.331 1.214 1.087 2.881 2.827 4.137l.15.104zm16.711-4.241h-.514v4.243h.514v-4.243zm-1.741 0h-.514v4.243h.514v-4.243zm-2.087 0h-.514v4.243h.514v-4.243zm-3.198 0h-.514v4.243h.514v-4.243zm-3.383 0h-.514v4.243h.514v-4.243zm-5.186 0h-.515v4.243h.515v-4.243z" fill="#F2B42A"/><path d="M117.127 216.539h-.514v4.243h.514v-4.243zm-4.336 0h-.514v4.243h.514v-4.243zm26.445 0h-.514v4.243h.514v-4.243zm1.094 0h-.515v4.243h.515v-4.243zm1.057 0h-.514v4.243h.514v-4.243zm.795.015v4.212c-.063.01-.126.016-.193.016h-.321v-4.243h.321c.067 0 .13.006.193.015zm.714.392v3.427a1.098 1.098 0 01-.514.347v-4.118c.21.066.389.188.514.344z" fill="#F2B42A"/><path d="M144.168 213.213v2.395a.818.818 0 01-.187.515 1.092 1.092 0 01-.515.346 1.236 1.236 0 01-.392.062h-45.24c-.583 0-1.064-.39-1.093-.876l-.001-.047v-2.395l.001-.048c.028-.449.442-.816.964-.869a1.38 1.38 0 01.13-.007h45.239a1.37 1.37 0 01.392.062c.21.068.389.191.515.347a.818.818 0 01.187.515z" fill="#FFD85A"/><path d="M121.952 216.531H97.715c-.52 0-.95-.39-.976-.876l-.001-.047v-2.395l.001-.048c.025-.448.393-.816.86-.869.038-.004.076-.007.116-.007h21.261l.001.007c.342 1.247 1.133 2.971 2.975 4.235zm16.711-4.242h-.514v4.242h.514v-4.242zm-1.741 0h-.514v4.242h.514v-4.242zm-2.087 0h-.514v4.242h.514v-4.242zm-3.199 0h-.514v4.242h.514v-4.242zm-3.383 0h-.514v4.242h.514v-4.242zm-5.186 0h-.514v4.242h.514v-4.242z" fill="#F2B42A"/><path d="M118.211 212.289h-.515v4.242h.515v-4.242zm-4.336 0h-.514v4.242h.514v-4.242zm26.445 0h-.514v4.242h.514v-4.242zm1.095 0h-.515v4.242h.515v-4.242zm1.056 0h-.515v4.242h.515v-4.242zm.795.015v4.212c-.063.01-.127.015-.193.015h-.321v-4.242h.321c.066 0 .13.006.193.015zm.714.392v3.427a1.089 1.089 0 01-.514.346v-4.117c.211.067.389.189.514.344z" fill="#F2B42A"/><path d="M140.841 208.97v2.396a.818.818 0 01-.187.515 1.089 1.089 0 01-.514.346 1.213 1.213 0 01-.2.047l-.064.008c-.011.002-.023.002-.036.003l-.035.001c-.02.002-.039.002-.058.002h-45.24c-.583 0-1.064-.391-1.093-.875v-2.49c0-.014.002-.026.003-.038.044-.391.38-.714.82-.809l.034-.007a1.31 1.31 0 01.237-.022h45.239c.033 0 .066.001.098.004l.044.004.051.007c.069.01.136.026.2.047.209.068.388.19.514.346a.825.825 0 01.187.515z" fill="#FFD85A"/><path d="M118.627 212.292H94.391c-.52 0-.95-.391-.977-.875v-2.49c0-.014.002-.026.003-.039.04-.4.352-.726.758-.814.014-.004.028-.005.042-.008a.995.995 0 01.174-.015h21.26l.008.03c.343 1.245 1.135 2.949 2.958 4.205l.01.006zm16.71-4.245h-.514v4.242h.514v-4.242zm-1.74 0h-.514v4.242h.514v-4.242zm-2.087 0h-.514v4.242h.514v-4.242zm-3.2 0h-.514v4.242h.514v-4.242zm-3.383 0h-.514v4.242h.514v-4.242zm-5.186 0h-.514v4.242h.514v-4.242z" fill="#F2B42A"/><path d="M114.884 208.047h-.514v4.242h.514v-4.242zm-4.335.004h-.515v4.242h.515v-4.242zm26.445-.004h-.515v4.242h.515v-4.242zm1.094 0h-.514v4.242h.514v-4.242zm1.056 0h-.514v4.242h.514v-4.242zm.796.015v4.212c-.064.01-.127.015-.193.015h-.321v-4.242h.321c.066.001.131.005.193.015zm.714.392v3.427a1.089 1.089 0 01-.514.346v-4.118c.211.068.39.19.514.345z" fill="#F2B42A"/><path d="M140.746 204.766v2.395a.818.818 0 01-.187.515 1.097 1.097 0 01-.515.346 1.007 1.007 0 01-.155.04h-.002c-.015.003-.029.006-.043.007-.063.01-.126.016-.193.016H94.412a1.11 1.11 0 01-.195-.016c-.492-.074-.872-.43-.898-.859l-.001-.048v-2.395l.001-.047c.03-.486.51-.876 1.093-.876h45.239l.087.003.038.002.039.004.029.005a1.08 1.08 0 01.229.056l.028.01.055.022c.021.01.04.018.059.029a.34.34 0 01.181.114.859.859 0 01.102.091l.021.022.04.047a.828.828 0 01.187.517z" fill="#FFD85A"/><path d="M118.532 208.085H94.295c-.019 0-.038 0-.058-.002a1.298 1.298 0 01-.062-.005c-.466-.054-.832-.421-.856-.868l-.001-.048v-2.395l.001-.047c.026-.486.455-.876.976-.876h21.26l.029.105c.352 1.229 1.139 2.878 2.904 4.106l.044.03zm16.709-4.241h-.514v4.242h.514v-4.242zm-1.739 0h-.515v4.242h.515v-4.242zm-2.087 0h-.515v4.242h.515v-4.242zm-3.2 0h-.514v4.242h.514v-4.242zm-3.383 0h-.514v4.242h.514v-4.242zm-5.186 0h-.515v4.242h.515v-4.242z" fill="#F2B42A"/><path d="M114.79 203.844h-.514v4.242h.514v-4.242zm-4.337 0h-.514v4.242h.514v-4.242zm26.445 0h-.514v4.242h.514v-4.242zm1.095 0h-.514v4.242h.514v-4.242zm1.056 0h-.514v4.242h.514v-4.242zm.795.015v4.212a1.347 1.347 0 01-.193.015h-.321v-4.242h.321c.067 0 .131.005.193.015zm.715.392v3.427a1.099 1.099 0 01-.515.346v-4.118c.211.068.391.19.515.345z" fill="#F2B42A"/><path d="M143.085 200.629v2.395a.811.811 0 01-.188.515 1.098 1.098 0 01-.514.347 1.323 1.323 0 01-.393.062H96.75a1.25 1.25 0 01-.505-.105c-.32-.142-.549-.413-.585-.73 0-.014-.002-.028-.004-.042l-.001-.047v-2.395l.001-.047c.03-.486.51-.875 1.094-.875h45.239a1.37 1.37 0 01.392.062 1.1 1.1 0 01.515.346c.12.146.189.323.189.514z" fill="#FFD85A"/><path d="M120.868 203.944H96.632a.998.998 0 01-.45-.105.923.923 0 01-.528-.771v-2.49c.027-.486.455-.875.977-.875h21.26c.331 1.214 1.087 2.882 2.827 4.138l.15.103zm16.711-4.241h-.514v4.243h.514v-4.243zm-1.741 0h-.514v4.243h.514v-4.243zm-2.087 0h-.514v4.243h.514v-4.243zm-3.198 0h-.514v4.243h.514v-4.243zm-3.383 0h-.514v4.243h.514v-4.243zm-5.186 0h-.515v4.243h.515v-4.243z" fill="#F2B42A"/><path d="M117.127 199.703h-.514v4.243h.514v-4.243zm-4.336 0h-.514v4.243h.514v-4.243zm26.445 0h-.514v4.243h.514v-4.243zm1.094 0h-.515v4.243h.515v-4.243zm1.057 0h-.514v4.243h.514v-4.243zm.795.015v4.213a1.347 1.347 0 01-.193.015h-.321v-4.243h.321c.067 0 .13.006.193.015zm.714.392v3.427a1.09 1.09 0 01-.514.347v-4.118c.21.067.389.189.514.344z" fill="#F2B42A"/><path d="M146.781 196.392v2.396a.818.818 0 01-.187.515 1.089 1.089 0 01-.514.346 1.236 1.236 0 01-.393.062h-45.241c-.583 0-1.064-.39-1.093-.876l-.001-.047v-2.396l.001-.047c.028-.448.441-.817.964-.869.043-.004.085-.007.129-.007h45.239a1.217 1.217 0 01.393.062 1.1 1.1 0 01.515.346.813.813 0 01.188.515z" fill="#FFD85A"/><path d="M124.566 199.711h-24.237c-.52 0-.95-.39-.976-.876l-.001-.047v-2.396l.001-.047c.025-.448.393-.817.86-.869.038-.004.076-.007.116-.007h21.26l.002.007c.34 1.247 1.133 2.971 2.975 4.235zm16.711-4.242h-.514v4.243h.514v-4.243zm-1.741 0h-.515v4.243h.515v-4.243zm-2.088 0h-.514v4.243h.514v-4.243zm-3.199 0h-.514v4.243h.514v-4.243zm-3.383 0h-.514v4.243h.514v-4.243zm-5.186 0h-.514v4.243h.514v-4.243z" fill="#F2B42A"/><path d="M120.825 195.469h-.515v4.243h.515v-4.243zm-4.336 0h-.514v4.242h.514v-4.242zm26.443 0h-.514v4.243h.514v-4.243zm1.095 0h-.514v4.243h.514v-4.243zm1.058 0h-.515v4.243h.515v-4.243zm.795.015v4.212c-.064.01-.127.016-.193.016h-.321v-4.243h.321c.066 0 .129.005.193.015zm.714.396v3.427a1.089 1.089 0 01-.514.346v-4.118c.209.067.389.19.514.345z" fill="#F2B42A"/><path d="M140.841 192.149v2.395a.818.818 0 01-.187.515 1.089 1.089 0 01-.514.346 1.12 1.12 0 01-.2.047l-.064.009-.051.004-.025.001-.053.002h-45.24c-.583 0-1.064-.391-1.093-.875v-2.49c.03-.486.51-.876 1.094-.876h45.239a1.142 1.142 0 01.193.015 1.19 1.19 0 01.295.083l.056.025.006.003.055.029.01.005.049.031a.987.987 0 01.139.108c.002.001.005.002.006.005l.019.017.004.004a.981.981 0 01.032.033l.044.05a.816.816 0 01.186.514z" fill="#FFD85A"/><path d="M118.627 195.468H94.391c-.52 0-.95-.391-.977-.875v-2.49c.027-.486.455-.876.977-.876h21.26l.027.098c.353 1.238 1.149 2.905 2.939 4.137l.01.006zm16.71-4.241h-.515v4.242h.515v-4.242zm-1.74 0h-.514v4.242h.514v-4.242zm-2.087 0h-.514v4.242h.514v-4.242zm-3.2 0h-.514v4.242h.514v-4.242zm-3.383 0h-.514v4.242h.514v-4.242zm-5.186 0h-.514v4.242h.514v-4.242z" fill="#F2B42A"/><path d="M114.884 191.227h-.514v4.242h.514v-4.242zm-4.335 0h-.515v4.242h.515v-4.242zm26.445 0h-.515v4.242h.515v-4.242zm1.094 0h-.514v4.242h.514v-4.242zm1.056 0h-.514v4.242h.514v-4.242zm.796.015v4.211c-.064.01-.127.016-.193.016h-.322v-4.242h.322c.066 0 .131.005.193.015zm.714.393v3.426a1.089 1.089 0 01-.514.346v-4.118c.211.069.39.191.514.346z" fill="#F2B42A"/><path d="M144.168 188v2.395a.811.811 0 01-.188.515 1.089 1.089 0 01-.514.346.97.97 0 01-.2.047c-.063.01-.127.016-.193.016H97.834a1.23 1.23 0 01-.49-.099c-.329-.139-.564-.416-.6-.739a.354.354 0 01-.003-.037l-.001-.047v-2.443c.029-.449.442-.816.965-.869a1.38 1.38 0 01.13-.007h45.238a1.359 1.359 0 01.393.062c.21.068.389.191.514.347a.806.806 0 01.188.513z" fill="#FFD85A"/><path d="M121.952 191.319H97.716a.988.988 0 01-.436-.099.926.926 0 01-.54-.776v-2.49c.026-.448.394-.816.861-.869a1.08 1.08 0 01.116-.007h21.26l.002.007c.332 1.216 1.091 2.882 2.835 4.137l.138.097zm16.711-4.241h-.514v4.242h.514v-4.242zm-1.741 0h-.514v4.242h.514v-4.242zm-2.087 0h-.514v4.242h.514v-4.242zm-3.199 0h-.514v4.242h.514v-4.242zm-3.383 0h-.514v4.242h.514v-4.242zm-5.186 0h-.514v4.242h.514v-4.242z" fill="#F2B42A"/><path d="M118.211 187.078h-.514v4.242h.514v-4.242zm-4.336 0h-.514v4.242h.514v-4.242zm26.445 0h-.514v4.242h.514v-4.242zm1.095 0h-.515v4.242h.515v-4.242zm1.056 0h-.514v4.242h.514v-4.242zm.795.015v4.212a1.359 1.359 0 01-.193.015h-.321v-4.242h.321c.066 0 .13.006.193.015zm.714.392v3.427a1.089 1.089 0 01-.514.346v-4.117c.211.067.389.189.514.344z" fill="#F2B42A"/><path d="M145.584 183.772v2.395a.811.811 0 01-.188.515 1.098 1.098 0 01-.514.347 1.12 1.12 0 01-.263.055l-.036.003-.036.001-.058.001H99.25c-.583 0-1.064-.39-1.093-.876l-.001-.047v-2.395l.001-.047c.03-.486.51-.876 1.093-.876h45.239a1.226 1.226 0 01.393.062c.21.068.389.19.514.346.119.15.188.327.188.516z" fill="#FFD85A"/><path d="M123.368 187.089H99.131c-.52 0-.95-.39-.976-.876l-.001-.047v-2.395l.001-.047c.026-.486.457-.876.976-.876h21.26c.34 1.246 1.128 2.969 2.967 4.235l.01.006zm16.711-4.241h-.514v4.242h.514v-4.242zm-1.741 0h-.515v4.242h.515v-4.242zm-2.087 0h-.515v4.242h.515v-4.242zm-3.199 0h-.514v4.242h.514v-4.242zm-3.383 0h-.514v4.242h.514v-4.242zm-5.186 0h-.514v4.242h.514v-4.242z" fill="#F2B42A"/><path d="M119.627 182.848h-.515v4.242h.515v-4.242zm-4.336.004h-.514v4.242h.514v-4.242zm26.445-.004h-.514v4.242h.514v-4.242zm1.094 0h-.514v4.242h.514v-4.242zm1.057 0h-.515v4.242h.515v-4.242zm.795.015v4.212a1.37 1.37 0 01-.193.015h-.321v-4.242h.321c.066.001.129.005.193.015zm.714.392v3.427a1.089 1.089 0 01-.514.346v-4.118c.211.068.39.19.514.345z" fill="#F2B42A"/><path d="M235.9 229.294c12.463 0 22.566-10.148 22.566-22.665s-10.103-22.664-22.566-22.664c-12.462 0-22.566 10.147-22.566 22.664 0 12.517 10.104 22.665 22.566 22.665z" fill="#E2810E"/><path opacity=".5" d="M262.36 210.177c0 .711-.026 1.416-.08 2.114v.006a27.358 27.358 0 01-1.111 5.89 26.13 26.13 0 01-.901 2.481c-.014.034-.028.069-.044.104a25.411 25.411 0 01-2.231 4.138c-.026.042-.055.082-.083.123a19.3 19.3 0 01-.514.733 23.975 23.975 0 01-2.978 3.384h-12.667a.968.968 0 01-.976-.877v-2.491a.64.64 0 01.036-.189.967.967 0 01.94-.684h-4.836a.972.972 0 01-.968-.788c-.005-.029-.008-.06-.011-.089l-.001-.047v-2.395l.001-.047a.713.713 0 01.037-.19.97.97 0 01.941-.685h1.885a.93.93 0 01-.521-.73c-.002-.014-.004-.026-.004-.041l-.001-.047v-2.396l.001-.047c.002-.029.004-.059.011-.089a.97.97 0 01.965-.787h1.084a.97.97 0 01-.976-.874l-.002-.047v-2.395l.002-.048a.777.777 0 01.008-.083c.062-.409.415-.736.851-.786h-3.21a.969.969 0 01-.967-.785c-.006-.029-.009-.061-.012-.091v-2.491a.247.247 0 00.003-.039c.04-.399.353-.727.76-.813-.439-.051-.789-.379-.848-.789a.705.705 0 01-.008-.079l-.002-.047v-2.395l.002-.047a.433.433 0 01.011-.089.97.97 0 01.966-.787h1.886a.93.93 0 01-.525-.771l-.002-.045v-2.396l.002-.047a.424.424 0 01.011-.088.97.97 0 01.965-.787h3.697a.969.969 0 01-.965-.786c-.005-.028-.008-.06-.011-.089l-.001-.047v-2.395l.001-.047a.963.963 0 01.86-.87h-5.823a.969.969 0 01-.967-.785c-.006-.028-.009-.06-.012-.089v-2.491a.599.599 0 01.012-.091.968.968 0 01.967-.785h2.89a.93.93 0 01-.539-.778l-.002-.047v-2.396l.002-.047a.777.777 0 01.008-.083c.062-.41.415-.736.851-.786.038-.004.077-.006.115-.006h1.31c-.441-.044-.795-.368-.86-.781a.504.504 0 01-.01-.088v-.932a20.678 20.678 0 017.526 1.808 22.221 22.221 0 016.149 4.139l.105.098a24.136 24.136 0 012.95 3.405c.174.241.341.484.505.731l.004.005c.198.301.393.607.58.92a25.633 25.633 0 011.684 3.316 26.29 26.29 0 011.371 4.241c.036.149.068.3.101.451.244 1.131.418 2.293.515 3.478l.016.179.001.029c.055.683.081 1.38.081 2.084z" fill="#DD821F"/><path d="M233.932 229.294c12.463 0 22.566-10.148 22.566-22.665s-10.103-22.664-22.566-22.664-22.566 10.147-22.566 22.664c0 12.517 10.103 22.665 22.566 22.665z" fill="#FFD85A"/><path d="M233.932 227.549c-5.493 0-10.655-2.147-14.539-6.048-3.883-3.9-6.021-9.085-6.021-14.601 0-5.517 2.138-10.702 6.021-14.602 3.884-3.901 9.046-6.048 14.539-6.048 5.492 0 10.654 2.147 14.538 6.048 3.883 3.9 6.021 9.085 6.021 14.602 0 5.516-2.138 10.701-6.021 14.601-3.884 3.901-9.046 6.048-14.538 6.048zm0-40.067c-10.661 0-19.333 8.711-19.333 19.418 0 10.706 8.672 19.417 19.333 19.417 10.66 0 19.333-8.711 19.333-19.417.001-10.707-8.673-19.418-19.333-19.418z" fill="#F2B42A"/><path d="M236.763 212.885a3.433 3.433 0 00-.048-1.199 2.482 2.482 0 00-.505-.995 4.694 4.694 0 00-1.009-.895c-.422-.286-.943-.58-1.564-.879a32.362 32.362 0 01-2.888-1.593c-.859-.539-1.579-1.126-2.161-1.766a6.072 6.072 0 01-1.275-2.151c-.269-.797-.342-1.713-.219-2.753.106-.901.362-1.704.769-2.408a5.746 5.746 0 011.594-1.778 7.146 7.146 0 012.281-1.091c.865-.246 1.815-.355 2.848-.329l.403-3.403 2.728.325-.408 3.452a8.482 8.482 0 012.567 1.096 6.674 6.674 0 011.849 1.768 6.671 6.671 0 011.024 2.372c.2.889.238 1.865.113 2.924l-4.927-.587c.15-1.272-.018-2.257-.506-2.956-.488-.698-1.203-1.103-2.146-1.215-.512-.061-.961-.042-1.347.058a2.493 2.493 0 00-.982.479 2.35 2.35 0 00-.633.819 3.476 3.476 0 00-.3 1.078c-.047.392-.032.754.044 1.085.076.332.237.65.484.953.247.303.586.602 1.017.896.432.293.975.607 1.626.944a37.24 37.24 0 012.859 1.631c.852.543 1.569 1.135 2.149 1.78a6.192 6.192 0 011.275 2.16c.269.797.343 1.708.221 2.736-.111.934-.371 1.752-.783 2.455a5.693 5.693 0 01-1.599 1.761c-.655.471-1.42.82-2.294 1.05-.874.228-1.828.329-2.862.305l-.374 3.165-2.71-.323.372-3.15a11.5 11.5 0 01-2.663-.946 7.279 7.279 0 01-2.181-1.654c-.611-.68-1.067-1.501-1.369-2.462-.302-.961-.378-2.077-.226-3.349l4.927.587c-.09.753-.058 1.394.092 1.922.15.529.385.965.7 1.309.316.345.692.604 1.127.78.434.176.885.291 1.351.346.533.064 1.01.051 1.431-.039.419-.09.78-.241 1.082-.451a2.34 2.34 0 00.715-.793c.173-.323.284-.677.331-1.071z" fill="#F2B42A"/><path d="M141.159 175.354c9.96-10.003 9.96-26.221 0-36.224-9.96-10.003-26.107-10.003-36.067 0s-9.96 26.221 0 36.224c9.96 10.003 26.107 10.003 36.067 0z" fill="#DD821F"/><path d="M138.934 175.354c9.96-10.003 9.96-26.221 0-36.224-9.96-10.003-26.107-10.003-36.067 0s-9.96 26.221 0 36.224c9.96 10.003 26.107 10.003 36.067 0z" fill="#FFD85A"/><path d="M120.903 180.888c-6.206 0-12.042-2.427-16.431-6.836-4.39-4.408-6.806-10.269-6.806-16.503 0-6.233 2.416-12.094 6.806-16.502 4.389-4.409 10.225-6.836 16.431-6.836 6.206 0 12.042 2.427 16.431 6.836 4.389 4.408 6.806 10.269 6.806 16.502 0 6.234-2.417 12.095-6.806 16.503-4.389 4.407-10.223 6.836-16.431 6.836zm0-45.284c-12.049 0-21.85 9.844-21.85 21.945 0 12.102 9.801 21.946 21.85 21.946 12.049 0 21.85-9.844 21.85-21.946.002-12.101-9.801-21.945-21.85-21.945z" fill="#F2B42A"/><path d="M124.103 164.317c.059-.504.041-.955-.056-1.355a2.824 2.824 0 00-.57-1.126c-.284-.35-.665-.687-1.14-1.011a14.174 14.174 0 00-1.768-.994 37.02 37.02 0 01-3.264-1.801c-.971-.608-1.784-1.272-2.442-1.995a6.857 6.857 0 01-1.442-2.433c-.304-.899-.387-1.936-.248-3.11.12-1.019.41-1.926.869-2.722a6.472 6.472 0 011.8-2.009c.742-.544 1.601-.954 2.578-1.234.977-.278 2.05-.402 3.219-.372l.455-3.846 3.082.367-.46 3.9c1.088.275 2.054.688 2.902 1.239a7.51 7.51 0 012.088 1.999 7.515 7.515 0 011.158 2.681c.226 1.005.269 2.107.127 3.305l-5.568-.663c.17-1.437-.02-2.552-.572-3.341-.551-.788-1.361-1.246-2.426-1.374-.578-.069-1.085-.047-1.522.065a2.854 2.854 0 00-1.11.542 2.63 2.63 0 00-.715.926 3.889 3.889 0 00-.339 1.217c-.053.443-.036.853.051 1.227.085.375.267.734.547 1.077.278.343.662.68 1.15 1.012.488.332 1.101.687 1.837 1.068a42.489 42.489 0 013.232 1.843c.962.613 1.772 1.283 2.429 2.011a6.954 6.954 0 011.44 2.441c.303.9.388 1.931.25 3.092-.124 1.055-.419 1.98-.885 2.775a6.4 6.4 0 01-1.809 1.99c-.74.531-1.605.927-2.592 1.186-.988.259-2.066.374-3.235.344l-.423 3.576-3.064-.366.421-3.559a13.1 13.1 0 01-3.01-1.069 8.25 8.25 0 01-2.464-1.871c-.691-.768-1.207-1.696-1.547-2.781-.341-1.086-.426-2.349-.257-3.786l5.568.663c-.1.85-.066 1.576.105 2.173.17.598.434 1.091.793 1.48.358.389.782.682 1.274.88.49.198.999.329 1.526.392.604.072 1.143.057 1.617-.044a3.29 3.29 0 001.223-.511c.34-.238.61-.539.809-.897.2-.356.325-.756.378-1.201z" fill="#F2B42A"/><path d="M276.532 158.411s-2.397 3.389-4.595 3.436c-2.197.047-5.542-1.571-5.542-1.571s-2.018-4.517-.649-6.285c0 0 1.373-.605 2.808.464.247.184.496.417.743.714.349.421.739.661 1.154.785 1.569.479 3.43-.648 4.126.441a7.425 7.425 0 001.212 1.441c.43.386.743.575.743.575zm-31.252 24.445s8.472-20.619 23.724-21.012c0 0 14.078 1.571 14.859 21.012H245.28z" fill="#FFEDDC"/><path d="M264.827 162.477s6.112 1.366 7.999.564c0 0 .286-2.567-2.289-2.207-1.762.246-2.91-.604-3.585-.95-.956-.489-2.379 1.519-2.125 2.593z" fill="#DB6A1D"/><path d="M270.146 158.604c-.391.295-1.592-4.151-1.592-4.151.247.184.497.417.743.715.349.421.739.66 1.154.785.004.13.075 2.365-.305 2.651zm5.643-.764c-.086.051-2.913 1.751-3.296 1.751-.392 0 2.084-3.193 2.084-3.193a7.4 7.4 0 001.212 1.442z" fill="#E5C1A1"/><path d="M253.558 177.103c-.157-.134 5.997-9.099 7.691-9.164 1.694-.065 5.502 1.963 8.259 2.225 2.756.262 5.429-.523 5.95 1.113.521 1.637 1.955 7.438 1.075 8.367-.879.929-19.592.362-22.975-2.541z" fill="#F9DDBF"/><path d="M193.494 129.816s-1.895 2.68-3.632 2.718c-1.739.037-4.381-1.242-4.381-1.242s-1.595-3.571-.513-4.969c0 0 1.085-.479 2.219.367.195.145.393.329.588.564.275.333.584.522.912.622 1.239.379 2.712-.512 3.262.348.321.499.671.876.958 1.139.339.303.587.453.587.453zm-24.711 19.335s6.7-16.306 18.759-16.616c0 0 11.131 1.242 11.749 16.616h-30.508z" fill="#FFEDDC"/><path d="M184.239 133.029s4.833 1.08 6.324.444c0 0 .225-2.029-1.81-1.746-1.393.196-2.301-.477-2.834-.75-.755-.385-1.882 1.203-1.68 2.052z" fill="#DB6A1D"/><path d="M188.445 129.971c-.309.232-1.259-3.283-1.259-3.283.194.145.393.329.587.564.276.333.585.522.913.622.003.103.059 1.87-.241 2.097zm4.462-.608c-.068.041-2.304 1.385-2.607 1.385-.309 0 1.649-2.525 1.649-2.525.32.501.67.876.958 1.14z" fill="#E5C1A1"/><path d="M175.328 144.6c-.125-.107 4.74-7.195 6.08-7.247 1.34-.053 4.351 1.552 6.531 1.76 2.179.207 4.293-.414 4.705.88.412 1.295 1.545 5.882.85 6.616-.696.734-15.491.287-18.166-2.009z" fill="#F9DDBF"/><path d="M151.659 181.633s4.662 6.593 8.937 6.685c4.275.091 10.778-3.056 10.778-3.056s3.924-8.785 1.262-12.223c0 0-2.67-1.177-5.462.901-.479.359-.966.81-1.444 1.39-.677.817-1.438 1.284-2.245 1.529-3.049.932-6.671-1.26-8.024.856a14.378 14.378 0 01-2.358 2.803c-.836.748-1.444 1.115-1.444 1.115zm60.786 47.555s-16.481-40.107-46.145-40.872c0 0-27.382 3.056-28.904 40.872h75.049z" fill="#FFEDDC"/><path d="M174.427 189.538s-11.89 2.656-15.558 1.095c0 0-.555-4.994 4.452-4.293 3.427.479 5.659-1.176 6.973-1.846 1.858-.95 4.627 2.955 4.133 5.044z" fill="#DB6A1D"/><path d="M164.08 182.013c.761.573 3.096-8.075 3.096-8.075a8.27 8.27 0 00-1.445 1.39c-.677.817-1.438 1.283-2.244 1.528-.008.251-.145 4.599.593 5.157zm-10.976-1.495c.166.1 5.665 3.408 6.411 3.408.761 0-4.054-6.211-4.054-6.211a14.343 14.343 0 01-2.357 2.803z" fill="#E5C1A1"/><path d="M196.345 217.984c.304-.261-11.663-17.697-14.959-17.825-3.296-.127-10.702 3.82-16.063 4.33-5.361.509-10.558-1.019-11.573 2.164-1.015 3.183-3.804 14.467-2.091 16.274 1.712 1.807 38.106.704 44.686-4.943z" fill="#F9DDBF"/><path d="M149.743 130.901s-.377-1.864 3.894-7.597c.921-1.236 3.73-5.894 3.73-5.894 1.11-.272 4.569 1.575 5.482 2.138.183.113.289.182.289.182s1.479 6.443-1.664 5.713a5.119 5.119 0 00-.295-.058c-3.04-.476-5.975 2.554-7.309 4.478-.87 1.25-3.55 1.089-4.127 1.038zm22.536-12.523s-.376-1.864 3.895-7.597c.921-1.237 3.73-5.895 3.73-5.895 1.11-.271 4.569 1.576 5.482 2.138.183.114.289.183.289.183s1.479 6.442-1.664 5.713a3.84 3.84 0 00-.295-.058c-3.04-.477-5.975 2.554-7.309 4.477-.87 1.25-3.55 1.09-4.128 1.039z" fill="#35F"/><path d="M220.383 86.485c-.874-3.769-10.586-15.52-15.561-12.799-4.974 2.722-2.395 17.505 2.791 34.939.079.266.16.53.242.793-10.453-1.724-22.893-2.247-22.893-2.247l-1.309 6.07c9.418 2.614 27.716 11.698 35.389 15.61 2.933 1.336 6.38 1.336 7.081-1.258 2.351-8.678-5.74-41.108-5.74-41.108z" fill="#ED7D2B"/><path d="M201.837 140.792s-22.232-10.076-35.787-14.147a60.802 60.802 0 00-4.576-1.203l1.426-5.839s1.327-.024 3.483-.021c8.44.024 29.576.499 33.352 4.659 4.738 5.225 2.102 16.551 2.102 16.551zM218.636 2.678c.73 1.688 1.314 3.903.819 5.07-.559 1.324-.406 2.282-.406 2.282l-1.196.294-1.428.348s-.076-.123-.19-.332a11.35 11.35 0 01-.419-.851s-.066-.634-.674-.924c-.608-.29-1.246-1.026-1.364-1.739-.115-.712-.843-2.042-.637-2.182.5-.34 1.251 1.73 1.692 1.822.398.083.527-.2.547-.256a.023.023 0 00.003-.011c.693-1.69-.587-5.96.427-6.196.381-.088 2.516 1.956 2.826 2.675zm-76.932 34.079c1.242 1.353 3.023 2.783 4.287 2.801 1.433.02 2.242.548 2.242.548l.75-.979.896-1.17s-.081-.119-.226-.31c-.143-.19-1.157-1.045-1.175-1.72-.018-.676-.43-1.561-1.032-1.957-.601-.395-1.519-1.6-1.73-1.468-.512.322 1.07 1.847.976 2.29-.086.4-.396.403-.454.4-.004-.002-.007 0-.011-.002-1.821-.046-5.19-2.948-5.816-2.112-.234.316.764 3.103 1.293 3.68z" fill="#FFB27D"/><path d="M195.492 89.296c-5.484 1.428-4.108 8.051-3.288 26.227.092 2.056.284 4.043.553 5.937-8.037-1.622-20.393-1.865-26.375-1.882 0 0-.993 2.22-.951 3.993.091 3.776 2.011 6.274 2.011 6.274 13.557 4.07 34.394 10.944 34.394 10.944l.004-.017c1.39.363 2.696-.335 3.736-2.336 4.145-7.972 11.239-61.034 11.239-61.034.064-3.867-15.841 10.466-21.323 11.894z" fill="#F99746"/><path d="M186.539 48.556s1.928-4.91-1.821-11.911l5.331 1.189 3.62.807s.599 1.24 1.383 3.545c.205.606.971 3.039 1.195 3.79 1.274.055-.562 1.992-3.175 2.372-2.907.425-6.533.208-6.533.208z" fill="#FFB27D"/><path d="M193.671 38.643s.598 1.24 1.382 3.545c-3.111.931-8.658-2.105-8.658-2.105 1.251-1.15 2.492-1.86 3.655-2.247l3.621.807z" fill="#ED975D"/><path d="M196.064 36.815s-6.175 6.86-10.368 2.931c-4.194-3.928-7.816-5.687-4.051-10.233 3.765-4.545 6.145-3.885 7.862-2.916 1.717.968 8.055 8.333 6.557 10.218z" fill="#FFB27D"/><path d="M185.35 39.32s.632-.704-.283-1.62c-.915-.916-1.958-2.237-.946-2.642 1.012-.406 1.573.218 1.605-.432.033-.652-1.241-2.274 1.103-4.325 2.343-2.052 4.003-1.99 4.739-3.391.736-1.401-.564-3.168-.564-3.168s.164.87-.168 1.454c0 0-.162-4.097-3.752-4.133-3.59-.036-4.898 2.905-6.102 3.99-2.652 2.391-4.319 3.993-3.774 6.557.544 2.562 4.956 7.366 8.142 7.71z" fill="#2B478B"/><path d="M192.205 35.384l2.291-2.165s.932 1.435.279 2.059c-.655.623-2.57.106-2.57.106z" fill="#fff"/><path d="M222.958 22.419c-.98-6.088-3.929-12.78-3.929-12.78l-3.212-.147s.357 8.247.279 14.015c-.039 2.77-1.245 5.275-1.572 5.72-.998 1.34-15.684 15.536-16.176 15.989l-.011.012.001.002c-1.563.267-1.389 2.845-2.995 3.278-2.677.722-7.123-.592-9.503.292 0 0-19.069.023-21.971-1.373-2.902-1.396-14.217-9.775-14.217-9.775l-2.097 2.452s7.767 15.019 13.925 17.72c3.351 1.47 10.714 3.241 16.727 4.548a6.749 6.749 0 015.004 4.622c5.658 18.322 2.81 33.773 2.81 33.773s5.42.609 12.17-1.273c8.776-2.448 15.186-6.415 15.186-6.415 2.473-3.011 1.011-14.053 1.011-14.053s1.708 1.853 2.28 4.946c.412 2.229.634 3.461.77 4.245.13.736.985 1.08 1.583.635 1.268-.943 3.078-2.412 3.644-3.489 1.975-3.766-2.418-19.103-8.487-29.804a6.01 6.01 0 01.113-6.134c3.733-6.015 9.472-15.553 9.543-17.468.041-1.04-.311-6.038-.876-9.538z" fill="#35F"/><path d="M194.925 49.887s5.12 7.295 1.365 14.347c-3.754 7.051-18.502 6.077-21.233 14.885l1.66 5.485 6.165-3.355s.515-4.763 6.581-6.83c11.848-4.04 14.7-11.017 12.213-17.26-2.101-5.277-5.144-7.82-5.144-7.82l-1.607.548zm-7.909-4.016l5.938 1.97.292 1.131-7.406-.175c.002-.002.395-1.712 1.176-2.926zm8.687-1.637l.197 3.084s.777.64.768.555c-.011-.085 1.67-2.646 1.67-2.646s-1.395-.673-2.635-.993z" fill="#F99746"/><path d="M192.954 47.844l3.027-1.026a.463.463 0 01.607.383l.249 2.044a.464.464 0 01-.31.495l-1.332.453a.457.457 0 01-.426-.07l-1.943-1.47a.463.463 0 01.128-.81z" fill="#ED7D2B"/><path d="M215.67 9.059l-.268 2.56s3.218.048 3.218 0c0-.049.098-1.27.098-1.27l.536 1.416 1.195-.391-1.367-2.315c-.002 0-1.366.646-3.412 0zm-66.018 28.589l-2.096 2.452.615 2.393.853-.587-.42-1.798 1.468 1.21 1.901-2.522-2.321-1.148z" fill="#35F"/><path d="M149.195 39.9c0-.108.087-.197.195-.197.107 0 .195.087.195.197a.195.195 0 11-.39 0zm68.829-29.23a.155.155 0 11.309 0 .154.154 0 11-.309 0zm-5.059 59.614c0-.23.186-.417.415-.417a.416.416 0 010 .834.416.416 0 01-.415-.417zm-3.292-6.891c0-.23.186-.416.415-.416a.416.416 0 010 .833.416.416 0 01-.415-.417zm-4.534-5.211c0-.23.186-.416.415-.416a.416.416 0 010 .833.416.416 0 01-.415-.417z" fill="#EBF3FA"/></svg>