<svg width="364" height="234" fill="none" xmlns="http://www.w3.org/2000/svg"><path d="M360.616 233.001H1.151A1.14 1.14 0 010 231.874a1.14 1.14 0 011.151-1.128h359.465a1.14 1.14 0 011.151 1.128 1.14 1.14 0 01-1.151 1.127z" fill="#2E5B99"/><path d="M248.487 111.48H364V5.661H248.487V111.48z" fill="#E5E5FC"/><path d="M57.012 193.719h77.777v-68.473H57.012v68.473z" fill="#E6F6FF"/><path d="M233.54 71.687v-9.505c0-4.316 3.57-7.815 7.975-7.815h84.916c4.406 0 7.977 3.499 7.977 7.816v168.004H114.757v-158.5H233.54z" fill="#fff"/><path d="M232.835 71.687v-9.505c0-4.316 3.57-7.815 7.975-7.815h84.915c4.407 0 7.978 3.499 7.978 7.816v168.004H114.051v-158.5h118.784z" fill="#7470FF"/><path d="M326.344 78.25v151.934H122.869V77.504l203.475.746z" fill="#DAD9FB"/><path d="M315.173 78.25v151.934H111.698V77.504l203.475.746z" fill="#AEADF2"/><path d="M103.495 71.684h201.019c4.126 0 7.165 2.734 7.758 6.517v151.983H92.88V82.057c-.05-5.459 4.978-10.373 10.615-10.373z" fill="#fff"/><path d="M177.23 128.107l117.488.323.25-87.471-117.488-.323-.25 87.471z" fill="#EBF3FF"/><path d="M180.307 123.909l111.479.306.229-80.414-111.478-.306-.23 80.414z" fill="#9996FF"/><path d="M282.39 117.741l-71.64-.196 39.171-36.814 32.469 37.01z" fill="#E3EEFF"/><path d="M249.815 117.649l-60.194-.164 32.663-30.426 27.531 30.59zM233.41 78.294a8.011 8.011 0 000-11.494c-3.241-3.174-8.494-3.174-11.734 0a8.011 8.011 0 000 11.494c3.24 3.174 8.493 3.174 11.734 0z" fill="#E3EEFF"/><path d="M161.58 117.623l108.921.342.304-92.795-108.922-.342-.303 92.795z" fill="#EBF3FF"/><path d="M164.748 113.179l102.736.325.281-85.307-102.736-.325-.281 85.307z" fill="#8D8BE1"/><path d="M257.674 39.973h-40.916v3.521h40.916v-3.521zM174.429 53h83.245v-3.522h-83.245V53zm0 9.684h83.245v-3.522h-83.245v3.522zm-71.901 9h201.019c4.126 0 7.165 2.734 7.758 6.517v152.527H91.911V82.058c-.049-5.46 4.98-10.374 10.617-10.374z" fill="#DAD9FB"/><path d="M312.271 230.188h22.137v-.875h-22.137v.875z" fill="#fff"/><path opacity=".5" d="M334.409 135.977l-8.065 5.153h-10.653l-3.419 2.577v-2.448H92.88v-5.282h241.529z" fill="#000"/><path d="M88.41 138.32h249.114v-27.574H88.409v27.574z" fill="#9996FF"/><path d="M88.41 138.32h226.689v-27.574H88.409v27.574z" fill="#7470FF"/><path d="M252.43 110.754v27.566h-19.697l13.81-27.566h5.887z" fill="#0E0E0E"/><path d="M245.623 124.509c0 3.814.681 7.267 1.823 9.751 1.116 2.543 2.668 4.056 4.382 4.056h5.23v-27.554h-5.23c-3.43 0-6.205 6.177-6.205 13.747zm4.953 4.542c-.979-.303-1.741-2.179-1.741-4.541 0-2.301.762-4.178 1.741-4.481.981.303 1.743 2.181 1.743 4.481 0 2.362-.762 4.238-1.743 4.541z" fill="#7470FF"/><path d="M248.287 124.509c0 3.814.712 7.267 1.907 9.751 1.168 2.543 2.79 4.056 4.585 4.056h2.279v-27.554h-2.279c-3.587 0-6.492 6.177-6.492 13.747zm2.507 0c0-2.301 1.481-4.178 2.505-4.481 1.026.303 1.824 2.181 1.824 4.481 0 2.363-.798 4.238-1.824 4.541-1.024-.302-2.505-2.178-2.505-4.541z" fill="#9996FF"/><path d="M248.128 124.505c0 3.814.681 7.267 1.824 9.751 1.115 2.544 2.668 4.057 4.381 4.057h5.23v-27.555h-5.23c-3.428 0-6.205 6.177-6.205 13.747zm4.954 4.543c-.979-.303-1.743-2.18-1.743-4.542 0-2.301.762-4.177 1.743-4.481.98.304 1.742 2.182 1.742 4.481 0 2.362-.762 4.239-1.742 4.542z" fill="#7470FF"/><path d="M250.792 124.505c0 3.814.713 7.267 1.908 9.751 1.167 2.544 2.79 4.057 4.585 4.057h2.278v-27.555h-2.278c-3.587 0-6.493 6.177-6.493 13.747zm2.507 0c0-2.301.798-4.178 1.822-4.481 1.026.303 1.824 2.181 1.824 4.481 0 2.363-.798 4.238-1.824 4.541-1.024-.301-1.822-2.178-1.822-4.541z" fill="#DAD9FB"/><path d="M254.309 138.493c-.223 0-1.498-.058-2.846-1.326-1.529-1.439-3.352-4.688-3.352-12.001 0-6.967 1.662-10.552 3.057-12.334 1.536-1.962 3.069-2.241 3.134-2.251.1-.017.194.048.212.146a.183.183 0 01-.149.208c-.015.003-1.481.277-2.931 2.147-1.349 1.741-2.958 5.249-2.958 12.084 0 7.169 1.755 10.336 3.227 11.729 1.338 1.266 2.613 1.241 2.622 1.238a.18.18 0 01.19.173.18.18 0 01-.175.185c-.002.002-.013.002-.031.002z" fill="#625FDB"/><path d="M255.12 128.676c.248.061.432.122.679.182-.061.061-.061.061 0 .061 9.954 2.907 17.31 11.869 17.31 22.589v23.019h7.913v-23.019c0-14.898-10.695-27.373-24.975-30.523a5.128 5.128 0 00-.927-.241c-2.288-.485-2.474 7.57 0 7.932zm-9.367-8.348v7.709c-10.2 1.287-18.434 8.699-20.625 18.387-.063.241-.124.423-.124.605a13.624 13.624 0 00-.247 1.575 22.891 22.891 0 00-.186 2.907v23.019h-7.851v-23.019c0-16.281 12.771-29.62 29.033-31.183z" fill="#E6E6E6"/><path d="M254.937 126.401c18.555 3.187 20.943 22.977 20.943 22.977v25.153h-2.783v-23.019c0-10.945-7.661-20.094-17.971-22.821-.788-.251-1.279-2.511-1.279-2.511s.486.107 1.09.221z" fill="#999"/><path d="M245.754 126.398v1.639c-10.201 1.286-18.435 8.699-20.626 18.387.444-5.655 5.23-18.011 20.626-20.026z" fill="gray"/><path d="M255.12 128.676c.248.061.432.121.679.182-.185-.485-1.191-1.586-1.314-3.885-.124-2.363.694-3.96 1.562-3.988a5.128 5.128 0 00-.927-.241c-2.288-.485-2.474 7.57 0 7.932z" fill="#666"/><path d="M287.811 168.258h-77.954v62.425h77.954v-62.425z" fill="#FFD85A"/><path d="M250.007 183.67c-.247-.061-.495-.061-.742-.061-5.316 0-9.645 4.219-9.645 9.477 0 3.85 2.35 7.152 5.688 8.68v16.078c0 2.141 1.792 3.914 3.955 3.914.186 0 .433 0 .619-.061h.184c1.794-.368 3.155-1.956 3.155-3.852v-16.078c3.336-1.467 5.687-4.829 5.687-8.68.001-5.016-3.894-9.051-8.901-9.417z" fill="#F2B42A"/><path d="M250.008 183.668c-5.007.304-8.965 4.401-8.965 9.415 0 3.85 2.35 7.152 5.688 8.68v16.078c0 1.895 1.36 3.485 3.153 3.852h.185c1.793-.368 3.154-1.957 3.154-3.852v-16.078c3.337-1.467 5.687-4.83 5.687-8.68 0-5.014-3.895-9.049-8.902-9.415z" fill="#BF6E16"/><path d="M234.594 230.68h-24.737v-62.426h6.863c0 .001-1.822 46.061 17.874 62.426z" fill="#F2B42A"/><path d="M271.074 230.68c5.908-12.384 4.806-45.678 4.806-62.426h7.852v62.426h-12.658z" fill="#FAE49D"/><path d="M190.672 172.805s-7.998-.253-15.88.116c-8.187.392-16.255 1.451-15.103 4.218.259.623.306 1.221.165 1.82-1.646 7.398-31.499 12.928-38.086 8.388-4.917-3.388-18.467.967-24.019 3.318-10.572-69.333-10.868-140.21-1.505-145.142 9.362-4.909 35.31 1.314 35.31 1.314s13.15 3.411 18.513 38.648c5.388 35.213 40.605 87.32 40.605 87.32z" fill="#4582E6"/><path d="M159.691 177.139c.258.622.305 1.221.165 1.82-8.092-24.176-27.147-93.244-20.231-74.415 6.634 18.16 27.453 54.941 35.168 68.377-8.186.392-16.256 1.452-15.102 4.218z" fill="#3D73CC"/><path d="M95.267 63.85c-7.693 9.219-9.104 11.455-16.302 11.939 2.423 1.498 3.858 3.525 4.846 5.715h.024c2.118 4.54 2.423 9.84 6.117 12.813l-4.423 4.265-1.129 1.106s-.165-.14-.447-.392c-1.93-1.752-9.597-8.828-14.162-15.327-2.682-3.779-4.304-7.352-3.175-9.587 1.834-6.499 6.54-19.842 18.513-23.83 7.857-8.365 15.55-3.872 18.278-.392 3.646 4.656-.025 14.612-8.14 13.69z" fill="#002E73"/><path d="M89.95 94.317l-4.422 4.264-1.576.714c-1.811-1.66-8.727-8.02-13.339-14.197a35.01 35.01 0 01-.823-1.129c2.281-.023 9.62-.207 14.02-2.465h.023c.189.392.354.783.494 1.175 1.694 4.24 2.236 8.918 5.623 11.638z" fill="#231F20"/><path d="M84.329 82.679c-4.87 2.904-10.445 2.81-13.716 2.419-.281-.37-.565-.76-.823-1.129 2.281-.023 9.62-.207 14.02-2.465h.023c.189.392.354.783.496 1.175z" fill="#66B8FF"/><path d="M86.636 90.387s5.039.458 6.564 1.758c1.275 1.086.496 2.441.496 2.441 2.712 1.494 0 7.289-4.734 8.718-4.735 1.431-7.838-7.307-7.838-7.307s.72-5.3 5.512-5.61zm63.572 140.602h-17.094c-.352-.197-.612-.419-.766-.672-.88-12.456-2.148-18.452-2.148-18.452l11.906-.474 2.695 9.265c3.988 2.67 8.742 8.4 5.407 10.333z" fill="#231F20"/><path d="M131.819 231.217h20.265c.515 0 .341-2.76-.172-2.76l-20.144.112c-.529-.001-.477 2.648.051 2.648z" fill="#231F20"/><path d="M124.757 98.344c2.766 7.291 14.536 40.694 11.177 64.742 4.622 15.994 3.171 29.54 7.338 52.896l-12.132.626c-4.932-28.498-10.359-23.059-11.929-51.281-9.997-22.129-15.181-43.092-17.842-64.674-2.587-16.271 17.803-24.815 23.388-2.31z" fill="#002E73"/><path d="M131.265 217.817s-.908-8.481-6.616-24.681c-1.773-4.978-2.733-8.274-3.232-10.301-.501-2.052-.563-2.835-.563-2.835 3.009-3.411 6.828-8.549 10.22-14.727 3.713 5.693 8.13 11.386 8.13 11.386s.113 1.336.314 3.526c.895 9.172 3.301 33.417 4.752 38.555 1.795 6.359-9.485 9.978-13.005-.923z" fill="#231F20"/><path d="M139.519 180.183c-1.938-2.12-5.427-6.107-8.345-10.462-1.323 4.701-6.879 10.393-9.757 13.113-.501-2.051-.563-2.834-.563-2.834 3.009-3.411 6.828-8.55 10.22-14.727 3.713 5.692 8.13 11.386 8.13 11.386s.114 1.335.315 3.524z" fill="#66B8FF"/><path d="M110.41 101.438c-.857 31.756-6.636 58.729-6.636 58.729 2.447 21.665-3.116 25.704-5.63 56.699l-10.966-.143c-.028-12.581-.773-28.16-1.553-53.385-6.903-26.362-3.578-45.779-1.004-61.538 2.747-17.9 27.541-23.824 25.789-.362z" fill="#002E73"/><path d="M98.144 216.869c.978 5.132 1.681 9.136 1.27 13.78l-26.557.506s-2.63-2.508.677-6.27c3.304-3.762 9.58-1.585 13.646-8.158l10.964.142z" fill="#231F20"/><path d="M71.649 231.221h28.215c.515 0 .38-2.76-.134-2.76l-28.096.112c-.528-.002-.513 2.648.015 2.648zm31.769-49.391l-.513 2.49c-1.335 6.844-4.92 25.949-4.5 34.546-4.985 5.83-11.465-.646-11.465-.646L84.33 171l-.18-3.18c7.032 7.65 14.336 11.729 19.269 14.01z" fill="#231F20"/><path d="M103.418 181.83l-.513 2.489c-9.686-2.765-15.65-9.264-18.576-13.319l-.18-3.18c7.032 7.65 14.336 11.729 19.269 14.01z" fill="#66B8FF"/><path d="M85.438 99.928c0 5.491 39.808 3.901 39.808-1.59-.134-9.06 1.142-16.516 2.882-22.68 11.934-11.454 11.223-20.345 8.199-25.168-5.215-8.318-31.56-7.847-41.045-4.271-3.766 1.42-8.825 7.203-10.442 16.424-.832 4.74 2.731 10.26 3.295 14.093 1.302 8.868-2.431 21.917-2.697 23.192z" fill="#002E73"/><path d="M110.254 49.999c1.964-1.528 9.799-3.887 11.883-5.558l-.47-13.324-7.704-.734a23.28 23.28 0 00-6.389 1.45l-1.734 8.773-.383 1.902c-.873 1.873.856 4.13 4.797 7.49z" fill="#F7A594"/><path d="M119.074 34.127c-1.209 1.822-6.269 6.488-13.235 6.471l1.5-7.59 11.735 1.12z" fill="#E6836F"/><path d="M102.024 16.586c-.604 2.625-1.849 8.388-1.645 11.042.309 4.04 4.163 8.523 7.522 9.11 3.889.388 9.132-.746 11.979-3.141 1.584-1.82 4.651-6.134 6.061-9.91 2.943-7.878-2.739-14.787-9.946-16.382-7.211-1.596-12.087 1.098-13.971 9.281z" fill="#F7A594"/><path d="M123.527 28.887c1.503-2.592-.494-3.641-2.685-1.63.374-1.956 2.65-7.686.634-9.587-2.277-2.205-12.298-1.245-17.681-6.744 0 0 4.013-8.619 17.182-3.529 14.876 7.727 2.55 21.49 2.55 21.49z" fill="#73382A"/><path d="M125.557 29.577c1.146-1.351 1.206-3.154.134-4.027-1.072-.872-2.87-.484-4.016.867s-1.206 3.154-.134 4.026c1.072.873 2.87.485 4.016-.866z" fill="#F7A594"/><path d="M105.896 39.834c1.316 2.303 14.859 1.106 16.082-.83l.752 7.37-12.602 7.003-6.583-7.094 2.351-6.45z" fill="#002E73"/><path d="M128.153 15.374c-.372-6.451-13.119-15.556-22.261-12.176-6.168 2.28-4.721 8.694.649 9.905 4.735 1.068 17.849-4.493 21.612 2.271z" fill="#231F20"/><path d="M104.753 3.216s.271-1.84 1.285-3.216c-7.154 4.591-3.594 10.081-3.51 10.316 2.837-8.44 9.608-8.053 12.011-8.023-6.184-2.85-9.724.67-9.786.923z" fill="#231F20"/><path d="M84.942 101.793c10.384 4.388 34.375 3.422 41.545.061l1.834 5.949c-15.6 3.602-30.523 3.704-44.691-.113l1.312-5.897z" fill="#66B8FF"/><path d="M154.43 87.837c-6.869 7.213-21.36 15.441-21.36 15.441l-4.446-6.269c4.611-2.49 7.151-8.941 11.551-13.367 1.506-1.521 3.223-2.789 5.293-3.619-7.011-1.774-10.54-3.48-16.373-13.92-8.164-.553-9.928-11.015-5.482-14.91 3.34-2.927 11.762-5.992 17.926 3.64 11.01 6.062 15.715 19.29 16.302 26.02.542 1.915-.941 4.38-3.411 6.984z" fill="#002E73"/><path d="M132.611 93.73s-5.039-.451-6.781.552c-1.455.84-.944 2.312-.944 2.312-2.944.984-1.36 7.165 3.029 9.419 4.388 2.254 9.068-5.781 9.068-5.781s.279-5.338-4.372-6.502z" fill="#231F20"/><path d="M154.43 87.84c-.423.438-.87.898-1.34 1.336-7.246 6.868-20.02 14.104-20.02 14.104l-4.446-6.268c3.976-2.144 6.399-7.213 9.81-11.409a23.039 23.039 0 011.741-1.959c1.718.992 6.846 3.642 14.255 4.196z" fill="#231F20"/><path d="M154.43 87.84c-.423.437-.87.898-1.34 1.336-6.211-.3-12.045-2.488-14.656-3.573a23.037 23.037 0 011.741-1.959c1.718.992 6.846 3.642 14.255 4.195z" fill="#66B8FF"/><path d="M114.09 60.974a.517.517 0 00.004-.036l-.004.036z" fill="#D9FFFF"/><path d="M114.09 60.974a.517.517 0 00.004-.036l-.004.036zm-12.435-1.75l.004-.036a.644.644 0 01-.004.036z" fill="#D9FFFF"/><path d="M101.655 59.224l.004-.036a.644.644 0 01-.004.036z" fill="#D9FFFF"/><path d="M108.307 56.39c1.238 1.908 3.376 3.634 5.775 4.587l-.696 5.796c-.739 6.155-6.466 8.382-7.355 8.723-.755-.522-5.805-4.312-5.066-10.47l.696-5.795c2.545-.258 5-1.338 6.646-2.84z" fill="#fff"/><path d="M107.654 59.656a.105.105 0 01-.011.008c-1.195.926-2.773 1.567-4.455 1.804l-.471 3.937c-.216 1.801.25 3.52 1.385 5.11a9.74 9.74 0 002.001 2.063 9.174 9.174 0 002.421-1.442c1.473-1.223 2.329-2.756 2.544-4.558l.472-3.936c-1.57-.697-2.948-1.757-3.886-2.986z" fill="#F7AF0C"/><path d="M104.247 44.313c.676 1.7 2.928 3.199 5.47 4.658 5.161-.827 9.12-2.393 12.994-4.613 3.811-.017 6.553 1.419 9.372 2.48l-22.501 3.587-13.217-4.888c1.758-.626 4.275-1.05 7.882-1.224z" fill="#66B8FF"/><path d="M181.552 90.056l-.001-.17.001.17zm0 0l-.001-.17.001.17zm-66.384.714l-.002-.168c-.001.01 0 .06.002.168z" fill="#D9FFFF"/><path d="M115.168 90.77l-.002-.168c-.001.01 0 .06.002.168z" fill="#D9FFFF"/><path d="M148.105 72.781c7.79 8.031 20.18 14.575 33.409 17.312l.314 27.596c.333 29.306-28.173 43.812-32.598 46.038-4.316-1.904-33.376-16.018-33.708-45.324l-.314-27.596c13.162-3.02 25.29-9.83 32.897-18.026z" fill="#fff"/><path d="M148.22 78.074c7.621 6.728 18.153 11.988 29.714 14.817l.282 24.831c.129 11.362-4.431 21.671-13.551 30.641-5.993 5.894-12.311 9.565-15.52 11.219-.139-.067-.291-.144-.441-.218l-.549-81.23.065-.06z" fill="#35F"/><path d="M148.154 78.133l.549 81.229c-3.359-1.676-9.466-5.146-15.329-10.663-9.322-8.771-14.114-18.979-14.243-30.34l-.282-24.831c11.461-3.068 21.843-8.531 29.305-15.395z" fill="#617BFF"/><path d="M134.986 114.016l.131 19.238c.015 2.142 26.835 1.969 26.82-.173l-.131-19.237-26.82.172zm10.147 7.197c-.013-1.785 1.455-3.235 3.285-3.245 1.831-.012 3.33 1.418 3.341 3.203.008 1.305-.791 2.443-1.937 2.955l.037 5.464c.006.727-.596 1.334-1.353 1.338a1.346 1.346 0 01-1.36-1.32l-.037-5.452c-1.165-.499-1.968-1.627-1.976-2.943zm-7.809-8.579l2.715-.017-.008-1.295c-.031-4.488 3.689-8.164 8.291-8.194 4.603-.03 8.372 3.597 8.403 8.086l.008 1.295 2.714-.018-.008-1.294c-.04-5.948-5.034-10.755-11.135-10.716-6.099.039-11.028 4.91-10.988 10.859l.008 1.294z" fill="#fff"/></svg>