<svg width="360" height="195" fill="none" xmlns="http://www.w3.org/2000/svg"><path d="M93.449.354c50.863-2.877 104.191 12.107 96.353 33.83-7.839 21.724 41.908-7.715 61.761.117 14.134 5.575 8.484 22.55 15.321 29.39 15.679 15.682 31.712-4.066 51.666 7.782 19.953 11.849 11.656 122.653 3.533 122.638l-307.707-.55-3.681.116s-22.567-31.829-2.138-50.415c20.428-18.587 6.402-27.085 3.92-34.268-2.851-8.248-9.503-22.652 19.478-33.223C60.935 65.201 53.453 42.2 52.74 37.437 52.027 32.674 42.585 3.231 93.449.354z" fill="#E8E8FD"/><path opacity=".6" d="M273.543 17.133h-23.31v176.461h23.31V17.133zm-32.552 53.824h-23.31v122.636h23.31V70.957zm65.574-15.594h-23.31v138.23h23.31V55.363zm-98.128-5.433h-23.31v143.665h23.31V49.93zm-32.553 42.593h-23.31v101.069h23.31V92.523z" fill="#A5AFF0"/><path opacity=".3" d="M273.543 57.793h-23.31v135.792h23.31V57.793zm-32.552 41.422h-23.31v94.371h23.31V99.215zm65.574-11.996h-23.31V193.59h23.31V87.219zm-98.128-4.184h-23.31V193.59h23.31V83.035zm-32.553 32.777h-23.31v77.776h23.31v-77.776z" fill="#6972DF"/><path d="M317.894 18.48l-18.573 13.738 7.085.443-44.338 76.32-24.55-35.996-34.728 79.225-22.338-31.031-27.842 38.492 1.752 6.889 26.077-35.878 23.613 32.801 34.601-78.936 23.819 34.928 49.088-84.497 4.557 4.794 1.777-21.291z" fill="#5183BF"/><path d="M131.374 142.566c-26.654-20.76-49.05-47.609-66.007-79.136-12.22 9.6-24.44 19.2-36.66 28.802 19.606 36.453 45.5 67.499 76.318 91.501l26.349-41.167z" fill="#3C8F7C"/><path d="M59.627 70.957c-7.59 6.06-15.182 12.12-22.773 18.178 1.808 3.296 1.152 7.743-1.54 9.999 17.235 29.806 38.835 55.703 63.988 76.717 2.056-3.018 5.933-3.604 8.718-1.393l16.615-25.561c-2.564-2.034-2.929-6.192-.874-9.209-22.089-18.453-41.056-41.195-56.192-67.37-2.691 2.254-6.279 1.673-7.942-1.361z" fill="#96D9C9"/><path d="M90.303 139.097c5.692-7.183 5.637-17.78.27-24.119-5.384-6.323-14.58-6.621-20.943-.228-6.352 6.378-6.959 17.718-.907 24.836 6.044 7.127 15.902 6.683 21.58-.489z" fill="#50BFA5"/><path d="M89.927 118.715l-2.147 2.329c1.712 3.067 1.35 6.236-.495 8.307-1.862 2.085-3.948 2.278-7.126.435-2.309-1.275-3.417-1.651-4.12-.906-.596.629-.793 1.771.468 3.331a8.676 8.676 0 001.976 1.81c.809.531 1.063 1.731.566 2.654-.482.892-1.499 1.189-2.278.646-.636-.444-1.332-1.049-2.082-1.89l-1.857 2.004a277.029 277.029 0 01-1.932-2.397l2.02-2.142c-1.633-3.087-1.309-6.155.588-8.102 2.094-2.15 4.514-1.49 7.29.213 1.924 1.174 3.04 1.36 3.836.493.84-.916.567-2.312-.492-3.632a9.375 9.375 0 00-2.4-2.109c-.817-.503-1.04-1.734-.49-2.653l.06-.101c.498-.835 1.45-1.117 2.176-.654.87.556 1.807 1.349 2.634 2.291l2.014-2.149c.595.745 1.192 1.486 1.79 2.222z" fill="#3C8F7C"/><path d="M111.303 157.585a254.898 254.898 0 01-17.545-16.155l-2.888 3.673a258.647 258.647 0 0017.791 16.382l2.642-3.9z" fill="#50BFA5"/><path d="M125.94 134.204c-33.479-4.153-66.313-15.108-96.772-32.29l-17.37 39.807c35.217 19.866 73.18 32.532 111.889 37.334.75-14.951 1.501-29.902 2.253-44.851z" fill="#3C8F7C"/><path d="M27.957 110.541l-10.648 24.954c3.215 1.78 4.87 5.612 3.663 8.647 29.84 15.687 61.508 26.253 93.813 31.302.273-3.347 3.339-5.603 6.858-5.136l1.619-27.967c-3.238-.43-5.634-3.561-5.362-6.904-28.369-4.434-56.178-13.713-82.382-27.488-1.203 3.033-4.603 4.23-7.561 2.592z" fill="#96D9C9"/><path d="M88.61 150.433c1.341-8.331-4.005-16.717-11.827-19.266-7.826-2.53-15.946 1.486-18.263 9.5-2.316 7.999 2.827 17.279 11.631 20.131 8.802 2.862 17.122-2.048 18.459-10.365z" fill="#50BFA5"/><path d="M78.091 134.43l-.694 2.84c3.016 1.643 4.286 4.326 3.723 6.823-.57 2.515-2.282 3.632-5.957 3.64-2.638.055-3.789.268-4.025 1.185-.201.775.199 1.773 2.072 2.427a9.243 9.243 0 002.617.522c.965.048 1.786.883 1.817 1.845.029.931-.704 1.636-1.65 1.566-.774-.058-1.68-.218-2.75-.537l-.607 2.448c-.958-.331-1.917-.668-2.873-1.009l.68-2.634c-2.958-1.694-4.211-4.279-3.541-6.7.738-2.675 3.167-3.27 6.423-3.202 2.254.042 3.314-.326 3.57-1.383.27-1.115-.665-2.097-2.24-2.655a10.072 10.072 0 00-3.135-.564c-.96-.022-1.767-.896-1.75-1.88v-.108c.014-.893.698-1.557 1.559-1.525 1.032.038 2.24.235 3.428.6l.672-2.637c.886.32 1.774.63 2.661.938z" fill="#3C8F7C"/><path d="M110.566 68.118a20.89 20.89 0 01-2.383-.93c-.873-.41-2.003-.891-2.718-.998-1.504-.227-4.086-.075-5.512 1.432-1.777 1.88-4.934.34-4.298 10.18.72 11.138 7.075 9.916 7.228 9.728.155-.189 5.667-7.126 5.667-7.126s1.928 4.11 1.928 3.959c-.002-.145 9.841-13.042.088-16.245z" fill="#0E2E35"/><path d="M117.264 141.551c-26.34 10.178-55.404 14.831-85.658 13.713l6.024 37.773c34.98 1.292 68.583-4.088 99.039-15.857-6.469-11.875-12.937-23.752-19.405-35.629z" fill="#3C8F7C"/><path d="M34.772 162.429l3.953 23.582c3.178.092 6.18 2.398 6.726 5.231 29.102.208 57.133-4.28 83.038-13.295-1.371-2.701-.196-5.674 2.587-6.721l-11.943-22.302c-2.561.962-5.776-.503-7.147-3.201-22.75 7.916-47.364 11.857-72.92 11.674.546 2.829-1.37 5.116-4.294 5.032z" fill="#96D9C9"/><path d="M97.683 169.063c-2.933-6.988-10.762-11.341-17.657-10.187-6.89 1.173-10.92 7.53-8.849 14.663 2.067 7.121 10.169 12.248 17.921 10.934 7.755-1.305 11.514-8.435 8.585-15.41z" fill="#50BFA5"/><path d="M82.51 160.879l.827 2.478c2.968.066 5.153 1.634 5.915 3.793.764 2.176.042 3.725-2.632 5.202-1.896 1.098-2.634 1.723-2.377 2.529.217.68.976 1.292 2.649 1.05a7.324 7.324 0 002.152-.643c.725-.349 1.715-.032 2.19.702.458.709.255 1.548-.468 1.873-.59.265-1.325.504-2.254.683l.706 2.139c-.854.127-1.71.25-2.566.369l-.74-2.312c-2.952-.127-5.078-1.628-5.726-3.772-.717-2.367.773-3.799 3.178-5.049 1.662-.869 2.261-1.578 1.953-2.5-.327-.971-1.468-1.357-2.88-1.158a7.964 7.964 0 00-2.548.818c-.71.368-1.707.014-2.157-.754a36.382 36.382 0 01-.05-.084c-.407-.698-.221-1.485.42-1.804a10.72 10.72 0 012.78-.906l-.747-2.311c.79-.112 1.584-.226 2.375-.343z" fill="#3C8F7C"/><path d="M120.003 161.93a217.562 217.562 0 01-19.174 5.667l1.51 3.559a220.622 220.622 0 0019.442-5.747l-1.778-3.479z" fill="#50BFA5"/><path d="M73.804 183.07v9.224c0 1.492 17.008 2.7 37.988 2.7s37.988-1.21 37.988-2.7v-9.224H73.804z" fill="#DD821F"/><path d="M101.295 194.893v-11.819H73.804v9.224c0 1.231 11.616 2.271 27.491 2.595zm1.28.025c2.951.052 6.038.079 9.217.079 4.736 0 9.27-.061 13.452-.174v-11.749h-22.67v11.844h.001zm24.193-.138c13.535-.413 23.013-1.368 23.013-2.482v-9.224h-23.013v11.706z" fill="#F2B42A"/><path d="M111.794 185.672c20.98 0 37.988-1.208 37.988-2.699 0-1.491-17.008-2.7-37.988-2.7s-37.988 1.209-37.988 2.7 17.008 2.699 37.988 2.699z" fill="#DD821F"/><path d="M143.076 182.973c0 1.034-14.006 1.872-31.283 1.872s-31.283-.838-31.283-1.872c0-1.034 14.006-1.871 31.283-1.871s31.283.838 31.283 1.871z" fill="#FFD85A"/><path d="M67.305 173.312v9.225c0 1.491 17.008 2.699 37.988 2.699 20.981 0 37.989-1.209 37.989-2.699v-9.225H67.305z" fill="#DD821F"/><path d="M94.797 185.132v-11.82H67.305v9.225c0 1.232 11.617 2.272 27.492 2.595zm1.279.025c2.951.052 6.038.079 9.217.079 4.737 0 9.271-.061 13.452-.174v-11.75h-22.67v11.845h.001zm24.192-.138c13.535-.413 23.014-1.369 23.014-2.483v-9.224h-23.014v11.707z" fill="#F2B42A"/><path d="M105.293 175.915c20.981 0 37.989-1.209 37.989-2.7s-17.008-2.699-37.989-2.699c-20.98 0-37.988 1.208-37.988 2.699 0 1.491 17.008 2.7 37.988 2.7z" fill="#DD821F"/><path d="M136.576 173.216c0 1.035-14.006 1.872-31.283 1.872-17.276 0-31.282-.839-31.282-1.872 0-1.034 14.006-1.872 31.282-1.872 17.277 0 31.283.838 31.283 1.872z" fill="#FFD85A"/><path d="M71.636 163.289v9.224c0 1.492 17.008 2.7 37.988 2.7s37.988-1.208 37.988-2.7v-9.224H71.636z" fill="#DD821F"/><path d="M99.126 175.112v-11.819h-27.49v9.224c0 1.231 11.615 2.271 27.49 2.595zm1.281.025c2.951.052 6.038.079 9.217.079 4.736 0 9.27-.061 13.452-.174v-11.749h-22.67v11.844h.001zm24.192-.138c13.534-.413 23.013-1.368 23.013-2.482v-9.224h-23.013v11.706z" fill="#F2B42A"/><path d="M109.624 165.891c20.98 0 37.988-1.208 37.988-2.699 0-1.491-17.008-2.7-37.988-2.7s-37.988 1.209-37.988 2.7 17.008 2.699 37.988 2.699z" fill="#DD821F"/><path d="M140.906 163.193c0 1.034-14.005 1.871-31.282 1.871s-31.282-.838-31.282-1.871 14.005-1.873 31.282-1.873c17.277.001 31.282.84 31.282 1.873z" fill="#FFD85A"/><path d="M67.305 153.41v9.224c0 1.492 17.008 2.7 37.988 2.7 20.981 0 37.989-1.209 37.989-2.7v-9.224H67.305z" fill="#DD821F"/><path d="M94.797 165.225v-11.819H67.305v9.224c0 1.232 11.617 2.271 27.492 2.595zm1.279.025a524.44 524.44 0 0022.67-.094v-11.75h-22.67v11.844zm24.192-.138c13.535-.413 23.014-1.369 23.014-2.482v-9.224h-23.014v11.706z" fill="#F2B42A"/><path d="M105.293 156.009c20.981 0 37.989-1.209 37.989-2.7s-17.008-2.7-37.989-2.7c-20.98 0-37.988 1.209-37.988 2.7s17.008 2.7 37.988 2.7z" fill="#DD821F"/><path d="M136.576 153.309c0 1.034-14.006 1.873-31.283 1.873-17.276 0-31.282-.839-31.282-1.873s14.006-1.871 31.282-1.871c17.277-.002 31.283.837 31.283 1.871z" fill="#FFD85A"/><path d="M333.282 182.293v8.87c0 1.433-16.356 2.596-36.532 2.596-20.177 0-36.532-1.163-36.532-2.596v-8.87h73.064z" fill="#DD821F"/><path d="M306.844 193.651v-11.366h26.438v8.87c0 1.186-11.171 2.186-26.438 2.496zm-1.231.023a504.382 504.382 0 01-21.8-.09v-11.299h21.8v11.389zm-23.264-.132c-13.016-.397-22.132-1.316-22.132-2.387v-8.87h22.132v11.257z" fill="#F2B42A"/><path d="M296.75 184.79c20.176 0 36.532-1.163 36.532-2.596 0-1.434-16.356-2.596-36.532-2.596-20.176 0-36.531 1.162-36.531 2.596 0 1.433 16.355 2.596 36.531 2.596z" fill="#DD821F"/><path d="M266.667 182.198c0 .994 13.468 1.8 30.083 1.8s30.083-.806 30.083-1.8-13.468-1.8-30.083-1.8-30.083.806-30.083 1.8z" fill="#FFD85A"/><path d="M339.532 172.902v8.87c0 1.434-16.356 2.597-36.532 2.597-20.177 0-36.532-1.163-36.532-2.597v-8.87h73.064z" fill="#DD821F"/><path d="M313.094 184.269v-11.367h26.438v8.871c0 1.185-11.172 2.184-26.438 2.496zm-1.23.022a504.412 504.412 0 01-21.801-.09v-11.299h21.8v11.389h.001zm-23.264-.132c-13.016-.397-22.132-1.316-22.132-2.386v-8.871H288.6v11.257z" fill="#F2B42A"/><path d="M303 175.399c20.176 0 36.532-1.162 36.532-2.596 0-1.434-16.356-2.596-36.532-2.596-20.176 0-36.532 1.162-36.532 2.596 0 1.434 16.356 2.596 36.532 2.596z" fill="#DD821F"/><path d="M303 174.603c16.614 0 30.083-.805 30.083-1.799 0-.994-13.469-1.8-30.083-1.8-16.615 0-30.083.806-30.083 1.8s13.468 1.799 30.083 1.799z" fill="#FFD85A"/><path d="M335.367 163.258v8.87c0 1.433-16.355 2.596-36.531 2.596-20.177 0-36.532-1.163-36.532-2.596v-8.87h73.063z" fill="#DD821F"/><path d="M308.93 174.628v-11.366h26.438v8.87c0 1.185-11.172 2.185-26.438 2.496zm-1.231.022a504.23 504.23 0 01-21.8-.09v-11.298h21.8v11.388zm-23.264-.132c-13.016-.397-22.131-1.316-22.131-2.386v-8.87h22.131v11.256z" fill="#F2B42A"/><path d="M298.836 165.763c20.176 0 36.531-1.163 36.531-2.597 0-1.433-16.355-2.596-36.531-2.596s-36.532 1.163-36.532 2.596c0 1.434 16.356 2.597 36.532 2.597z" fill="#DD821F"/><path d="M298.836 164.971c16.614 0 30.083-.806 30.083-1.8s-13.469-1.8-30.083-1.8c-16.615 0-30.084.806-30.084 1.8s13.469 1.8 30.084 1.8z" fill="#FFD85A"/><path d="M339.532 153.762v8.87c0 1.433-16.356 2.596-36.532 2.596-20.177 0-36.532-1.163-36.532-2.596v-8.87h73.064z" fill="#DD821F"/><path d="M313.094 165.124v-11.366h26.438v8.87c0 1.185-11.172 2.185-26.438 2.496zm-1.23.023a504.412 504.412 0 01-21.801-.09v-11.299h21.8v11.389h.001zm-23.265-.132c-13.015-.397-22.131-1.316-22.131-2.387v-8.87h22.131v11.257z" fill="#F2B42A"/><path d="M303 156.262c20.176 0 36.532-1.162 36.532-2.596 0-1.433-16.356-2.596-36.532-2.596-20.176 0-36.532 1.163-36.532 2.596 0 1.434 16.356 2.596 36.532 2.596z" fill="#DD821F"/><path d="M303 155.467c16.614 0 30.083-.806 30.083-1.8s-13.469-1.8-30.083-1.8c-16.615 0-30.083.806-30.083 1.8s13.468 1.8 30.083 1.8z" fill="#FFD85A"/><path d="M356.529 142.98l-2.195 7.493c-.354 1.212-14.459-1.678-31.504-6.452-17.044-4.775-30.574-9.628-30.22-10.84l2.195-7.493 61.724 17.292z" fill="#DD821F"/><path d="M331.384 146.321l2.811-9.602 22.334 6.257-2.194 7.494c-.292 1.001-9.977-.799-22.951-4.149zm-1.046-.27a431.275 431.275 0 01-7.507-2.033 420.415 420.415 0 01-10.888-3.204l2.795-9.544 18.417 5.159-2.817 9.622zm-19.62-5.616c-10.898-3.417-18.372-6.351-18.106-7.254l2.195-7.493 18.697 5.237-2.786 9.51z" fill="#F2B42A"/><path d="M294.83 125.608c-.355 1.212 13.175 6.065 30.219 10.839 17.044 4.775 31.15 7.665 31.505 6.453.354-1.211-13.176-6.065-30.22-10.839-17.045-4.776-31.15-7.664-31.504-6.453z" fill="#DD821F"/><path d="M300.277 127.131c-.247.839 10.933 4.708 24.969 8.64 14.036 3.932 25.613 6.439 25.859 5.598.247-.839-10.932-4.708-24.968-8.64-14.036-3.932-25.613-6.438-25.86-5.598z" fill="#FFD85A"/><path d="M336.569 91.41l2.337 7.452c.378 1.204-13.058 6.302-30.008 11.386-16.951 5.084-30.999 8.23-31.377 7.025l-2.336-7.451 61.384-18.412z" fill="#DD821F"/><path d="M317.352 107.622l-2.994-9.55 22.211-6.662 2.337 7.452c.311.996-8.81 4.652-21.554 8.76zm-1.028.329a430.66 430.66 0 01-7.427 2.298 425.292 425.292 0 01-10.913 3.12l-2.977-9.493 18.316-5.493 3.001 9.568zm-19.58 5.751c-11.04 2.947-18.94 4.471-19.223 3.572l-2.336-7.451 18.593-5.577 2.966 9.456z" fill="#F2B42A"/><path d="M275.16 109.742c.378 1.205 14.426-1.941 31.376-7.024 16.951-5.084 30.385-10.182 30.007-11.387-.378-1.205-14.425 1.941-31.375 7.025-16.951 5.084-30.386 10.181-30.008 11.386z" fill="#DD821F"/><path d="M280.578 108.117c.262.835 11.79-1.882 25.749-6.068 13.958-4.187 25.061-8.259 24.8-9.094-.262-.834-11.79 1.882-25.749 6.069-13.959 4.186-25.063 8.257-24.8 9.093z" fill="#FFD85A"/><path d="M136.269 184.123l.904 4.696c.05.611.031 2.155.166 2.687.507 2.004 9.125-2.867 6.864-3.258-.205-.035-1.688-1.503-2.028-2.125-.59-1.081-1.134-3.096-1.134-3.096l-4.772 1.096z" fill="#F7A491"/><path d="M143.775 187.957s-2.225.539-3.357.65c-1.132.11-2.586-1.61-3.398-1.285-.893.359-1.38 5.816-1.38 5.816s14.215.634 17.574-.274c1.333-.36-5.016-3.249-9.439-4.907z" fill="#35F"/><path d="M156.089 183.911l.904 4.696c.05.611.032 2.154.166 2.687.508 2.003 8.967-2.546 6.706-2.937-.205-.036-1.528-1.824-1.868-2.445-.591-1.081-1.134-3.096-1.134-3.096l-4.774 1.095z" fill="#F7A491"/><path d="M163.378 187.957s-2.225.539-3.357.65c-1.132.11-2.586-1.61-3.398-1.285-.893.359-1.381 5.816-1.381 5.816s14.216.634 17.575-.274c1.333-.36-5.016-3.249-9.439-4.907z" fill="#35F"/><path d="M106.802 136.999l25.861-5.867s11.597-2.999 14.397.521c2.799 3.52 14.687 52.103 14.687 52.103s-6.132.521-6.532.26l-14.354-24.917a21.374 21.374 0 01-2.647-7.665l-1.018-7.135-10.532 2.999s-12.13 2.607-17.062-.391c-4.932-2.999-2.8-9.908-2.8-9.908z" fill="#0E2E35"/><path d="M116.733 93.39c.409.018 1.528.382 3.165 3.398 2.091 3.851 5.145 15.482 5.145 15.482l-9.119 3.31-1.172-2.427-1.929-18.69c0-.002 3.798-1.077 3.91-1.072z" fill="#EAB054"/><path d="M104.679 91.711c2.608.003 9.06.745 12.054 1.678 0 0 2.2 18.43-1.981 32.434-.935 3.135.774 12.995.774 12.995l-27.02-.348s3.2-23.838 1.994-27.689c-1.206-3.851-1.234-17.27-1.234-17.27s.185-.028 6.07-1.018c2.747-.462 6.558-.785 9.343-.782z" fill="#35F"/><path d="M88.973 95.567c2.526-.924 3.763 21.265 4.102 30.397 4.474.419 12.272.003 14.214-.139.913-.067 3.019-.819 3.927-.934.931-.118 1.774-.181 2.232-.104.168.029 4.832 1.888 5.231 2.295.495.505 1.832 1.78 1.607 2.332-.226.552-2.572-1.537-2.572-1.537l-1.147-.627c1.427 1.36 4.15 3.15 3.758 3.802-.383.636-2.839-1.181-4.59-2.419 1.502 1.321 3.368 3.688 2.937 4.056-.386.331-2.508-2.407-4.776-3.195-.84-.293-1.678.516-2.339.614-.486.072-1.236.225-1.712.093l-2.278-.215c-.836.074-1.035.092-1.879.268-.981.203-2.59.417-3.839.715-7.19 1.712-9.59 2.508-11.791 2.506-6.67-.003-7.057-35.725-1.085-37.908z" fill="#F7A491"/><path d="M84.178 116.397c-.473-9.355-.403-20.885 4.976-22.852 2.123-.776 5.865 3.89 5.193 23.042-2.873.231-7.09.417-10.169-.19z" fill="#EAB054"/><path d="M144.101 110.676l-25.458 1.626a1.658 1.658 0 00-1.468 1.106l-6.589 19.199-14.035.896a.702.702 0 00-.664.74.707.707 0 00.757.649l39.945-2.551a2.787 2.787 0 002.435-1.773l6.745-17.7c.419-1.107-.465-2.27-1.668-2.192z" fill="#9DAEFF"/><path d="M131.416 122.542c-.051.857-.714 1.517-1.481 1.474-.767-.043-1.348-.773-1.298-1.631.051-.856.714-1.516 1.481-1.473.768.043 1.348.774 1.298 1.63z" fill="#fff"/><path d="M88.522 137.875l28.181-4.758s12.184-1.816 14.984 1.704c2.8 3.52 10.93 49.151 10.93 49.151s-6.132.521-6.532.26c-.309-.202-7.734-15.414-11.068-22.269a25.616 25.616 0 01-2.212-6.858l-1.071-6.211-3.547 1.195c-6.232 2.098-12.871 2.826-19.412 2.032-2.738-.333-5.294-.905-6.88-1.868-4.932-2.999-3.373-12.378-3.373-12.378z" fill="#184655"/><path d="M105.742 88.354l.549 3.98s1.229 5.734-.352 6.84c-1.581 1.106-6.722-7.003-6.722-7.003l.543-10.085 5.982 6.268z" fill="#F7A491"/><path d="M99.583 85.354c1.306 3.44 4.416 5.554 6.623 6.374l-.465-3.374-5.983-6.268-.175 3.268z" fill="#F47458"/><path d="M105.418 71.11c3.35-.526 6.354 2.1 6.27 5.368a39.22 39.22 0 01-.458 5.104c-.728 4.595-3.944 8.64-6.07 8.279-2.127-.362-7.477-4.324-6.535-10.863.58-4.035 3.278-7.335 6.793-7.888z" fill="#F7A491"/><path d="M100.1 79.779c-.18 1.01-1.01 1.713-1.854 1.57-.845-.144-1.384-1.079-1.205-2.089.179-1.01 1.01-1.713 1.854-1.57.844.144 1.384 1.079 1.205 2.089z" fill="#F7A491"/><path d="M98.895 77.69s2.57.622 3.525-.989c.954-1.612 4.366-5.09 8.703-3.647 4.338 1.443-3.816-3.506-4.163-3.506-.346 0-4.511-.029-4.511-.029s-3.209 2.574-3.325 2.857c-.115.283-1.041 3.365-1.041 3.365l.812 1.949z" fill="#0E2E35"/><path d="M224.878 193.34h64v-22.782h-64v22.782z" fill="#50BFA5"/><path d="M224.878 176.809h64v-2.931h-64v2.931zm0 5.726h63.999v-2.93h-63.999v2.93zm0 5.723h64v-2.931h-64v2.931zm0 5.082h64v-2.931h-64v2.931z" fill="#96D9C9"/><path d="M248.703 193.34h13.31v-22.782h-13.31v22.782z" fill="#FFD85A"/><path d="M288.101 193.34h9.665v-22.782h-9.665v22.782z" fill="#3C8F7C"/><path d="M360 193.023H6.349v1.974H360v-1.974z" fill="#0E2E35"/><path opacity=".8" d="M156.568 21.977c-.648-2.76-3.174-4.818-6.192-4.818a6.52 6.52 0 00-1.604.2c-1.49-3.116-4.723-5.274-8.472-5.274a9.56 9.56 0 00-2.783.412c-2.018-3.269-5.684-5.454-9.873-5.454-4.983 0-9.228 3.093-10.836 7.424a8.007 8.007 0 00-3.846-.976c-4.367 0-7.909 3.463-7.909 7.736 0 .254.013.504.037.751h51.478zm23.195 30.699c-.49-2.089-2.4-3.646-4.685-3.646-.419 0-.826.052-1.213.151-1.127-2.358-3.573-3.99-6.41-3.99-.734 0-1.441.109-2.107.311-1.527-2.473-4.301-4.127-7.471-4.127-3.771 0-6.984 2.341-8.2 5.617a6.063 6.063 0 00-2.911-.738c-3.305 0-5.985 2.621-5.985 5.854 0 .192.01.382.029.568h38.953zM71.291 48.367c.429-1.822 2.094-3.18 4.086-3.18.365 0 .72.046 1.058.132.983-2.056 3.116-3.48 5.59-3.48.64 0 1.256.096 1.837.272a7.638 7.638 0 016.515-3.6c3.288 0 6.09 2.042 7.151 4.9a5.285 5.285 0 012.537-.645c2.882 0 5.219 2.286 5.219 5.105 0 .167-.009.332-.024.495H71.291z" fill="#fff"/><path d="M143.202 74.348l.454 5.398 3.206-3.531 10.368-8.305-8.841 2.725s-4.353 2.068-4.553 2.34c-.201.274-.634 1.373-.634 1.373z" fill="#50BFA5"/><path d="M138.504 72.03l18.725-4.12-14.027 6.438-4.698-2.319zm11.9 6.315l-5.772-2.816 12.597-7.619-6.825 10.435z" fill="#96D9C9"/><path d="M141.016 77.347c.864-.319 1.501-.387 1.508-.388l-.041-.393c-.028.004-.696.075-1.608.411l.141.37zm-9.241 31.899a16.142 16.142 0 002.031-2.172l.323.238a16.615 16.615 0 01-2.08 2.225l-.274-.291zm3.59-4.683c.198-.406.38-.829.541-1.258.182-.486.344-.993.48-1.507l.391.099c-.14.527-.305 1.047-.492 1.544-.165.441-.352.875-.556 1.292l-.364-.17zm1.63-8.63l.403-.01a24.888 24.888 0 01-.099 3.004l-.401-.037c.088-.933.121-1.901.097-2.957zm-.575-5.915l.399-.055c.169 1.154.29 2.098.379 2.969l-.401.04a67.594 67.594 0 00-.377-2.954zm-.451-2.971a14.126 14.126 0 01-.153-2.995l.403.024c-.057.897-.007 1.878.149 2.913l.003.023-.4.053-.002-.018zm.507-5.96a7.14 7.14 0 011.752-2.517l.276.287a6.781 6.781 0 00-1.655 2.379l-.373-.15z" fill="#3C8F7C"/></svg>