<svg width="193" height="35" fill="none" xmlns="http://www.w3.org/2000/svg"><path d="M7.7 15.302c1.813 0 3.338.61 4.577 1.83 1.239 1.221 1.858 2.72 1.858 4.497 0 1.778-.62 3.276-1.858 4.497-1.239 1.22-2.764 1.831-4.577 1.831H4.388v6.193H.672V15.302H7.7zm0 9.182c.79 0 1.445-.27 1.965-.808.52-.557.781-1.239.781-2.046 0-.826-.26-1.508-.78-2.047-.521-.538-1.177-.808-1.966-.808H4.388v5.709H7.7zm19.194 9.666l-3.797-6.543H20.27v6.543h-3.716V15.302h7.54c1.74 0 3.221.61 4.442 1.83 1.22 1.221 1.831 2.694 1.831 4.417 0 1.166-.332 2.253-.996 3.258a6.27 6.27 0 01-2.639 2.235l4.174 7.108h-4.012zM20.27 18.775v5.574h3.823c.7 0 1.302-.27 1.804-.808.503-.556.754-1.22.754-1.992s-.25-1.427-.754-1.966c-.502-.538-1.103-.808-1.804-.808H20.27zM48.743 31.7c-1.903 1.885-4.219 2.827-6.947 2.827-2.729 0-5.044-.942-6.947-2.827-1.885-1.903-2.827-4.227-2.827-6.974 0-2.746.942-5.062 2.827-6.947 1.903-1.903 4.218-2.854 6.947-2.854 2.728 0 5.044.951 6.947 2.854 1.903 1.885 2.854 4.2 2.854 6.947s-.951 5.071-2.854 6.974zM37.46 29.169c1.166 1.149 2.612 1.723 4.335 1.723 1.723 0 3.168-.574 4.335-1.723 1.167-1.167 1.75-2.648 1.75-4.443 0-1.795-.583-3.276-1.75-4.443-1.167-1.167-2.612-1.75-4.335-1.75-1.723 0-3.169.583-4.335 1.75-1.167 1.167-1.75 2.648-1.75 4.443 0 1.795.583 3.276 1.75 4.443zm28.137-13.867v3.554h-5.089V34.15h-3.716V18.856H51.73v-3.554h13.867zM82.453 31.7c-1.903 1.885-4.218 2.827-6.947 2.827-2.728 0-5.044-.942-6.947-2.827-1.885-1.903-2.827-4.227-2.827-6.974 0-2.746.942-5.062 2.827-6.947 1.903-1.903 4.219-2.854 6.947-2.854 2.729 0 5.044.951 6.947 2.854 1.903 1.885 2.854 4.2 2.854 6.947s-.951 5.071-2.854 6.974zm-11.282-2.531c1.167 1.149 2.612 1.723 4.335 1.723 1.723 0 3.168-.574 4.335-1.723 1.167-1.167 1.75-2.648 1.75-4.443 0-1.795-.583-3.276-1.75-4.443-1.167-1.167-2.612-1.75-4.335-1.75-1.723 0-3.168.583-4.335 1.75-1.167 1.167-1.75 2.648-1.75 4.443 0 1.795.583 3.276 1.75 4.443zm27.653-13.867h3.716V34.15h-2.828l-8.077-11.524V34.15h-3.716V15.302h2.827l8.078 11.497V15.302zm26.41 0v3.554h-5.089V34.15h-3.715V18.856h-5.063v-3.554h13.867zm12.414 18.848l-3.796-6.543h-2.827v6.543h-3.716V15.302h7.539c1.741 0 3.222.61 4.443 1.83 1.221 1.221 1.831 2.694 1.831 4.417 0 1.166-.332 2.253-.996 3.258a6.276 6.276 0 01-2.639 2.235l4.173 7.108h-4.012zm-6.623-15.375v5.574h3.823c.7 0 1.302-.27 1.804-.808.503-.556.754-1.22.754-1.992s-.251-1.427-.754-1.966c-.502-.538-1.104-.808-1.804-.808h-3.823zm24.94 15.375l-1.131-3.392h-7.512l-1.131 3.392h-4.012l6.597-18.848h4.604l6.624 18.848h-4.039zm-7.458-6.866h5.169l-2.585-7.7-2.584 7.7zm20.813-11.982c2.584 0 4.739.906 6.462 2.72 1.741 1.812 2.612 4.047 2.612 6.704s-.871 4.892-2.612 6.705c-1.723 1.813-3.878 2.72-6.462 2.72h-7.486V15.3h7.486zm0 15.294c1.633 0 2.961-.539 3.985-1.616 1.023-1.095 1.534-2.513 1.534-4.254 0-1.741-.511-3.15-1.534-4.227-1.024-1.095-2.352-1.643-3.985-1.643h-3.77v11.74h3.77zm15.425 0h7.944v3.554H181.03V15.302h11.524v3.554h-7.809v4.012h7.136v3.5h-7.136v4.228zM3.522.493c.703 0 1.29.235 1.761.706.471.472.707 1.059.707 1.762 0 .703-.236 1.29-.707 1.761-.471.471-1.058.707-1.761.707h-2.02v2.917H.717V.493h2.805zm0 4.195c.486 0 .886-.16 1.2-.482.322-.329.482-.744.482-1.245 0-.501-.16-.913-.482-1.234-.314-.33-.714-.494-1.2-.494h-2.02v3.455h2.02zm7.952 2.952c-.569.56-1.264.84-2.087.84-.823 0-1.522-.28-2.098-.84-.568-.57-.853-1.269-.853-2.099 0-.83.285-1.526.853-2.087.576-.568 1.275-.852 2.098-.852s1.518.284 2.087.852c.576.561.864 1.257.864 2.087 0 .83-.288 1.53-.864 2.098zm-3.658-.517c.427.426.95.64 1.571.64.62 0 1.144-.214 1.57-.64a2.17 2.17 0 00.64-1.582c0-.62-.213-1.144-.64-1.57a2.117 2.117 0 00-1.57-.651c-.62 0-1.144.217-1.57.65-.427.427-.64.95-.64 1.571 0 .62.213 1.148.64 1.582zm8.251 1.357c-.807 0-1.48-.265-2.019-.796-.539-.538-.808-1.234-.808-2.087 0-.957.142-1.69.426-2.199.285-.516.86-.983 1.728-1.402.165-.082.382-.18.651-.292.277-.112.482-.202.617-.27.142-.066.296-.152.46-.257.165-.112.288-.236.37-.37.083-.135.135-.296.157-.483l.584.337c-.03.18-.09.348-.18.505a1.8 1.8 0 01-.28.381 1.99 1.99 0 01-.438.325 6.44 6.44 0 01-.46.247c-.105.045-.291.124-.56.236a71.8 71.8 0 01-.528.224c-.524.225-.909.46-1.156.707-.246.24-.422.554-.527.943a2.24 2.24 0 01.965-.741 3.005 3.005 0 011.155-.247c.748 0 1.366.247 1.852.74.493.487.74 1.111.74 1.874 0 .756-.262 1.384-.785 1.885-.516.494-1.17.74-1.964.74zm0-.74c.584 0 1.063-.176 1.436-.527.382-.36.573-.812.573-1.358 0-.553-.18-1.006-.539-1.357-.351-.36-.823-.539-1.413-.539a2.31 2.31 0 00-1.448.505c-.434.33-.65.77-.65 1.324 0 .568.194 1.036.583 1.402.396.367.883.55 1.458.55zm8.576-.1c-.568.56-1.264.84-2.087.84-.822 0-1.522-.28-2.098-.84-.568-.57-.852-1.269-.852-2.099 0-.83.284-1.526.852-2.087.576-.568 1.276-.852 2.098-.852.823 0 1.519.284 2.087.852.576.561.864 1.257.864 2.087 0 .83-.288 1.53-.864 2.098zm-3.657-.517c.426.426.95.64 1.57.64.621 0 1.145-.214 1.571-.64a2.17 2.17 0 00.64-1.582c0-.62-.213-1.144-.64-1.57a2.117 2.117 0 00-1.57-.651c-.621 0-1.145.217-1.571.65-.427.427-.64.95-.64 1.571 0 .62.213 1.148.64 1.582zm9.58-4.387v.718H28.58v4.892h-.74V3.454h-1.986v-.718h4.712zm.674 2.502V4.52h4.04v.718h-4.04zm10.43-2.502v5.61h-.741V3.454h-3.231v4.892h-.74v-5.61h4.712zm6.266 4.904c-.568.56-1.264.84-2.087.84-.822 0-1.522-.28-2.097-.84-.569-.57-.853-1.269-.853-2.099 0-.83.284-1.526.852-2.087.576-.568 1.276-.852 2.099-.852.822 0 1.518.284 2.086.852.576.561.864 1.257.864 2.087 0 .83-.288 1.53-.864 2.098zm-3.657-.517c.426.426.95.64 1.57.64.621 0 1.145-.214 1.571-.64.426-.434.64-.961.64-1.582 0-.62-.214-1.144-.64-1.57a2.117 2.117 0 00-1.57-.651c-.621 0-1.145.217-1.571.65-.427.427-.64.95-.64 1.571 0 .62.213 1.148.64 1.582zm11.258-4.387v5.61h-.74V3.869l-1.964 3.187h-.09L50.78 3.869v4.477h-.74v-5.61h.852l1.896 3.074 1.896-3.074h.853zm6.27 4.904c-.569.56-1.264.84-2.087.84-.823 0-1.522-.28-2.098-.84-.568-.57-.853-1.269-.853-2.099 0-.83.285-1.526.853-2.087.576-.568 1.275-.852 2.098-.852s1.518.284 2.087.852c.576.561.864 1.257.864 2.087 0 .83-.288 1.53-.864 2.098zm-3.658-.517c.427.426.95.64 1.571.64.62 0 1.145-.214 1.57-.64a2.17 2.17 0 00.64-1.582c0-.62-.213-1.144-.64-1.57a2.117 2.117 0 00-1.57-.651c-.62 0-1.144.217-1.57.65-.427.427-.64.95-.64 1.571 0 .62.213 1.148.64 1.582zm13.278.505h.785v2.221h-.74V8.346H63.91v-5.61h.74v4.892h2.648V2.736h.74v4.892h2.648V2.736h.74v4.892zm5.877-4.892h.74v5.61h-.74V5.9h-3.231v2.446h-.74v-5.61h.74v2.446h3.23V2.736zm6.39 0h.628v5.61h-.74v-4.32l-3.343 4.32h-.629v-5.61h.74v4.32l3.344-4.32zm6.726 5.61h-.987L86.63 5.642v2.704h-.74v-5.61h.74v2.48l2.67-2.48h1.01L87.413 5.43l3.007 2.917z" fill="#343A40"/></svg>