<svg width="42" height="42" fill="none" xmlns="http://www.w3.org/2000/svg"><path d="M34.242.95c-3.092 0-5.52 2.952-5.52 6.611 0 3.66 2.467 6.566 5.52 6.566 3.054 0 5.56-2.952 5.56-6.61 0-3.66-2.468-6.567-5.56-6.567zm0 11.639c-2.341 0-4.251-2.26-4.251-5.073 0-2.811 1.947-5.028 4.251-5.028 2.342 0 4.252 2.261 4.252 5.073 0 2.811-1.91 5.028-4.252 5.028z" fill="#35F" stroke="#35F" stroke-width=".1"/><mask id="path-2-outside-1" maskUnits="userSpaceOnUse" x="31.469" y="2.293" width="5" height="10" fill="#000"><path fill="#fff" d="M31.469 2.293h5v10h-5z"/><path d="M35.978 8.55c-.038-.134-.038-.224-.113-.359-.038-.09-.076-.224-.151-.314-.076-.09-.114-.18-.189-.27-.075-.09-.15-.18-.264-.225-.076-.09-.189-.134-.264-.18-.113-.044-.189-.134-.302-.18a2.359 2.359 0 01-.302-.134c-.038 0-.113-.045-.15-.09-.039-.045-.114-.045-.152-.09-.038-.045-.113-.045-.15-.09l-.114-.134c-.038-.045-.075-.09-.075-.18-.038-.045-.038-.135-.038-.18V5.9c0-.045.038-.134.038-.18.037-.044.037-.134.075-.18l.113-.134a.266.266 0 01.189-.09c.075-.045.113-.045.189-.045h.226c.076 0 .113 0 .189.045.075 0 .15.045.188.045.038 0 .114.045.151.045.076 0 .113.045.151.045l.189.09.038-.27.075-.719v-.18l-.15-.044c-.039 0-.114-.045-.152-.045-.038 0-.075-.045-.15-.045-.038 0-.114-.045-.19-.045-.075 0-.113-.045-.188-.045h-.038v-.854h-.905v.899h-.038c-.113.045-.227.09-.34.18-.113.044-.188.134-.264.224-.075.09-.15.18-.226.315-.076.09-.113.224-.151.36l-.113.404c-.038.135-.038.314-.038.45 0 .134 0 .224.038.359.037.134.037.224.113.36.038.089.113.224.15.314.076.09.114.18.19.27.075.09.15.18.264.224.075.09.188.135.264.18.113.045.226.135.302.18.113.044.226.09.301.134.038 0 .114.045.151.09.038.045.114.045.151.09.038.045.076.09.114.09l.113.135c.037.045.037.09.075.18 0 .044.038.134.038.224v.225a.369.369 0 01-.076.18l-.113.134a.54.54 0 01-.15.135c-.038.045-.114.045-.152.09-.037 0-.113.045-.188.045h-.491c-.075 0-.15-.045-.189-.045-.075 0-.15-.045-.226-.09-.075-.045-.15-.045-.226-.09-.038 0-.076-.045-.113-.045-.038 0-.076-.044-.114-.044l-.226-.135-.038.314-.075.81v.134l.113.045c.15-.045.226 0 .34.045.075.045.188.09.264.09.075.045.188.045.301.09a.706.706 0 00.302.045h.076v.898h.905v-.944h.038c.113-.044.227-.09.34-.18.113-.044.188-.134.302-.224.075-.09.15-.18.226-.314.075-.09.113-.225.189-.36l.113-.404c.038-.135.038-.27.038-.45 0-.135 0-.224-.038-.36z"/></mask><path d="M35.978 8.55c-.038-.134-.038-.224-.113-.359-.038-.09-.076-.224-.151-.314-.076-.09-.114-.18-.189-.27-.075-.09-.15-.18-.264-.225-.076-.09-.189-.134-.264-.18-.113-.044-.189-.134-.302-.18a2.359 2.359 0 01-.302-.134c-.038 0-.113-.045-.15-.09-.039-.045-.114-.045-.152-.09-.038-.045-.113-.045-.15-.09l-.114-.134c-.038-.045-.075-.09-.075-.18-.038-.045-.038-.135-.038-.18V5.9c0-.045.038-.134.038-.18.037-.044.037-.134.075-.18l.113-.134a.266.266 0 01.189-.09c.075-.045.113-.045.189-.045h.226c.076 0 .113 0 .189.045.075 0 .15.045.188.045.038 0 .114.045.151.045.076 0 .113.045.151.045l.189.09.038-.27.075-.719v-.18l-.15-.044c-.039 0-.114-.045-.152-.045-.038 0-.075-.045-.15-.045-.038 0-.114-.045-.19-.045-.075 0-.113-.045-.188-.045h-.038v-.854h-.905v.899h-.038c-.113.045-.227.09-.34.18-.113.044-.188.134-.264.224-.075.09-.15.18-.226.315-.076.09-.113.224-.151.36l-.113.404c-.038.135-.038.314-.038.45 0 .134 0 .224.038.359.037.134.037.224.113.36.038.089.113.224.15.314.076.09.114.18.19.27.075.09.15.18.264.224.075.09.188.135.264.18.113.045.226.135.302.18.113.044.226.09.301.134.038 0 .114.045.151.09.038.045.114.045.151.09.038.045.076.09.114.09l.113.135c.037.045.037.09.075.18 0 .044.038.134.038.224v.225a.369.369 0 01-.076.18l-.113.134a.54.54 0 01-.15.135c-.038.045-.114.045-.152.09-.037 0-.113.045-.188.045h-.491c-.075 0-.15-.045-.189-.045-.075 0-.15-.045-.226-.09-.075-.045-.15-.045-.226-.09-.038 0-.076-.045-.113-.045-.038 0-.076-.044-.114-.044l-.226-.135-.038.314-.075.81v.134l.113.045c.15-.045.226 0 .34.045.075.045.188.09.264.09.075.045.188.045.301.09a.706.706 0 00.302.045h.076v.898h.905v-.944h.038c.113-.044.227-.09.34-.18.113-.044.188-.134.302-.224.075-.09.15-.18.226-.314.075-.09.113-.225.189-.36l.113-.404c.038-.135.038-.27.038-.45 0-.135 0-.224-.038-.36z" fill="#35F"/><path d="M35.978 8.55c-.038-.134-.038-.224-.113-.359-.038-.09-.076-.224-.151-.314-.076-.09-.114-.18-.189-.27-.075-.09-.15-.18-.264-.225-.076-.09-.189-.134-.264-.18-.113-.044-.189-.134-.302-.18a2.359 2.359 0 01-.302-.134c-.038 0-.113-.045-.15-.09-.039-.045-.114-.045-.152-.09-.038-.045-.113-.045-.15-.09l-.114-.134c-.038-.045-.075-.09-.075-.18-.038-.045-.038-.135-.038-.18V5.9c0-.045.038-.134.038-.18.037-.044.037-.134.075-.18l.113-.134a.266.266 0 01.189-.09c.075-.045.113-.045.189-.045h.226c.076 0 .113 0 .189.045.075 0 .15.045.188.045.038 0 .114.045.151.045.076 0 .113.045.151.045l.189.09.038-.27.075-.719v-.18l-.15-.044c-.039 0-.114-.045-.152-.045-.038 0-.075-.045-.15-.045-.038 0-.114-.045-.19-.045-.075 0-.113-.045-.188-.045h-.038v-.854h-.905v.899h-.038c-.113.045-.227.09-.34.18-.113.044-.188.134-.264.224-.075.09-.15.18-.226.315-.076.09-.113.224-.151.36l-.113.404c-.038.135-.038.314-.038.45 0 .134 0 .224.038.359.037.134.037.224.113.36.038.089.113.224.15.314.076.09.114.18.19.27.075.09.15.18.264.224.075.09.188.135.264.18.113.045.226.135.302.18.113.044.226.09.301.134.038 0 .114.045.151.09.038.045.114.045.151.09.038.045.076.09.114.09l.113.135c.037.045.037.09.075.18 0 .044.038.134.038.224v.225a.369.369 0 01-.076.18l-.113.134a.54.54 0 01-.15.135c-.038.045-.114.045-.152.09-.037 0-.113.045-.188.045h-.491c-.075 0-.15-.045-.189-.045-.075 0-.15-.045-.226-.09-.075-.045-.15-.045-.226-.09-.038 0-.076-.045-.113-.045-.038 0-.076-.044-.114-.044l-.226-.135-.038.314-.075.81v.134l.113.045c.15-.045.226 0 .34.045.075.045.188.09.264.09.075.045.188.045.301.09a.706.706 0 00.302.045h.076v.898h.905v-.944h.038c.113-.044.227-.09.34-.18.113-.044.188-.134.302-.224.075-.09.15-.18.226-.314.075-.09.113-.225.189-.36l.113-.404c.038-.135.038-.27.038-.45 0-.135 0-.224-.038-.36z" stroke="#35F" stroke-width=".2" mask="url(#path-2-outside-1)"/><path d="M30.701 14.755h0l-.002.002-6.087 5.772-7.855-3.894h0a.573.573 0 00-.621.097l-8.452 7.19c-.282.24-.362.716-.162 1.051.122.241.328.34.534.34a.59.59 0 00.37-.145h.001l.001-.001 8.163-6.945 7.894 3.896h.001c.105.05.229.062.345.044a.616.616 0 00.314-.142h0l6.377-6.022a.773.773 0 00.242-.515.967.967 0 00-.12-.581.624.624 0 00-.943-.147z" fill="#35F" stroke="#35F" stroke-width=".1"/><path d="M40.43 39.514h-2.742V18.758c0-.423-.278-.769-.654-.769h-5.546c-.375 0-.654.346-.654.77v20.755h-1.937V25.948c0-.423-.28-.769-.654-.769h-5.584c-.376 0-.654.346-.654.77v13.565h-1.938V24.87c0-.424-.279-.77-.654-.77h-5.546c-.375 0-.654.346-.654.77v14.644h-1.938v-10.42c0-.424-.278-.77-.653-.77H5.037c-.375 0-.653.346-.653.77v10.42h-2.78c-.375 0-.654.346-.654.77 0 .423.279.769.654.769h38.789c.374 0 .652-.345.653-.767.04-.427-.241-.772-.615-.772zm-30.5 0H5.691v-9.651h4.24v9.651zm8.83 0h-4.24V25.64h4.24v13.875zm8.791 0h-4.239V26.717h4.24v12.797zm8.83 0h-4.24V19.527h4.24v19.987z" fill="#35F" stroke="#35F" stroke-width=".1"/></svg>