<svg width="1440" height="804" fill="none" xmlns="http://www.w3.org/2000/svg"><path opacity=".4" d="M1457.45-136.634c-3.1-1.821-8.12-1.821-11.21 0-2.33 1.367-2.9 3.366-1.73 5.036L1270.8-30.028V98.19l-42.32 24.748v139.451l-144.95 84.769-22.59-13.209 111.78-65.36v-76.444l-.45-.253-127.09-74.319V91.635l71.87-42.03c3.1 1.316 7.45 1.164 10.25-.455 3.1-1.822 3.1-4.758 0-6.554-3.1-1.822-8.12-1.822-11.22 0-2.8 1.645-3.05 4.175-.8 5.997l-71.88 42.03v28.012l.45.253 127.09 74.318v74.369l-84.44 49.394v-31.858l38.72-22.647c3.1 1.316 7.45 1.164 10.25-.456 3.1-1.821 3.1-4.757 0-6.553-3.1-1.822-8.12-1.822-11.22 0-2.8 1.644-3.05 4.175-.8 5.997l-38.72 22.647v33.933l-25.54 14.929-30.2-17.662v-55.467l56.96-33.325v-38.336l-.45-.253-119.944-70.143c2.248-1.822 1.999-4.353-.8-5.997-3.097-1.822-8.119-1.822-11.217 0-3.098 1.821-3.098 4.757 0 6.553 2.798 1.645 7.145 1.772 10.243.456l120.368 70.396v36.261l-55.19 32.288v-38.235l-.45-.253-73.372-42.916c2.248-1.821 1.998-4.352-.8-5.997-3.098-1.822-8.119-1.822-11.217 0-3.098 1.822-3.098 4.758 0 6.554 2.798 1.645 7.145 1.771 10.243.456l73.826 43.169v93.701l-21.21-12.399-34.953 20.446-31.654-18.523v-44.991l-.449-.253-83.695-48.938v-42.41c1.724-.101 3.398-.531 4.722-1.316 3.098-1.822 3.098-4.757 0-6.554-3.098-1.821-8.119-1.821-11.217 0-3.098 1.822-3.098 4.758 0 6.554 1.324.785 2.998 1.19 4.722 1.316v43.447l.449.253 83.695 48.939v42.916L801.39 223.04V138.6l73.876-43.194h67.805l.2-.127 116.349-68.017c3.1 1.315 7.44 1.164 10.24-.456 3.1-1.822 3.1-4.757 0-6.554-3.1-1.822-8.12-1.822-11.22 0-2.79 1.645-3.04 4.175-.8 5.997L942.596 93.634h-64.257L1092.07-31.343c3.1 1.316 7.45 1.164 10.24-.455 3.1-1.822 3.1-4.758 0-6.554-3.09-1.822-8.11-1.822-11.21 0-2.8 1.645-3.05 4.175-.8 5.997L799.617 137.613v86.515l.449.253 169.212 98.939-34.052 19.915-288.907-168.931V73.492l-.45-.253L547.61 15.8c2.248-1.822 1.998-4.352-.8-5.997-3.098-1.822-8.119-1.822-11.217 0-3.098 1.822-3.098 4.757 0 6.553 2.798 1.645 7.145 1.772 10.243.456L644.52 74.53v100.812l.45.253 288.457 168.677-32.428 18.953-285.71-167.083H444.903l-106.479-62.274v-95.7c1.124-.228 2.174-.582 3.073-1.088 3.098-1.822 3.098-4.758 0-6.554-3.098-1.822-8.119-1.822-11.217 0-3.098 1.822-3.098 4.757 0 6.554 1.749 1.012 4.097 1.442 6.37 1.315v96.511l.45.253 107.353 62.779H614.84l241.189 141.046h-48.518l-82.32-48.129h-63.407l-.2.127-87.942 51.418c-3.098-1.316-7.445-1.164-10.243.455-3.098 1.822-3.098 4.757 0 6.554 3.098 1.822 8.12 1.822 11.218 0 2.798-1.645 3.048-4.175.799-5.997l86.842-50.786h62.459l82.32 48.129h52.065l40.148 23.482-86.542 50.609-24.609-14.398v-37.78l-62.583-36.564c2.248-1.822 1.999-4.352-.799-5.997-3.098-1.822-8.12-1.822-11.218 0-3.098 1.822-3.098 4.757 0 6.554 2.798 1.644 7.145 1.771 10.243.455l62.508 36.565v35.704l-66.655-38.994h-31.579l-.2.127-37.65 22.014c-3.098-1.316-7.445-1.164-10.243.456-3.098 1.822-3.098 4.757 0 6.554 3.098 1.821 8.12 1.821 11.218 0 2.798-1.645 3.048-4.176.799-5.998l36.551-21.382h30.604l91.764 53.645-16.664 9.742 53.19 31.099-24.909 14.575h-37.674l-26.958-15.764c2.149-1.797 1.849-4.302-.899-5.921-3.098-1.822-8.119-1.822-11.217 0-3.098 1.822-3.098 4.757 0 6.553 2.823 1.645 7.245 1.772 10.368.405l28.231 16.499h35.076l-63.532 37.146-149.451-87.4H498.867l-.2.126-60.559 35.401c-3.098-1.316-7.445-1.164-10.243.455-3.098 1.822-3.098 4.757 0 6.554 3.098 1.822 8.119 1.822 11.217 0 2.798-1.645 3.048-4.175.8-5.997l59.46-34.768h106.579l115.273 67.41h-49.342l-48.218-28.189c2.248-1.822 1.999-4.352-.799-5.997-3.098-1.822-8.12-1.822-11.218 0-3.098 1.822-3.098 4.757 0 6.554 2.798 1.645 7.145 1.771 10.243.456l49.517 28.973h52.89l29.805 17.434-75.874 44.359H435.684L247.335 445.489c2.249-1.822 1.999-4.352-.799-5.997-3.098-1.822-8.12-1.822-11.218 0-3.098 1.822-3.098 4.757 0 6.554 2.798 1.644 7.145 1.771 10.243.455L435.26 557.435h239.89l-30.105 17.611H465.539l-.199.127-88.516 51.772c-3.098-1.316-7.445-1.164-10.244.456-3.097 1.822-3.097 4.757 0 6.554 3.098 1.821 8.12 1.821 11.218 0 2.798-1.645 3.048-4.176.799-5.998l87.442-51.114h179.505l.2-.127 203.439-118.954 22.585 13.208-213.882 125.079H501.465l-.199.126-188.924 110.478H50.592L0 677.048v2.074l50.117 29.303h262.699l.2-.127 118.571-69.333v41.043l-78.148 45.699c-3.098-1.315-7.445-1.163-10.243.456-3.098 1.822-3.098 4.757 0 6.554 3.098 1.822 8.12 1.822 11.218 0 2.798-1.645 3.048-4.175.799-5.997l78.148-45.7v-42.865h-.4l69.004-40.36h156.421l.2-.127 214.981-125.711 25.658 15.006L482.103 730.87v44.08h1.774v-43.043L900.999 488l31.704 18.548L717.546 632.36v22.496l-38.149 22.318v51.747l-73.976 43.27c-3.098-1.316-7.445-1.164-10.243.456-1.124.658-1.849 1.467-2.149 2.328h15.465c-.225-.633-.649-1.215-1.299-1.746l73.976-43.27v-51.747l36.375-21.281v82.846l21.461 12.551L700.283 775h3.548l36.9-21.584 36.9 21.584h3.548l-61.934-36.21V633.448l215.157-125.812 28.855 16.878-152.273 89.045c-3.098-1.315-7.445-1.164-10.243.456-3.098 1.822-3.098 4.757 0 6.554 3.098 1.822 8.119 1.822 11.217 0 2.799-1.645 3.048-4.176.8-5.997l152.273-89.046 27.857 16.296-182.154 106.505h-49.492c-.3-.86-1.024-1.695-2.173-2.378-3.098-1.822-8.12-1.822-11.218 0-3.098 1.822-3.098 4.757 0 6.554 3.098 1.821 8.12 1.821 11.218 0 1.149-.684 1.873-1.519 2.173-2.379h49.967l.2-.127 183.227-107.138 11.244 6.58 8.64-5.061 43.65 25.506v35.527l-36.05 21.079v-.101h-56.589l-.2.126-62.084 36.312c-3.097-1.316-7.445-1.164-10.243.455-3.098 1.822-3.098 4.757 0 6.554 3.098 1.822 8.12 1.822 11.218 0 2.798-1.645 3.048-4.175.799-5.997l60.985-35.654h53.194l-106.009 61.97c-3.123-1.417-7.595-1.316-10.468.354-3.098 1.822-3.098 4.758 0 6.554 3.098 1.822 8.119 1.822 11.217 0 2.724-1.594 3.048-4.048.975-5.87l132.215-77.305v17.081l-78.651 46.003v32.465l-64.032 37.45c-3.098-1.316-7.445-1.164-10.243.456-3.098 1.821-3.098 4.757 0 6.553 3.098 1.822 8.119 1.822 11.217 0 2.798-1.644 3.048-4.175.8-5.997l64.032-37.45v-32.465l78.647-46.003v-19.155l11.02-6.453v-37.602l-43.65-25.507 28.68-16.776 89.79 52.506v59.692l-60.98 35.654c-3.12-1.417-7.6-1.316-10.47.354-3.1 1.822-3.1 4.757 0 6.554 3.1 1.822 8.12 1.822 11.22 0 2.72-1.594 3.05-4.049.97-5.87l59.24-34.642v48.23l-46.8 27.379v58.554h1.78v-57.517l45.02-26.341v83.833h1.77V577.931l-89.79-52.506 32.21-18.826 117.37 68.625v163.465l56.41 32.996V775h1.77v-4.251l-56.41-32.997V574.287l-117.37-68.625 23.86-13.967 158.39 92.613v139.451L1401.5 804h4.5l-141.14-81.253V583.296l-158.4-92.614 38.68-22.622 263.55 154.103v69.384l90.31 52.81v-2.075l-88.54-51.773v-69.384l-148.23-86.692h117.22L1499 604.349v-2.075l-119.07-69.637h-120.77l-112.23-65.614 44.97-26.291 96.47 56.403h154.89l55.74 32.592v-2.075l-12.22-7.136H1499v-1.797h-15.29l-39.97-23.381h-154.9l-27.01-15.79h65.86l.2-.126 33.03-19.307h137.61l.45.278v-2.075h-135.01l37.17-21.736c3.1 1.316 7.45 1.164 10.24-.456 3.1-1.821 3.1-4.757 0-6.553-3.09-1.822-8.12-1.822-11.21 0-2.8 1.644-3.05 4.175-.8 5.997l-72.21 42.232h-68.45l-65.11-38.057 24.06-14.069-15.49-9.059h45l58.81 34.388c-2.25 1.822-2 4.353.8 5.997 3.1 1.822 8.12 1.822 11.22 0 3.09-1.821 3.09-4.757 0-6.553-2.8-1.645-7.15-1.772-10.25-.456l-60.11-35.147h-48.54l-32.93-19.257 20.24-11.842h35.9l31.58-18.472h23.56l53.21 31.124c-2.4 1.822-2.2 4.428.65 6.098 3.1 1.822 8.12 1.822 11.22 0 3.1-1.822 3.1-4.757 0-6.554-2.75-1.594-6.97-1.771-10.07-.556l-54.54-31.883h-24.51l-31.58 18.472h-32.35l64.73-37.856h34.96l72.85 42.587h136.93v-1.796h-136.46l-72.85-42.587h-35.9l-.2.126-89.14 52.127-23.39-13.664 100.74-58.908h71.05l58.61 34.262h127.57v-1.797h-127.07l-55.54-32.465h182.61v-1.797H1241.3l-.2.127-101.81 59.54-26.58-15.536 140.45-82.138h245.82v-1.796h-179.14l179.14-104.76v-2.075L1316.3 280.405h-61.84l133.16-77.861v-17.157l63.74-37.247c3.09 1.315 7.44 1.164 10.24-.456 3.1-1.822 3.1-4.757 0-6.554-3.1-1.822-8.12-1.822-11.22 0-2.8 1.645-3.05 4.176-.8 5.997l-34.7 20.294v-47.04L1499 71.038v-2.075l-85.89 50.229v49.115l-27.26 15.942v17.156l-134.26 78.519.45.784-141.11 82.517-25.65-15.005 144.95-84.769V123.999L1499-33.191v-2.074L1272.58 97.152V-28.99l173.31-101.343c.12.076.22.177.35.253 3.09 1.822 8.11 1.822 11.21 0 3.1-1.822 3.1-4.757 0-6.554zm-243.28 562.259l-208.22 121.764-208.182-121.738 208.212-121.764 208.19 121.738z" fill="url(#paint0_radial)"/><path opacity=".5" d="M1025.9 497.775l204.33-130.068-83.22-52.898-129.56 91.398-58.784 74.187 67.234 17.381zm105.03-196.188c2.24-6.487-12.87-17.747-33.76-25.149-20.89-7.402-39.64-8.143-41.89-1.656-2.24 6.487 12.88 17.746 33.77 25.148 20.89 7.402 39.64 8.144 41.88 1.657z" fill="#0F054C"/><path d="M1108.18 251.204l-.27-6.676-1.52-3.907-.97 3.23 2.76 7.353z" fill="#DD821F"/><path d="M1038.99 252.482l-.26-6.552s5.47 5.522 5.47 5.66c.02.123-5.21.892-5.21.892z" fill="#FFD85A"/><path d="M1074.07 271.892c19.1-.461 34.25-10.29 33.85-27.38-.41-17.073-16.22-30.548-35.31-30.086-19.11.461-34.26 14.674-33.86 31.763.39 17.089 16.21 26.18 35.32 25.703z" fill="#FFD85A"/><path d="M1074.31 282.975c19.1-.463 34.26-14.683 33.86-31.762-.4-17.078-16.22-30.548-35.32-30.086-19.11.463-34.27 14.683-33.87 31.761.41 17.079 16.22 30.549 35.33 30.087z" fill="#FFD85A"/><path d="M1097.73 229.762c6.27 5.43 10.25 12.997 10.45 21.442.41 17.074-14.75 31.302-33.86 31.763-9.44.231-18.09-2.953-24.45-8.29l47.86-44.915z" fill="#DD821F"/><path d="M1074.27 281.596c18.25-.442 32.74-14.026 32.35-30.34-.39-16.314-15.49-29.181-33.74-28.74-18.25.442-32.73 14.026-32.35 30.34.39 16.314 15.49 29.181 33.74 28.74z" fill="#F9BF30"/><path d="M1074.14 275.765c14.65-.354 26.28-11.258 25.97-24.353-.31-13.096-12.44-23.425-27.09-23.07-14.65.355-26.28 11.258-25.97 24.354.31 13.096 12.44 23.424 27.09 23.069z" fill="#F2B42A"/><path d="M1047.06 252.681a17.4 17.4 0 01.03-1.615c1.21 12.32 12.94 21.796 26.98 21.457 14.05-.338 25.3-10.383 25.92-22.75.05.539.1 1.062.11 1.616.3 13.089-11.32 23.995-25.96 24.364-14.64.354-26.76-9.982-27.08-23.072z" fill="#FFD85A"/><path d="M1068.51 254.033l5.43-5.107c5.24 1.2 15.01 3.461 22.8 5.307-1.94 5.906-6.66 10.782-12.85 13.366l-15.38-13.566zm8.55 15.395c-.87.108-1.75.169-2.65.2-6.41.154-12.25-1.969-16.63-5.553l8.89-8.337 10.39 13.69zm2.72-25.978l10.25-9.614c3.45 3.046 6.53 6.414 7.37 10.906l-17.62-1.292z" fill="#FFD85A"/><path d="M1074.41 231.159c-14.64.354-26.27 11.26-25.96 24.365.07 2.661.63 5.184 1.58 7.552-1.8-3.107-2.87-6.629-2.96-10.382-.3-13.09 11.32-23.996 25.96-24.365 11.68-.277 21.75 6.229 25.52 15.52-4.51-7.752-13.68-12.951-24.14-12.69zm33.5 13.367c.06 2.538.29 4.383-.31 6.752-.75-2.507-2.41-9.998-2.41-9.998l-2.63-5.953-2.19-1.83-3.7-2.738-.31-8.583c6.92 5.476 11.35 13.413 11.55 22.35zm-66.93-.873l-.15-1.754c0-.246-.2-.446-.44-.446h-.14c-.23 0-.42.215-.41.462l.15 1.753c0 .246.2.446.44.446h.14c.23 0 .41-.215.41-.461zm3.04-6.753l-.18-3.169c0-.292-.23-.523-.5-.508h-.31c-.27 0-.47.246-.47.539l.18 3.168a.5.5 0 00.5.508h.31c.26 0 .47-.246.47-.538zm4.21-5.875l-.19-3.061c-.01-.323-.25-.584-.56-.569l-.53.016c-.3 0-.53.276-.53.599l.18 3.061c.02.323.26.585.56.57l.54-.016c.3 0 .54-.277.53-.6zm6.3-4.756l-.2-3.723c-.01-.323-.26-.584-.56-.569l-.53.016c-.3 0-.53.276-.53.599l.2 3.723c.01.323.25.584.56.569l.53-.015c.3 0 .55-.277.53-.6zm6.35-3.107l-.2-4.276c-.01-.323-.26-.584-.56-.569l-.53.015c-.3 0-.53.277-.53.6l.19 4.276c.02.323.26.585.57.57l.53-.016c.3-.015.53-.277.53-.6zm6.38-1.904l-.2-4.122c0-.323-.26-.584-.56-.569l-.53.015c-.3 0-.53.277-.53.6l.19 4.123c.02.323.26.584.57.569l.53-.016c.29 0 .53-.277.53-.6zm6.4-.649l-.2-4.184c-.02-.323-.26-.584-.56-.569l-.54.016c-.3 0-.53.276-.53.599l.2 4.184c.01.323.26.585.56.569l.53-.015a.572.572 0 00.54-.6zm6.42.133l-.2-3.922c-.01-.323-.26-.585-.56-.569l-.53.015c-.3 0-.53.277-.53.6l.2 3.922c.01.323.25.585.56.569l.53-.015c.3-.015.53-.277.53-.6zm6.46 1.42l-.2-3.784c-.02-.323-.26-.584-.56-.569l-.54.016c-.3 0-.53.276-.53.6l.2 3.799c.02.323.26.584.56.569l.53-.015c.31-.016.54-.293.54-.616zm6.48 3.202l-.2-4.107c0-.323-.25-.584-.56-.569l-.53.016c-.3 0-.53.276-.53.599l.2 4.107c.01.323.26.585.56.57l.53-.016c.3-.015.55-.277.53-.6z" fill="#DD821F"/><path d="M853.536 417.499l.045 13.844h.015c-.015.184.092.369.32.507l148.684 86.384c.48.277 1.33.247 1.88-.077l24.23-14.258c.27-.154.41-.354.44-.554v-.062l-.05-13.982-11.75 6.799-137.186-79.709c-.486-.276-1.337-.246-1.884.077l-8.309 4.892-16.435-3.861z" fill="url(#paint1_linear)"/><path d="M880.103 402.484l148.677 86.384c.49.277.43.784-.13 1.107l-24.23 14.259c-.56.323-1.4.37-1.88.077l-148.685-86.384c-.486-.277-.426-.784.136-1.107l24.229-14.259c.562-.323 1.397-.37 1.883-.077z" fill="url(#paint2_linear)"/><path opacity=".6" d="M885.48 423.298l116.83 66.634c.86-4.692 2.21-9.445 3.99-14.136l-116.612-67.757c-1.929 5.061-3.357 10.214-4.208 15.259z" fill="#24126A"/><path d="M874.954 410.466l140.186 81.462c.34.2.29.539-.09.754l-6.09 3.584c-.38.231-.96.246-1.29.061l-140.19-81.462c-.334-.2-.288-.538.091-.753l6.092-3.584c.379-.231.972-.246 1.291-.062z" fill="#24126A"/><path d="M867.495 414.868l2.856 1.661 3.281-1.938c.38-.231.957-.246 1.291-.062l137.347 79.801 2.8-1.646c.38-.23.42-.569.09-.753l-140.191-81.462c-.334-.2-.911-.17-1.291.061l-6.091 3.584c-.395.215-.426.554-.092.754z" fill="#453C9E"/><path opacity=".96" d="M1228.37 270.171l-116.63-67.773c.06 21.166-14.56 46.93-32.62 57.559l-160.723 94.552c-21.235 12.49-38.4 42.777-38.339 67.649l116.629 67.773c-.061-24.873 17.103-55.159 38.343-67.65l160.72-94.552c18.06-10.628 32.66-36.393 32.62-57.558z" fill="url(#paint3_linear)"/><path opacity=".8" d="M880.058 422.174l116.629 67.773c0-1.092.046-2.2.106-3.307h-.015l-116.614-67.757a47.591 47.591 0 00-.106 3.291z" fill="#453C9E"/><path opacity=".32" d="M1048.94 371.352l26.42 15.351-2.54 1.492-26.42-15.351 2.54-1.492zm-13.55-7.875l9.51 5.537-2.54 1.492-9.51-5.522 2.54-1.507zm-10.5-6.094l6.46 3.753-2.54 1.492-6.45-3.753 2.53-1.492zm41.88 17.539l14.39 8.368-2.54 1.492-14.4-8.368 2.55-1.492zm-21.67-12.598l17.63 10.26-2.53 1.492-17.65-10.244 2.55-1.508zm-10.5-6.094l6.46 3.754-2.54 1.492-6.47-3.754 2.55-1.492zm-9.99-5.812l6.45 3.769-2.53 1.492-6.46-3.754 2.54-1.507zm51.95 23.41l10.4 6.045-2.54 1.492-10.42-6.045 2.56-1.492zm-7.6-4.414l3.56 2.061-2.54 1.492-3.57-2.061 2.55-1.492zm-10.5-6.109l6.46 3.753-2.54 1.492-6.47-3.753 2.55-1.492zm-4.13-9.18l38.45 22.334-2.55 1.492-38.43-22.334 2.53-1.492zm-13.55-7.875l9.51 5.522-2.53 1.508-9.51-5.538 2.53-1.492zm47.38 20.734l10.42 6.061-2.55 1.492-10.41-6.045 2.54-1.508zm-24.44-14.199l20.4 11.859-2.54 1.493-20.4-11.86 2.54-1.492zm-10.5-6.09l6.46 3.753-2.54 1.493-6.45-3.754 2.53-1.492zm29.85 10.551l21.31 12.383-2.53 1.492-21.31-12.383 2.53-1.492zm-19.44-11.305l15.4 8.953-2.53 1.507-15.41-8.952 2.54-1.508zm-14.45-8.382l10.41 6.045-2.54 1.492-10.42-6.045 2.55-1.492zm53.81 24.472l7.2 4.184-2.54 1.492-7.2-4.184 2.54-1.492zm-13.55-7.875l9.52 5.538-2.55 1.492-9.51-5.538 2.54-1.492zm-19.35-11.246l15.32 8.906-2.53 1.492-15.33-8.906 2.54-1.492zm23.86 7.078l22.04 12.813-2.54 1.492-22.04-12.813 2.54-1.492zm-24.7-14.351l20.66 12.013-2.54 1.492-20.66-11.998 2.54-1.507zm-10.5-6.094l6.47 3.753-2.55 1.492-6.45-3.753 2.53-1.492zm-10.07-5.859l6.46 3.753-2.54 1.492-6.45-3.753 2.53-1.492zm59.91 28.027l13.2 7.675-2.53 1.492-13.2-7.675 2.53-1.492zm-113.24-11.493l-18.304-10.644-2.552 1.492 18.319 10.645 2.537-1.493zm1.884-5.69l-14.385-8.368-2.537 1.492 14.385 8.368 2.537-1.492zm1.838-5.737l-10.421-6.045-2.536 1.492 10.405 6.06 2.552-1.507zm10.528-.664l-15.146-8.799-2.537 1.492 15.143 8.799 2.54-1.492zm1.08-6.164l-10.42-6.045-2.54 1.492 10.42 6.06 2.54-1.507zm8.59-1.787l-13.2-7.676-2.55 1.492 13.22 7.676 2.53-1.492zm-.19-6.906l-7.2-4.184-2.55 1.492 7.2 4.184 2.55-1.492zm12.54.508l-13.94-8.106-2.54 1.492 13.95 8.106 2.53-1.492zm5.08-3.849l-13.22-7.675-2.53 1.492 13.2 7.676 2.55-1.493zm62.25 36.165l5.6 3.261-2.54 1.507-5.62-3.276 2.56-1.492zm-16.7-9.688l12.66 7.353-2.54 1.492-12.65-7.353 2.53-1.492zm15.8-26.195l21.34 12.398-2.55 1.492-21.33-12.398 2.54-1.492zm-14.61-8.492l8.4 4.876-2.54 1.492-8.4-4.876 2.54-1.492z" fill="#453C9E"/><path opacity=".3" d="M1072.13 382.194c2.88-8.356-16.58-22.856-43.48-32.388-26.9-9.532-51.049-10.485-53.936-2.13-2.888 8.355 16.578 22.856 43.476 32.388 26.9 9.531 51.05 10.485 53.94 2.13z" fill="#0F054C"/><path d="M1042.82 317.304l-.33-8.598-1.98-5.03-1.25 4.168 3.56 9.46z" fill="#DD821F"/><path d="M953.745 318.949l-.335-8.429s7.049 7.121 7.049 7.291c.015.169-6.714 1.138-6.714 1.138z" fill="#FFD85A"/><path d="M998.89 343.958c24.59-.6 44.11-13.259 43.58-35.24-.52-21.98-20.87-39.315-45.464-38.731-24.593.6-44.112 18.904-43.58 40.885.516 21.98 20.871 33.671 45.464 33.086z" fill="#FFD85A"/><path d="M999.215 358.213c24.595-.595 44.105-18.902 43.585-40.889-.52-21.988-20.87-39.329-45.465-38.734-24.589.595-44.103 18.902-43.584 40.89.519 21.987 20.874 39.329 45.464 38.733z" fill="#FFD85A"/><path d="M1029.38 289.707c8.08 6.999 13.2 16.72 13.44 27.595.52 21.981-18.99 40.285-43.581 40.885-12.167.292-23.286-3.799-31.489-10.675l61.63-57.805z" fill="#DD821F"/><path d="M999.176 356.42c23.494-.568 42.134-18.055 41.634-39.057-.49-21.002-19.94-37.567-43.43-36.998-23.491.569-42.133 18.055-41.637 39.057.496 21.003 19.942 37.567 43.433 36.998z" fill="#F9BF30"/><path d="M998.997 348.92c18.863-.457 33.833-14.493 33.433-31.351-.4-16.857-16.01-30.153-34.874-29.697-18.862.457-33.83 14.493-33.432 31.351.398 16.858 16.011 30.154 34.873 29.697z" fill="#F2B42A"/><path d="M964.135 319.21c-.016-.692 0-1.384.045-2.076 1.565 15.859 16.664 28.072 34.74 27.626 18.08-.431 32.57-13.352 33.39-29.287.06.692.12 1.369.13 2.076.4 16.859-14.56 30.902-33.429 31.364-18.866.461-34.466-12.844-34.876-29.703z" fill="#FFD85A"/><path d="M991.735 320.966l7.003-6.568c6.742 1.554 19.322 4.446 29.362 6.845-2.49 7.614-8.58 13.89-16.54 17.213l-19.825-17.49zm11.025 19.811c-1.11.138-2.25.23-3.384.261-8.249.2-15.798-2.538-21.403-7.137l11.438-10.721 13.349 17.597zm3.5-33.442l13.2-12.382c4.43 3.922 8.4 8.26 9.48 14.044l-22.68-1.662z" fill="#FFD85A"/><path d="M999.36 291.505c-18.866.461-33.828 14.49-33.433 31.363.076 3.415.79 6.692 2.02 9.722-2.324-4-3.706-8.537-3.812-13.367-.395-16.859 14.567-30.902 33.433-31.364 15.042-.369 28.012 8.014 32.842 19.981-5.8-9.982-17.59-16.658-31.05-16.335zm43.12 17.196c.08 3.277.38 5.646-.37 8.707-.99-3.231-3.12-12.875-3.12-12.875l-3.39-7.66-2.82-2.354-4.79-3.522-.39-11.059c8.9 7.044 14.61 17.273 14.88 28.763zm-86.183-1.124l-.183-2.261c-.015-.323-.258-.585-.562-.569h-.167c-.304 0-.531.277-.531.6l.182 2.261c.015.323.258.584.562.569h.167c.304 0 .547-.277.532-.6zm3.919-8.671l-.228-4.077c-.015-.369-.289-.661-.638-.661l-.395.015c-.35.016-.608.308-.608.693l.228 4.076c.015.369.289.661.638.661l.395-.015a.653.653 0 00.608-.692zm5.422-7.585l-.227-3.953c-.016-.416-.335-.754-.714-.739l-.684.016c-.395.015-.699.354-.683.769l.227 3.953c.016.415.335.754.714.738l.684-.015c.38 0 .699-.338.683-.769zm8.127-6.107l-.243-4.784c-.015-.415-.334-.753-.714-.738l-.683.015c-.395.016-.699.354-.684.769l.243 4.784c.015.416.334.754.714.739l.684-.016c.379 0 .683-.354.683-.769zm8.157-4.015l-.258-5.507c-.015-.415-.334-.754-.714-.738l-.684.015c-.394.015-.698.354-.683.769l.258 5.507c.015.415.334.753.714.738l.684-.015c.395 0 .698-.354.683-.769zm8.218-2.45l-.258-5.291c-.015-.416-.334-.754-.714-.739l-.684.016c-.395.015-.699.353-.683.769l.258 5.291c.015.415.334.754.714.738l.683-.015c.38-.015.684-.354.684-.769zm8.233-.841l-.258-5.384c-.015-.415-.334-.754-.714-.738l-.684.015c-.395.015-.698.354-.683.769l.258 5.384c.015.415.334.754.714.738l.684-.015c.395 0 .698-.339.683-.769zm8.277.185l-.26-5.046c-.01-.415-.33-.753-.71-.738l-.68.015c-.4.016-.7.354-.69.77l.26 5.045c.02.415.33.754.71.738l.69-.015c.38 0 .68-.354.68-.769zm8.31 1.83l-.24-4.876c-.02-.415-.34-.753-.72-.738l-.68.015a.722.722 0 00-.68.77l.24 4.876c.01.415.33.753.71.738l.69-.015c.38 0 .68-.354.68-.77zm8.36 4.103l-.26-5.291c-.02-.415-.34-.754-.72-.738l-.68.015c-.4.015-.7.354-.68.769l.25 5.291c.02.416.34.754.72.739l.68-.016c.38 0 .7-.338.69-.769z" fill="#DD821F"/><path opacity=".5" d="M1219.52 488.797c2.54-7.337-14.55-20.068-38.16-28.435-23.62-8.367-44.82-9.203-47.35-1.866-2.54 7.337 14.55 20.068 38.16 28.436 23.62 8.367 44.82 9.202 47.35 1.865z" fill="#0F054C"/><path d="M1193.79 431.831l-.29-7.538-1.73-4.414-1.11 3.645 3.13 8.307z" fill="#DD821F"/><path d="M1115.59 433.278l-.28-7.399s6.18 6.245 6.18 6.399c.01.138-5.9 1-5.9 1z" fill="#FFD85A"/><path d="M1155.24 455.229c21.59-.523 38.72-11.644 38.26-30.933-.45-19.304-18.33-34.517-39.91-33.994-21.59.523-38.72 16.597-38.27 35.901.46 19.289 18.32 29.549 39.92 29.026z" fill="#FFD85A"/><path d="M1155.51 467.759c21.58-.522 38.71-16.595 38.26-35.898-.46-19.304-18.33-34.529-39.91-34.006-21.59.522-38.72 16.595-38.27 35.898.46 19.304 18.33 34.529 39.92 34.006z" fill="#FFD85A"/><path d="M1181.99 407.605c7.09 6.138 11.59 14.69 11.8 24.227.46 19.304-16.68 35.378-38.26 35.901-10.68.262-20.45-3.338-27.65-9.367l54.11-50.761z" fill="#DD821F"/><path d="M1155.47 466.2c20.62-.5 36.99-15.851 36.55-34.288-.43-18.438-17.5-32.979-38.13-32.48-20.62.499-36.99 15.85-36.55 34.288.43 18.437 17.51 32.979 38.13 32.48z" fill="#F9BF30"/><path d="M1155.32 459.606c16.55-.401 29.69-12.726 29.34-27.528-.35-14.803-14.05-26.478-30.61-26.077-16.55.401-29.69 12.725-29.34 27.528.35 14.803 14.05 26.478 30.61 26.077z" fill="#F2B42A"/><path d="M1124.72 433.507c-.01-.615 0-1.215.03-1.831 1.39 13.921 14.63 24.642 30.51 24.257 15.87-.384 28.6-11.72 29.31-25.703.06.6.11 1.216.12 1.816.35 14.797-12.79 27.133-29.34 27.533-16.58.415-30.28-11.26-30.63-26.072z" fill="#FFD85A"/><path d="M1148.95 435.046l6.15-5.769a3634.64 3634.64 0 0125.78 5.999c-2.19 6.676-7.53 12.198-14.52 15.121l-17.41-15.351zm9.68 17.397c-.97.123-1.98.2-2.98.231-7.24.169-13.87-2.231-18.79-6.276l10.04-9.414 11.73 15.459zm3.07-29.365l11.59-10.859c3.89 3.445 7.38 7.245 8.32 12.321l-19.91-1.462z" fill="#FFD85A"/><path d="M1155.64 409.186c-16.56.4-29.7 12.721-29.35 27.534.07 2.999.7 5.86 1.78 8.537-2.05-3.523-3.25-7.507-3.35-11.737-.35-14.797 12.79-27.133 29.35-27.533 13.2-.323 24.59 7.045 28.83 17.535-5.09-8.768-15.45-14.628-27.26-14.336zm37.86 15.11c.07 2.876.34 4.953-.33 7.645-.87-2.831-2.73-11.306-2.73-11.306l-2.98-6.737-2.48-2.061-4.19-3.092-.35-9.706c7.81 6.184 12.82 15.151 13.06 25.257zm-75.66-.999l-.16-1.985a.498.498 0 00-.49-.507h-.15c-.26 0-.47.246-.47.523l.16 1.984c0 .292.23.508.49.508h.15c.26 0 .47-.231.47-.523zm3.44-7.616l-.2-3.568c-.02-.323-.26-.585-.56-.569l-.35.015c-.31 0-.53.277-.53.6l.19 3.568c.02.323.26.585.56.57l.35-.016c.31 0 .54-.277.54-.6zm4.75-6.64l-.2-3.461c-.01-.369-.29-.661-.64-.646l-.59.016c-.33.015-.61.307-.61.676l.2 3.461c.02.369.29.662.64.646l.59-.015a.637.637 0 00.61-.677zm7.14-5.371l-.21-4.199c-.02-.369-.29-.662-.64-.646l-.59.015c-.34.016-.61.308-.61.677l.21 4.199c.02.369.29.662.64.646l.59-.015c.35-.015.61-.308.61-.677zm7.17-3.522l-.23-4.845c-.01-.369-.29-.662-.64-.646l-.59.015c-.33.016-.61.308-.61.677l.23 4.845c.02.369.29.662.64.646l.59-.015c.35-.015.61-.308.61-.677zm7.2-2.153l-.23-4.645c-.01-.369-.29-.662-.64-.646l-.59.015c-.33.015-.61.308-.61.677l.23 4.645c.02.369.29.661.64.646l.59-.015c.35 0 .62-.308.61-.677zm7.25-.739l-.23-4.723c-.02-.369-.29-.661-.64-.646l-.59.016c-.34.015-.61.307-.61.676l.23 4.723c.01.369.29.661.64.646l.59-.016c.33 0 .61-.307.61-.676zm7.24.149l-.23-4.43c-.01-.369-.29-.662-.63-.646l-.6.015c-.33.015-.61.308-.61.677l.23 4.43c.02.369.29.661.64.646l.59-.015c.35 0 .63-.308.61-.677zm7.31 1.619l-.22-4.291c-.01-.37-.28-.662-.63-.646l-.6.015c-.33.015-.6.308-.6.677l.21 4.291c.01.369.29.662.64.646l.59-.015c.33 0 .61-.308.61-.677zm7.33 3.596l-.22-4.645c-.02-.369-.29-.662-.64-.646l-.59.015c-.34.015-.61.308-.61.677l.23 4.645c.01.369.28.662.63.646l.6-.015c.35 0 .6-.308.6-.677z" fill="#DD821F"/><defs><linearGradient id="paint1_linear" x1="1035.52" y1="465.473" x2="873.781" y2="468.557" gradientUnits="userSpaceOnUse"><stop stop-color="#5761D7"/><stop offset=".04" stop-color="#5C66D9"/><stop offset=".087" stop-color="#6A73DF"/><stop offset=".137" stop-color="#8289E8"/><stop offset=".19" stop-color="#A3A7F5"/><stop offset=".224" stop-color="#BCBEFF"/></linearGradient><linearGradient id="paint2_linear" x1="987.49" y1="380.729" x2="924.271" y2="477.764" gradientUnits="userSpaceOnUse"><stop stop-color="#C0BFF6"/><stop offset=".294" stop-color="#C5C4F7"/><stop offset=".64" stop-color="#D3D2F9"/><stop offset="1" stop-color="#E9E9FD"/></linearGradient><linearGradient id="paint3_linear" x1="1135.46" y1="204.558" x2="963.586" y2="493.747" gradientUnits="userSpaceOnUse"><stop stop-color="#C0BFF6"/><stop offset=".117" stop-color="#D0CFF9"/><stop offset=".263" stop-color="#E9E9FD"/><stop offset=".514" stop-color="#C0BFF6"/><stop offset=".622" stop-color="#D0CFF9"/><stop offset=".755" stop-color="#E9E9FD"/><stop offset="1" stop-color="#C0BFF6"/></linearGradient><radialGradient id="paint0_radial" cx="0" cy="0" r="1" gradientUnits="userSpaceOnUse" gradientTransform="matrix(-1097.62 0 0 -1111.72 1531.48 -.335)"><stop stop-color="#FF2C9C"/><stop offset=".03" stop-color="#F62F9F"/><stop offset=".202" stop-color="#C63EB0"/><stop offset=".374" stop-color="#9E4BBE"/><stop offset=".541" stop-color="#7F54C9"/><stop offset=".704" stop-color="#695BD1"/><stop offset=".859" stop-color="#5C60D5"/><stop offset="1" stop-color="#5761D7"/></radialGradient></defs></svg>