<svg width="170" height="39" fill="none" xmlns="http://www.w3.org/2000/svg"><path d="M0 38.66h146.446v-3.824H0v3.825zm156.596-.003h12.575v-3.825h-12.575v3.825z" fill="#A4A4A4"/><path d="M28.534 29.04h5.244V9.353h-5.244V29.04zm-.508-25.368c0-.9.282-1.631.903-2.25.564-.563 1.353-.844 2.255-.844.959 0 1.692.281 2.256.844.564.562.902 1.294.902 2.25 0 .9-.282 1.631-.902 2.25-.564.562-1.353.844-2.256.844-.902 0-1.635-.282-2.255-.844-.62-.563-.903-1.35-.903-2.25zm17.82 5.622h5.357v3.938h-5.358v9.45c0 .844.226 1.519.734 2.025.507.506 1.127.787 1.973.787.733 0 1.58-.112 2.481-.337l.677 3.88c-1.522.395-2.989.62-4.398.62a7.93 7.93 0 01-2.65-.45c-.79-.282-1.467-.732-2.087-1.294a6.382 6.382 0 01-1.354-2.025c-.338-.788-.45-1.631-.45-2.588v-9.956h-3.61V9.407h3.61V3.613h5.018v5.681h.056zm8.458 5.459c0-.844.169-1.687.564-2.419a7.127 7.127 0 011.522-1.912 7.884 7.884 0 012.369-1.238 10.51 10.51 0 013.045-.45c1.127 0 2.312.113 3.496.338a23.9 23.9 0 013.665 1.012l-1.127 3.713a18.828 18.828 0 00-2.876-.9 11.87 11.87 0 00-2.707-.338c-.902 0-1.636.17-2.2.563-.563.393-.789.9-.789 1.575 0 .619.282 1.069.79 1.35a8.957 8.957 0 001.917.787c.79.225 1.579.45 2.481.619.902.225 1.748.563 2.481 1.012.79.45 1.41 1.07 1.918 1.8.507.788.789 1.8.789 3.038 0 .9-.17 1.687-.564 2.475-.395.731-.902 1.406-1.579 1.969-.676.562-1.466.956-2.481 1.293-.959.282-2.03.45-3.158.45-2.425 0-5.019-.506-7.725-1.575l1.071-3.656c2.312.956 4.398 1.406 6.26 1.406.958 0 1.748-.225 2.311-.618.564-.394.846-.957.846-1.688 0-.619-.282-1.069-.79-1.406-.507-.338-1.127-.619-1.916-.844-.79-.225-1.58-.45-2.482-.675a9.586 9.586 0 01-2.48-1.012 5.703 5.703 0 01-1.918-1.744c-.508-.675-.733-1.688-.733-2.925zm25.883-5.459h5.357v3.938h-5.357v9.45c0 .844.226 1.519.733 2.025.508.506 1.128.787 1.974.787.733 0 1.579-.112 2.481-.337l.677 3.88c-1.523.395-2.989.62-4.399.62a7.93 7.93 0 01-2.65-.45c-.79-.282-1.466-.732-2.086-1.294-.62-.563-1.015-1.238-1.354-2.025-.338-.788-.45-1.631-.45-2.588v-9.956h-3.61V9.407h3.61V3.613h5.018v5.681h.056zm13.646 13.728c0 .788.339 1.463.959 2.025.677.563 1.466.844 2.425.844 1.353 0 2.424-.45 3.27-1.294.846-.843 1.241-1.968 1.241-3.318v-1.181c-.959-.282-2.03-.394-3.214-.394-1.466 0-2.594.281-3.44.9-.79.562-1.24 1.406-1.24 2.418zm-4.906.282c0-2.081.79-3.713 2.369-4.838 1.579-1.125 3.778-1.687 6.654-1.687.62 0 1.24.056 1.86.112.621.057 1.298.169 1.918.282v-1.07c0-1.012-.338-1.855-1.071-2.474-.733-.619-1.692-.956-2.933-.956-1.973 0-4.116.45-6.428 1.406l-1.297-3.6c2.82-1.125 5.582-1.631 8.29-1.631 1.24 0 2.311.168 3.326.562a7.023 7.023 0 012.594 1.519c.733.619 1.297 1.406 1.692 2.306.395.9.62 1.913.62 2.981v8.044c0 .45.113.787.338 1.012.226.282.564.394 1.016.394.225 0 .394 0 .62-.056.169 0 .338-.056.395-.056l.338 3.768c-.451.057-.846.17-1.297.225-.451.057-.902.057-1.41.057-1.015 0-1.861-.225-2.594-.732-.733-.45-1.24-1.125-1.579-1.968a9.275 9.275 0 01-2.932 1.968 9.21 9.21 0 01-3.496.675 8.973 8.973 0 01-2.82-.45 6.147 6.147 0 01-2.199-1.293 5.492 5.492 0 01-1.41-1.97c-.394-.787-.564-1.63-.564-2.53zM112.161 9.24h4.06l.62 2.7c.789-1.012 1.692-1.8 2.82-2.362a7.918 7.918 0 013.609-.844c1.466 0 2.706.338 3.834.957a6.253 6.253 0 012.481 2.643c.902-1.18 1.974-2.08 3.158-2.7 1.184-.618 2.481-.9 3.947-.9 1.072 0 2.03.17 2.933.507.902.337 1.691.843 2.312 1.518.676.62 1.184 1.407 1.522 2.307.339.9.564 1.856.564 2.925v13.05h-5.131V16.833c0-1.125-.339-2.025-1.072-2.756-.733-.675-1.635-1.069-2.763-1.069-1.297 0-2.368.45-3.214 1.35-.846.9-1.241 2.025-1.241 3.488V29.04h-5.131V16.834c0-1.125-.339-2.025-1.015-2.756-.677-.675-1.579-1.069-2.707-1.069-1.353 0-2.425.45-3.271 1.35-.845.9-1.24 2.025-1.24 3.488V29.04h-5.132V9.24h.057zm51.371 9.844c0-.9-.113-1.744-.395-2.531a5.082 5.082 0 00-1.072-1.969c-.451-.562-.958-.956-1.578-1.293-.621-.338-1.297-.45-2.031-.45-1.353 0-2.424.45-3.327 1.406-.845.9-1.297 2.081-1.297 3.544v2.643c0 .731.113 1.406.339 1.969a4.92 4.92 0 00.958 1.575c.395.45.903.787 1.467 1.012a4.973 4.973 0 001.86.338 4.88 4.88 0 002.031-.45c.62-.281 1.127-.731 1.578-1.294.452-.562.79-1.237 1.072-1.969.282-.73.395-1.63.395-2.53zM148.87 9.241h4.06l.621 2.53a7.852 7.852 0 012.65-2.25 8.221 8.221 0 013.552-.787 8.67 8.67 0 013.609.788 8.711 8.711 0 012.82 2.137c.789.9 1.41 1.969 1.861 3.263.451 1.237.677 2.643.677 4.162 0 1.519-.226 2.925-.677 4.163-.451 1.237-1.072 2.362-1.861 3.262a8.712 8.712 0 01-2.82 2.138 8.478 8.478 0 01-3.609.787c-1.184 0-2.312-.225-3.27-.675a6.352 6.352 0 01-2.538-2.025v11.981h-5.075V9.241zM17.256 23.972c-.79.788-1.861 1.125-3.215 1.125H7.725v-8.156h6.316c1.297 0 2.369.394 3.215 1.125.789.731 1.184 1.744 1.184 2.925.056 1.238-.339 2.25-1.184 2.981zM7.726 5.916h5.808c1.184 0 2.143.338 2.932 1.07.79.674 1.128 1.63 1.128 2.755s-.395 2.025-1.128 2.7c-.79.675-1.748 1.013-2.932 1.013H7.725V5.916zm14.717 11.531c-.846-1.18-1.973-2.025-3.383-2.53a6.073 6.073 0 002.65-2.25c.677-1.013 1.015-2.194 1.015-3.544a6.698 6.698 0 00-.62-2.87c-.395-.9-1.015-1.63-1.748-2.25a8.052 8.052 0 00-2.65-1.462c-1.015-.337-2.143-.506-3.384-.506H0v3.6c2.2 0 3.947 1.8 3.947 3.994S2.2 13.623 0 13.623v3.262c2.2 0 3.947 1.8 3.947 3.994v.618c0 2.194-1.748 3.994-3.947 3.994v3.6h14.943c1.297 0 2.425-.169 3.497-.563a7.758 7.758 0 002.763-1.518c.79-.675 1.41-1.463 1.804-2.363.451-.9.677-1.912.677-3.037 0-1.631-.395-2.981-1.24-4.163z" fill="#333433"/></svg>