<svg width="175" height="61" fill="none" xmlns="http://www.w3.org/2000/svg"><path d="M97.818 30.444c0 2.043-.32 3.97-.988 5.755-.668 1.812-1.598 3.366-2.847 4.718-1.25 1.353-2.76 2.417-4.59 3.223s-3.893 1.18-6.217 1.18-4.387-.403-6.217-1.18c-1.83-.806-3.341-1.87-4.59-3.223A13.723 13.723 0 0169.52 36.2c-.639-1.813-.958-3.712-.958-5.755 0-2.014.32-3.942.958-5.755a13.582 13.582 0 012.847-4.748c1.25-1.352 2.79-2.417 4.59-3.222 1.831-.806 3.894-1.18 6.218-1.18s4.387.403 6.217 1.18c1.83.805 3.34 1.87 4.59 3.222 1.25 1.353 2.18 2.935 2.847 4.748.669 1.813.988 3.74.988 5.755zM83.205 40.6c1.423 0 2.673-.26 3.719-.777a7.73 7.73 0 002.672-2.13c.727-.92 1.25-1.985 1.598-3.222.349-1.237.523-2.59.523-4.028 0-1.439-.174-2.791-.523-4.028-.348-1.238-.871-2.302-1.598-3.223a7.412 7.412 0 00-2.672-2.13c-1.075-.517-2.296-.776-3.72-.776-1.423 0-2.672.259-3.718.777a7.731 7.731 0 00-2.673 2.129c-.726.92-1.249 1.985-1.597 3.223-.349 1.237-.523 2.59-.523 4.028 0 1.439.174 2.79.523 4.028.348 1.237.871 2.302 1.597 3.223a7.413 7.413 0 002.673 2.129c1.046.518 2.295.777 3.719.777zm18.448 4.23V16.057h6.101v13.811l10.081-13.811h7.059l-10.691 14.214 11.418 14.56h-7.554l-10.342-14.128V44.83h-6.072zm26.408-28.774h17.46v4.805h-11.33v6.963h10.807v4.777h-10.807v7.423h11.476v4.806H128.09V16.057h-.029zm39.22 0h6.624l-9.558 14.3 9.732 14.474h-6.681l-6.276-9.812-6.275 9.812h-6.682l9.733-14.474-9.559-14.3h6.624l6.159 9.726 6.159-9.726z" fill="#5B5B5B"/><path d="M30.795 27.623c7.702 0 13.945-6.184 13.945-13.812C44.74 6.184 38.497 0 30.795 0S16.85 6.184 16.85 13.811c0 7.628 6.243 13.812 13.945 13.812z" fill="#BCBABA"/><path d="M30.795 61.002c7.702 0 13.945-6.184 13.945-13.812 0-7.627-6.243-13.811-13.945-13.811S16.85 39.563 16.85 47.19c0 7.628 6.243 13.812 13.945 13.812z" fill="#A4A4A4"/><path d="M47.645 44.31c7.702 0 13.945-6.183 13.945-13.811s-6.243-13.811-13.945-13.811c-7.701 0-13.945 6.183-13.945 13.81 0 7.629 6.244 13.812 13.945 13.812z" fill="#CECCCC"/><path d="M13.945 44.31c7.701 0 13.945-6.183 13.945-13.811s-6.244-13.811-13.945-13.811C6.243 16.688 0 22.87 0 30.498c0 7.63 6.243 13.812 13.945 13.812z" fill="#5B5B5B"/><path fill-rule="evenodd" clip-rule="evenodd" d="M27.498 27.235c-5.053-1.213-9.03-5.152-10.256-10.157 5.053 1.213 9.03 5.153 10.256 10.157zM17.242 43.923c1.225-5.005 5.203-8.944 10.256-10.157-1.225 5.004-5.203 8.944-10.256 10.157z" fill="#979797"/><path fill-rule="evenodd" clip-rule="evenodd" d="M34.093 33.766c5.052 1.213 9.03 5.152 10.255 10.157-5.053-1.213-9.03-5.153-10.255-10.157z" fill="#BCBABA"/><path fill-rule="evenodd" clip-rule="evenodd" d="M44.348 17.078c-1.225 5.005-5.203 8.944-10.255 10.157 1.224-5.004 5.202-8.944 10.255-10.157z" fill="#5B5B5B"/></svg>