<svg width="255" height="30" fill="none" xmlns="http://www.w3.org/2000/svg"><path d="M17.873 24.695H5.59v-6.552h12.283c3.069 0 4.638 1.472 4.638 3.378 0 1.837-1.535 3.174-4.638 3.174zm-.4-10.06H5.59V9.118h11.883c3.235 0 4.504 1.143 4.504 2.708 0 1.438-1.469 2.809-4.504 2.809zm3.138 1.671c5.174-.168 7.042-2.743 7.042-5.548-.002-3.077-2.438-5.617-8.38-5.617H.285v23.465h19.556c4.872 0 8.511-2.037 8.511-6.417 0-3.108-2.036-5.748-7.744-5.883h.003zM33.478 5.141v23.465h5.314V5.141h-5.314zm27.668 4.445H72.84V5.141H44.171v4.445h11.68v19.02h5.306l-.011-19.02zm17.08-4.445v23.465h5.305v-9.143h12.45v-3.86h-12.45V9.187h20.226V5.141H78.226zm31.256 0v23.465h5.305V5.141h-5.305zm16.035 5.714l17.585 17.748h6.007V5.142h-5.237v16.914L126.984 5.14h-6.741v23.465h5.274v-17.75zm29.052-5.714v23.465h25.956v-3.943h-20.651v-6.45h12.382v-3.644h-12.382V9.186h20.656V5.141h-25.961zm62.638 0h-7.009l-8.942 8.257-8.879-8.257h-7.108l12.481 11.565-12.949 11.9h7.011l9.376-8.657 9.344 8.657h7.131l-12.97-11.934 12.514-11.531zM253.882.57C253.776.526 242.834-.966 232.018 6c-6.713 4.334-7.603 10.673-7.296 14.902 15.731-1.743 28.803-19.826 29.16-20.331zM225.789 25.6c1.352 2.382 11.572 7.785 20.62.333 9.048-7.45 8.289-21.008 7.473-25.362-.286.631-10.163 22.3-28.093 25.025" fill="#A4A4A4"/><path d="M253.882.573c-.106-.043-11.048-1.537-21.864 5.429-6.713 4.334-7.603 10.674-7.296 14.9 15.731-1.74 28.803-19.823 29.16-20.329z" fill="#5B5B5B"/></svg>