<svg width="275" height="41" fill="none" xmlns="http://www.w3.org/2000/svg"><path fill-rule="evenodd" clip-rule="evenodd" d="M51.05 10.684v11.633H39.447V12.18c0-.826-.678-1.496-1.514-1.496h-3.916v27.722c0 .827.678 1.497 1.514 1.497h3.916V27.009h11.601v11.397c0 .827.678 1.497 1.514 1.497h3.916V12.18c0-.826-.678-1.496-1.514-1.496h-3.916zm22.773 6.89v13.847c0 1.258-.648 2.45-1.75 3.08-3.074 1.757-6.256-.438-6.256-3.331v-12.1c0-.826-.677-1.496-1.513-1.496h-3.932v14.089c0 4.533 3.75 8.242 8.334 8.242h2.229c4.583 0 8.334-3.709 8.334-8.242V19.07c0-.827-.678-1.497-1.514-1.497h-3.931z" fill="#A4A4A4"/><path fill-rule="evenodd" clip-rule="evenodd" d="M134.215 39.902h3.916V20.294c0-.827-.678-1.497-1.513-1.497h-3.916v19.608c0 .827.677 1.497 1.513 1.497zm1.201-23.229c1.674 0 3.031-1.342 3.031-2.997 0-1.655-1.357-2.996-3.031-2.996-1.673 0-3.03 1.341-3.03 2.996s1.357 2.997 3.03 2.997z" fill="#5B5B5B"/><path fill-rule="evenodd" clip-rule="evenodd" d="M98.375 30.631c0 2.664-2.203 4.438-4.897 4.438-2.694 0-4.898-1.774-4.898-4.438v-3.8c0-2.665 2.204-4.438 4.898-4.438 2.694 0 4.897 1.773 4.897 4.437v3.802zM93.478 17.56c-5.695 0-10.355 4.028-10.355 9.66v3.047c0 5.632 4.66 9.637 10.355 9.637s10.355-4.005 10.355-9.637V27.22c0-5.633-4.66-9.661-10.355-9.661z" fill="#A4A4A4"/><path fill-rule="evenodd" clip-rule="evenodd" d="M123.02 30.633c0 2.664-2.204 4.438-4.898 4.438-2.693 0-4.897-1.774-4.897-4.438v-3.801c0-2.664 2.204-4.437 4.897-4.437 2.694 0 4.898 1.773 4.898 4.437v3.801zm-4.898-13.072c-1.779 0-3.458.393-4.925 1.106v-6.51c0-.827-.677-1.497-1.513-1.497h-3.916v19.608c0 5.632 4.66 9.637 10.354 9.637 5.696 0 10.355-4.005 10.355-9.637V27.22c0-5.632-4.659-9.66-10.355-9.66z" fill="#5B5B5B"/><path fill-rule="evenodd" clip-rule="evenodd" d="M231.28 30.725c0 2.636-2.181 4.391-4.847 4.391-2.666 0-4.847-1.755-4.847-4.391v-3.763c0-2.636 2.181-4.391 4.847-4.391 2.666 0 4.847 1.755 4.847 4.391v3.763zm-4.847-12.938c-1.762 0-3.423.389-4.875 1.094v-6.72a1.49 1.49 0 00-1.498-1.481h-3.875v19.683c0 5.574 4.611 9.538 10.248 9.538 5.636 0 10.248-3.964 10.248-9.538v-3.015c0-5.574-4.612-9.561-10.248-9.561zM274.786 39.8v-3.372c0-.798-.654-1.444-1.461-1.441-.816.002-1.84.005-2.706.005-2.207 0-2.103-1.09-2.103-3.918V12.145a1.45 1.45 0 00-1.458-1.442h-3.975V31.72c0 5.09 1.327 8.08 6.882 8.08 2.147 0 3.704-.06 4.82 0h.001zM170.728 22.44h-10.506v2.83a1.55 1.55 0 001.558 1.542h4.991v2.503c0 1.846-.467 3.21-1.43 4.17-1.183 1.208-2.821 1.846-4.734 1.846-1.724 0-3.365-.59-4.389-1.579-1.424-1.38-1.731-2.878-1.731-8.44 0-5.532.307-7.024 1.73-8.402 1.05-1.014 3.099-1.78 4.798-1.78 5.743 0 7.672 2.015 9.111 3.85h.188v-4.104a1.99 1.99 0 00-.772-1.553c-2.406-1.904-4.805-2.6-8.935-2.6-3.335 0-6.188 1.036-8.476 3.08-3.161 2.823-3.161 6.008-3.16 11.284v.449c-.001 5.276-.001 8.46 3.16 11.282 2.257 2.017 5.188 3.082 8.476 3.082 3.454 0 6.494-1.15 8.792-3.325h.001c2.05-1.948 2.887-5.677 2.887-9.555v-3.04c0-.85-.698-1.54-1.559-1.54zm17.118 17.36v-3.372c0-.798-.653-1.444-1.46-1.441-.816.002-1.841.005-2.706.005-2.206 0-2.103-1.09-2.103-3.918V12.145a1.45 1.45 0 00-1.458-1.442h-3.975V31.72c0 5.09 1.327 8.08 6.882 8.08 2.147 0 3.704-.06 4.82 0zm19.016-9.077c0 2.637-2.182 4.392-4.847 4.392-2.666 0-4.847-1.755-4.847-4.392v-3.762c0-2.636 2.181-4.391 4.847-4.391 2.665 0 4.847 1.755 4.847 4.391v3.762zm-4.847-12.938c-5.637 0-10.248 3.987-10.248 9.561v3.016c0 5.574 4.611 9.537 10.248 9.537 5.636 0 10.248-3.963 10.248-9.537v-3.016c0-5.574-4.612-9.56-10.248-9.56zm51.809 12.103v5.548c-.419.08-.882.144-1.384.19a18.94 18.94 0 01-3.61.02 3.905 3.905 0 01-1.375-.373 2.625 2.625 0 01-.992-.85c-.257-.358-.387-.886-.387-1.57 0-1.065.384-1.827 1.174-2.332.842-.537 2.116-.81 3.789-.81.451 0 1.001.025 1.65.076.425.034.804.067 1.135.1zm2.906-10.225c-1.61-1.272-3.965-1.917-6.998-1.917-1.128 0-2.314.081-3.525.241-.971.128-2.345.312-3.298.53-.387.087-.458.388-.458.748v2.868c0 .51.006.976.553.844 1.021-.246 3.001-.68 3.539-.768a17.245 17.245 0 012.753-.208c1.519 0 2.678.27 3.444.798.719.498 1.084 1.446 1.084 2.817v.166a37.408 37.408 0 00-.892-.07c-.606-.04-1.383-.06-2.329-.06a15.77 15.77 0 00-3.721.43c-1.194.292-2.267.741-3.191 1.338a7.012 7.012 0 00-2.239 2.299c-.551.923-.831 2.005-.831 3.213 0 1.227.24 2.296.711 3.175a5.998 5.998 0 002.03 2.197c.857.564 1.91.976 3.127 1.227 1.184.243 2.524.367 3.983.367 1.063 0 8.718-.107 8.718-3.71V25.773c0-2.764-.828-4.82-2.46-6.11zM17.718 12.664c0-5.82-2.866-10.823-5.046-12.452-.01-.005-.167-.093-.154.14l-.003.007c-.18 11.234-5.984 14.279-9.175 18.38-7.362 9.466-.515 19.844 6.458 21.762 3.901 1.073-.901-1.899-1.52-8.177-.748-7.587 9.44-13.38 9.44-19.66z" fill="#A4A4A4"/><path fill-rule="evenodd" clip-rule="evenodd" d="M21.107 16.54c-.044-.03-.108-.051-.152.02-.12 1.415-1.58 4.44-3.432 7.218-6.28 9.422-2.7 13.964-.689 16.403 1.169 1.416 0 0 2.92-1.447.23-.114 5.698-3.147 6.29-10.058.574-6.693-3.49-10.911-4.937-12.137z" fill="#5B5B5B"/></svg>