<svg width="217" height="43" fill="none" xmlns="http://www.w3.org/2000/svg"><path d="M9.835 21.5l-4.894 4.828L0 21.5l4.94-4.872L9.835 21.5zM21.8 9.7l8.43 8.313 4.94-4.87L21.8 0 8.43 13.187l4.94 4.87L21.8 9.7zm16.86 6.928L33.766 21.5l4.94 4.872 4.937-4.872-4.982-4.872zM21.8 33.3l-8.43-8.356-4.94 4.871L21.8 43l13.37-13.187-4.94-4.87L21.8 33.3zm0-6.97l4.94-4.873-4.94-4.827-4.94 4.87 4.94 4.828v.002zm51.946.502v-.082c0-3.15-1.704-4.747-4.471-5.797 1.702-.922 3.15-2.436 3.15-5.08v-.083c0-3.696-3.023-6.09-7.877-6.09H53.435v23.56h11.37c5.405.04 8.94-2.143 8.94-6.425v-.002zm-6.558-10.076c0 1.763-1.448 2.476-3.79 2.476h-4.852v-4.997h5.194c2.214 0 3.448.881 3.448 2.437v.084zm1.32 9.406c0 1.763-1.404 2.562-3.706 2.562h-6.256v-5.167h6.087c2.684 0 3.875.967 3.875 2.562v.043zM84.773 33.3V9.7h-5.28v23.56h5.28v.04zm28.273 0V9.7h-5.196v14.53L96.652 9.7h-4.854v23.56h5.196V18.31l11.581 14.99h4.471zm29.121 0L131.908 9.575h-4.852L116.794 33.3h5.408l2.171-5.29h10.091l2.171 5.29h5.536-.004zm-9.579-9.869h-6.344l3.194-7.641 3.15 7.641zm34.66 9.869V9.7h-5.196v14.53L150.854 9.7H146v23.56h5.196V18.31l11.581 14.99h4.471zm27.121-3.822l-3.363-3.316c-1.875 1.679-3.535 2.77-6.302 2.77-4.087 0-6.94-3.36-6.94-7.39v-.126c0-4.032 2.894-7.348 6.94-7.348 2.384 0 4.258 1.007 6.131 2.645l3.363-3.822c-2.213-2.141-4.896-3.653-9.408-3.653-7.323 0-12.476 5.5-12.476 12.178v.084c0 6.76 5.236 12.135 12.263 12.135 4.598.043 7.323-1.553 9.792-4.157zm22.439 3.822v-4.62h-12.987v-4.956h11.283v-4.619h-11.283V14.32h12.817V9.7h-18.011v23.56h18.181v.04z" fill="#5B5B5B"/></svg>