<svg width="204" height="86" fill="none" xmlns="http://www.w3.org/2000/svg"><g clip-path="url(#clip0)"><path d="M143.788 17.898l-4.344 16.817-29.784 3.835 34.128-20.652z" fill="#BABABA"/><path d="M151.851 85.731l7.401-30.543-9.6-3.942 2.199 34.485z" fill="#5B5B5B"/><path d="M139.445 34.7l-7.813 15.981-21.882-12.075 29.695-3.907z" fill="#D5D6D7"/><path d="M151.851 85.732l-2.199-34.486-18.11-.621 20.309 35.107z" fill="#BCBABA"/><path d="M139.444 34.7l10.298 16.531-18.11-.603 7.812-15.929z" fill="#5B5B5B"/><path d="M143.789 17.898l24.653 3.073-28.998 13.744 4.345-16.817zm51.612-7.652l-15.5 17.9 1.09-16.55 14.41-1.35zM204 0l-8.599 10.246 6.722.817L204 0z" fill="#ACA9A9"/><path d="M187.052 19.532l15.071-8.489-6.722-.816-8.349 9.305z" fill="#AFAFAF"/><path d="M159.252 55.19l.733-20.545-10.333 16.603 9.6 3.942z" fill="#BCBABA"/><path d="M159.986 34.645l-10.334 16.603-10.208-16.532 20.542-.072z" fill="#5B5B5B"/><path d="M168.442 20.969l-8.456 13.673-20.542.071 28.998-13.744z" fill="#BABABA"/><path d="M159.986 34.645l-.733 20.545 18.914 19.214-18.181-39.76z" fill="#D2D2D2"/><path d="M188.053 63.66l-9.993-24.594.107 35.356 9.886-10.761zm-8.152-35.515l-1.841 10.92-18.074-4.421 19.915-6.5z" fill="#5B5B5B"/><path d="M189.054 42.952l-10.994-3.889 1.787-10.903 9.207 14.792z" fill="#D2D2D2"/><path d="M193.077 62.986l-11.978-19.072h6.847l5.131 19.072z" fill="#ACA9A9"/><path d="M170.694 16.903l9.207 11.24 1.091-16.55-10.298 5.31z" fill="#BABABA"/><path d="M178.06 39.066l-18.074-4.422 18.181 39.76-.107-35.338z" fill="#5B5B5B"/><path d="M188.053 63.66l3.987 2.22-13.837 8.523 9.85-10.743z" fill="#BCBABA"/><path d="M193.077 62.755L178.06 39.066l9.993 24.612 5.024-.923z" fill="#BABABA"/><path d="M170.694 16.902L159.968 34.66l19.915-6.5-9.189-11.258z" fill="#ACA9A9"/><path d="M28.05 69.131l2.896 1.474 2.914-1.474v16.604h-5.81V69.13zm-.447-5.611a3.12 3.12 0 011.07-2.132 3.16 3.16 0 012.273-.763 2.968 2.968 0 012.375.668 2.93 2.93 0 011.032 2.227 2.913 2.913 0 01-1.032 2.227 2.956 2.956 0 01-2.375.667 3.13 3.13 0 01-2.264-.732 3.092 3.092 0 01-1.08-2.109v-.053zM14.41 60.375v9.713H6.328v-9.713H0v25.358h6.329v-9.75h8.08v9.75h6.329V60.375h-6.329zm32.805 25.359h-5.846V73.126h-2.27v-5.451h2.27v-6.073h5.846v6.073h2.27v5.451h-2.27v12.608z" fill="#A4A4A4"/><path d="M61.749 79.908h5.166c2.02 0 2.646-1.225 2.646-2.273 0-1.047-.661-2.237-2.646-2.237H61.75v4.51zm0-9.784h4.72a1.998 1.998 0 001.475-.37 1.977 1.977 0 00.777-1.3 1.487 1.487 0 000-.283c0-.675-.375-1.954-2.27-1.954h-4.702v3.907zm4.022-9.749c7.705 0 8.939 4.546 8.939 6.854a5.511 5.511 0 01-.786 3.154 5.565 5.565 0 01-2.432 2.174 5.612 5.612 0 013.001 2.166 5.548 5.548 0 01.986 3.552c0 3.977-2.306 7.405-9.94 7.405H55.42V60.375h10.351zm26.03 25.358h-6.329V66.199h-6.668v-5.824H98.47v5.771h-6.668v19.587zm33.02-21.345l-4.094 3.676a8.508 8.508 0 00-5.739-2.095 6.802 6.802 0 00-2.603.45 6.754 6.754 0 00-3.745 3.557 6.684 6.684 0 00-.571 2.563 2.788 2.788 0 000 .532 6.678 6.678 0 001.692 4.858 6.754 6.754 0 002.102 1.583c.799.385 1.667.61 2.553.662h.572a8.455 8.455 0 005.739-2.042l4.094 3.676a13.531 13.531 0 01-4.482 3.102 13.614 13.614 0 01-5.351 1.089 13.027 13.027 0 01-9.178-3.776 12.848 12.848 0 01-3.801-9.116c0-3.42 1.367-6.698 3.801-9.116a13.027 13.027 0 019.178-3.776 13.51 13.51 0 015.352 1.074 13.456 13.456 0 014.481 3.099z" fill="#5B5B5B"/></g><defs><clipPath id="clip0"><path fill="#fff" d="M0 0h204v86H0z"/></clipPath></defs></svg>