<svg width="39" height="25" fill="none" xmlns="http://www.w3.org/2000/svg"><mask id="path-1-outside-1" maskUnits="userSpaceOnUse" x="0" y="0" width="39" height="25" fill="#000"><path fill="#fff" d="M0 0h39v25H0z"/><path d="M33.69 11.436a4.252 4.252 0 001.84-3.488c0-2.358-1.93-4.265-4.315-4.265-2.386 0-4.315 1.907-4.315 4.265a4.23 4.23 0 001.84 3.488 7.497 7.497 0 00-2.55 1.479 9.71 9.71 0 00-3.501-1.885c1.578-.946 2.64-2.668 2.64-4.627C25.33 3.417 22.884 1 19.862 1c-3.021 0-5.467 2.424-5.467 5.403a5.386 5.386 0 002.64 4.627 9.79 9.79 0 00-3.463 1.863 7.557 7.557 0 00-2.52-1.45 4.252 4.252 0 001.84-3.488c0-2.358-1.93-4.265-4.316-4.265S4.261 5.597 4.261 7.955c0 1.441.725 2.72 1.84 3.489C3.13 12.456 1 15.243 1 18.517v.488c0 .015.015.03.03.03h9.147a9.82 9.82 0 00-.083 1.249v.502c0 2.173 1.78 3.932 3.98 3.932h11.592c2.198 0 3.979-1.759 3.979-3.932v-.502c0-.422-.03-.843-.083-1.25h9.207c.015 0 .03-.014.03-.029v-.488c-.015-3.281-2.14-6.068-5.108-7.08zM28.097 7.94c0-1.7 1.399-3.082 3.119-3.082 1.72 0 3.119 1.382 3.119 3.082 0 1.678-1.369 3.045-3.06 3.083h-.119c-1.698-.03-3.059-1.397-3.059-3.083zm-12.52-1.537c0-2.328 1.915-4.22 4.271-4.22s4.27 1.892 4.27 4.22c0 2.247-1.787 4.087-4.023 4.213H19.6c-2.236-.126-4.024-1.966-4.024-4.213zM5.435 7.94c0-1.7 1.399-3.082 3.119-3.082 1.72 0 3.118 1.382 3.118 3.082 0 1.678-1.368 3.045-3.058 3.083h-.12c-1.69-.03-3.059-1.397-3.059-3.083zm4.951 9.905H2.212c.336-3.15 3.029-5.618 6.297-5.64h.09a6.368 6.368 0 014.076 1.5 9.67 9.67 0 00-2.289 4.14zm18.047 2.941c0 1.515-1.25 2.75-2.782 2.75H14.058c-1.533 0-2.782-1.235-2.782-2.75v-.502c0-4.59 3.71-8.345 8.324-8.478.082.007.172.007.255.007.082 0 .171 0 .254-.007 4.614.133 8.324 3.888 8.324 8.478v.502zm.89-2.941a9.646 9.646 0 00-2.266-4.11 6.398 6.398 0 014.113-1.53h.09c3.268.022 5.96 2.49 6.297 5.64h-8.234z"/></mask><path d="M33.69 11.436a4.252 4.252 0 001.84-3.488c0-2.358-1.93-4.265-4.315-4.265-2.386 0-4.315 1.907-4.315 4.265a4.23 4.23 0 001.84 3.488 7.497 7.497 0 00-2.55 1.479 9.71 9.71 0 00-3.501-1.885c1.578-.946 2.64-2.668 2.64-4.627C25.33 3.417 22.884 1 19.862 1c-3.021 0-5.467 2.424-5.467 5.403a5.386 5.386 0 002.64 4.627 9.79 9.79 0 00-3.463 1.863 7.557 7.557 0 00-2.52-1.45 4.252 4.252 0 001.84-3.488c0-2.358-1.93-4.265-4.316-4.265S4.261 5.597 4.261 7.955c0 1.441.725 2.72 1.84 3.489C3.13 12.456 1 15.243 1 18.517v.488c0 .015.015.03.03.03h9.147a9.82 9.82 0 00-.083 1.249v.502c0 2.173 1.78 3.932 3.98 3.932h11.592c2.198 0 3.979-1.759 3.979-3.932v-.502c0-.422-.03-.843-.083-1.25h9.207c.015 0 .03-.014.03-.029v-.488c-.015-3.281-2.14-6.068-5.108-7.08zM28.097 7.94c0-1.7 1.399-3.082 3.119-3.082 1.72 0 3.119 1.382 3.119 3.082 0 1.678-1.369 3.045-3.06 3.083h-.119c-1.698-.03-3.059-1.397-3.059-3.083zm-12.52-1.537c0-2.328 1.915-4.22 4.271-4.22s4.27 1.892 4.27 4.22c0 2.247-1.787 4.087-4.023 4.213H19.6c-2.236-.126-4.024-1.966-4.024-4.213zM5.435 7.94c0-1.7 1.399-3.082 3.119-3.082 1.72 0 3.118 1.382 3.118 3.082 0 1.678-1.368 3.045-3.058 3.083h-.12c-1.69-.03-3.059-1.397-3.059-3.083zm4.951 9.905H2.212c.336-3.15 3.029-5.618 6.297-5.64h.09a6.368 6.368 0 014.076 1.5 9.67 9.67 0 00-2.289 4.14zm18.047 2.941c0 1.515-1.25 2.75-2.782 2.75H14.058c-1.533 0-2.782-1.235-2.782-2.75v-.502c0-4.59 3.71-8.345 8.324-8.478.082.007.172.007.255.007.082 0 .171 0 .254-.007 4.614.133 8.324 3.888 8.324 8.478v.502zm.89-2.941a9.646 9.646 0 00-2.266-4.11 6.398 6.398 0 014.113-1.53h.09c3.268.022 5.96 2.49 6.297 5.64h-8.234z" fill="#343A40"/><path d="M33.69 11.436l-.056-.082-.163.113.187.064.033-.095zm-4.95 0l.032.095.188-.064-.164-.113-.056.082zm-2.55 1.479l-.065.076.066.056.065-.058-.067-.074zm-3.501-1.885l-.051-.086-.196.117.219.065.028-.096zm-5.654 0l.029.096.218-.065-.196-.117-.051.086zm-3.463 1.863l-.065.075.064.056.065-.055-.064-.076zm-2.52-1.45l-.057-.081-.163.113.188.064.032-.095zm-4.951 0l.032.095.188-.064-.164-.113-.056.083zm4.076 7.592l.099.012.014-.113h-.113v.1zm19.385 0v-.1h-.114l.015.112.1-.012zm9.237-.518h.1-.1zm-7.524-7.494v.1h.002l-.002-.1zm-.12 0l-.002.1h.002v-.1zm-11.061-.407v.1h.005l-.005-.1zm-.494 0l-.005.1h.005v-.1zm-10.986.407v.1h.002l-.002-.1zm-.12 0l-.002.1h.002v-.1zm1.892 6.822v.1h.077l.02-.075-.097-.025zm-8.174 0l-.1-.011-.012.11h.112v-.1zm6.297-5.64v-.1.1zm.09 0v-.1.1zm4.076 1.5l.073.069.072-.077-.081-.068-.064.077zm6.925-1.9l.01-.1-.013.001.003.1zm.509 0l.003-.1-.012.001.009.1zm9.214 6.04l-.097.025.02.075h.077v-.1zm-2.266-4.11l-.065-.076-.08.068.071.076.074-.068zm4.113-1.53v-.1.1zm.09 0v-.1.1zm6.297 5.64v.1h.111l-.011-.111-.1.01zm-3.81-6.326a4.352 4.352 0 001.883-3.571h-.2a4.152 4.152 0 01-1.797 3.406l.115.165zm1.883-3.571c0-2.414-1.975-4.365-4.415-4.365v.2c2.332 0 4.215 1.863 4.215 4.165h.2zm-4.415-4.365c-2.44 0-4.415 1.95-4.415 4.365h.2c0-2.302 1.883-4.165 4.215-4.165v-.2zM26.8 7.948c0 1.475.743 2.784 1.883 3.57l.113-.164A4.133 4.133 0 0127 7.948h-.2zm1.907 3.394a7.598 7.598 0 00-2.584 1.498l.133.15a7.396 7.396 0 012.516-1.459l-.065-.19zm-2.453 1.496a9.81 9.81 0 00-3.537-1.904l-.056.192a9.61 9.61 0 013.464 1.865l.129-.153zm-3.514-1.722c1.607-.963 2.69-2.717 2.69-4.713h-.2c0 1.922-1.043 3.612-2.592 4.541l.102.172zm2.69-4.713C25.43 3.361 22.937.9 19.861.9v.2c2.967 0 5.367 2.373 5.367 5.303h.2zM19.861.9c-3.076 0-5.567 2.468-5.567 5.503h.2c0-2.922 2.4-5.303 5.367-5.303V.9zm-5.567 5.503a5.486 5.486 0 002.689 4.713l.102-.172a5.286 5.286 0 01-2.591-4.541h-.2zm2.711 4.531a9.892 9.892 0 00-3.498 1.882l.128.153a9.69 9.69 0 013.428-1.843l-.058-.192zm-3.368 1.883a7.66 7.66 0 00-2.554-1.468l-.064.19a7.457 7.457 0 012.487 1.429l.13-.151zm-2.53-1.291a4.352 4.352 0 001.884-3.57h-.2a4.152 4.152 0 01-1.797 3.406l.114.164zm1.884-3.57c0-2.415-1.976-4.366-4.416-4.366v.2c2.332 0 4.216 1.864 4.216 4.165h.2zM8.576 3.59c-2.44 0-4.415 1.951-4.415 4.365h.2c0-2.301 1.884-4.165 4.215-4.165v-.2zM4.161 7.955c0 1.476.743 2.785 1.883 3.571l.113-.165a4.133 4.133 0 01-1.796-3.406h-.2zm1.907 3.394C3.061 12.375.9 15.2.9 18.517h.2c0-3.23 2.102-5.98 5.033-6.979l-.065-.189zM.9 18.517v.488h.2v-.488H.9zm0 .488c0 .04.02.072.04.091a.13.13 0 00.09.038v-.2a.07.07 0 01.05.02.07.07 0 01.02.051H.9zm.13.13h9.147v-.2H1.03v.2zm9.047-.113c-.052.41-.083.836-.083 1.262h.2c0-.417.03-.834.082-1.237l-.198-.025zm-.083 1.262v.502h.2v-.502h-.2zm0 .502c0 2.23 1.826 4.032 4.08 4.032v-.2c-2.146 0-3.88-1.715-3.88-3.832h-.2zm4.08 4.032h11.592v-.2H14.073v.2zm11.592 0c2.253 0 4.078-1.802 4.078-4.032h-.2c0 2.117-1.734 3.832-3.878 3.832v.2zm4.078-4.032v-.502h-.2v.502h.2zm0-.502c0-.426-.03-.852-.083-1.262l-.198.025c.052.403.081.82.081 1.237h.2zm-.182-1.15h9.207v-.2h-9.207v.2zm9.207 0a.13.13 0 00.09-.038.13.13 0 00.04-.091h-.2a.07.07 0 01.02-.05.07.07 0 01.05-.02v.2zm.13-.129v-.488h-.2v.488h.2zm0-.488c-.016-3.326-2.168-6.15-5.176-7.175l-.065.189c2.93 1 5.026 3.749 5.04 6.987l.2-.001zM28.196 7.94c0-1.643 1.353-2.982 3.019-2.982v-.2c-1.774 0-3.219 1.426-3.219 3.182h.2zm3.019-2.982c1.666 0 3.019 1.339 3.019 2.982h.2c0-1.756-1.445-3.182-3.219-3.182v.2zm3.019 2.982c0 1.622-1.324 2.947-2.961 2.982l.004.2c1.743-.038 3.157-1.448 3.157-3.182h-.2zm-2.96 2.982h-.059v.2h.06v-.2zm-.059 0h-.06v.2h.061v-.2zm-.058 0c-1.644-.028-2.96-1.352-2.96-2.982h-.2c0 1.741 1.405 3.152 3.157 3.183l.003-.2zm-15.48-4.519c0-2.272 1.868-4.12 4.17-4.12v-.2c-2.41 0-4.37 1.935-4.37 4.32h.2zm4.17-4.12c2.302 0 4.17 1.848 4.17 4.12h.2c0-2.385-1.96-4.32-4.37-4.32v.2zm4.17 4.12c0 2.192-1.744 3.99-3.929 4.113l.011.2c2.288-.129 4.119-2.012 4.119-4.313h-.2zm-3.923 4.113h-.247v.2h.246v-.2zm-.247 0h-.246v.2h.247v-.2zm-.241 0c-2.185-.123-3.93-1.92-3.93-4.113h-.2c0 2.301 1.83 4.184 4.119 4.313l.01-.2zM5.535 7.94c0-1.643 1.353-2.982 3.019-2.982v-.2c-1.775 0-3.219 1.426-3.219 3.182h.2zm3.019-2.982c1.666 0 3.018 1.339 3.018 2.982h.2c0-1.756-1.444-3.182-3.218-3.182v.2zm3.018 2.982c0 1.622-1.323 2.947-2.96 2.982l.004.2c1.743-.038 3.157-1.448 3.157-3.182h-.2zm-2.958 2.982h-.061v.2h.061v-.2zm-.06 0h-.06v.2h.06v-.2zm-.058 0C6.859 10.894 5.535 9.57 5.535 7.94h-.2c0 1.741 1.414 3.152 3.157 3.183l.004-.2zm1.89 6.823H2.212v.2h8.174v-.2zm-8.075.11c.331-3.098 2.98-5.528 6.199-5.55l-.002-.2c-3.319.023-6.054 2.53-6.396 5.729l.199.021zm6.198-5.55h.045v-.2H8.51v.2zm.045 0h.045v-.2h-.044v.2zm.044 0a6.267 6.267 0 014.012 1.477l.129-.153a6.468 6.468 0 00-4.14-1.524v.2zm4.004 1.332a9.771 9.771 0 00-2.313 4.182l.194.051a9.573 9.573 0 012.265-4.096l-.146-.137zm15.73 7.15c0 1.458-1.202 2.649-2.681 2.649v.2c1.587 0 2.882-1.278 2.882-2.85h-.2zm-2.681 2.649H14.058v.2h11.593v-.2zm-11.593 0c-1.479 0-2.682-1.19-2.682-2.65h-.2c0 1.572 1.295 2.85 2.882 2.85v-.2zm-2.682-2.65v-.502h-.2v.502h.2zm0-.502c0-4.535 3.665-8.247 8.227-8.378l-.006-.2c-4.667.135-8.42 3.933-8.42 8.578h.2zm8.215-8.378c.088.007.182.007.264.007v-.2c-.084 0-.169 0-.246-.007l-.018.2zm.264.007c.08 0 .175 0 .263-.008l-.018-.199c-.077.007-.162.007-.245.007v.2zm.25-.007c4.563.131 8.228 3.843 8.228 8.378h.2c0-4.645-3.754-8.443-8.421-8.578l-.006.2zm8.228 8.378v.502h.2v-.502h-.2zm1.087-2.465a9.745 9.745 0 00-2.29-4.152l-.147.136a9.547 9.547 0 012.243 4.067l.194-.05zm-2.298-4.008a6.298 6.298 0 014.05-1.506l-.003-.2a6.498 6.498 0 00-4.177 1.554l.13.152zm4.048-1.506h.046v-.2h-.044v.2zm.045 0h.045v-.2h-.044v.2zm.044 0c3.218.022 5.868 2.452 6.199 5.55l.199-.021c-.342-3.2-3.077-5.706-6.396-5.729l-.002.2zm6.298 5.44h-8.234v.2h8.234v-.2z" fill="#000" mask="url(#path-1-outside-1)"/></svg>