<svg width="40" height="41" fill="none" xmlns="http://www.w3.org/2000/svg"><path d="M1.032 33.337c-.133 0-.208-.002-.222-.002A.835.835 0 010 32.48c.014-.46.384-.79.857-.81.277-.003 28.583.5 35.003-24.373a.833.833 0 111.613.417C31.03 32.683 3.78 33.337 1.033 33.337z" fill="#35F"/><path d="M39.168 12.666a.833.833 0 01-.723-.417l-2.083-3.608-3.609 2.083a.834.834 0 01-.833-1.443l4.33-2.5a.832.832 0 011.138.305l2.5 4.33a.834.834 0 01-.72 1.25zm-3.333 27.333a.834.834 0 01-.834-.833V17.5a.834.834 0 011.667 0v21.665c0 .46-.373.833-.833.833zm-10 .002a.834.834 0 01-.834-.833V29.17a.834.834 0 011.667 0v10c0 .46-.373.832-.833.832zm-10.001.002a.834.834 0 01-.833-.834v-5a.834.834 0 011.667 0v5c0 .46-.374.834-.834.834zm-10 0A.834.834 0 015 39.169v-2.5a.834.834 0 011.667 0v2.5c0 .46-.373.834-.833.834zm6.263-20.271a.837.837 0 01-.59-.243l-5.993-5.995a.833.833 0 01-.03-1.146l4.91-5.451C13.882 2.869 19.416.092 24.153.004c.196-.027.445.085.605.243a.84.84 0 01.243.605c-.088 4.736-2.865 10.27-6.907 13.767l-5.44 4.9a.821.821 0 01-.557.213zm-4.845-6.856l4.877 4.876 4.864-4.381c3.46-2.995 5.903-7.57 6.29-11.649-4.08.387-8.654 2.83-11.639 6.278l-4.392 4.876z" fill="#35F"/><path d="M14.34 23.688a.838.838 0 01-.812-.64l-1.177-4.916a.834.834 0 011.622-.388l.781 3.264c1.449-2.265 1.737-5.163 1.767-6.858a.849.849 0 01.848-.818c.46.007.827.388.819.847-.07 3.943-1.227 7.232-3.259 9.264a.835.835 0 01-.588.245zm-7.271-11.01a.778.778 0 01-.195-.023l-4.917-1.179a.83.83 0 01-.608-.583.837.837 0 01.211-.815c2.032-2.032 5.322-3.189 9.267-3.259.462-.041.84.359.847.819a.834.834 0 01-.818.848c-1.697.03-4.594.318-6.859 1.767l3.265.781a.835.835 0 01.617 1.006.835.835 0 01-.81.638zM.834 25.006a.832.832 0 01-.798-1.072c.274-.92 1.704-5.563 2.824-6.683a3.465 3.465 0 014.897 0 3.466 3.466 0 010 4.896c-1.118 1.12-5.763 2.549-6.683 2.824a.855.855 0 01-.24.035zm4.475-7.101c-.46 0-.92.175-1.27.524-.474.474-1.287 2.56-1.924 4.462 1.902-.637 3.99-1.45 4.462-1.922a1.796 1.796 0 00-1.268-3.064z" fill="#35F"/></svg>