<svg width="40" height="40" fill="none" xmlns="http://www.w3.org/2000/svg"><path d="M39.982 1.94A2 2 0 0037.983 0H2a2 2 0 00-2 2v36a2 2 0 002 2h35.983a2 2 0 002-2c0-44.38.04-34.667 0-36.06zm-1.332 0l-3.106 10.52-4.225-1.587v-9.54h6.664a.667.667 0 01.667.614V1.94zm-8.663 9.273L25.076 24.72l-4.419-4.973V1.333h9.33v9.88zM19.325 18.1c-3.998-4.973-4.092-5.127-4.178-5.22a.666.666 0 00-.487-.213h-2.665a.666.666 0 000 1.333h1.552l-3.551 6.667V1.333h9.329V18.1zm-9.33 5.4l4.778-8.96 4.552 5.693v18.434h-9.33V23.5zm10.662-1.747c4.485 5.047 4.185 4.747 4.378 4.84.194.094.107.074 2.953.074a.666.666 0 000-1.334h-1.713l3.712-10.213v23.547h-9.33V21.753zM2 1.333h6.664v11.334H7.33a.666.666 0 000 1.333h1.333v9.147L4.87 29.473l-3.538 1.514V2c0-.368.298-.667.666-.667zM1.333 38v-5.56l4.258-1.827c.28-.12.086.1 3.072-4.873v12.927H1.999A.667.667 0 011.333 38zm36.65.667H31.32v-12h1.333a.666.666 0 000-1.334H31.32v-13.04l4.432 1.667a.666.666 0 00.9-.44l1.998-6.893V38a.667.667 0 01-.666.667z" fill="#35F"/><path d="M25.795 28.193a.667.667 0 00-.946 0l-2 2a.67.67 0 00.947.947l.86-.867v4.394a.666.666 0 101.332 0v-4.394l.86.867a.669.669 0 10.946-.947l-1.999-2zM14.187 11.14a.667.667 0 00.946 0l2-2a.67.67 0 00-.947-.947l-.86.867V4.667a.666.666 0 10-1.332 0V9.06l-.86-.867a.669.669 0 10-.946.947l1.999 2zM36.65 25.332h-1.332a.666.666 0 000 1.333h1.332a.666.666 0 000-1.333zM3.332 13.997h1.333a.666.666 0 100-1.333H3.332a.666.666 0 100 1.333z" fill="#35F"/></svg>