<svg width="40" height="40" fill="none" xmlns="http://www.w3.org/2000/svg"><path d="M9.375 20.625h1.875v1.25H9.375v-1.25zm4.375 3.125h1.875V25H13.75v-1.25zm-4.375 0H12.5V25H9.375v-1.25zm-5 0h3.75V25h-3.75v-1.25zm3.75 3.125h7.5v1.25h-7.5v-1.25zm-3.75 0h2.5v1.25h-2.5v-1.25zm7.5 3.125h3.75v1.25h-3.75V30zm-7.5 0h6.25v1.25h-6.25V30zm3.75 3.125h3.75v1.25h-3.75v-1.25zm-3.75 0h2.5v1.25h-2.5v-1.25z" fill="#35F"/><path d="M37.5 18.75a.625.625 0 00-.625-.625h-3.75a.625.625 0 00-.625.625v3.125h-3.125a.625.625 0 00-.625.625v3.125h-3.125a.625.625 0 00-.625.625v3.125h-3.125a.625.625 0 00-.625.625v3.75h-4.483a1.875 1.875 0 100 1.25h.733v1.875a.625.625 0 01-.625.625H3.125a.626.626 0 01-.625-.625V22.5h3.125A1.877 1.877 0 007.5 20.625V17.5h9.375a.625.625 0 01.625.625v.625h1.25v-.625a1.877 1.877 0 00-1.875-1.875H7.393a1.862 1.862 0 00-1.326.55l-4.268 4.267a1.863 1.863 0 00-.549 1.326v14.482a1.877 1.877 0 001.875 1.875h13.75a1.877 1.877 0 001.875-1.875V35h20v-1.25H37.5v-15zm-31.25-.366v2.241a.626.626 0 01-.625.625H3.384l2.866-2.866zM15 35a.625.625 0 110-1.25.625.625 0 010 1.25zm7.5-4.375H25v3.125h-2.5v-3.125zm3.75-3.75h2.5v6.875h-2.5v-6.875zm3.75-3.75h2.5V33.75H30V23.125zm3.75 10.625V19.375h2.5V33.75h-2.5zM3.125 16.876a1.875 1.875 0 001.692-2.683l1.875-1.875a1.874 1.874 0 002.575-1.067h2.716a1.875 1.875 0 003.616-.315l3.53-3.026a1.875 1.875 0 10-.85-.917l-2.99 2.563a1.873 1.873 0 00-3.306.445H9.267a1.875 1.875 0 10-3.459 1.433l-1.875 1.875a1.875 1.875 0 10-.808 3.567zM20 5.626a.625.625 0 110 1.25.625.625 0 010-1.25zM13.75 10a.625.625 0 110 1.25.625.625 0 010-1.25zM7.5 10a.625.625 0 110 1.25.625.625 0 010-1.25zm-4.375 4.375a.625.625 0 110 1.25.625.625 0 010-1.25z" fill="#35F"/><path d="M25.747 15.871l-4.13 4.131h-5.475a1.875 1.875 0 100 1.25H17.5v11.25h1.25v-11.25h3.125a.625.625 0 00.442-.183l4.51-4.51a8.147 8.147 0 10-1.08-.688zm-11.372 5.381a.625.625 0 110-1.25.625.625 0 010 1.25zm21.263-7.175l-3.621-4.075h5.454a6.852 6.852 0 01-1.833 4.074zm1.833-5.325H31.25V2.531a6.887 6.887 0 016.221 6.221zM30 2.531v6.846c0 .153.056.301.158.415l4.547 5.116A6.875 6.875 0 1130 2.53z" fill="#35F"/></svg>