<svg width="1268" height="376" viewBox="0 0 1268 376" fill="none" xmlns="http://www.w3.org/2000/svg">
<path d="M1263.97 -306.815C1261.28 -308.395 1256.93 -308.395 1254.24 -306.815C1252.23 -305.63 1251.73 -303.896 1252.75 -302.448L1102.1 -214.355V-103.152L1065.39 -81.6887V39.258L939.683 112.778L920.097 101.322L1017.03 44.6348V-21.6653L1016.64 -21.8847L906.425 -86.3413V-108.836L968.76 -145.289C971.447 -144.148 975.217 -144.28 977.643 -145.684C980.33 -147.265 980.33 -149.81 977.643 -151.369C974.957 -152.949 970.602 -152.949 967.915 -151.369C965.488 -149.942 965.272 -147.747 967.222 -146.167L904.887 -109.714V-85.4196L905.277 -85.2001L1015.5 -20.7435V43.7569L942.262 86.5964V58.9658L975.845 39.3238C978.532 40.465 982.302 40.3333 984.728 38.9288C987.415 37.3486 987.415 34.8028 984.728 33.2447C982.042 31.6645 977.687 31.6645 975 33.2447C972.573 34.6712 972.357 36.8658 974.307 38.4459L940.723 58.088V87.5181L918.58 100.466L892.385 85.1479V37.0414L941.785 8.13797V-25.1108L941.395 -25.3303L837.373 -86.1657C839.323 -87.7459 839.107 -89.9406 836.68 -91.3671C833.993 -92.9472 829.638 -92.9472 826.952 -91.3671C824.265 -89.7869 824.265 -87.2411 826.952 -85.6829C829.378 -84.2564 833.148 -84.1467 835.835 -85.2879L940.225 -24.233V7.21622L892.363 35.2198V2.05878L891.973 1.83929L828.338 -35.3818C830.288 -36.9619 830.072 -39.1566 827.645 -40.5831C824.958 -42.1632 820.603 -42.1632 817.917 -40.5831C815.23 -39.003 815.23 -36.4572 817.917 -34.899C820.343 -33.4724 824.113 -33.3627 826.8 -34.5039L890.825 2.93661V84.2042L872.43 73.4505L842.118 91.1831L814.667 75.1183V36.0977L814.277 35.8782L741.693 -6.56616V-43.3483C743.188 -43.4361 744.64 -43.8092 745.788 -44.4896C748.475 -46.0697 748.475 -48.6154 745.788 -50.1736C743.102 -51.7538 738.747 -51.7538 736.06 -50.1736C733.373 -48.5935 733.373 -46.0478 736.06 -44.4896C737.208 -43.8092 738.66 -43.458 740.155 -43.3483V-5.66632L740.545 -5.4469L813.128 36.9975V74.2186L695.002 5.13126V-68.1039L759.07 -105.566H817.873L818.047 -105.676L918.948 -164.668C921.635 -163.527 925.405 -163.658 927.832 -165.063C930.518 -166.643 930.518 -169.189 927.832 -170.747C925.145 -172.327 920.79 -172.327 918.103 -170.747C915.677 -169.321 915.46 -167.126 917.41 -165.546L817.462 -107.103H761.735L947.093 -215.496C949.78 -214.355 953.55 -214.486 955.977 -215.891C958.663 -217.471 958.663 -220.017 955.977 -221.575C953.29 -223.155 948.935 -223.155 946.248 -221.575C943.822 -220.149 943.605 -217.954 945.555 -216.374L693.463 -68.9598V6.07498L693.853 6.29443L840.602 92.1049L811.07 109.377L560.517 -37.1375V-124.572L560.127 -124.791L474.912 -174.61C476.862 -176.19 476.645 -178.385 474.218 -179.811C471.532 -181.391 467.177 -181.391 464.49 -179.811C461.803 -178.231 461.803 -175.685 464.49 -174.127C466.917 -172.7 470.687 -172.591 473.373 -173.732L558.957 -123.672V-36.2377L559.347 -36.0182L809.51 110.277L781.387 126.714L533.607 -18.1978H385.84L293.497 -72.2078V-155.209C294.472 -155.407 295.382 -155.714 296.162 -156.153C298.848 -157.733 298.848 -160.279 296.162 -161.837C293.475 -163.417 289.12 -163.417 286.433 -161.837C283.747 -160.257 283.747 -157.711 286.433 -156.153C287.95 -155.275 289.987 -154.902 291.958 -155.012V-71.3081L292.348 -71.0886L385.45 -16.6395H533.217L742.387 105.69H700.31L628.918 63.9477H573.928L573.755 64.0574L497.488 108.652C494.802 107.511 491.032 107.643 488.605 109.048C485.918 110.628 485.918 113.173 488.605 114.732C491.292 116.312 495.647 116.312 498.333 114.732C500.76 113.305 500.977 111.11 499.027 109.53L574.34 65.4839H628.507L699.898 107.226H745.052L779.87 127.592L704.817 171.485L683.475 158.997V126.232L629.2 94.519C631.15 92.9388 630.933 90.7442 628.507 89.3177C625.82 87.7376 621.465 87.7376 618.778 89.3177C616.092 90.8979 616.092 93.4436 618.778 95.0018C621.205 96.4283 624.975 96.5381 627.662 95.3969L681.872 127.109V158.076L624.065 124.256H596.678L596.505 124.366L563.853 143.459C561.167 142.318 557.397 142.45 554.97 143.854C552.283 145.435 552.283 147.98 554.97 149.539C557.657 151.119 562.012 151.119 564.698 149.539C567.125 148.112 567.342 145.918 565.392 144.337L597.09 125.793H623.632L703.213 172.319L688.762 180.768L734.89 207.741L713.288 220.382H680.615L657.237 206.709C659.1 205.151 658.84 202.978 656.457 201.574C653.77 199.993 649.415 199.993 646.728 201.574C644.042 203.154 644.042 205.7 646.728 207.258C649.177 208.684 653.012 208.794 655.72 207.609L680.203 221.918H710.623L655.525 254.135L525.915 178.332H432.64L432.467 178.442L379.947 209.145C377.26 208.004 373.49 208.136 371.063 209.54C368.377 211.12 368.377 213.666 371.063 215.224C373.75 216.804 378.105 216.804 380.792 215.224C383.218 213.798 383.435 211.603 381.485 210.023L433.052 179.869H525.482L625.452 238.334H582.66L540.843 213.885C542.793 212.305 542.577 210.111 540.15 208.684C537.463 207.104 533.108 207.104 530.422 208.684C527.735 210.264 527.735 212.81 530.422 214.368C532.848 215.795 536.618 215.905 539.305 214.763L582.248 239.892H628.117L653.965 255.013L588.163 293.485H377.845L214.5 198.062C216.45 196.482 216.233 194.287 213.807 192.861C211.12 191.281 206.765 191.281 204.078 192.861C201.392 194.441 201.392 196.987 204.078 198.545C206.505 199.971 210.275 200.081 212.962 198.94L377.477 295.153H585.52L559.412 310.428H403.737L403.563 310.537L326.798 355.44C324.112 354.298 320.342 354.43 317.915 355.835C315.228 357.415 315.228 359.961 317.915 361.519C320.602 363.099 324.957 363.099 327.643 361.519C330.07 360.093 330.287 357.898 328.337 356.318L404.17 311.986H559.845L560.018 311.876L736.45 208.706L756.037 220.162L570.548 328.643H434.893L434.72 328.753L270.877 424.571H43.875L0 398.894V400.693L43.4633 426.107H271.288L271.462 425.997L374.292 365.864V401.461L306.518 441.096C303.832 439.955 300.062 440.087 297.635 441.492C294.948 443.072 294.948 445.618 297.635 447.176C300.322 448.756 304.677 448.756 307.363 447.176C309.79 445.749 310.007 443.555 308.057 441.974L375.83 402.339V365.162H375.483L435.327 330.158H570.982L571.155 330.048L757.597 221.018L779.848 234.032L418.102 445.574V483.804H419.64V446.474L781.387 234.932L808.882 251.019L622.288 360.136V379.647L589.203 399.003V443.884L525.048 481.412C522.362 480.271 518.592 480.403 516.165 481.807C515.19 482.378 514.562 483.08 514.302 483.826H527.713C527.518 483.278 527.15 482.773 526.587 482.312L590.742 444.784V399.903L622.288 381.446V453.299L640.9 464.184L607.317 483.848H610.393L642.395 465.128L674.397 483.848H677.473L623.762 452.443V361.08L810.355 251.962L835.38 266.601L703.322 343.83C700.635 342.689 696.865 342.821 694.438 344.225C691.752 345.805 691.752 348.351 694.438 349.909C697.125 351.489 701.48 351.489 704.167 349.909C706.593 348.483 706.81 346.288 704.86 344.708L836.918 267.479L861.077 281.612L703.105 373.984H660.183C659.923 373.238 659.295 372.514 658.298 371.922C655.612 370.341 651.257 370.341 648.57 371.922C645.883 373.502 645.883 376.047 648.57 377.606C651.257 379.186 655.612 379.186 658.298 377.606C659.295 377.013 659.923 376.289 660.183 375.543H703.517L703.69 375.433L862.593 282.512L872.343 288.218L879.84 283.829L917.692 305.951V336.763L886.427 355.045V354.957H837.352L837.178 355.067L783.337 386.56C780.65 385.419 776.88 385.55 774.453 386.955C771.767 388.535 771.767 391.081 774.453 392.639C777.14 394.219 781.495 394.219 784.182 392.639C786.608 391.212 786.825 389.018 784.875 387.438L837.763 356.515H883.892L791.96 410.262C789.252 409.033 785.373 409.121 782.882 410.569C780.195 412.149 780.195 414.695 782.882 416.253C785.568 417.833 789.923 417.833 792.61 416.253C794.972 414.871 795.253 412.742 793.455 411.162L908.115 344.115V358.929L839.908 398.828V426.985L784.377 459.466C781.69 458.325 777.92 458.456 775.493 459.861C772.807 461.441 772.807 463.987 775.493 465.545C778.18 467.125 782.535 467.125 785.222 465.545C787.648 464.118 787.865 461.924 785.915 460.344L841.447 427.863V399.706L909.653 359.807V343.194L919.208 337.597V304.985L881.357 282.863L906.23 268.313L984.1 313.851V365.623L931.212 396.545C928.503 395.316 924.625 395.404 922.133 396.853C919.447 398.433 919.447 400.979 922.133 402.537C924.82 404.117 929.175 404.117 931.862 402.537C934.223 401.154 934.505 399.025 932.707 397.445L984.078 367.401V409.23L943.497 432.976V483.76H945.035V433.876L984.078 411.03V483.738H985.617V312.93L907.747 267.391L935.675 251.063L1037.47 310.581V452.355L1086.39 480.973V483.848H1087.93V480.161L1039 451.543V309.769L937.213 250.251L957.905 238.136L1095.27 318.46V439.407L1215.44 509H1219.35L1096.94 438.529V317.582L959.573 237.258L993.113 217.638L1221.67 351.292V411.469L1300 457.271V455.471L1223.21 410.569V350.392L1094.67 275.204H1196.33L1300 335.842V334.042L1196.74 273.646H1092L994.673 216.739L1033.67 193.936L1117.33 242.855H1251.66L1300 271.122V269.322L1289.41 263.133H1300V261.575H1286.74L1252.07 241.297H1117.74L1094.32 227.602H1151.43L1151.61 227.492L1180.25 210.747H1299.59L1299.98 210.989V209.189H1182.89L1215.13 190.337C1217.82 191.478 1221.59 191.346 1224.02 189.942C1226.7 188.362 1226.7 185.816 1224.02 184.258C1221.33 182.678 1216.97 182.678 1214.29 184.258C1211.86 185.684 1211.64 187.879 1213.59 189.459L1150.98 226.088H1091.61L1035.15 193.08L1056.01 180.878L1042.58 173.021H1081.6L1132.6 202.846C1130.65 204.427 1130.87 206.621 1133.3 208.048C1135.98 209.628 1140.34 209.628 1143.03 208.048C1145.71 206.468 1145.71 203.922 1143.03 202.364C1140.6 200.937 1136.83 200.827 1134.14 201.969L1082.01 171.485H1039.91L1011.36 154.784L1028.91 144.513H1060.04L1087.43 128.492H1107.86L1154.01 155.486C1151.93 157.066 1152.1 159.327 1154.57 160.775C1157.26 162.355 1161.61 162.355 1164.3 160.775C1166.99 159.195 1166.99 156.649 1164.3 155.091C1161.92 153.708 1158.26 153.555 1155.57 154.608L1108.27 126.956H1087.02L1059.63 142.977H1031.57L1087.71 110.145H1118.02L1181.2 147.081H1299.96V145.522H1181.61L1118.43 108.587H1087.3L1087.13 108.696L1009.82 153.906L989.538 142.055L1076.9 90.9637H1138.52L1189.35 120.679H1299.98V119.121H1189.78L1141.62 90.9637H1299.98V89.4055H1076.51L1076.34 89.5153L988.043 141.155L964.99 127.68L1086.8 56.442H1299.98V54.8838H1144.63L1299.98 -35.9743V-37.7739L1141.55 54.8838H1087.93L1203.41 -12.6453V-27.5249L1258.68 -59.83C1261.37 -58.6888 1265.14 -58.8205 1267.57 -60.2251C1270.25 -61.8052 1270.25 -64.351 1267.57 -65.9092C1264.88 -67.4894 1260.52 -67.4894 1257.84 -65.9092C1255.41 -64.4827 1255.19 -62.2881 1257.14 -60.7079L1227.05 -43.1069V-83.9053L1300 -126.701V-128.5L1225.51 -84.9368V-42.3387L1201.87 -28.5126V-13.6329L1085.44 54.4668L1085.83 55.1472L963.452 126.714L941.2 113.7L1066.91 40.1797V-80.7669L1300 -217.098V-218.898L1103.64 -104.052V-213.455L1253.94 -301.35C1254.05 -301.284 1254.13 -301.197 1254.24 -301.131C1256.93 -299.551 1261.28 -299.551 1263.97 -301.131C1266.66 -302.711 1266.66 -305.257 1263.97 -306.815ZM1052.98 180.834L872.408 286.44L691.86 180.856L872.43 75.2501L1052.98 180.834Z" fill="#889CFF" fill-opacity="0.4"/>
</svg>
