<svg width="360" height="195" viewBox="0 0 360 195" fill="none" xmlns="http://www.w3.org/2000/svg">
<path d="M93.4487 0.353606C144.312 -2.52348 197.64 12.4615 189.802 34.1847C181.963 55.9079 231.71 26.4692 251.563 34.3007C265.697 39.8763 260.047 56.851 266.884 63.6905C282.563 79.3728 298.596 59.6246 318.55 71.4731C338.503 83.3216 330.206 194.126 322.083 194.111L14.3759 193.561L10.6945 193.677C10.6945 193.677 -11.8723 161.848 8.55655 143.262C28.9854 124.675 14.9587 116.177 12.4765 108.994C9.62551 100.746 2.97446 86.342 31.955 75.7711C60.9356 65.2001 53.4529 42.1994 52.7398 37.4372C52.0268 32.6739 42.5853 3.23069 93.4487 0.353606Z" fill="#E8E8FD"/>
<path opacity="0.6" d="M273.543 17.1328H250.233V193.594H273.543V17.1328Z" fill="#A5AFF0"/>
<path opacity="0.6" d="M240.991 70.957H217.681V193.593H240.991V70.957Z" fill="#A5AFF0"/>
<path opacity="0.6" d="M306.565 55.3633H283.255V193.593H306.565V55.3633Z" fill="#A5AFF0"/>
<path opacity="0.6" d="M208.437 49.9297H185.127V193.595H208.437V49.9297Z" fill="#A5AFF0"/>
<path opacity="0.6" d="M175.884 92.5234H152.574V193.592H175.884V92.5234Z" fill="#A5AFF0"/>
<path opacity="0.3" d="M273.543 57.793H250.233V193.585H273.543V57.793Z" fill="#6972DF"/>
<path opacity="0.3" d="M240.991 99.2148H217.681V193.586H240.991V99.2148Z" fill="#6972DF"/>
<path opacity="0.3" d="M306.565 87.2188H283.255V193.59H306.565V87.2188Z" fill="#6972DF"/>
<path opacity="0.3" d="M208.437 83.0352H185.127V193.59H208.437V83.0352Z" fill="#6972DF"/>
<path opacity="0.3" d="M175.884 115.812H152.574V193.588H175.884V115.812Z" fill="#6972DF"/>
<path d="M317.894 18.4805L299.321 32.2185L306.406 32.6611L262.068 108.981L237.518 72.9845L202.79 152.21L180.452 121.179L152.61 159.671L154.362 166.56L180.439 130.682L204.052 163.483L238.653 84.5474L262.472 119.475L311.56 34.9784L316.117 39.7724L317.894 18.4805Z" fill="#5183BF"/>
<path d="M131.374 142.566C104.72 121.806 82.3241 94.9571 65.3673 63.4297C53.147 73.0302 40.9266 82.6307 28.7063 92.2324C48.3128 128.685 74.2063 159.731 105.025 183.733C113.808 170.009 122.591 156.288 131.374 142.566Z" fill="#3C8F7C"/>
<path d="M59.6271 70.957C52.0362 77.0172 44.4453 83.0762 36.8544 89.1352C38.662 92.431 38.006 96.878 35.3132 99.1339C52.5492 128.94 74.1494 154.837 99.3019 175.851C101.358 172.833 105.235 172.247 108.02 174.458C113.558 165.938 119.097 157.417 124.635 148.897C122.071 146.863 121.706 142.705 123.761 139.688C101.672 121.235 82.7046 98.4934 67.5693 72.3188C64.8777 74.5724 61.2905 73.9911 59.6271 70.957Z" fill="#96D9C9"/>
<path d="M90.3035 139.097C95.9949 131.914 95.9402 121.317 90.5722 114.978C85.189 108.655 75.9929 108.357 69.6303 114.75C63.2782 121.128 62.671 132.468 68.723 139.586C74.7669 146.713 84.6248 146.269 90.3035 139.097Z" fill="#50BFA5"/>
<path d="M89.9265 118.715C89.2112 119.492 88.4958 120.268 87.7805 121.044C89.4915 124.111 89.1297 127.28 87.2849 129.351C85.4227 131.436 83.3371 131.629 80.1593 129.786C77.8504 128.511 76.7419 128.135 76.0382 128.88C75.4426 129.509 75.246 130.651 76.5069 132.211C77.192 133.056 77.8771 133.621 78.4832 134.021C79.2916 134.552 79.5463 135.752 79.0485 136.675C78.5669 137.567 77.5503 137.864 76.771 137.321C76.1347 136.877 75.4391 136.272 74.6889 135.431C74.07 136.099 73.4512 136.767 72.8324 137.435C72.1845 136.64 71.5401 135.841 70.9004 135.038C71.5739 134.324 72.2474 133.61 72.9208 132.896C71.2866 129.809 71.6111 126.741 73.5082 124.794C75.602 122.644 78.0225 123.304 80.7979 125.007C82.7218 126.181 83.8373 126.367 84.634 125.5C85.4739 124.584 85.2005 123.188 84.142 121.868C83.415 120.962 82.5729 120.271 81.7412 119.759C80.9247 119.256 80.7025 118.025 81.2515 117.106C81.2713 117.072 81.2911 117.039 81.312 117.005C81.8098 116.17 82.7625 115.888 83.4883 116.351C84.3584 116.907 85.2947 117.7 86.1218 118.642C86.7929 117.926 87.4652 117.21 88.1364 116.493C88.7308 117.238 89.3275 117.979 89.9265 118.715Z" fill="#3C8F7C"/>
<path d="M111.303 157.585C105.229 152.499 99.3762 147.108 93.758 141.43C92.7949 142.655 91.8318 143.879 90.8699 145.103C96.5671 150.861 102.502 156.327 108.661 161.485C109.541 160.185 110.422 158.884 111.303 157.585Z" fill="#50BFA5"/>
<path d="M125.94 134.204C92.4611 130.051 59.627 119.096 29.168 101.914C23.3777 115.182 17.5874 128.452 11.7971 141.721C47.0146 161.587 84.9772 174.253 123.687 179.055C124.437 164.104 125.188 149.153 125.94 134.204Z" fill="#3C8F7C"/>
<path d="M27.957 110.541C24.4082 118.859 20.8582 127.176 17.3093 135.495C20.5243 137.275 22.1784 141.107 20.9722 144.142C50.8112 159.829 82.4798 170.395 114.785 175.444C115.058 172.097 118.124 169.841 121.643 170.308C122.183 160.986 122.722 151.664 123.262 142.341C120.024 141.911 117.628 138.78 117.9 135.437C89.531 131.003 61.7218 121.724 35.5177 107.949C34.315 110.982 30.915 112.179 27.957 110.541Z" fill="#96D9C9"/>
<path d="M88.6099 150.433C89.951 142.102 84.6051 133.716 76.7827 131.167C68.9569 128.637 60.8368 132.653 58.5197 140.667C56.2038 148.666 61.3474 157.946 70.1515 160.798C78.9532 163.66 87.2734 158.75 88.6099 150.433Z" fill="#50BFA5"/>
<path d="M78.0915 134.43C77.86 135.376 77.6285 136.323 77.397 137.27C80.4132 138.913 81.6834 141.596 81.1204 144.093C80.5493 146.608 78.8382 147.725 75.1626 147.733C72.5245 147.788 71.3741 148.001 71.138 148.918C70.9367 149.693 71.3369 150.691 73.2096 151.345C74.2262 151.699 75.1021 151.832 75.8267 151.867C76.7922 151.915 77.6134 152.75 77.6436 153.712C77.6727 154.643 76.9399 155.348 75.9931 155.278C75.2196 155.22 74.3146 155.06 73.2445 154.741C73.0421 155.556 72.8397 156.373 72.6373 157.189C71.6788 156.858 70.7204 156.521 69.7642 156.18C69.9911 155.302 70.2179 154.425 70.4447 153.546C67.4856 151.852 66.2328 149.267 66.9028 146.846C67.6414 144.171 70.0702 143.576 73.3259 143.644C75.5801 143.686 76.6398 143.318 76.8969 142.261C77.1667 141.146 76.2315 140.164 74.6554 139.606C73.5725 139.222 72.4966 139.064 71.5206 139.042C70.561 139.02 69.7538 138.146 69.7701 137.162C69.7701 137.126 69.7712 137.09 69.7712 137.054C69.7852 136.161 70.4691 135.497 71.3299 135.529C72.3616 135.567 73.5702 135.764 74.7578 136.129C74.9823 135.251 75.2056 134.372 75.4301 133.492C76.3164 133.812 77.2039 134.122 78.0915 134.43Z" fill="#3C8F7C"/>
<path d="M110.566 68.1182C109.754 67.8519 108.955 67.5505 108.183 67.1876C107.31 66.778 106.18 66.2968 105.465 66.1898C103.961 65.9634 101.379 66.1148 99.9531 67.6221C98.1758 69.5015 95.0189 67.9612 95.6552 77.8018C96.3752 88.9405 102.73 87.7176 102.883 87.5298C103.038 87.341 108.55 80.4036 108.55 80.4036C108.55 80.4036 110.478 84.5139 110.478 84.3626C110.476 84.2181 120.319 71.3206 110.566 68.1182Z" fill="#0E2E35"/>
<path d="M117.264 141.551C90.9234 151.729 61.8602 156.382 31.606 155.264C33.6136 167.854 35.6212 180.445 37.6301 193.037C72.6103 194.329 106.213 188.949 136.669 177.18C130.2 165.305 123.732 153.428 117.264 141.551Z" fill="#3C8F7C"/>
<path d="M34.7722 162.429C36.0901 170.29 37.4068 178.15 38.7247 186.011C41.9025 186.103 44.9058 188.409 45.4514 191.242C74.5529 191.45 102.584 186.962 128.489 177.947C127.118 175.246 128.293 172.273 131.076 171.226C127.095 163.792 123.114 156.358 119.133 148.924C116.572 149.886 113.357 148.421 111.986 145.723C89.2369 153.639 64.6217 157.58 39.0655 157.397C39.6122 160.226 37.6964 162.513 34.7722 162.429Z" fill="#96D9C9"/>
<path d="M97.6826 169.063C94.7503 162.075 86.9209 157.722 80.0256 158.876C73.1361 160.049 69.1057 166.406 71.1773 173.539C73.2443 180.66 81.3458 185.787 89.0984 184.473C96.8533 183.168 100.612 176.038 97.6826 169.063Z" fill="#50BFA5"/>
<path d="M82.51 160.879C82.7857 161.705 83.0614 162.531 83.337 163.357C86.3055 163.423 88.4899 164.991 89.2518 167.15C90.016 169.326 89.2937 170.875 86.6195 172.352C84.7236 173.45 83.9861 174.075 84.2432 174.881C84.4595 175.561 85.2191 176.173 86.8917 175.931C87.799 175.799 88.4992 175.55 89.0436 175.288C89.7694 174.939 90.7593 175.256 91.2338 175.99C91.6921 176.699 91.4886 177.538 90.7662 177.863C90.1754 178.128 89.4414 178.367 88.512 178.546C88.7481 179.26 88.9831 179.972 89.2181 180.685C88.3643 180.812 87.5082 180.935 86.6521 181.054C86.4055 180.283 86.1589 179.512 85.9112 178.742C82.9602 178.615 80.8339 177.114 80.186 174.97C79.4695 172.603 80.9595 171.171 83.3638 169.921C85.026 169.052 85.625 168.343 85.3168 167.421C84.9899 166.45 83.8488 166.064 82.4379 166.263C81.469 166.4 80.6106 166.707 79.8894 167.081C79.1799 167.449 78.1819 167.095 77.7317 166.327C77.7154 166.299 77.6991 166.271 77.6829 166.243C77.2746 165.545 77.4607 164.758 78.1028 164.439C78.8728 164.055 79.8452 163.724 80.8827 163.533C80.6338 162.763 80.3849 161.993 80.1348 161.222C80.9258 161.11 81.7191 160.996 82.51 160.879Z" fill="#3C8F7C"/>
<path d="M120.003 161.93C113.738 164.101 107.341 165.992 100.829 167.597C101.333 168.784 101.835 169.969 102.339 171.156C108.942 169.528 115.428 167.611 121.781 165.409C121.188 164.249 120.596 163.089 120.003 161.93Z" fill="#50BFA5"/>
<path d="M73.8037 183.07V192.294C73.8037 193.786 90.8117 194.994 111.792 194.994C132.772 194.994 149.78 193.784 149.78 192.294V183.07H73.8037Z" fill="#DD821F"/>
<path d="M101.295 194.893V183.074H73.8037V192.298C73.8037 193.529 85.4204 194.569 101.295 194.893Z" fill="#F2B42A"/>
<path d="M102.575 194.918C105.526 194.97 108.613 194.997 111.792 194.997C116.528 194.997 121.062 194.936 125.244 194.823V183.074H102.574V194.918H102.575Z" fill="#F2B42A"/>
<path d="M126.768 194.78C140.303 194.367 149.781 193.412 149.781 192.298V183.074H126.768V194.78Z" fill="#F2B42A"/>
<path d="M111.794 185.672C132.774 185.672 149.782 184.464 149.782 182.973C149.782 181.482 132.774 180.273 111.794 180.273C90.8138 180.273 73.8059 181.482 73.8059 182.973C73.8059 184.464 90.8138 185.672 111.794 185.672Z" fill="#DD821F"/>
<path d="M143.076 182.973C143.076 184.007 129.07 184.845 111.793 184.845C94.5163 184.845 80.5105 184.007 80.5105 182.973C80.5105 181.939 94.5163 181.102 111.793 181.102C129.07 181.102 143.076 181.94 143.076 182.973Z" fill="#FFD85A"/>
<path d="M67.3052 173.312V182.537C67.3052 184.028 84.3132 185.236 105.293 185.236C126.274 185.236 143.282 184.027 143.282 182.537V173.312H67.3052Z" fill="#DD821F"/>
<path d="M94.7969 185.132V173.312H67.3052V182.537C67.3052 183.769 78.9218 184.809 94.7969 185.132Z" fill="#F2B42A"/>
<path d="M96.0764 185.157C99.0273 185.209 102.114 185.236 105.293 185.236C110.03 185.236 114.564 185.175 118.745 185.062V173.312H96.0752V185.157H96.0764Z" fill="#F2B42A"/>
<path d="M120.268 185.019C133.803 184.606 143.282 183.65 143.282 182.536V173.312H120.268V185.019Z" fill="#F2B42A"/>
<path d="M105.293 175.915C126.274 175.915 143.282 174.706 143.282 173.215C143.282 171.724 126.274 170.516 105.293 170.516C84.3131 170.516 67.3052 171.724 67.3052 173.215C67.3052 174.706 84.3131 175.915 105.293 175.915Z" fill="#DD821F"/>
<path d="M136.576 173.216C136.576 174.251 122.57 175.088 105.293 175.088C88.0168 175.088 74.011 174.249 74.011 173.216C74.011 172.182 88.0168 171.344 105.293 171.344C122.57 171.344 136.576 172.182 136.576 173.216Z" fill="#FFD85A"/>
<path d="M71.6357 163.289V172.513C71.6357 174.005 88.6437 175.213 109.624 175.213C130.604 175.213 147.612 174.005 147.612 172.513V163.289H71.6357Z" fill="#DD821F"/>
<path d="M99.1263 175.112V163.293H71.6357V172.517C71.6357 173.748 83.2512 174.788 99.1263 175.112Z" fill="#F2B42A"/>
<path d="M100.407 175.137C103.358 175.189 106.445 175.216 109.624 175.216C114.36 175.216 118.894 175.155 123.076 175.042V163.293H100.406V175.137H100.407Z" fill="#F2B42A"/>
<path d="M124.599 174.999C138.133 174.586 147.612 173.631 147.612 172.517V163.293H124.599V174.999Z" fill="#F2B42A"/>
<path d="M109.624 165.891C130.604 165.891 147.612 164.683 147.612 163.192C147.612 161.701 130.604 160.492 109.624 160.492C88.6436 160.492 71.6357 161.701 71.6357 163.192C71.6357 164.683 88.6436 165.891 109.624 165.891Z" fill="#DD821F"/>
<path d="M140.906 163.193C140.906 164.227 126.901 165.064 109.624 165.064C92.3474 165.064 78.3416 164.226 78.3416 163.193C78.3416 162.16 92.3474 161.32 109.624 161.32C126.901 161.321 140.906 162.16 140.906 163.193Z" fill="#FFD85A"/>
<path d="M67.3052 153.41V162.634C67.3052 164.126 84.3132 165.334 105.293 165.334C126.274 165.334 143.282 164.125 143.282 162.634V153.41H67.3052Z" fill="#DD821F"/>
<path d="M94.7969 165.225V153.406H67.3052V162.63C67.3052 163.862 78.9218 164.901 94.7969 165.225Z" fill="#F2B42A"/>
<path d="M96.0764 165.25C99.0273 165.302 102.114 165.33 105.293 165.33C110.03 165.33 114.564 165.268 118.746 165.156V153.406H96.0752V165.25H96.0764Z" fill="#F2B42A"/>
<path d="M120.268 165.112C133.803 164.699 143.282 163.743 143.282 162.63V153.406H120.268V165.112Z" fill="#F2B42A"/>
<path d="M105.293 156.009C126.274 156.009 143.282 154.8 143.282 153.309C143.282 151.818 126.274 150.609 105.293 150.609C84.3131 150.609 67.3052 151.818 67.3052 153.309C67.3052 154.8 84.3131 156.009 105.293 156.009Z" fill="#DD821F"/>
<path d="M136.576 153.309C136.576 154.343 122.57 155.182 105.293 155.182C88.0168 155.182 74.011 154.343 74.011 153.309C74.011 152.275 88.0168 151.438 105.293 151.438C122.57 151.436 136.576 152.275 136.576 153.309Z" fill="#FFD85A"/>
<path d="M333.282 182.293V191.163C333.282 192.596 316.926 193.759 296.75 193.759C276.573 193.759 260.218 192.596 260.218 191.163V182.293H333.282Z" fill="#DD821F"/>
<path d="M306.844 193.651V182.285H333.282V191.155C333.282 192.341 322.111 193.341 306.844 193.651Z" fill="#F2B42A"/>
<path d="M305.613 193.674C302.775 193.724 299.807 193.751 296.75 193.751C292.195 193.751 287.834 193.692 283.813 193.584V182.285H305.613V193.674Z" fill="#F2B42A"/>
<path d="M282.349 193.542C269.333 193.145 260.217 192.226 260.217 191.155V182.285H282.349V193.542Z" fill="#F2B42A"/>
<path d="M296.75 184.79C316.926 184.79 333.282 183.627 333.282 182.194C333.282 180.76 316.926 179.598 296.75 179.598C276.574 179.598 260.219 180.76 260.219 182.194C260.219 183.627 276.574 184.79 296.75 184.79Z" fill="#DD821F"/>
<path d="M266.667 182.198C266.667 183.192 280.135 183.998 296.75 183.998C313.365 183.998 326.833 183.192 326.833 182.198C326.833 181.204 313.365 180.398 296.75 180.398C280.135 180.398 266.667 181.204 266.667 182.198Z" fill="#FFD85A"/>
<path d="M339.532 172.902V181.772C339.532 183.206 323.176 184.369 303 184.369C282.823 184.369 266.468 183.206 266.468 181.772V172.902H339.532Z" fill="#DD821F"/>
<path d="M313.094 184.269V172.902H339.532V181.773C339.532 182.958 328.36 183.957 313.094 184.269Z" fill="#F2B42A"/>
<path d="M311.864 184.291C309.026 184.341 306.058 184.368 303 184.368C298.445 184.368 294.084 184.309 290.063 184.201V172.902H311.863V184.291H311.864Z" fill="#F2B42A"/>
<path d="M288.6 184.159C275.584 183.762 266.468 182.843 266.468 181.773V172.902H288.6V184.159Z" fill="#F2B42A"/>
<path d="M303 175.399C323.176 175.399 339.532 174.237 339.532 172.803C339.532 171.369 323.176 170.207 303 170.207C282.824 170.207 266.468 171.369 266.468 172.803C266.468 174.237 282.824 175.399 303 175.399Z" fill="#DD821F"/>
<path d="M303 174.603C319.614 174.603 333.083 173.798 333.083 172.804C333.083 171.81 319.614 171.004 303 171.004C286.385 171.004 272.917 171.81 272.917 172.804C272.917 173.798 286.385 174.603 303 174.603Z" fill="#FFD85A"/>
<path d="M335.367 163.258V172.128C335.367 173.561 319.012 174.724 298.836 174.724C278.659 174.724 262.304 173.561 262.304 172.128V163.258H335.367Z" fill="#DD821F"/>
<path d="M308.93 174.628V163.262H335.368V172.132C335.368 173.317 324.196 174.317 308.93 174.628Z" fill="#F2B42A"/>
<path d="M307.699 174.65C304.861 174.7 301.892 174.728 298.836 174.728C294.281 174.728 289.92 174.668 285.899 174.56V163.262H307.699V174.65Z" fill="#F2B42A"/>
<path d="M284.435 174.518C271.419 174.121 262.304 173.202 262.304 172.132V163.262H284.435V174.518Z" fill="#F2B42A"/>
<path d="M298.836 165.763C319.012 165.763 335.367 164.6 335.367 163.166C335.367 161.733 319.012 160.57 298.836 160.57C278.66 160.57 262.304 161.733 262.304 163.166C262.304 164.6 278.66 165.763 298.836 165.763Z" fill="#DD821F"/>
<path d="M298.836 164.971C315.45 164.971 328.919 164.165 328.919 163.171C328.919 162.177 315.45 161.371 298.836 161.371C282.221 161.371 268.752 162.177 268.752 163.171C268.752 164.165 282.221 164.971 298.836 164.971Z" fill="#FFD85A"/>
<path d="M339.532 153.762V162.632C339.532 164.065 323.176 165.228 303 165.228C282.823 165.228 266.468 164.065 266.468 162.632V153.762H339.532Z" fill="#DD821F"/>
<path d="M313.094 165.124V153.758H339.532V162.628C339.532 163.813 328.36 164.813 313.094 165.124Z" fill="#F2B42A"/>
<path d="M311.864 165.147C309.026 165.197 306.058 165.224 303 165.224C298.445 165.224 294.084 165.165 290.063 165.057V153.758H311.863V165.147H311.864Z" fill="#F2B42A"/>
<path d="M288.599 165.015C275.584 164.618 266.468 163.699 266.468 162.628V153.758H288.599V165.015Z" fill="#F2B42A"/>
<path d="M303 156.262C323.176 156.262 339.532 155.1 339.532 153.666C339.532 152.233 323.176 151.07 303 151.07C282.824 151.07 266.468 152.233 266.468 153.666C266.468 155.1 282.824 156.262 303 156.262Z" fill="#DD821F"/>
<path d="M303 155.467C319.614 155.467 333.083 154.661 333.083 153.667C333.083 152.673 319.614 151.867 303 151.867C286.385 151.867 272.917 152.673 272.917 153.667C272.917 154.661 286.385 155.467 303 155.467Z" fill="#FFD85A"/>
<path d="M356.529 142.98L354.334 150.473C353.98 151.685 339.875 148.795 322.83 144.021C305.786 139.246 292.256 134.393 292.61 133.181L294.805 125.688L356.529 142.98Z" fill="#DD821F"/>
<path d="M331.384 146.321L334.195 136.719L356.529 142.976L354.335 150.47C354.043 151.471 344.358 149.671 331.384 146.321Z" fill="#F2B42A"/>
<path d="M330.338 146.051C327.928 145.422 325.413 144.742 322.831 144.018C318.983 142.94 315.314 141.858 311.943 140.814L314.738 131.27L333.155 136.429L330.338 146.051Z" fill="#F2B42A"/>
<path d="M310.718 140.435C299.82 137.018 292.346 134.084 292.612 133.181L294.807 125.688L313.504 130.925L310.718 140.435Z" fill="#F2B42A"/>
<path d="M294.83 125.608C294.475 126.82 308.005 131.673 325.049 136.447C342.093 141.222 356.199 144.112 356.554 142.9C356.908 141.689 343.378 136.835 326.334 132.061C309.289 127.285 295.184 124.397 294.83 125.608Z" fill="#DD821F"/>
<path d="M300.277 127.131C300.03 127.97 311.21 131.839 325.246 135.771C339.282 139.703 350.859 142.21 351.105 141.369C351.352 140.53 340.173 136.661 326.137 132.729C312.101 128.797 300.524 126.291 300.277 127.131Z" fill="#FFD85A"/>
<path d="M336.569 91.4102L338.906 98.8617C339.284 100.066 325.848 105.164 308.898 110.248C291.947 115.332 277.899 118.478 277.521 117.273L275.185 109.822L336.569 91.4102Z" fill="#DD821F"/>
<path d="M317.352 107.622L314.358 98.0722L336.569 91.4102L338.906 98.8617C339.217 99.8583 330.096 103.514 317.352 107.622Z" fill="#F2B42A"/>
<path d="M316.324 107.951C313.953 108.709 311.465 109.479 308.897 110.249C305.07 111.397 301.391 112.446 297.984 113.369L295.007 103.876L313.323 98.3828L316.324 107.951Z" fill="#F2B42A"/>
<path d="M296.744 113.702C285.704 116.649 277.804 118.173 277.521 117.274L275.185 109.823L293.778 104.246L296.744 113.702Z" fill="#F2B42A"/>
<path d="M275.16 109.742C275.538 110.947 289.586 107.801 306.536 102.718C323.487 97.6336 336.921 92.536 336.543 91.3312C336.165 90.1265 322.118 93.272 305.168 98.3559C288.217 103.44 274.782 108.537 275.16 109.742Z" fill="#DD821F"/>
<path d="M280.578 108.117C280.84 108.952 292.368 106.235 306.327 102.049C320.285 97.8622 331.388 93.7905 331.127 92.9555C330.865 92.1205 319.337 94.8372 305.378 99.0238C291.419 103.21 280.315 107.281 280.578 108.117Z" fill="#FFD85A"/>
<path d="M136.269 184.123C136.269 184.123 137.171 188.809 137.173 188.819C137.223 189.43 137.204 190.974 137.339 191.506C137.846 193.51 146.464 188.639 144.203 188.248C143.998 188.213 142.515 186.745 142.175 186.123C141.585 185.042 141.041 183.027 141.041 183.027L136.269 184.123Z" fill="#F7A491"/>
<path d="M143.775 187.957C143.775 187.957 141.55 188.496 140.418 188.607C139.286 188.717 137.832 186.997 137.02 187.322C136.127 187.681 135.64 193.138 135.64 193.138C135.64 193.138 149.855 193.772 153.214 192.864C154.547 192.504 148.198 189.615 143.775 187.957Z" fill="#3355FF"/>
<path d="M156.089 183.911C156.089 183.911 156.992 188.597 156.993 188.607C157.043 189.218 157.025 190.761 157.159 191.294C157.667 193.297 166.126 188.748 163.865 188.357C163.66 188.321 162.337 186.533 161.997 185.912C161.406 184.831 160.863 182.816 160.863 182.816L156.089 183.911Z" fill="#F7A491"/>
<path d="M163.378 187.957C163.378 187.957 161.153 188.496 160.021 188.607C158.889 188.717 157.435 186.997 156.623 187.322C155.73 187.681 155.242 193.138 155.242 193.138C155.242 193.138 169.458 193.772 172.817 192.864C174.15 192.504 167.801 189.615 163.378 187.957Z" fill="#3355FF"/>
<path d="M106.802 136.999L132.663 131.132C132.663 131.132 144.26 128.133 147.06 131.653C149.859 135.173 161.747 183.756 161.747 183.756C161.747 183.756 155.615 184.277 155.215 184.016L140.861 159.099C139.495 156.729 138.597 154.128 138.214 151.434L137.196 144.299L126.664 147.298C126.664 147.298 114.534 149.905 109.602 146.907C104.67 143.908 106.802 136.999 106.802 136.999Z" fill="#0E2E35"/>
<path d="M116.733 93.3906C117.142 93.4077 118.261 93.7717 119.898 96.7876C121.989 100.639 125.043 112.27 125.043 112.27L115.924 115.58L114.752 113.153L112.823 94.4623C112.823 94.4612 116.621 93.3861 116.733 93.3906Z" fill="#EAB054"/>
<path d="M104.679 91.711C107.287 91.7144 113.739 92.4561 116.733 93.389C116.733 93.389 118.933 111.819 114.752 125.823C113.817 128.958 115.526 138.818 115.526 138.818L88.5051 138.47C88.5051 138.47 91.7062 114.632 90.5 110.781C89.2938 106.93 89.2658 93.5118 89.2658 93.5118C89.2658 93.5118 89.4508 93.4834 95.3365 92.4925C98.0827 92.0306 101.894 91.7076 104.679 91.711Z" fill="#3355FF"/>
<path d="M88.9728 95.567C91.4992 94.6433 92.7357 116.832 93.0753 125.964C97.5489 126.383 105.347 125.967 107.289 125.825C108.202 125.758 110.308 125.006 111.216 124.891C112.147 124.773 112.99 124.71 113.448 124.787C113.616 124.816 118.28 126.675 118.679 127.082C119.174 127.587 120.511 128.862 120.286 129.414C120.06 129.966 117.714 127.877 117.714 127.877L116.567 127.25C117.994 128.61 120.717 130.4 120.325 131.052C119.942 131.688 117.486 129.871 115.735 128.633C117.237 129.954 119.103 132.321 118.672 132.689C118.286 133.02 116.164 130.282 113.896 129.494C113.056 129.201 112.218 130.01 111.557 130.108C111.071 130.18 110.321 130.333 109.845 130.201L107.567 129.986C106.731 130.06 106.532 130.078 105.688 130.254C104.707 130.457 103.098 130.671 101.849 130.969C94.6584 132.681 92.2599 133.477 90.058 133.475C83.3884 133.472 83.001 97.7502 88.9728 95.567Z" fill="#F7A491"/>
<path d="M84.1782 116.397C83.7048 107.042 83.7746 95.5118 89.1543 93.5448C91.2771 92.7689 95.019 97.4355 94.3467 116.587C91.4736 116.818 87.2571 117.004 84.1782 116.397Z" fill="#EAB054"/>
<path d="M144.101 110.676L118.643 112.302C117.97 112.346 117.389 112.782 117.175 113.408L110.586 132.607L96.551 133.503C96.159 133.528 95.8612 133.859 95.8868 134.243C95.9124 134.626 96.2509 134.917 96.644 134.892L136.589 132.341C137.687 132.27 138.641 131.576 139.024 130.568L145.769 112.868C146.188 111.761 145.304 110.598 144.101 110.676Z" fill="#9DAEFF"/>
<path d="M131.416 122.542C131.365 123.399 130.702 124.059 129.935 124.016C129.168 123.973 128.587 123.243 128.637 122.385C128.688 121.529 129.351 120.869 130.118 120.912C130.886 120.955 131.466 121.686 131.416 122.542Z" fill="white"/>
<path d="M88.5216 137.875L116.703 133.117C116.703 133.117 128.887 131.301 131.687 134.821C134.487 138.341 142.617 183.972 142.617 183.972C142.617 183.972 136.485 184.493 136.085 184.232C135.776 184.03 128.351 168.818 125.017 161.963C123.959 159.788 123.214 157.48 122.805 155.105L121.734 148.894L118.187 150.089C111.955 152.187 105.316 152.915 98.775 152.121C96.0368 151.788 93.4813 151.216 91.8959 150.253C86.9629 147.254 88.5216 137.875 88.5216 137.875Z" fill="#184655"/>
<path d="M105.742 88.3542L106.291 92.3348C106.291 92.3348 107.52 98.0684 105.939 99.1742C104.358 100.28 99.2168 92.171 99.2168 92.171L99.76 82.0859L105.742 88.3542Z" fill="#F7A491"/>
<path d="M99.5833 85.3542C100.889 88.7942 103.999 90.9078 106.206 91.7279L105.741 88.3539L99.7577 82.0859L99.5833 85.3542Z" fill="#F47458"/>
<path d="M105.418 71.1105C108.768 70.5838 111.772 73.2094 111.688 76.4778C111.652 77.8987 111.533 79.6723 111.23 81.5823C110.502 86.1772 107.286 90.2226 105.16 89.8608C103.033 89.499 97.6827 85.5367 98.6248 78.9977C99.2052 74.9625 101.903 71.6634 105.418 71.1105Z" fill="#F7A491"/>
<path d="M100.1 79.7789C99.9207 80.7889 99.0902 81.4919 98.2457 81.3486C97.4013 81.2053 96.8615 80.2702 97.0407 79.2602C97.2198 78.2501 98.0503 77.5471 98.8948 77.6904C99.7392 77.8337 100.279 78.7688 100.1 79.7789Z" fill="#F7A491"/>
<path d="M98.8947 77.69C98.8947 77.69 101.465 78.3123 102.42 76.7014C103.374 75.0894 106.786 71.6116 111.123 73.0542C115.461 74.4967 107.307 69.548 106.96 69.548C106.614 69.548 102.449 69.5195 102.449 69.5195C102.449 69.5195 99.2401 72.0929 99.1238 72.3761C99.0086 72.6594 98.0828 75.7413 98.0828 75.7413L98.8947 77.69Z" fill="#0E2E35"/>
<path d="M224.878 193.34H288.878V170.558H224.878V193.34Z" fill="#50BFA5"/>
<path d="M224.878 176.809H288.878V173.878H224.878V176.809Z" fill="#96D9C9"/>
<path d="M224.878 182.535H288.877V179.605H224.878V182.535Z" fill="#96D9C9"/>
<path d="M224.878 188.258H288.878V185.327H224.878V188.258Z" fill="#96D9C9"/>
<path d="M224.878 193.34H288.878V190.409H224.878V193.34Z" fill="#96D9C9"/>
<path d="M248.703 193.34H262.013V170.558H248.703V193.34Z" fill="#FFD85A"/>
<path d="M288.101 193.34H297.766V170.558H288.101V193.34Z" fill="#3C8F7C"/>
<path d="M360 193.023H6.34888V194.997H360V193.023Z" fill="#0E2E35"/>
<path opacity="0.8" d="M156.568 21.9771C155.92 19.2171 153.394 17.1591 150.376 17.1591C149.822 17.1591 149.285 17.2285 148.772 17.3593C147.282 14.2432 144.049 12.0851 140.3 12.0851C139.332 12.0851 138.396 12.2296 137.517 12.4969C135.499 9.22842 131.833 7.04297 127.644 7.04297C122.661 7.04297 118.416 10.1363 116.808 14.4674C115.669 13.8462 114.359 13.4912 112.962 13.4912C108.595 13.4912 105.053 16.9543 105.053 21.2273C105.053 21.481 105.066 21.7313 105.09 21.9782H156.568V21.9771Z" fill="white"/>
<path opacity="0.8" d="M179.763 52.676C179.273 50.5874 177.363 49.03 175.078 49.03C174.659 49.03 174.252 49.0823 173.865 49.1813C172.738 46.823 170.292 45.1905 167.455 45.1905C166.721 45.1905 166.014 45.2998 165.348 45.5022C163.821 43.0291 161.047 41.375 157.877 41.375C154.106 41.375 150.893 43.7162 149.677 46.9925C148.815 46.5227 147.824 46.2542 146.766 46.2542C143.461 46.2542 140.781 48.8753 140.781 52.1083C140.781 52.2995 140.791 52.4895 140.81 52.676H179.763Z" fill="white"/>
<path opacity="0.8" d="M71.2915 48.3668C71.7196 46.5455 73.3852 45.1872 75.3766 45.1872C75.7418 45.1872 76.0966 45.2327 76.4351 45.3191C77.418 43.2635 79.5512 41.8392 82.0253 41.8392C82.665 41.8392 83.2815 41.9348 83.862 42.1111C85.1938 39.9542 87.6132 38.5117 90.3769 38.5117C93.6652 38.5117 96.4661 40.5526 97.5281 43.4103C98.2795 43.0007 99.1438 42.7664 100.065 42.7664C102.947 42.7664 105.284 45.0518 105.284 47.8708C105.284 48.038 105.275 48.203 105.26 48.3657H71.2915V48.3668Z" fill="white"/>
<path d="M143.202 74.3477L143.656 79.7455L146.862 76.2145L157.23 67.9102L148.389 70.6347C148.389 70.6347 144.036 72.7028 143.836 72.9758C143.635 73.2488 143.202 74.3477 143.202 74.3477Z" fill="#50BFA5"/>
<path d="M138.504 72.0295L157.229 67.9102L143.202 74.348L138.504 72.0295Z" fill="#96D9C9"/>
<path d="M150.404 78.3453L144.632 75.5286L157.229 67.9102L150.404 78.3453Z" fill="#96D9C9"/>
<path d="M141.016 77.3469C141.88 77.0283 142.517 76.9601 142.524 76.9589L142.483 76.5664C142.455 76.5698 141.787 76.6415 140.875 76.9771L141.016 77.3469Z" fill="#3C8F7C"/>
<path d="M131.775 109.246C132.534 108.568 133.218 107.837 133.806 107.074L134.129 107.312C133.525 108.094 132.826 108.843 132.049 109.537L131.775 109.246ZM135.365 104.563C135.563 104.157 135.745 103.734 135.906 103.305C136.088 102.819 136.25 102.312 136.386 101.798L136.777 101.897C136.637 102.424 136.472 102.944 136.285 103.441C136.12 103.882 135.933 104.316 135.729 104.733L135.365 104.563ZM136.995 95.933L137.398 95.9239C137.423 96.9956 137.391 97.9774 137.299 98.9273L136.898 98.8898C136.986 97.9569 137.019 96.9888 136.995 95.933ZM136.42 90.0184L136.819 89.9627C136.988 91.1174 137.109 92.0605 137.198 92.9319L136.797 92.9717C136.708 92.106 136.589 91.1674 136.42 90.0184ZM135.969 87.0469C135.808 85.9832 135.757 84.9752 135.816 84.0515L136.219 84.0765C136.162 84.973 136.212 85.9536 136.368 86.9889L136.371 87.0116L135.971 87.0651L135.969 87.0469ZM136.476 81.0868C136.882 80.1152 137.471 79.2688 138.228 78.5703L138.504 78.857C137.79 79.5168 137.234 80.3177 136.849 81.2358L136.476 81.0868Z" fill="#3C8F7C"/>
</svg>
