<svg width="364" height="234" viewBox="0 0 364 234" fill="none" xmlns="http://www.w3.org/2000/svg">
<path d="M360.616 233.001H1.15106C0.515708 233.001 0 232.496 0 231.874C0 231.251 0.515708 230.746 1.15106 230.746H360.616C361.252 230.746 361.767 231.251 361.767 231.874C361.767 232.496 361.252 233.001 360.616 233.001Z" fill="#2E5B99"/>
<path d="M248.487 111.48L364 111.48V5.66132L248.487 5.66132V111.48Z" fill="#E5E5FC"/>
<path d="M57.0121 193.719H134.789V125.246L57.0121 125.246L57.0121 193.719Z" fill="#E6F6FF"/>
<path d="M233.54 71.6873V62.1825C233.54 57.866 237.11 54.3672 241.515 54.3672H326.431C330.837 54.3672 334.408 57.866 334.408 62.1825V230.187H114.757V71.6873H233.54Z" fill="white"/>
<path d="M232.835 71.6873V62.1825C232.835 57.866 236.405 54.3672 240.81 54.3672H325.725C330.132 54.3672 333.703 57.866 333.703 62.1825V230.187H114.051V71.6873H232.835Z" fill="#7470FF"/>
<path d="M326.344 78.2503V230.184H122.869V77.5039L326.344 78.2503Z" fill="#DAD9FB"/>
<path d="M315.173 78.2503V230.184H111.698V77.5039L315.173 78.2503Z" fill="#AEADF2"/>
<path d="M103.495 71.6836H304.514C308.64 71.6836 311.679 74.4185 312.272 78.2015V230.184H92.8798V82.0573C92.8302 76.5983 97.8581 71.6836 103.495 71.6836Z" fill="white"/>
<path d="M177.23 128.107L294.718 128.43L294.968 40.9589L177.48 40.6365L177.23 128.107Z" fill="#EBF3FF"/>
<path d="M180.307 123.909L291.786 124.215L292.015 43.8008L180.537 43.495L180.307 123.909Z" fill="#9996FF"/>
<path d="M282.39 117.741L210.75 117.545L249.921 80.7305L282.39 117.741Z" fill="#E3EEFF"/>
<path d="M249.815 117.649L189.621 117.485L222.284 87.0586L249.815 117.649Z" fill="#E3EEFF"/>
<path d="M233.41 78.2941C236.65 75.12 236.65 69.9738 233.41 66.7997C230.169 63.6256 224.916 63.6256 221.676 66.7997C218.436 69.9738 218.436 75.12 221.676 78.2941C224.916 81.4682 230.169 81.4682 233.41 78.2941Z" fill="#E3EEFF"/>
<path d="M161.58 117.623L270.501 117.965L270.805 25.1696L161.883 24.8276L161.58 117.623Z" fill="#EBF3FF"/>
<path d="M164.748 113.179L267.484 113.504L267.765 28.1967L165.029 27.8722L164.748 113.179Z" fill="#8D8BE1"/>
<path d="M257.674 39.9727H216.758V43.4944H257.674V39.9727Z" fill="#DAD9FB"/>
<path d="M174.429 53L257.674 53V49.4782L174.429 49.4782V53Z" fill="#DAD9FB"/>
<path d="M174.429 62.6836L257.674 62.6836V59.1616L174.429 59.1616V62.6836Z" fill="#DAD9FB"/>
<path d="M102.528 71.6836H303.547C307.673 71.6836 310.712 74.4185 311.305 78.2015V230.728H91.9115V82.0573C91.862 76.5983 96.8912 71.6836 102.528 71.6836Z" fill="#DAD9FB"/>
<path d="M312.271 230.188H334.408V229.313H312.271V230.188Z" fill="white"/>
<path opacity="0.5" d="M334.409 135.977L326.344 141.13H315.691L312.272 143.707V141.259H92.8798V135.977H334.409Z" fill="black"/>
<path d="M88.4094 138.32L337.524 138.32V110.746L88.4094 110.746V138.32Z" fill="#9996FF"/>
<path d="M88.4097 138.32L315.099 138.32V110.746L88.4097 110.746V138.32Z" fill="#7470FF"/>
<path d="M252.43 110.754V138.32H232.733L246.543 110.754H252.43Z" fill="#0E0E0E"/>
<path d="M245.623 124.509C245.623 128.323 246.304 131.776 247.446 134.26C248.562 136.803 250.114 138.316 251.828 138.316H257.058V110.762H251.828C248.398 110.762 245.623 116.939 245.623 124.509ZM250.576 129.051C249.597 128.748 248.835 126.872 248.835 124.51C248.835 122.209 249.597 120.332 250.576 120.029C251.557 120.332 252.319 122.21 252.319 124.51C252.319 126.872 251.557 128.748 250.576 129.051Z" fill="#7470FF"/>
<path d="M248.287 124.509C248.287 128.323 248.999 131.776 250.194 134.26C251.362 136.803 252.984 138.316 254.779 138.316H257.058V110.762H254.779C251.192 110.762 248.287 116.939 248.287 124.509ZM250.794 124.509C250.794 122.208 252.275 120.331 253.299 120.028C254.325 120.331 255.123 122.209 255.123 124.509C255.123 126.872 254.325 128.747 253.299 129.05C252.275 128.748 250.794 126.872 250.794 124.509Z" fill="#9996FF"/>
<path d="M248.128 124.505C248.128 128.319 248.809 131.772 249.952 134.256C251.067 136.8 252.62 138.313 254.333 138.313H259.563V110.758H254.333C250.905 110.758 248.128 116.935 248.128 124.505ZM253.082 129.048C252.103 128.745 251.339 126.868 251.339 124.506C251.339 122.205 252.101 120.329 253.082 120.025C254.062 120.329 254.824 122.207 254.824 124.506C254.824 126.868 254.062 128.745 253.082 129.048Z" fill="#7470FF"/>
<path d="M250.792 124.505C250.792 128.319 251.505 131.772 252.7 134.256C253.867 136.8 255.49 138.313 257.285 138.313H259.563V110.758H257.285C253.698 110.758 250.792 116.935 250.792 124.505ZM253.299 124.505C253.299 122.204 254.097 120.327 255.121 120.024C256.147 120.327 256.945 122.205 256.945 124.505C256.945 126.868 256.147 128.743 255.121 129.046C254.097 128.745 253.299 126.868 253.299 124.505Z" fill="#DAD9FB"/>
<path d="M254.309 138.493C254.086 138.493 252.811 138.435 251.463 137.167C249.934 135.728 248.111 132.479 248.111 125.166C248.111 118.199 249.773 114.614 251.168 112.832C252.704 110.87 254.237 110.591 254.302 110.581C254.402 110.564 254.496 110.629 254.514 110.727C254.53 110.824 254.464 110.917 254.365 110.935C254.35 110.938 252.884 111.212 251.434 113.082C250.085 114.823 248.476 118.331 248.476 125.166C248.476 132.335 250.231 135.502 251.703 136.895C253.041 138.161 254.316 138.136 254.325 138.133C254.428 138.129 254.511 138.207 254.515 138.306C254.519 138.404 254.441 138.487 254.34 138.491C254.338 138.493 254.327 138.493 254.309 138.493Z" fill="#625FDB"/>
<path d="M255.12 128.676C255.368 128.737 255.552 128.798 255.799 128.858C255.738 128.919 255.738 128.919 255.799 128.919C265.753 131.826 273.109 140.788 273.109 151.508V174.527H281.022V151.508C281.022 136.61 270.327 124.135 256.047 120.985C255.738 120.864 255.428 120.803 255.12 120.744C252.832 120.259 252.646 128.314 255.12 128.676Z" fill="#E6E6E6"/>
<path d="M245.753 120.328V128.037C235.553 129.324 227.319 136.736 225.128 146.424C225.065 146.665 225.004 146.847 225.004 147.029C224.88 147.575 224.818 148.058 224.757 148.604C224.633 149.573 224.571 150.543 224.571 151.511V174.53H216.72V151.511C216.72 135.23 229.491 121.891 245.753 120.328Z" fill="#E6E6E6"/>
<path d="M254.937 126.401C273.492 129.588 275.88 149.378 275.88 149.378V174.531H273.097V151.512C273.097 140.567 265.436 131.418 255.126 128.691C254.338 128.44 253.847 126.18 253.847 126.18C253.847 126.18 254.333 126.287 254.937 126.401Z" fill="#999999"/>
<path d="M245.754 126.398V128.037C235.553 129.323 227.319 136.736 225.128 146.424C225.572 140.769 230.358 128.413 245.754 126.398Z" fill="#808080"/>
<path d="M255.12 128.676C255.368 128.737 255.552 128.797 255.799 128.858C255.614 128.373 254.608 127.272 254.485 124.973C254.361 122.61 255.179 121.013 256.047 120.985C255.738 120.864 255.428 120.803 255.12 120.744C252.832 120.259 252.646 128.314 255.12 128.676Z" fill="#666666"/>
<path d="M287.811 168.258H209.857V230.683H287.811V168.258Z" fill="#FFD85A"/>
<path d="M250.007 183.67C249.76 183.609 249.512 183.609 249.265 183.609C243.949 183.609 239.62 187.828 239.62 193.086C239.62 196.936 241.97 200.238 245.308 201.766V217.844C245.308 219.985 247.1 221.758 249.263 221.758C249.449 221.758 249.696 221.758 249.882 221.697H250.066C251.86 221.329 253.221 219.741 253.221 217.845V201.767C256.557 200.3 258.908 196.938 258.908 193.087C258.909 188.071 255.014 184.036 250.007 183.67Z" fill="#F2B42A"/>
<path d="M250.008 183.668C245.001 183.972 241.043 188.069 241.043 193.083C241.043 196.933 243.393 200.235 246.731 201.763V217.841C246.731 219.736 248.091 221.326 249.884 221.693H250.069C251.862 221.325 253.223 219.736 253.223 217.841V201.763C256.56 200.296 258.91 196.933 258.91 193.083C258.91 188.069 255.015 184.034 250.008 183.668Z" fill="#BF6E16"/>
<path d="M234.594 230.68H209.857V168.254H216.72C216.72 168.255 214.898 214.315 234.594 230.68Z" fill="#F2B42A"/>
<path d="M271.074 230.68C276.982 218.296 275.88 185.002 275.88 168.254H283.732V230.68H271.074Z" fill="#FAE49D"/>
<path d="M190.672 172.805C190.672 172.805 182.674 172.552 174.792 172.921C166.605 173.313 158.537 174.372 159.689 177.139C159.948 177.762 159.995 178.36 159.854 178.959C158.208 186.357 128.355 191.887 121.768 187.347C116.851 183.959 103.301 188.314 97.7494 190.665C87.1767 121.332 86.881 50.4543 96.2435 45.5234C105.606 40.6141 131.554 46.837 131.554 46.837C131.554 46.837 144.704 50.2482 150.067 85.4852C155.455 120.698 190.672 172.805 190.672 172.805Z" fill="#4582E6"/>
<path d="M159.691 177.139C159.949 177.761 159.996 178.36 159.856 178.959C151.764 154.783 132.709 85.7151 139.625 104.544C146.259 122.704 167.078 159.485 174.793 172.921C166.607 173.313 158.537 174.373 159.691 177.139Z" fill="#3D73CC"/>
<path d="M95.2671 63.8509C87.5741 73.0687 86.1631 75.3051 78.9652 75.7888C81.3883 77.2869 82.8227 79.3145 83.8115 81.5038H83.8349C85.9527 86.044 86.258 91.3441 89.9518 94.3175L85.5291 98.5815L84.4001 99.6876C84.4001 99.6876 84.2351 99.5488 83.9531 99.2955C82.0237 97.5441 74.3555 90.4684 69.7911 83.9693C67.1094 80.1902 65.4867 76.6174 66.6157 74.3823C68.4503 67.8832 73.1563 54.5401 85.1289 50.5522C92.9856 42.1872 100.679 46.6802 103.407 50.1602C107.053 54.8162 103.382 64.7724 95.2671 63.8509Z" fill="#002E73"/>
<path d="M89.9504 94.3174L85.5277 98.5813L83.9517 99.2953C82.1405 97.6356 75.2245 91.2753 70.6134 85.0983C70.3315 84.7292 70.0482 84.3385 69.7897 83.9693C72.0712 83.9464 79.4107 83.7619 83.8101 81.5039H83.8334C84.0218 81.8959 84.1869 82.2866 84.3271 82.6787C86.0214 86.9197 86.5633 91.5973 89.9504 94.3174Z" fill="#231F20"/>
<path d="M84.3285 82.6786C79.4589 85.5829 73.8837 85.4899 70.6134 85.0979C70.3315 84.7288 70.0482 84.3382 69.7897 83.9691C72.0712 83.9462 79.4107 83.7616 83.81 81.5039H83.8334C84.0218 81.8959 84.1869 82.2866 84.3285 82.6786Z" fill="#66B8FF"/>
<path d="M86.636 90.3867C86.636 90.3867 91.6748 90.8448 93.2 92.1449C94.4748 93.2308 93.6964 94.5861 93.6964 94.5861C96.4084 96.0803 93.6964 101.875 88.9615 103.304C84.2267 104.735 81.1241 95.9967 81.1241 95.9967C81.1241 95.9967 81.8448 90.6979 86.636 90.3867Z" fill="#231F20"/>
<path d="M150.208 230.989H133.114C132.762 230.792 132.502 230.57 132.348 230.317C131.468 217.861 130.2 211.865 130.2 211.865L142.106 211.391L144.801 220.656C148.789 223.326 153.543 229.056 150.208 230.989Z" fill="#231F20"/>
<path d="M131.819 231.217H152.084C152.599 231.217 152.425 228.457 151.912 228.457L131.768 228.569C131.239 228.568 131.291 231.217 131.819 231.217Z" fill="#231F20"/>
<path d="M124.757 98.3435C127.523 105.635 139.293 139.038 135.934 163.086C140.556 179.08 139.105 192.626 143.272 215.982L131.14 216.608C126.208 188.11 120.781 193.549 119.211 165.327C109.214 143.198 104.03 122.235 101.369 100.653C98.7819 84.382 119.172 75.8378 124.757 98.3435Z" fill="#002E73"/>
<path d="M131.265 217.817C131.265 217.817 130.357 209.336 124.649 193.136C122.876 188.158 121.916 184.862 121.417 182.835C120.916 180.783 120.854 180 120.854 180C123.863 176.589 127.682 171.451 131.074 165.273C134.787 170.966 139.204 176.659 139.204 176.659C139.204 176.659 139.317 177.995 139.518 180.185C140.413 189.357 142.819 213.602 144.27 218.74C146.065 225.099 134.785 228.718 131.265 217.817Z" fill="#231F20"/>
<path d="M139.519 180.183C137.581 178.063 134.092 174.076 131.174 169.721C129.851 174.422 124.295 180.114 121.417 182.834C120.916 180.783 120.854 180 120.854 180C123.863 176.589 127.682 171.45 131.074 165.273C134.787 170.965 139.204 176.659 139.204 176.659C139.204 176.659 139.318 177.994 139.519 180.183Z" fill="#66B8FF"/>
<path d="M110.41 101.438C109.553 133.194 103.774 160.167 103.774 160.167C106.221 181.832 100.658 185.871 98.1439 216.866L87.1779 216.723C87.1504 204.142 86.405 188.563 85.6253 163.338C78.7217 136.976 82.0469 117.559 84.6214 101.8C87.3677 83.8997 112.162 77.9759 110.41 101.438Z" fill="#002E73"/>
<path d="M98.1445 216.869C99.1223 222.001 99.825 226.005 99.4138 230.649L72.8569 231.155C72.8569 231.155 70.2275 228.647 73.5335 224.885C76.8382 221.123 83.1147 223.3 87.1798 216.727L98.1445 216.869Z" fill="#231F20"/>
<path d="M71.6489 231.221H99.8644C100.379 231.221 100.244 228.461 99.7296 228.461L71.6338 228.573C71.1057 228.571 71.1209 231.221 71.6489 231.221Z" fill="#231F20"/>
<path d="M103.418 181.83C103.418 181.83 103.228 182.752 102.905 184.32C101.57 191.164 97.9859 210.269 98.4053 218.866C93.4201 224.696 86.9401 218.22 86.9401 218.22L84.3286 171L84.1498 167.82C91.1813 175.47 98.4851 179.549 103.418 181.83Z" fill="#231F20"/>
<path d="M103.418 181.83C103.418 181.83 103.228 182.751 102.905 184.319C93.2194 181.554 87.255 175.055 84.3286 171L84.1498 167.82C91.1813 175.47 98.4851 179.549 103.418 181.83Z" fill="#66B8FF"/>
<path d="M85.4384 99.9277C85.4384 105.419 125.246 103.829 125.246 98.3379C125.112 89.2778 126.388 81.8222 128.128 75.6586C140.062 64.2044 139.351 55.3127 136.327 50.4896C131.112 42.1718 104.767 42.6433 95.2822 46.2188C91.5155 47.6388 86.4574 53.4225 84.8401 62.643C84.0081 67.3839 87.5713 72.9035 88.1352 76.7364C89.4375 85.6039 85.7038 98.6532 85.4384 99.9277Z" fill="#002E73"/>
<path d="M110.254 49.9988C112.218 48.471 120.053 46.1119 122.137 44.4414L121.667 31.1171L113.963 30.3828C111.728 30.5647 109.495 31.0888 107.574 31.8325L105.84 40.6057L105.457 42.5081C104.584 44.3807 106.313 46.6387 110.254 49.9988Z" fill="#F7A594"/>
<path d="M119.074 34.1274C117.865 35.9489 112.805 40.6146 105.839 40.5984L107.339 33.0078L119.074 34.1274Z" fill="#E6836F"/>
<path d="M102.024 16.5864C101.42 19.2108 100.175 24.9743 100.379 27.6284C100.688 31.6688 104.542 36.151 107.901 36.7384C111.79 37.1264 117.033 35.992 119.88 33.5967C121.464 31.7779 124.531 27.4627 125.941 23.6863C128.884 15.809 123.202 8.90038 115.995 7.30525C108.784 5.70877 103.908 8.40325 102.024 16.5864Z" fill="#F7A594"/>
<path d="M123.527 28.8873C125.03 26.2952 123.033 25.2457 120.842 27.2571C121.216 25.3009 123.492 19.5711 121.476 17.6701C119.199 15.4647 109.178 16.4252 103.795 10.9258C103.795 10.9258 107.808 2.30745 120.977 7.39735C135.853 15.1238 123.527 28.8873 123.527 28.8873Z" fill="#73382A"/>
<path d="M125.557 29.5769C126.703 28.2257 126.763 26.423 125.691 25.5504C124.619 24.6778 122.821 25.0657 121.675 26.4168C120.529 27.768 120.469 29.5707 121.541 30.4433C122.613 31.3159 124.411 30.928 125.557 29.5769Z" fill="#F7A594"/>
<path d="M105.896 39.8338C107.212 42.1375 120.755 40.9399 121.978 39.0039L122.73 46.3746L110.128 53.3774L103.545 46.283L105.896 39.8338Z" fill="#002E73"/>
<path d="M128.153 15.3745C127.781 8.92262 115.034 -0.181942 105.892 3.19825C99.7241 5.47775 101.171 11.8919 106.541 13.1031C111.276 14.1714 124.39 8.61006 128.153 15.3745Z" fill="#231F20"/>
<path d="M104.753 3.21587C104.753 3.21587 105.024 1.37554 106.038 0C98.8839 4.59141 102.444 10.0814 102.528 10.3159C105.365 1.87537 112.136 2.26337 114.539 2.29301C108.355 -0.557757 104.815 2.96394 104.753 3.21587Z" fill="#231F20"/>
<path d="M84.942 101.793C95.3263 106.181 119.317 105.215 126.487 101.854L128.321 107.803C112.721 111.405 97.7975 111.507 83.63 107.69L84.942 101.793Z" fill="#66B8FF"/>
<path d="M154.43 87.8372C147.561 95.0503 133.07 103.278 133.07 103.278L128.624 97.0092C133.235 94.5195 135.775 88.0676 140.175 83.6419C141.681 82.1208 143.398 80.8531 145.468 80.0231C138.457 78.2488 134.928 76.5432 129.095 66.1034C120.931 65.5497 119.167 55.0883 123.613 51.1921C126.953 48.2659 135.375 45.2009 141.539 54.8337C152.549 60.895 157.254 74.1222 157.841 80.8531C158.383 82.7675 156.9 85.2329 154.43 87.8372Z" fill="#002E73"/>
<path d="M132.611 93.7301C132.611 93.7301 127.572 93.2788 125.83 94.2825C124.375 95.1219 124.886 96.5944 124.886 96.5944C121.942 97.578 123.526 103.759 127.915 106.013C132.303 108.267 136.983 100.232 136.983 100.232C136.983 100.232 137.262 94.8942 132.611 93.7301Z" fill="#231F20"/>
<path d="M154.43 87.8398C154.007 88.2776 153.56 88.7384 153.09 89.1762C145.844 96.0443 133.07 103.28 133.07 103.28L128.624 97.0116C132.6 94.8682 135.023 89.7986 138.434 85.6034C138.974 84.9123 139.563 84.2669 140.175 83.6445C141.893 84.6361 147.021 87.286 154.43 87.8398Z" fill="#231F20"/>
<path d="M154.43 87.8395C154.007 88.2773 153.56 88.7381 153.09 89.1759C146.879 88.8768 141.045 86.6877 138.434 85.6033C138.974 84.9122 139.563 84.2669 140.175 83.6445C141.893 84.636 147.021 87.2858 154.43 87.8395Z" fill="#66B8FF"/>
<path d="M114.09 60.9736C114.093 60.95 114.094 60.9403 114.094 60.9375C114.094 60.9417 114.09 60.9736 114.09 60.9736Z" fill="#D9FFFF"/>
<path d="M114.09 60.9736C114.093 60.95 114.094 60.9403 114.094 60.9375C114.094 60.9417 114.09 60.9736 114.09 60.9736Z" fill="#D9FFFF"/>
<path d="M101.655 59.2236C101.655 59.2236 101.659 59.1917 101.659 59.1875C101.659 59.1889 101.658 59.2 101.655 59.2236Z" fill="#D9FFFF"/>
<path d="M101.655 59.2236C101.655 59.2236 101.659 59.1917 101.659 59.1875C101.659 59.1889 101.658 59.2 101.655 59.2236Z" fill="#D9FFFF"/>
<path d="M108.307 56.3906C109.545 58.2984 111.683 60.0242 114.082 60.9767C114.06 61.1573 113.94 62.1583 113.386 66.7727C112.647 72.9284 106.92 75.1554 106.031 75.4963C105.276 74.9735 100.226 71.1837 100.965 65.0266C101.519 60.4122 101.639 59.4112 101.661 59.2307C104.206 58.9733 106.661 57.8928 108.307 56.3906Z" fill="white"/>
<path d="M107.654 59.6562C107.651 59.6589 107.647 59.6616 107.643 59.6643C106.448 60.5899 104.87 61.2312 103.188 61.4683L102.717 65.4049C102.501 67.2062 102.967 68.9252 104.102 70.515C104.815 71.5146 105.606 72.195 106.045 72.5331C106.064 72.548 106.085 72.5641 106.103 72.5776C106.589 72.3849 107.557 71.9403 108.524 71.136C109.997 69.9128 110.853 68.3796 111.068 66.5783L111.54 62.6417C109.97 61.9452 108.592 60.8849 107.654 59.6562Z" fill="#F7AF0C"/>
<path d="M104.247 44.3125C104.923 46.0126 107.175 47.512 109.717 48.971C114.878 48.1439 118.837 46.5784 122.711 44.3583C126.522 44.3408 129.264 45.7769 132.083 46.8371L109.582 50.4246L96.3645 45.5371C98.1234 44.9106 100.64 44.4863 104.247 44.3125Z" fill="#66B8FF"/>
<path d="M181.552 90.0557C181.551 89.9453 181.551 89.8976 181.551 89.8867C181.551 89.9072 181.552 90.0557 181.552 90.0557Z" fill="#D9FFFF"/>
<path d="M181.552 90.0557C181.551 89.9453 181.551 89.8976 181.551 89.8867C181.551 89.9072 181.552 90.0557 181.552 90.0557Z" fill="#D9FFFF"/>
<path d="M115.168 90.77C115.168 90.77 115.166 90.6219 115.166 90.6016C115.165 90.6124 115.166 90.6613 115.168 90.77Z" fill="#D9FFFF"/>
<path d="M115.168 90.77C115.168 90.77 115.166 90.6219 115.166 90.6016C115.165 90.6124 115.166 90.6613 115.168 90.77Z" fill="#D9FFFF"/>
<path d="M148.105 72.7812C155.895 80.8122 168.285 87.3557 181.514 90.0933C181.524 90.9542 181.578 95.7194 181.828 117.689C182.161 146.995 153.655 161.501 149.23 163.727C144.914 161.823 115.854 147.709 115.522 118.403C115.273 96.4334 115.218 91.6669 115.208 90.8073C128.37 87.7868 140.498 80.9779 148.105 72.7812Z" fill="white"/>
<path d="M148.22 78.0742C155.841 84.8023 166.373 90.062 177.934 92.8912L178.216 117.722C178.345 129.084 173.785 139.393 164.665 148.363C158.672 154.257 152.354 157.928 149.145 159.582C149.006 159.515 148.854 159.438 148.704 159.364L148.155 78.1348C148.176 78.1133 148.199 78.0944 148.22 78.0742Z" fill="#3355FF"/>
<path d="M148.154 78.1328L148.703 159.362C145.344 157.686 139.237 154.216 133.374 148.699C124.052 139.928 119.26 129.72 119.131 118.359L118.849 93.5277C130.31 90.4601 140.692 84.997 148.154 78.1328Z" fill="#617BFF"/>
<path d="M134.986 114.016L135.117 133.254C135.132 135.396 161.952 135.223 161.937 133.081L161.806 113.844L134.986 114.016ZM145.133 121.213C145.12 119.428 146.588 117.978 148.418 117.968C150.249 117.956 151.748 119.386 151.759 121.171C151.767 122.476 150.968 123.614 149.822 124.126L149.859 129.59C149.865 130.317 149.263 130.924 148.506 130.928C147.761 130.934 147.152 130.334 147.146 129.608L147.109 124.156C145.944 123.657 145.141 122.529 145.133 121.213Z" fill="white"/>
<path d="M137.324 112.634L140.039 112.617L140.031 111.322C140 106.834 143.72 103.158 148.322 103.128C152.925 103.098 156.694 106.725 156.725 111.214L156.733 112.509L159.447 112.491L159.439 111.197C159.399 105.249 154.405 100.442 148.304 100.481C142.205 100.52 137.276 105.391 137.316 111.34L137.324 112.634Z" fill="white"/>
</svg>
