<svg width="193" height="35" viewBox="0 0 193 35" fill="none" xmlns="http://www.w3.org/2000/svg">
<path d="M7.69959 15.3019C9.51262 15.3019 11.0384 15.9122 12.277 17.1328C13.5156 18.3535 14.1349 19.8524 14.1349 21.6295C14.1349 23.4066 13.5156 24.9055 12.277 26.1262C11.0384 27.3468 9.51262 27.9571 7.69959 27.9571H4.38768V34.1502H0.671875V15.3019H7.69959ZM7.69959 24.4837C8.48942 24.4837 9.14463 24.2144 9.6652 23.6759C10.1858 23.1194 10.4461 22.4373 10.4461 21.6295C10.4461 20.8038 10.1858 20.1216 9.6652 19.5831C9.14463 19.0446 8.48942 18.7753 7.69959 18.7753H4.38768V24.4837H7.69959Z" fill="#343A40"/>
<path d="M26.8937 34.1502L23.0971 27.6071H20.2699V34.1502H16.5541V15.3019H24.0934C25.8346 15.3019 27.3155 15.9122 28.5362 17.1328C29.7568 18.3535 30.3672 19.8255 30.3672 21.5487C30.3672 22.7155 30.0351 23.8015 29.3709 24.8068C28.7067 25.7941 27.8271 26.539 26.7321 27.0417L30.9057 34.1502H26.8937ZM20.2699 18.7753V24.349H24.0934C24.7935 24.349 25.3948 24.0798 25.8974 23.5413C26.4001 22.9848 26.6514 22.3206 26.6514 21.5487C26.6514 20.7768 26.4001 20.1216 25.8974 19.5831C25.3948 19.0446 24.7935 18.7753 24.0934 18.7753H20.2699Z" fill="#343A40"/>
<path d="M48.7428 31.6999C46.84 33.5847 44.5243 34.5271 41.7958 34.5271C39.0673 34.5271 36.7517 33.5847 34.8489 31.6999C32.9641 29.7971 32.0217 27.4725 32.0217 24.726C32.0217 21.9795 32.9641 19.6639 34.8489 17.7791C36.7517 15.8763 39.0673 14.9249 41.7958 14.9249C44.5243 14.9249 46.84 15.8763 48.7428 17.7791C50.6456 19.6639 51.5969 21.9795 51.5969 24.726C51.5969 27.4725 50.6456 29.7971 48.7428 31.6999ZM37.4607 29.1688C38.6275 30.3177 40.0726 30.8921 41.7958 30.8921C43.5191 30.8921 44.9641 30.3177 46.1309 29.1688C47.2977 28.002 47.8811 26.5211 47.8811 24.726C47.8811 22.9309 47.2977 21.45 46.1309 20.2832C44.9641 19.1164 43.5191 18.533 41.7958 18.533C40.0726 18.533 38.6275 19.1164 37.4607 20.2832C36.2939 21.45 35.7105 22.9309 35.7105 24.726C35.7105 26.5211 36.2939 28.002 37.4607 29.1688Z" fill="#343A40"/>
<path d="M65.5973 15.3019V18.8561H60.5082V34.1502H56.7924V18.8561H51.7303V15.3019H65.5973Z" fill="#343A40"/>
<path d="M82.453 31.6999C80.5502 33.5847 78.2346 34.5271 75.5061 34.5271C72.7776 34.5271 70.4619 33.5847 68.5591 31.6999C66.6743 29.7971 65.7319 27.4725 65.7319 24.726C65.7319 21.9795 66.6743 19.6639 68.5591 17.7791C70.4619 15.8763 72.7776 14.9249 75.5061 14.9249C78.2346 14.9249 80.5502 15.8763 82.453 17.7791C84.3558 19.6639 85.3072 21.9795 85.3072 24.726C85.3072 27.4725 84.3558 29.7971 82.453 31.6999ZM71.171 29.1688C72.3378 30.3177 73.7828 30.8921 75.5061 30.8921C77.2293 30.8921 78.6744 30.3177 79.8412 29.1688C81.008 28.002 81.5914 26.5211 81.5914 24.726C81.5914 22.9309 81.008 21.45 79.8412 20.2832C78.6744 19.1164 77.2293 18.533 75.5061 18.533C73.7828 18.533 72.3378 19.1164 71.171 20.2832C70.0042 21.45 69.4208 22.9309 69.4208 24.726C69.4208 26.5211 70.0042 28.002 71.171 29.1688Z" fill="#343A40"/>
<path d="M98.8239 15.3019H102.54V34.1502H99.7124L91.6346 22.6258V34.1502H87.9188V15.3019H90.746L98.8239 26.7993V15.3019Z" fill="#343A40"/>
<path d="M125.234 15.3019V18.8561H120.145V34.1502H116.43V18.8561H111.367V15.3019H125.234Z" fill="#343A40"/>
<path d="M137.648 34.1502L133.852 27.6071H131.025V34.1502H127.309V15.3019H134.848C136.589 15.3019 138.07 15.9122 139.291 17.1328C140.512 18.3535 141.122 19.8255 141.122 21.5487C141.122 22.7155 140.79 23.8015 140.126 24.8068C139.461 25.7941 138.582 26.539 137.487 27.0417L141.66 34.1502H137.648ZM131.025 18.7753V24.349H134.848C135.548 24.349 136.15 24.0798 136.652 23.5413C137.155 22.9848 137.406 22.3206 137.406 21.5487C137.406 20.7768 137.155 20.1216 136.652 19.5831C136.15 19.0446 135.548 18.7753 134.848 18.7753H131.025Z" fill="#343A40"/>
<path d="M155.965 34.1502L154.834 30.7575H147.322L146.191 34.1502H142.179L148.776 15.3019H153.38L160.004 34.1502H155.965ZM148.507 27.284H153.676L151.091 19.5831L148.507 27.284Z" fill="#343A40"/>
<path d="M169.32 15.3019C171.904 15.3019 174.059 16.2084 175.782 18.0214C177.523 19.8344 178.394 22.0693 178.394 24.726C178.394 27.3827 177.523 29.6176 175.782 31.4306C174.059 33.2436 171.904 34.1502 169.32 34.1502H161.834V15.3019H169.32ZM169.32 30.5959C170.953 30.5959 172.281 30.0574 173.305 28.9803C174.328 27.8853 174.839 26.4672 174.839 24.726C174.839 22.9848 174.328 21.5757 173.305 20.4986C172.281 19.4036 170.953 18.8561 169.32 18.8561H165.55V30.5959H169.32Z" fill="#343A40"/>
<path d="M184.745 30.5959H192.689V34.1502H181.03V15.3019H192.554V18.8561H184.745V22.8681H191.881V26.3685H184.745V30.5959Z" fill="#343A40"/>
<path d="M3.52156 0.492507C4.22463 0.492507 4.81177 0.72811 5.28297 1.19932C5.75418 1.67052 5.98978 2.25766 5.98978 2.96073C5.98978 3.66381 5.75418 4.25094 5.28297 4.72215C4.81177 5.19336 4.22463 5.42896 3.52156 5.42896H1.5021V8.34596H0.716752V0.492507H3.52156ZM3.52156 4.68849C4.00772 4.68849 4.40787 4.52768 4.72201 4.20607C5.04363 3.87697 5.20444 3.46186 5.20444 2.96073C5.20444 2.45961 5.04363 2.04824 4.72201 1.72662C4.40787 1.39752 4.00772 1.23298 3.52156 1.23298H1.5021V4.68849H3.52156Z" fill="#343A40"/>
<path d="M11.4738 7.63915C10.9053 8.20011 10.2098 8.48059 9.38701 8.48059C8.56427 8.48059 7.86494 8.20011 7.28902 7.63915C6.72058 7.07071 6.43636 6.37138 6.43636 5.54115C6.43636 4.71093 6.72058 4.01534 7.28902 3.45438C7.86494 2.88594 8.56427 2.60172 9.38701 2.60172C10.2098 2.60172 10.9053 2.88594 11.4738 3.45438C12.0497 4.01534 12.3377 4.71093 12.3377 5.54115C12.3377 6.37138 12.0497 7.07071 11.4738 7.63915ZM7.81632 7.12306C8.24265 7.54939 8.76622 7.76256 9.38701 7.76256C10.0078 7.76256 10.5314 7.54939 10.9577 7.12306C11.384 6.68925 11.5972 6.16195 11.5972 5.54115C11.5972 4.92036 11.384 4.39679 10.9577 3.97046C10.5314 3.53665 10.0078 3.31975 9.38701 3.31975C8.76622 3.31975 8.24265 3.53665 7.81632 3.97046C7.38999 4.39679 7.17683 4.92036 7.17683 5.54115C7.17683 6.16195 7.38999 6.68925 7.81632 7.12306Z" fill="#343A40"/>
<path d="M16.0674 8.48059C15.2597 8.48059 14.5865 8.21507 14.048 7.68402C13.5095 7.1455 13.2402 6.44991 13.2402 5.59725C13.2402 4.63988 13.3823 3.90689 13.6665 3.39828C13.9507 2.8822 14.5267 2.41473 15.3943 1.99588C15.5588 1.91361 15.7757 1.81637 16.045 1.70418C16.3217 1.59199 16.5274 1.50224 16.6621 1.43492C16.8042 1.36761 16.9575 1.28159 17.122 1.17688C17.2866 1.06469 17.41 0.941275 17.4923 0.806645C17.5746 0.672014 17.6269 0.511205 17.6494 0.324219L18.2327 0.660795C18.2028 0.840303 18.143 1.00859 18.0532 1.16566C17.9635 1.32273 17.87 1.44988 17.7728 1.54711C17.683 1.64435 17.5372 1.7528 17.3352 1.87247C17.1407 1.98466 16.9874 2.06694 16.8752 2.11929C16.7705 2.16417 16.5835 2.2427 16.3143 2.3549C16.0525 2.46709 15.8767 2.54188 15.787 2.57928C15.2634 2.80367 14.8782 3.03927 14.6314 3.28609C14.3846 3.52543 14.2088 3.83957 14.1041 4.22851C14.3584 3.89193 14.68 3.64511 15.0689 3.48804C15.4653 3.32349 15.8505 3.24121 16.2245 3.24121C16.9725 3.24121 17.5895 3.48804 18.0757 3.98168C18.5693 4.46785 18.8162 5.09239 18.8162 5.85529C18.8162 6.61072 18.5544 7.239 18.0308 7.74012C17.5147 8.23377 16.8603 8.48059 16.0674 8.48059ZM16.0674 7.74012C16.6508 7.74012 17.1295 7.56435 17.5035 7.21282C17.885 6.8538 18.0757 6.40129 18.0757 5.85529C18.0757 5.30181 17.8962 4.8493 17.5372 4.49777C17.1856 4.13875 16.7144 3.95924 16.1235 3.95924C15.5925 3.95924 15.1101 4.12753 14.6763 4.46411C14.2424 4.79321 14.0255 5.2345 14.0255 5.78798C14.0255 6.35642 14.22 6.82388 14.6089 7.19038C15.0054 7.55687 15.4915 7.74012 16.0674 7.74012Z" fill="#343A40"/>
<path d="M24.6432 7.63915C24.0748 8.20011 23.3792 8.48059 22.5564 8.48059C21.7337 8.48059 21.0344 8.20011 20.4585 7.63915C19.89 7.07071 19.6058 6.37138 19.6058 5.54115C19.6058 4.71093 19.89 4.01534 20.4585 3.45438C21.0344 2.88594 21.7337 2.60172 22.5564 2.60172C23.3792 2.60172 24.0748 2.88594 24.6432 3.45438C25.2191 4.01534 25.5071 4.71093 25.5071 5.54115C25.5071 6.37138 25.2191 7.07071 24.6432 7.63915ZM20.9858 7.12306C21.4121 7.54939 21.9356 7.76256 22.5564 7.76256C23.1772 7.76256 23.7008 7.54939 24.1271 7.12306C24.5535 6.68925 24.7666 6.16195 24.7666 5.54115C24.7666 4.92036 24.5535 4.39679 24.1271 3.97046C23.7008 3.53665 23.1772 3.31975 22.5564 3.31975C21.9356 3.31975 21.4121 3.53665 20.9858 3.97046C20.5594 4.39679 20.3463 4.92036 20.3463 5.54115C20.3463 6.16195 20.5594 6.68925 20.9858 7.12306Z" fill="#343A40"/>
<path d="M30.566 2.73635V3.45438H28.5802V8.34596H27.8397V3.45438H25.8539V2.73635H30.566Z" fill="#343A40"/>
<path d="M31.2409 5.23823V4.52021H35.2798V5.23823H31.2409Z" fill="#343A40"/>
<path d="M41.6695 2.73635V8.34596H40.929V3.45438H37.6979V8.34596H36.9574V2.73635H41.6695Z" fill="#343A40"/>
<path d="M47.9362 7.63915C47.3678 8.20011 46.6722 8.48059 45.8495 8.48059C45.0267 8.48059 44.3274 8.20011 43.7515 7.63915C43.183 7.07071 42.8988 6.37138 42.8988 5.54115C42.8988 4.71093 43.183 4.01534 43.7515 3.45438C44.3274 2.88594 45.0267 2.60172 45.8495 2.60172C46.6722 2.60172 47.3678 2.88594 47.9362 3.45438C48.5122 4.01534 48.8001 4.71093 48.8001 5.54115C48.8001 6.37138 48.5122 7.07071 47.9362 7.63915ZM44.2788 7.12306C44.7051 7.54939 45.2287 7.76256 45.8495 7.76256C46.4703 7.76256 46.9938 7.54939 47.4202 7.12306C47.8465 6.68925 48.0596 6.16195 48.0596 5.54115C48.0596 4.92036 47.8465 4.39679 47.4202 3.97046C46.9938 3.53665 46.4703 3.31975 45.8495 3.31975C45.2287 3.31975 44.7051 3.53665 44.2788 3.97046C43.8524 4.39679 43.6393 4.92036 43.6393 5.54115C43.6393 6.16195 43.8524 6.68925 44.2788 7.12306Z" fill="#343A40"/>
<path d="M55.5366 2.73635V8.34596H54.7962V3.86949L52.8328 7.05575H52.7431L50.7797 3.86949V8.34596H50.0392V2.73635H50.8919L52.7879 5.81041L54.684 2.73635H55.5366Z" fill="#343A40"/>
<path d="M61.8069 7.63915C61.2384 8.20011 60.5428 8.48059 59.7201 8.48059C58.8974 8.48059 58.198 8.20011 57.6221 7.63915C57.0537 7.07071 56.7694 6.37138 56.7694 5.54115C56.7694 4.71093 57.0537 4.01534 57.6221 3.45438C58.198 2.88594 58.8974 2.60172 59.7201 2.60172C60.5428 2.60172 61.2384 2.88594 61.8069 3.45438C62.3828 4.01534 62.6707 4.71093 62.6707 5.54115C62.6707 6.37138 62.3828 7.07071 61.8069 7.63915ZM58.1494 7.12306C58.5757 7.54939 59.0993 7.76256 59.7201 7.76256C60.3409 7.76256 60.8645 7.54939 61.2908 7.12306C61.7171 6.68925 61.9303 6.16195 61.9303 5.54115C61.9303 4.92036 61.7171 4.39679 61.2908 3.97046C60.8645 3.53665 60.3409 3.31975 59.7201 3.31975C59.0993 3.31975 58.5757 3.53665 58.1494 3.97046C57.7231 4.39679 57.5099 4.92036 57.5099 5.54115C57.5099 6.16195 57.7231 6.68925 58.1494 7.12306Z" fill="#343A40"/>
<path d="M71.4267 7.62793H72.2121V9.84933H71.4716V8.34596H63.9099V2.73635H64.6503V7.62793H67.2981V2.73635H68.0385V7.62793H70.6863V2.73635H71.4267V7.62793Z" fill="#343A40"/>
<path d="M77.3038 2.73635H78.0443V8.34596H77.3038V5.90017H74.0727V8.34596H73.3322V2.73635H74.0727V5.18214H77.3038V2.73635Z" fill="#343A40"/>
<path d="M83.694 2.73635H84.3223V8.34596H83.5818V4.02656L80.2385 8.34596H79.6102V2.73635H80.3506V7.05575L83.694 2.73635Z" fill="#343A40"/>
<path d="M90.4207 8.34596H89.4334L86.6286 5.64213V8.34596H85.8881V2.73635H86.6286V5.2158L89.2988 2.73635H90.3085L87.4139 5.42896L90.4207 8.34596Z" fill="#343A40"/>
</svg>
