<svg width="42" height="42" viewBox="0 0 42 42" fill="none" xmlns="http://www.w3.org/2000/svg">
<path d="M34.2424 0.95C31.1503 0.95 28.7212 3.9024 28.7212 7.561C28.7212 11.2203 31.1886 14.1271 34.2424 14.1271C37.2963 14.1271 39.8014 11.1754 39.8014 7.51607C39.8014 3.85651 37.3338 0.95 34.2424 0.95ZM34.2424 12.589C31.9007 12.589 29.9909 10.3281 29.9909 7.51607C29.9909 4.70493 31.9377 2.48803 34.2424 2.48803C36.5841 2.48803 38.4939 4.74896 38.4939 7.561C38.4939 10.3724 36.5847 12.589 34.2424 12.589Z" fill="#3355FF" stroke="#3355FF" stroke-width="0.1"/>
<mask id="path-2-outside-1" maskUnits="userSpaceOnUse" x="31.4688" y="2.29297" width="5" height="10" fill="black">
<rect fill="white" x="31.4688" y="2.29297" width="5" height="10"/>
<path d="M35.9779 8.55077C35.9401 8.41595 35.9401 8.32607 35.8647 8.19126C35.8269 8.10138 35.7892 7.96657 35.7137 7.87669C35.6383 7.78681 35.6005 7.69693 35.5251 7.60706C35.4496 7.51718 35.3742 7.4273 35.261 7.38237C35.1855 7.29249 35.0723 7.24755 34.9968 7.20261C34.8836 7.15767 34.8082 7.0678 34.695 7.02286C34.5818 6.97792 34.4686 6.93298 34.3931 6.88804C34.3554 6.88804 34.2799 6.84311 34.2422 6.79817C34.2044 6.75323 34.129 6.75323 34.0912 6.70829C34.0535 6.66335 33.978 6.66335 33.9403 6.61841C33.9026 6.57347 33.8649 6.52854 33.8271 6.4836C33.7894 6.43866 33.7517 6.39372 33.7517 6.30384C33.7139 6.25891 33.7139 6.16903 33.7139 6.12409C33.7139 6.03421 33.7139 5.98927 33.7139 5.8994C33.7139 5.85446 33.7517 5.76458 33.7517 5.71964C33.7894 5.67471 33.7894 5.58483 33.8271 5.53989C33.8649 5.49495 33.9026 5.45001 33.9403 5.40508C33.978 5.36014 34.0535 5.3152 34.129 5.3152C34.2044 5.27026 34.2422 5.27026 34.3176 5.27026C34.3554 5.27026 34.3931 5.27026 34.4308 5.27026C34.4686 5.27026 34.5063 5.27026 34.544 5.27026C34.6195 5.27026 34.6572 5.27026 34.7327 5.3152C34.8082 5.3152 34.8836 5.36014 34.9214 5.36014C34.9591 5.36014 35.0346 5.40508 35.0723 5.40508C35.1478 5.40508 35.1855 5.45001 35.2232 5.45001L35.4119 5.53989L35.4496 5.27026L35.5251 4.55125V4.37149L35.3741 4.32655C35.3364 4.32655 35.261 4.28161 35.2232 4.28161C35.1855 4.28161 35.1478 4.23668 35.0723 4.23668C35.0346 4.23668 34.9591 4.19174 34.8836 4.19174C34.8082 4.19174 34.7704 4.1468 34.695 4.1468H34.6572V3.51766V3.29297H34.4686H33.9403H33.7517V3.51766V4.19174H33.7139C33.6007 4.23668 33.4875 4.28161 33.3743 4.37149C33.2611 4.41643 33.1857 4.50631 33.1102 4.59618C33.0347 4.68606 32.9593 4.77594 32.8838 4.91075C32.8083 5.00063 32.7706 5.13544 32.7329 5.27026C32.6951 5.40507 32.6574 5.53989 32.6197 5.67471C32.5819 5.80952 32.5819 5.98927 32.5819 6.12409C32.5819 6.25891 32.5819 6.34878 32.6197 6.4836C32.6574 6.61841 32.6574 6.70829 32.7329 6.8431C32.7706 6.93298 32.8461 7.0678 32.8838 7.15767C32.9593 7.24755 32.997 7.33743 33.0725 7.4273C33.1479 7.51718 33.2234 7.60706 33.3366 7.652C33.4121 7.74187 33.5253 7.78681 33.6007 7.83175C33.7139 7.87669 33.8271 7.96657 33.9026 8.0115C34.0158 8.05644 34.129 8.10138 34.2044 8.14632C34.2422 8.14632 34.3176 8.19126 34.3554 8.2362C34.3931 8.28113 34.4686 8.28113 34.5063 8.32607C34.544 8.37101 34.5818 8.41595 34.6195 8.41595C34.6572 8.46089 34.695 8.50583 34.7327 8.55077C34.7704 8.5957 34.7704 8.64064 34.8082 8.73052C34.8082 8.77546 34.8459 8.86533 34.8459 8.95521C34.8459 9.04509 34.8459 9.09003 34.8459 9.1799C34.8459 9.22484 34.8082 9.31472 34.7704 9.35966C34.7327 9.40459 34.695 9.44953 34.6572 9.49447C34.6195 9.53941 34.5818 9.58435 34.5063 9.62929C34.4686 9.67423 34.3931 9.67423 34.3554 9.71916C34.3176 9.71916 34.2422 9.7641 34.1667 9.7641C34.129 9.7641 34.0912 9.7641 34.0158 9.7641C33.978 9.7641 33.9026 9.7641 33.8649 9.7641C33.7894 9.7641 33.7139 9.7641 33.6762 9.7641C33.6007 9.7641 33.5253 9.71916 33.4875 9.71916C33.4121 9.71916 33.3366 9.67423 33.2611 9.62929C33.1857 9.58435 33.1102 9.58435 33.0347 9.53941C32.997 9.53941 32.9593 9.49447 32.9215 9.49447C32.8838 9.49447 32.8461 9.44953 32.8083 9.44953L32.5819 9.31472L32.5442 9.62929L32.4688 10.4382V10.573L32.5819 10.6179C32.7329 10.573 32.8083 10.6179 32.9215 10.6629C32.997 10.7078 33.1102 10.7527 33.1857 10.7527C33.2611 10.7977 33.3743 10.7977 33.4875 10.8426C33.6007 10.8876 33.6762 10.8876 33.7894 10.8876H33.8649V11.5616V11.7863H34.0535H34.5818H34.7704V11.5616V10.8426H34.8082C34.9214 10.7977 35.0346 10.7527 35.1478 10.6629C35.261 10.6179 35.3364 10.5281 35.4496 10.4382C35.5251 10.3483 35.6005 10.2584 35.676 10.1236C35.7515 10.0337 35.7892 9.89892 35.8647 9.7641C35.9024 9.62929 35.9401 9.49447 35.9779 9.35966C36.0156 9.22484 36.0156 9.09003 36.0156 8.91027C36.0156 8.77546 36.0156 8.68558 35.9779 8.55077Z"/>
</mask>
<path d="M35.9779 8.55077C35.9401 8.41595 35.9401 8.32607 35.8647 8.19126C35.8269 8.10138 35.7892 7.96657 35.7137 7.87669C35.6383 7.78681 35.6005 7.69693 35.5251 7.60706C35.4496 7.51718 35.3742 7.4273 35.261 7.38237C35.1855 7.29249 35.0723 7.24755 34.9968 7.20261C34.8836 7.15767 34.8082 7.0678 34.695 7.02286C34.5818 6.97792 34.4686 6.93298 34.3931 6.88804C34.3554 6.88804 34.2799 6.84311 34.2422 6.79817C34.2044 6.75323 34.129 6.75323 34.0912 6.70829C34.0535 6.66335 33.978 6.66335 33.9403 6.61841C33.9026 6.57347 33.8649 6.52854 33.8271 6.4836C33.7894 6.43866 33.7517 6.39372 33.7517 6.30384C33.7139 6.25891 33.7139 6.16903 33.7139 6.12409C33.7139 6.03421 33.7139 5.98927 33.7139 5.8994C33.7139 5.85446 33.7517 5.76458 33.7517 5.71964C33.7894 5.67471 33.7894 5.58483 33.8271 5.53989C33.8649 5.49495 33.9026 5.45001 33.9403 5.40508C33.978 5.36014 34.0535 5.3152 34.129 5.3152C34.2044 5.27026 34.2422 5.27026 34.3176 5.27026C34.3554 5.27026 34.3931 5.27026 34.4308 5.27026C34.4686 5.27026 34.5063 5.27026 34.544 5.27026C34.6195 5.27026 34.6572 5.27026 34.7327 5.3152C34.8082 5.3152 34.8836 5.36014 34.9214 5.36014C34.9591 5.36014 35.0346 5.40508 35.0723 5.40508C35.1478 5.40508 35.1855 5.45001 35.2232 5.45001L35.4119 5.53989L35.4496 5.27026L35.5251 4.55125V4.37149L35.3741 4.32655C35.3364 4.32655 35.261 4.28161 35.2232 4.28161C35.1855 4.28161 35.1478 4.23668 35.0723 4.23668C35.0346 4.23668 34.9591 4.19174 34.8836 4.19174C34.8082 4.19174 34.7704 4.1468 34.695 4.1468H34.6572V3.51766V3.29297H34.4686H33.9403H33.7517V3.51766V4.19174H33.7139C33.6007 4.23668 33.4875 4.28161 33.3743 4.37149C33.2611 4.41643 33.1857 4.50631 33.1102 4.59618C33.0347 4.68606 32.9593 4.77594 32.8838 4.91075C32.8083 5.00063 32.7706 5.13544 32.7329 5.27026C32.6951 5.40507 32.6574 5.53989 32.6197 5.67471C32.5819 5.80952 32.5819 5.98927 32.5819 6.12409C32.5819 6.25891 32.5819 6.34878 32.6197 6.4836C32.6574 6.61841 32.6574 6.70829 32.7329 6.8431C32.7706 6.93298 32.8461 7.0678 32.8838 7.15767C32.9593 7.24755 32.997 7.33743 33.0725 7.4273C33.1479 7.51718 33.2234 7.60706 33.3366 7.652C33.4121 7.74187 33.5253 7.78681 33.6007 7.83175C33.7139 7.87669 33.8271 7.96657 33.9026 8.0115C34.0158 8.05644 34.129 8.10138 34.2044 8.14632C34.2422 8.14632 34.3176 8.19126 34.3554 8.2362C34.3931 8.28113 34.4686 8.28113 34.5063 8.32607C34.544 8.37101 34.5818 8.41595 34.6195 8.41595C34.6572 8.46089 34.695 8.50583 34.7327 8.55077C34.7704 8.5957 34.7704 8.64064 34.8082 8.73052C34.8082 8.77546 34.8459 8.86533 34.8459 8.95521C34.8459 9.04509 34.8459 9.09003 34.8459 9.1799C34.8459 9.22484 34.8082 9.31472 34.7704 9.35966C34.7327 9.40459 34.695 9.44953 34.6572 9.49447C34.6195 9.53941 34.5818 9.58435 34.5063 9.62929C34.4686 9.67423 34.3931 9.67423 34.3554 9.71916C34.3176 9.71916 34.2422 9.7641 34.1667 9.7641C34.129 9.7641 34.0912 9.7641 34.0158 9.7641C33.978 9.7641 33.9026 9.7641 33.8649 9.7641C33.7894 9.7641 33.7139 9.7641 33.6762 9.7641C33.6007 9.7641 33.5253 9.71916 33.4875 9.71916C33.4121 9.71916 33.3366 9.67423 33.2611 9.62929C33.1857 9.58435 33.1102 9.58435 33.0347 9.53941C32.997 9.53941 32.9593 9.49447 32.9215 9.49447C32.8838 9.49447 32.8461 9.44953 32.8083 9.44953L32.5819 9.31472L32.5442 9.62929L32.4688 10.4382V10.573L32.5819 10.6179C32.7329 10.573 32.8083 10.6179 32.9215 10.6629C32.997 10.7078 33.1102 10.7527 33.1857 10.7527C33.2611 10.7977 33.3743 10.7977 33.4875 10.8426C33.6007 10.8876 33.6762 10.8876 33.7894 10.8876H33.8649V11.5616V11.7863H34.0535H34.5818H34.7704V11.5616V10.8426H34.8082C34.9214 10.7977 35.0346 10.7527 35.1478 10.6629C35.261 10.6179 35.3364 10.5281 35.4496 10.4382C35.5251 10.3483 35.6005 10.2584 35.676 10.1236C35.7515 10.0337 35.7892 9.89892 35.8647 9.7641C35.9024 9.62929 35.9401 9.49447 35.9779 9.35966C36.0156 9.22484 36.0156 9.09003 36.0156 8.91027C36.0156 8.77546 36.0156 8.68558 35.9779 8.55077Z" fill="#3355FF"/>
<path d="M35.9779 8.55077C35.9401 8.41595 35.9401 8.32607 35.8647 8.19126C35.8269 8.10138 35.7892 7.96657 35.7137 7.87669C35.6383 7.78681 35.6005 7.69693 35.5251 7.60706C35.4496 7.51718 35.3742 7.4273 35.261 7.38237C35.1855 7.29249 35.0723 7.24755 34.9968 7.20261C34.8836 7.15767 34.8082 7.0678 34.695 7.02286C34.5818 6.97792 34.4686 6.93298 34.3931 6.88804C34.3554 6.88804 34.2799 6.84311 34.2422 6.79817C34.2044 6.75323 34.129 6.75323 34.0912 6.70829C34.0535 6.66335 33.978 6.66335 33.9403 6.61841C33.9026 6.57347 33.8649 6.52854 33.8271 6.4836C33.7894 6.43866 33.7517 6.39372 33.7517 6.30384C33.7139 6.25891 33.7139 6.16903 33.7139 6.12409C33.7139 6.03421 33.7139 5.98927 33.7139 5.8994C33.7139 5.85446 33.7517 5.76458 33.7517 5.71964C33.7894 5.67471 33.7894 5.58483 33.8271 5.53989C33.8649 5.49495 33.9026 5.45001 33.9403 5.40508C33.978 5.36014 34.0535 5.3152 34.129 5.3152C34.2044 5.27026 34.2422 5.27026 34.3176 5.27026C34.3554 5.27026 34.3931 5.27026 34.4308 5.27026C34.4686 5.27026 34.5063 5.27026 34.544 5.27026C34.6195 5.27026 34.6572 5.27026 34.7327 5.3152C34.8082 5.3152 34.8836 5.36014 34.9214 5.36014C34.9591 5.36014 35.0346 5.40508 35.0723 5.40508C35.1478 5.40508 35.1855 5.45001 35.2232 5.45001L35.4119 5.53989L35.4496 5.27026L35.5251 4.55125V4.37149L35.3741 4.32655C35.3364 4.32655 35.261 4.28161 35.2232 4.28161C35.1855 4.28161 35.1478 4.23668 35.0723 4.23668C35.0346 4.23668 34.9591 4.19174 34.8836 4.19174C34.8082 4.19174 34.7704 4.1468 34.695 4.1468H34.6572V3.51766V3.29297H34.4686H33.9403H33.7517V3.51766V4.19174H33.7139C33.6007 4.23668 33.4875 4.28161 33.3743 4.37149C33.2611 4.41643 33.1857 4.50631 33.1102 4.59618C33.0347 4.68606 32.9593 4.77594 32.8838 4.91075C32.8083 5.00063 32.7706 5.13544 32.7329 5.27026C32.6951 5.40507 32.6574 5.53989 32.6197 5.67471C32.5819 5.80952 32.5819 5.98927 32.5819 6.12409C32.5819 6.25891 32.5819 6.34878 32.6197 6.4836C32.6574 6.61841 32.6574 6.70829 32.7329 6.8431C32.7706 6.93298 32.8461 7.0678 32.8838 7.15767C32.9593 7.24755 32.997 7.33743 33.0725 7.4273C33.1479 7.51718 33.2234 7.60706 33.3366 7.652C33.4121 7.74187 33.5253 7.78681 33.6007 7.83175C33.7139 7.87669 33.8271 7.96657 33.9026 8.0115C34.0158 8.05644 34.129 8.10138 34.2044 8.14632C34.2422 8.14632 34.3176 8.19126 34.3554 8.2362C34.3931 8.28113 34.4686 8.28113 34.5063 8.32607C34.544 8.37101 34.5818 8.41595 34.6195 8.41595C34.6572 8.46089 34.695 8.50583 34.7327 8.55077C34.7704 8.5957 34.7704 8.64064 34.8082 8.73052C34.8082 8.77546 34.8459 8.86533 34.8459 8.95521C34.8459 9.04509 34.8459 9.09003 34.8459 9.1799C34.8459 9.22484 34.8082 9.31472 34.7704 9.35966C34.7327 9.40459 34.695 9.44953 34.6572 9.49447C34.6195 9.53941 34.5818 9.58435 34.5063 9.62929C34.4686 9.67423 34.3931 9.67423 34.3554 9.71916C34.3176 9.71916 34.2422 9.7641 34.1667 9.7641C34.129 9.7641 34.0912 9.7641 34.0158 9.7641C33.978 9.7641 33.9026 9.7641 33.8649 9.7641C33.7894 9.7641 33.7139 9.7641 33.6762 9.7641C33.6007 9.7641 33.5253 9.71916 33.4875 9.71916C33.4121 9.71916 33.3366 9.67423 33.2611 9.62929C33.1857 9.58435 33.1102 9.58435 33.0347 9.53941C32.997 9.53941 32.9593 9.49447 32.9215 9.49447C32.8838 9.49447 32.8461 9.44953 32.8083 9.44953L32.5819 9.31472L32.5442 9.62929L32.4688 10.4382V10.573L32.5819 10.6179C32.7329 10.573 32.8083 10.6179 32.9215 10.6629C32.997 10.7078 33.1102 10.7527 33.1857 10.7527C33.2611 10.7977 33.3743 10.7977 33.4875 10.8426C33.6007 10.8876 33.6762 10.8876 33.7894 10.8876H33.8649V11.5616V11.7863H34.0535H34.5818H34.7704V11.5616V10.8426H34.8082C34.9214 10.7977 35.0346 10.7527 35.1478 10.6629C35.261 10.6179 35.3364 10.5281 35.4496 10.4382C35.5251 10.3483 35.6005 10.2584 35.676 10.1236C35.7515 10.0337 35.7892 9.89892 35.8647 9.7641C35.9024 9.62929 35.9401 9.49447 35.9779 9.35966C36.0156 9.22484 36.0156 9.09003 36.0156 8.91027C36.0156 8.77546 36.0156 8.68558 35.9779 8.55077Z" stroke="#3355FF" stroke-width="0.2" mask="url(#path-2-outside-1)"/>
<path d="M30.7011 14.7547L30.701 14.7546L30.6991 14.7565L24.6117 20.5295L16.7569 16.6354L16.7562 16.635C16.5477 16.5357 16.3003 16.5859 16.1359 16.7323L7.68427 23.9221C7.40152 24.1626 7.32217 24.638 7.52191 24.973C7.64423 25.2144 7.85037 25.3134 8.05626 25.3134C8.18356 25.3134 8.30739 25.2627 8.42694 25.1677L8.42696 25.1678L8.42825 25.1667L16.5912 18.2225L24.4855 22.1176L24.4861 22.1179C24.5912 22.168 24.7149 22.1796 24.8313 22.1615C24.9477 22.1434 25.0608 22.0951 25.1446 22.0202L25.1447 22.0202L25.1457 22.0193L31.5215 15.9984C31.6656 15.8752 31.7446 15.6822 31.7643 15.483C31.784 15.283 31.7449 15.0697 31.6442 14.9019C31.4384 14.5587 30.9869 14.5116 30.7011 14.7547Z" fill="#3355FF" stroke="#3355FF" stroke-width="0.1"/>
<path d="M40.4305 39.5145H37.6883V18.7581C37.6883 18.3346 37.4096 17.9891 37.0345 17.9891H31.4879C31.1128 17.9891 30.8341 18.3346 30.8341 18.7581V39.5145H28.8966V25.9482C28.8966 25.5247 28.6179 25.1792 28.2429 25.1792H22.6585C22.2834 25.1792 22.0047 25.5247 22.0047 25.9482V39.5145H20.0672V24.8697C20.0672 24.4462 19.7885 24.1007 19.4135 24.1007H13.8668C13.4917 24.1007 13.2131 24.4462 13.2131 24.8697V39.5145H11.2755V29.0939C11.2755 28.6704 10.9968 28.3249 10.6218 28.3249H5.03738C4.66234 28.3249 4.38366 28.6704 4.38366 29.0939V39.5145H1.60372C1.22868 39.5145 0.95 39.86 0.95 40.2835C0.95 40.7071 1.22868 41.0526 1.60372 41.0526H4.99964H10.5463H13.8668H19.4135H22.6585H28.2051H31.4501H36.9968H40.3927C40.7671 41.0526 41.0454 40.7083 41.0464 40.2859C41.0851 39.8595 40.8048 39.5145 40.4305 39.5145ZM9.93033 39.5145H5.6911V29.8629H9.93033V39.5145ZM18.7597 39.5145H14.5205V25.6387H18.7597V39.5145ZM27.5514 39.5145H23.3122V26.7172H27.5514V39.5145ZM36.3808 39.5145H32.1416V19.5271H36.3808V39.5145Z" fill="#3355FF" stroke="#3355FF" stroke-width="0.1"/>
</svg>
