<svg width="1440" height="804" viewBox="0 0 1440 804" fill="none" xmlns="http://www.w3.org/2000/svg">
<path opacity="0.4" d="M1457.45 -136.634C1454.35 -138.455 1449.33 -138.455 1446.24 -136.634C1443.91 -135.267 1443.34 -133.268 1444.51 -131.598L1270.8 -30.0271V98.1892L1228.48 122.937V262.388L1083.53 347.157L1060.94 333.948L1172.72 268.588V192.144L1172.27 191.891L1045.18 117.572V91.6354L1117.05 49.6052C1120.15 50.921 1124.5 50.7692 1127.3 49.1497C1130.4 47.3278 1130.4 44.3925 1127.3 42.5959C1124.2 40.774 1119.18 40.774 1116.08 42.5959C1113.28 44.2407 1113.03 46.7711 1115.28 48.593L1043.4 90.6232V118.635L1043.85 118.888L1170.94 193.206V267.575L1086.5 316.969V285.111L1125.22 262.464C1128.32 263.78 1132.67 263.628 1135.47 262.008C1138.57 260.187 1138.57 257.251 1135.47 255.455C1132.37 253.633 1127.35 253.633 1124.25 255.455C1121.45 257.099 1121.2 259.63 1123.45 261.452L1084.73 284.099V318.032L1059.19 332.961L1028.99 315.299V259.832L1085.95 226.507V188.171L1085.5 187.918L965.556 117.775C967.804 115.953 967.555 113.422 964.756 111.778C961.659 109.956 956.637 109.956 953.539 111.778C950.441 113.599 950.441 116.535 953.539 118.331C956.337 119.976 960.684 120.103 963.782 118.787L1084.15 189.183V225.444L1028.96 257.732V219.497L1028.51 219.244L955.138 176.328C957.386 174.507 957.136 171.976 954.338 170.331C951.24 168.509 946.219 168.509 943.121 170.331C940.023 172.153 940.023 175.089 943.121 176.885C945.919 178.53 950.266 178.656 953.364 177.341L1027.19 220.51V314.211L1005.98 301.812L971.027 322.258L939.373 303.735V258.744L938.924 258.491L855.229 209.553V167.143C856.953 167.042 858.627 166.612 859.951 165.827C863.049 164.005 863.049 161.07 859.951 159.273C856.853 157.452 851.832 157.452 848.734 159.273C845.636 161.095 845.636 164.031 848.734 165.827C850.058 166.612 851.732 167.017 853.456 167.143V210.59L853.905 210.843L937.6 259.782V302.698L801.39 223.04V138.6L875.266 95.4057H943.071L943.271 95.2792L1059.62 27.2616C1062.72 28.5774 1067.06 28.4256 1069.86 26.8061C1072.96 24.9842 1072.96 22.0489 1069.86 20.2523C1066.76 18.4304 1061.74 18.4304 1058.64 20.2523C1055.85 21.8971 1055.6 24.4275 1057.84 26.2494L942.596 93.6344H878.339L1092.07 -31.3429C1095.17 -30.0271 1099.52 -30.1789 1102.31 -31.7984C1105.41 -33.6203 1105.41 -36.5555 1102.31 -38.3521C1099.22 -40.174 1094.2 -40.174 1091.1 -38.3521C1088.3 -36.7074 1088.05 -34.1769 1090.3 -32.355L799.617 137.613V224.128L800.066 224.381L969.278 323.32L935.226 343.235L646.319 174.304V73.4923L645.869 73.2393L547.61 15.7988C549.858 13.9769 549.608 11.4465 546.81 9.8017C543.712 7.9798 538.691 7.9798 535.593 9.8017C532.495 11.6236 532.495 14.5589 535.593 16.3555C538.391 18.0003 542.738 18.1268 545.836 16.811L644.52 74.5298V175.342L644.97 175.595L933.427 344.272L900.999 363.225L615.289 196.142H444.903L338.424 133.868V38.1677C339.548 37.9399 340.598 37.5857 341.497 37.0796C344.595 35.2577 344.595 32.3224 341.497 30.5258C338.399 28.7039 333.378 28.7039 330.28 30.5258C327.182 32.3477 327.182 35.283 330.28 37.0796C332.029 38.0918 334.377 38.522 336.65 38.3954V134.906L337.1 135.159L444.453 197.938H614.84L856.029 338.984H807.511L725.191 290.855H661.784L661.584 290.982L573.642 342.4C570.544 341.084 566.197 341.236 563.399 342.855C560.301 344.677 560.301 347.612 563.399 349.409C566.497 351.231 571.519 351.231 574.617 349.409C577.415 347.764 577.665 345.234 575.416 343.412L662.258 292.626H724.717L807.037 340.755H859.102L899.25 364.237L812.708 414.846L788.099 400.448V362.668L725.516 326.104C727.764 324.282 727.515 321.752 724.717 320.107C721.619 318.285 716.597 318.285 713.499 320.107C710.401 321.929 710.401 324.864 713.499 326.661C716.297 328.305 720.644 328.432 723.742 327.116L786.25 363.681V399.385L719.595 360.391H688.016L687.816 360.518L650.166 382.532C647.068 381.216 642.721 381.368 639.923 382.988C636.825 384.81 636.825 387.745 639.923 389.542C643.021 391.363 648.043 391.363 651.141 389.542C653.939 387.897 654.189 385.366 651.94 383.544L688.491 362.162H719.095L810.859 415.807L794.195 425.549L847.385 456.648L822.476 471.223H784.802L757.844 455.459C759.993 453.662 759.693 451.157 756.945 449.538C753.847 447.716 748.826 447.716 745.728 449.538C742.63 451.36 742.63 454.295 745.728 456.091C748.551 457.736 752.973 457.863 756.096 456.496L784.327 472.995H819.403L755.871 510.141L606.42 422.741H498.867L498.667 422.867L438.108 458.268C435.01 456.952 430.663 457.104 427.865 458.723C424.767 460.545 424.767 463.48 427.865 465.277C430.963 467.099 435.984 467.099 439.082 465.277C441.88 463.632 442.13 461.102 439.882 459.28L499.342 424.512H605.921L721.194 491.922H671.852L623.634 463.733C625.882 461.911 625.633 459.381 622.835 457.736C619.737 455.914 614.715 455.914 611.617 457.736C608.519 459.558 608.519 462.493 611.617 464.29C614.415 465.935 618.762 466.061 621.86 464.746L671.377 493.719H724.267L754.072 511.153L678.198 555.512H435.684L247.335 445.489C249.584 443.667 249.334 441.137 246.536 439.492C243.438 437.67 238.416 437.67 235.318 439.492C232.22 441.314 232.22 444.249 235.318 446.046C238.116 447.69 242.463 447.817 245.561 446.501L435.26 557.435H675.15L645.045 575.046H465.539L465.34 575.173L376.824 626.945C373.726 625.629 369.379 625.781 366.58 627.401C363.483 629.223 363.483 632.158 366.58 633.955C369.678 635.776 374.7 635.776 377.798 633.955C380.596 632.31 380.846 629.779 378.597 627.957L466.039 576.843H645.544L645.744 576.716L849.183 457.762L871.768 470.97L657.886 596.049H501.465L501.266 596.175L312.342 706.653H50.5912L0 677.048V679.122L50.1166 708.425H312.816L313.016 708.298L431.587 638.965V680.008L353.439 725.707C350.341 724.392 345.994 724.544 343.196 726.163C340.098 727.985 340.098 730.92 343.196 732.717C346.294 734.539 351.316 734.539 354.414 732.717C357.212 731.072 357.462 728.542 355.213 726.72L433.361 681.02V638.155H432.961L501.965 597.795H658.386L658.586 597.668L873.567 471.957L899.225 486.963L482.103 730.87V774.95H483.877V731.907L900.999 488L932.703 506.548L717.546 632.36V654.856L679.397 677.174V728.921L605.421 772.191C602.323 770.875 597.976 771.027 595.178 772.647C594.054 773.305 593.329 774.114 593.029 774.975H608.494C608.269 774.342 607.845 773.76 607.195 773.229L681.171 729.959V678.212L717.546 656.931V739.777L739.007 752.328L700.283 775H703.831L740.731 753.416L777.631 775H781.179L719.245 738.79V633.448L934.402 507.636L963.257 524.514L810.984 613.559C807.886 612.244 803.539 612.395 800.741 614.015C797.643 615.837 797.643 618.772 800.741 620.569C803.839 622.391 808.86 622.391 811.958 620.569C814.757 618.924 815.006 616.393 812.758 614.572L965.031 525.526L992.888 541.822L810.734 648.327H761.242C760.942 647.467 760.218 646.632 759.069 645.949C755.971 644.127 750.949 644.127 747.851 645.949C744.753 647.771 744.753 650.706 747.851 652.503C750.949 654.324 755.971 654.324 759.069 652.503C760.218 651.819 760.942 650.984 761.242 650.124H811.209L811.409 649.997L994.636 542.859L1005.88 549.439L1014.52 544.378L1058.17 569.884V605.411L1022.12 626.49V626.389H965.531L965.331 626.515L903.247 662.827C900.15 661.511 895.802 661.663 893.004 663.282C889.906 665.104 889.906 668.039 893.004 669.836C896.102 671.658 901.124 671.658 904.222 669.836C907.02 668.191 907.27 665.661 905.021 663.839L966.006 628.185H1019.2L913.191 690.155C910.068 688.738 905.596 688.839 902.723 690.509C899.625 692.331 899.625 695.267 902.723 697.063C905.821 698.885 910.842 698.885 913.94 697.063C916.664 695.469 916.988 693.015 914.915 691.193L1047.13 613.888V630.969L968.479 676.972V709.437L904.447 746.887C901.349 745.571 897.002 745.723 894.204 747.343C891.106 749.164 891.106 752.1 894.204 753.896C897.302 755.718 902.323 755.718 905.421 753.896C908.219 752.252 908.469 749.721 906.221 747.899L970.253 710.449V677.984L1048.9 631.981V612.826L1059.92 606.373V568.771L1016.27 543.264L1044.95 526.488L1134.74 578.994V638.686L1073.76 674.34C1070.64 672.923 1066.16 673.024 1063.29 674.694C1060.19 676.516 1060.19 679.451 1063.29 681.248C1066.39 683.07 1071.41 683.07 1074.51 681.248C1077.23 679.654 1077.56 677.199 1075.48 675.378L1134.72 640.736V688.966L1087.92 716.345V774.899H1089.7V717.382L1134.72 691.041V774.874H1136.49V577.931L1046.7 525.425L1078.91 506.599L1196.28 575.224V738.689L1252.69 771.685V775H1254.46V770.749L1198.05 737.752V574.287L1080.68 505.662L1104.54 491.695L1262.93 584.308V723.759L1401.5 804H1406L1264.86 722.747V583.296L1106.46 490.682L1145.14 468.06L1408.69 622.163V691.547L1499 744.357V742.282L1410.46 690.509V621.125L1262.23 534.433H1379.45L1499 604.349V602.274L1379.93 532.637H1259.16L1146.93 467.023L1191.9 440.732L1288.37 497.135H1443.26L1499 529.727V527.652L1486.78 520.516H1499V518.719H1483.71L1443.74 495.338H1288.84L1261.83 479.548H1327.69L1327.89 479.422L1360.92 460.115H1498.53L1498.98 460.393V458.318H1363.97L1401.14 436.582C1404.24 437.898 1408.59 437.746 1411.38 436.126C1414.48 434.305 1414.48 431.369 1411.38 429.573C1408.29 427.751 1403.26 427.751 1400.17 429.573C1397.37 431.217 1397.12 433.748 1399.37 435.57L1327.16 477.802H1258.71L1193.6 439.745L1217.66 425.676L1202.17 416.617H1247.17L1305.98 451.005C1303.73 452.827 1303.98 455.358 1306.78 457.002C1309.88 458.824 1314.9 458.824 1318 457.002C1321.09 455.181 1321.09 452.245 1318 450.449C1315.2 448.804 1310.85 448.677 1307.75 449.993L1247.64 414.846H1199.1L1166.17 395.589L1186.41 383.747H1222.31L1253.89 365.275H1277.45L1330.66 396.399C1328.26 398.221 1328.46 400.827 1331.31 402.497C1334.41 404.319 1339.43 404.319 1342.53 402.497C1345.63 400.675 1345.63 397.74 1342.53 395.943C1339.78 394.349 1335.56 394.172 1332.46 395.387L1277.92 363.504H1253.41L1221.83 381.976H1189.48L1254.21 344.12H1289.17L1362.02 386.707H1498.95V384.911H1362.49L1289.64 342.324H1253.74L1253.54 342.45L1164.4 394.577L1141.01 380.913L1241.75 322.005H1312.8L1371.41 356.267H1498.98V354.47H1371.91L1316.37 322.005H1498.98V320.208H1241.3L1241.1 320.335L1139.29 379.875L1112.71 364.339L1253.16 282.201H1498.98V280.405H1319.84L1498.98 175.645V173.57L1316.3 280.405H1254.46L1387.62 202.544V185.387L1451.36 148.14C1454.45 149.455 1458.8 149.304 1461.6 147.684C1464.7 145.862 1464.7 142.927 1461.6 141.13C1458.5 139.308 1453.48 139.308 1450.38 141.13C1447.58 142.775 1447.33 145.306 1449.58 147.127L1414.88 167.421V120.381L1499 71.0378V68.9629L1413.11 119.192V168.307L1385.85 184.249V201.405L1251.59 279.924L1252.04 280.708L1110.93 363.225L1085.28 348.22L1230.23 263.451V123.999L1499 -33.1901V-35.265L1272.58 97.1517V-28.9896L1445.89 -130.333C1446.01 -130.257 1446.11 -130.156 1446.24 -130.08C1449.33 -128.258 1454.35 -128.258 1457.45 -130.08C1460.55 -131.902 1460.55 -134.837 1457.45 -136.634ZM1214.17 425.625L1005.95 547.389L797.768 425.651L1005.98 303.887L1214.17 425.625Z" fill="url(#paint0_radial)"/>
<path opacity="0.5" d="M1025.9 497.775L1230.23 367.707L1147.01 314.809L1017.45 406.207L958.666 480.394L1025.9 497.775Z" fill="#0F054C"/>
<path opacity="0.5" d="M1130.93 301.587C1133.17 295.1 1118.06 283.84 1097.17 276.438C1076.28 269.036 1057.53 268.295 1055.28 274.782C1053.04 281.269 1068.16 292.528 1089.05 299.93C1109.94 307.332 1128.69 308.074 1130.93 301.587Z" fill="#0F054C"/>
<path d="M1108.18 251.204L1107.91 244.528L1106.39 240.621L1105.42 243.851L1108.18 251.204Z" fill="#DD821F"/>
<path d="M1038.99 252.482L1038.73 245.93C1038.73 245.93 1044.2 251.452 1044.2 251.59C1044.22 251.713 1038.99 252.482 1038.99 252.482Z" fill="#FFD85A"/>
<path d="M1074.07 271.892C1093.17 271.431 1108.32 261.602 1107.92 244.512C1107.51 227.439 1091.7 213.964 1072.61 214.426C1053.5 214.887 1038.35 229.1 1038.75 246.189C1039.14 263.278 1054.96 272.369 1074.07 271.892Z" fill="#FFD85A"/>
<path d="M1074.31 282.975C1093.41 282.512 1108.57 268.292 1108.17 251.213C1107.77 234.135 1091.95 220.665 1072.85 221.127C1053.74 221.59 1038.58 235.81 1038.98 252.888C1039.39 269.967 1055.2 283.437 1074.31 282.975Z" fill="#FFD85A"/>
<path d="M1097.73 229.762C1104 235.192 1107.98 242.759 1108.18 251.204C1108.59 268.278 1093.43 282.506 1074.32 282.967C1064.88 283.198 1056.23 280.014 1049.87 274.677L1097.73 229.762Z" fill="#DD821F"/>
<path d="M1074.27 281.596C1092.52 281.154 1107.01 267.57 1106.62 251.256C1106.23 234.942 1091.13 222.075 1072.88 222.516C1054.63 222.958 1040.15 236.542 1040.53 252.856C1040.92 269.17 1056.02 282.037 1074.27 281.596Z" fill="#F9BF30"/>
<path d="M1074.14 275.765C1088.79 275.411 1100.42 264.507 1100.11 251.412C1099.8 238.316 1087.67 227.987 1073.02 228.342C1058.37 228.697 1046.74 239.6 1047.05 252.696C1047.36 265.792 1059.49 276.12 1074.14 275.765Z" fill="#F2B42A"/>
<path d="M1047.06 252.681C1047.04 252.142 1047.06 251.604 1047.09 251.066C1048.3 263.386 1060.03 272.862 1074.07 272.523C1088.12 272.185 1099.37 262.14 1099.99 249.773C1100.04 250.312 1100.09 250.835 1100.1 251.389C1100.4 264.478 1088.78 275.384 1074.14 275.753C1059.5 276.107 1047.38 265.771 1047.06 252.681Z" fill="#FFD85A"/>
<path d="M1068.51 254.033L1073.94 248.926C1079.18 250.126 1088.95 252.387 1096.74 254.233C1094.8 260.139 1090.08 265.015 1083.89 267.599L1068.51 254.033Z" fill="#FFD85A"/>
<path d="M1077.06 269.428C1076.19 269.536 1075.31 269.597 1074.41 269.628C1068 269.782 1062.16 267.659 1057.78 264.075L1066.67 255.738L1077.06 269.428Z" fill="#FFD85A"/>
<path d="M1079.78 243.45L1090.03 233.836C1093.48 236.882 1096.56 240.25 1097.4 244.742L1079.78 243.45Z" fill="#FFD85A"/>
<path d="M1074.41 231.159C1059.77 231.513 1048.14 242.419 1048.45 255.524C1048.52 258.185 1049.08 260.708 1050.03 263.076C1048.23 259.969 1047.16 256.447 1047.07 252.694C1046.77 239.604 1058.39 228.698 1073.03 228.329C1084.71 228.052 1094.78 234.558 1098.55 243.849C1094.04 236.097 1084.87 230.898 1074.41 231.159Z" fill="#DD821F"/>
<path d="M1107.91 244.526C1107.97 247.064 1108.2 248.909 1107.6 251.278C1106.85 248.771 1105.19 241.28 1105.19 241.28L1102.56 235.327L1100.37 233.497L1096.67 230.759L1096.36 222.176C1103.28 227.652 1107.71 235.589 1107.91 244.526Z" fill="#DD821F"/>
<path d="M1040.98 243.653L1040.83 241.899C1040.83 241.653 1040.63 241.453 1040.39 241.453H1040.25C1040.02 241.453 1039.83 241.668 1039.84 241.915L1039.99 243.668C1039.99 243.914 1040.19 244.114 1040.43 244.114H1040.57C1040.8 244.114 1040.98 243.899 1040.98 243.653Z" fill="#DD821F"/>
<path d="M1044.02 236.9L1043.84 233.731C1043.84 233.439 1043.61 233.208 1043.34 233.223H1043.03C1042.76 233.223 1042.56 233.469 1042.56 233.762L1042.74 236.93C1042.74 237.223 1042.97 237.438 1043.24 237.438H1043.55C1043.81 237.438 1044.02 237.192 1044.02 236.9Z" fill="#DD821F"/>
<path d="M1048.23 231.025L1048.04 227.964C1048.03 227.641 1047.79 227.38 1047.48 227.395L1046.95 227.411C1046.65 227.411 1046.42 227.687 1046.42 228.01L1046.6 231.071C1046.62 231.394 1046.86 231.656 1047.16 231.641L1047.7 231.625C1048 231.625 1048.24 231.348 1048.23 231.025Z" fill="#DD821F"/>
<path d="M1054.53 226.269L1054.33 222.546C1054.32 222.223 1054.07 221.962 1053.77 221.977L1053.24 221.993C1052.94 221.993 1052.71 222.269 1052.71 222.592L1052.91 226.315C1052.92 226.638 1053.16 226.899 1053.47 226.884L1054 226.869C1054.3 226.869 1054.55 226.592 1054.53 226.269Z" fill="#DD821F"/>
<path d="M1060.88 223.162L1060.68 218.886C1060.67 218.563 1060.42 218.302 1060.12 218.317L1059.59 218.332C1059.29 218.332 1059.06 218.609 1059.06 218.932L1059.25 223.208C1059.27 223.531 1059.51 223.793 1059.82 223.778L1060.35 223.762C1060.65 223.747 1060.88 223.485 1060.88 223.162Z" fill="#DD821F"/>
<path d="M1067.26 221.258L1067.06 217.136C1067.06 216.813 1066.8 216.552 1066.5 216.567L1065.97 216.582C1065.67 216.582 1065.44 216.859 1065.44 217.182L1065.63 221.305C1065.65 221.628 1065.89 221.889 1066.2 221.874L1066.73 221.858C1067.02 221.858 1067.26 221.581 1067.26 221.258Z" fill="#DD821F"/>
<path d="M1073.66 220.609L1073.46 216.425C1073.44 216.102 1073.2 215.841 1072.9 215.856L1072.36 215.872C1072.06 215.872 1071.83 216.148 1071.83 216.471L1072.03 220.655C1072.04 220.978 1072.29 221.24 1072.59 221.224L1073.12 221.209C1073.43 221.194 1073.67 220.932 1073.66 220.609Z" fill="#DD821F"/>
<path d="M1080.08 220.742L1079.88 216.82C1079.87 216.497 1079.62 216.235 1079.32 216.251L1078.79 216.266C1078.49 216.266 1078.26 216.543 1078.26 216.866L1078.46 220.788C1078.47 221.111 1078.71 221.373 1079.02 221.357L1079.55 221.342C1079.85 221.327 1080.08 221.065 1080.08 220.742Z" fill="#DD821F"/>
<path d="M1086.54 222.162L1086.34 218.378C1086.32 218.055 1086.08 217.794 1085.78 217.809L1085.24 217.825C1084.94 217.825 1084.71 218.101 1084.71 218.425L1084.91 222.224C1084.93 222.547 1085.17 222.808 1085.47 222.793L1086 222.778C1086.31 222.762 1086.54 222.485 1086.54 222.162Z" fill="#DD821F"/>
<path d="M1093.02 225.364L1092.82 221.257C1092.82 220.934 1092.57 220.673 1092.26 220.688L1091.73 220.704C1091.43 220.704 1091.2 220.98 1091.2 221.303L1091.4 225.41C1091.41 225.733 1091.66 225.995 1091.96 225.98L1092.49 225.964C1092.79 225.949 1093.04 225.687 1093.02 225.364Z" fill="#DD821F"/>
<path d="M853.536 417.499L853.581 431.343H853.596C853.581 431.527 853.688 431.712 853.916 431.85L1002.6 518.234C1003.08 518.511 1003.93 518.481 1004.48 518.157L1028.71 503.899C1028.98 503.745 1029.12 503.545 1029.15 503.345V503.329C1029.15 503.314 1029.15 503.299 1029.15 503.283L1029.1 489.301L1017.35 496.1L880.164 416.391C879.678 416.115 878.827 416.145 878.28 416.468L869.971 421.36L853.536 417.499Z" fill="url(#paint1_linear)"/>
<path d="M880.103 402.484L1028.78 488.868C1029.27 489.145 1029.21 489.652 1028.65 489.975L1004.42 504.234C1003.86 504.557 1003.02 504.604 1002.54 504.311L853.855 417.927C853.369 417.65 853.429 417.143 853.991 416.82L878.22 402.561C878.782 402.238 879.617 402.191 880.103 402.484Z" fill="url(#paint2_linear)"/>
<path opacity="0.6" d="M885.48 423.298L1002.31 489.932C1003.17 485.24 1004.52 480.487 1006.3 475.796L889.688 408.039C887.759 413.1 886.331 418.253 885.48 423.298Z" fill="#24126A"/>
<path d="M874.954 410.466L1015.14 491.928C1015.48 492.128 1015.43 492.467 1015.05 492.682L1008.96 496.266C1008.58 496.497 1008 496.512 1007.67 496.327L867.48 414.865C867.146 414.665 867.192 414.327 867.571 414.112L873.663 410.528C874.042 410.297 874.635 410.282 874.954 410.466Z" fill="#24126A"/>
<path d="M867.495 414.868L870.351 416.529L873.632 414.591C874.012 414.36 874.589 414.345 874.923 414.529L1012.27 494.33L1015.07 492.684C1015.45 492.454 1015.49 492.115 1015.16 491.931L874.969 410.469C874.635 410.269 874.058 410.299 873.678 410.53L867.587 414.114C867.192 414.329 867.161 414.668 867.495 414.868Z" fill="#453C9E"/>
<path opacity="0.96" d="M1228.37 270.171L1111.74 202.398C1111.8 223.564 1097.18 249.328 1079.12 259.957L918.397 354.509C897.162 366.999 879.997 397.286 880.058 422.158L996.687 489.931C996.626 465.058 1013.79 434.772 1035.03 422.281L1195.75 327.729C1213.81 317.101 1228.41 291.336 1228.37 270.171Z" fill="url(#paint3_linear)"/>
<path opacity="0.8" d="M880.058 422.174L996.687 489.947C996.687 488.855 996.733 487.747 996.793 486.64H996.778L880.164 418.883C880.088 419.975 880.058 421.082 880.058 422.174Z" fill="#453C9E"/>
<g opacity="0.32">
<path opacity="0.32" d="M1048.94 371.352L1075.36 386.703L1072.82 388.195L1046.4 372.844L1048.94 371.352Z" fill="#453C9E"/>
<path opacity="0.32" d="M1035.39 363.477L1044.9 369.014L1042.36 370.506L1032.85 364.984L1035.39 363.477Z" fill="#453C9E"/>
<path opacity="0.32" d="M1024.89 357.383L1031.35 361.136L1028.81 362.628L1022.36 358.875L1024.89 357.383Z" fill="#453C9E"/>
<path opacity="0.32" d="M1066.77 374.922L1081.16 383.29L1078.62 384.782L1064.22 376.414L1066.77 374.922Z" fill="#453C9E"/>
<path opacity="0.32" d="M1045.1 362.324L1062.73 372.584L1060.2 374.076L1042.55 363.832L1045.1 362.324Z" fill="#453C9E"/>
<path opacity="0.32" d="M1034.6 356.23L1041.06 359.984L1038.52 361.476L1032.05 357.722L1034.6 356.23Z" fill="#453C9E"/>
<path opacity="0.32" d="M1024.61 350.418L1031.06 354.187L1028.53 355.679L1022.07 351.925L1024.61 350.418Z" fill="#453C9E"/>
<path opacity="0.32" d="M1076.56 373.828L1086.96 379.873L1084.42 381.365L1074 375.32L1076.56 373.828Z" fill="#453C9E"/>
<path opacity="0.32" d="M1068.96 369.414L1072.52 371.475L1069.98 372.967L1066.41 370.906L1068.96 369.414Z" fill="#453C9E"/>
<path opacity="0.32" d="M1058.46 363.305L1064.92 367.058L1062.38 368.55L1055.91 364.797L1058.46 363.305Z" fill="#453C9E"/>
<path opacity="0.32" d="M1054.33 354.125L1092.78 376.459L1090.23 377.951L1051.8 355.617L1054.33 354.125Z" fill="#453C9E"/>
<path opacity="0.32" d="M1040.78 346.25L1050.29 351.772L1047.76 353.28L1038.25 347.742L1040.78 346.25Z" fill="#453C9E"/>
<path opacity="0.32" d="M1088.16 366.984L1098.58 373.045L1096.03 374.537L1085.62 368.492L1088.16 366.984Z" fill="#453C9E"/>
<path opacity="0.32" d="M1063.72 352.785L1084.12 364.644L1081.58 366.137L1061.18 354.277L1063.72 352.785Z" fill="#453C9E"/>
<path opacity="0.32" d="M1053.22 346.695L1059.68 350.448L1057.14 351.941L1050.69 348.187L1053.22 346.695Z" fill="#453C9E"/>
<path opacity="0.32" d="M1083.07 357.246L1104.38 369.629L1101.85 371.121L1080.54 358.738L1083.07 357.246Z" fill="#453C9E"/>
<path opacity="0.32" d="M1063.63 345.941L1079.03 354.894L1076.5 356.401L1061.09 347.449L1063.63 345.941Z" fill="#453C9E"/>
<path opacity="0.32" d="M1049.18 337.559L1059.59 343.604L1057.05 345.096L1046.63 339.051L1049.18 337.559Z" fill="#453C9E"/>
<path opacity="0.32" d="M1102.99 362.031L1110.19 366.215L1107.65 367.707L1100.45 363.523L1102.99 362.031Z" fill="#453C9E"/>
<path opacity="0.32" d="M1089.44 354.156L1098.96 359.694L1096.41 361.186L1086.9 355.648L1089.44 354.156Z" fill="#453C9E"/>
<path opacity="0.32" d="M1070.09 342.91L1085.41 351.816L1082.88 353.308L1067.55 344.402L1070.09 342.91Z" fill="#453C9E"/>
<path opacity="0.32" d="M1093.95 349.988L1115.99 362.801L1113.45 364.293L1091.41 351.48L1093.95 349.988Z" fill="#453C9E"/>
<path opacity="0.32" d="M1069.25 335.637L1089.91 347.65L1087.37 349.142L1066.71 337.144L1069.25 335.637Z" fill="#453C9E"/>
<path opacity="0.32" d="M1058.75 329.543L1065.22 333.296L1062.67 334.788L1056.22 331.035L1058.75 329.543Z" fill="#453C9E"/>
<path opacity="0.32" d="M1048.68 323.684L1055.14 327.437L1052.6 328.929L1046.15 325.176L1048.68 323.684Z" fill="#453C9E"/>
<path opacity="0.32" d="M1108.59 351.711L1121.79 359.386L1119.26 360.878L1106.06 353.203L1108.59 351.711Z" fill="#453C9E"/>
<path opacity="0.32" d="M995.35 340.218L977.046 329.574L974.494 331.066L992.813 341.711L995.35 340.218Z" fill="#453C9E"/>
<path opacity="0.32" d="M997.234 334.528L982.849 326.16L980.312 327.652L994.697 336.02L997.234 334.528Z" fill="#453C9E"/>
<path opacity="0.32" d="M999.072 328.791L988.651 322.746L986.115 324.238L996.52 330.298L999.072 328.791Z" fill="#453C9E"/>
<path opacity="0.32" d="M1009.6 328.127L994.454 319.328L991.917 320.82L1007.06 329.619L1009.6 328.127Z" fill="#453C9E"/>
<path opacity="0.32" d="M1010.68 321.963L1000.26 315.918L997.72 317.41L1008.14 323.47L1010.68 321.963Z" fill="#453C9E"/>
<path opacity="0.32" d="M1019.27 320.176L1006.07 312.5L1003.52 313.992L1016.74 321.668L1019.27 320.176Z" fill="#453C9E"/>
<path opacity="0.32" d="M1019.08 313.27L1011.88 309.086L1009.33 310.578L1016.53 314.762L1019.08 313.27Z" fill="#453C9E"/>
<path opacity="0.32" d="M1031.62 313.778L1017.68 305.672L1015.14 307.164L1029.09 315.27L1031.62 313.778Z" fill="#453C9E"/>
<path opacity="0.32" d="M1036.7 309.929L1023.48 302.254L1020.95 303.746L1034.15 311.422L1036.7 309.929Z" fill="#453C9E"/>
<path opacity="0.32" d="M1098.95 346.094L1104.55 349.355L1102.01 350.862L1096.39 347.586L1098.95 346.094Z" fill="#453C9E"/>
<path opacity="0.32" d="M1082.25 336.406L1094.91 343.759L1092.37 345.251L1079.72 337.898L1082.25 336.406Z" fill="#453C9E"/>
<path opacity="0.32" d="M1098.05 310.211L1119.39 322.609L1116.84 324.101L1095.51 311.703L1098.05 310.211Z" fill="#453C9E"/>
<path opacity="0.32" d="M1083.44 301.719L1091.84 306.595L1089.3 308.087L1080.9 303.211L1083.44 301.719Z" fill="#453C9E"/>
</g>
<path opacity="0.3" d="M1072.13 382.194C1075.01 373.838 1055.55 359.338 1028.65 349.806C1001.75 340.274 977.601 339.321 974.714 347.676C971.826 356.031 991.292 370.532 1018.19 380.064C1045.09 389.595 1069.24 390.549 1072.13 382.194Z" fill="#0F054C"/>
<path d="M1042.82 317.304L1042.49 308.706L1040.51 303.676L1039.26 307.844L1042.82 317.304Z" fill="#DD821F"/>
<path d="M953.745 318.949L953.41 310.52C953.41 310.52 960.459 317.641 960.459 317.811C960.474 317.98 953.745 318.949 953.745 318.949Z" fill="#FFD85A"/>
<path d="M998.89 343.958C1023.48 343.358 1043 330.699 1042.47 308.718C1041.95 286.738 1021.6 269.403 997.006 269.987C972.413 270.587 952.894 288.891 953.426 310.872C953.942 332.852 974.297 344.543 998.89 343.958Z" fill="#FFD85A"/>
<path d="M999.215 358.213C1023.81 357.618 1043.32 339.311 1042.8 317.324C1042.28 295.336 1021.93 277.995 997.335 278.59C972.746 279.185 953.232 297.492 953.751 319.48C954.27 341.467 974.625 358.809 999.215 358.213Z" fill="#FFD85A"/>
<path d="M1029.38 289.707C1037.46 296.706 1042.58 306.427 1042.82 317.302C1043.34 339.283 1023.83 357.587 999.239 358.187C987.072 358.479 975.953 354.388 967.75 347.512L1029.38 289.707Z" fill="#DD821F"/>
<path d="M999.176 356.42C1022.67 355.852 1041.31 338.365 1040.81 317.363C1040.32 296.361 1020.87 279.796 997.38 280.365C973.889 280.934 955.247 298.42 955.743 319.422C956.239 340.425 975.685 356.989 999.176 356.42Z" fill="#F9BF30"/>
<path d="M998.997 348.92C1017.86 348.463 1032.83 334.427 1032.43 317.569C1032.03 300.712 1016.42 287.416 997.556 287.872C978.694 288.329 963.726 302.365 964.124 319.223C964.522 336.081 980.135 349.377 998.997 348.92Z" fill="#F2B42A"/>
<path d="M964.135 319.21C964.119 318.518 964.135 317.826 964.18 317.134C965.745 332.993 980.844 345.206 998.92 344.76C1017 344.329 1031.49 331.408 1032.31 315.473C1032.37 316.165 1032.43 316.842 1032.44 317.549C1032.84 334.408 1017.88 348.451 999.011 348.913C980.145 349.374 964.545 336.069 964.135 319.21Z" fill="#FFD85A"/>
<path d="M991.735 320.966L998.738 314.398C1005.48 315.952 1018.06 318.844 1028.1 321.243C1025.61 328.857 1019.52 335.133 1011.56 338.456L991.735 320.966Z" fill="#FFD85A"/>
<path d="M1002.76 340.777C1001.65 340.915 1000.51 341.007 999.376 341.038C991.127 341.238 983.578 338.5 977.973 333.901L989.411 323.18L1002.76 340.777Z" fill="#FFD85A"/>
<path d="M1006.26 307.335L1019.46 294.953C1023.89 298.875 1027.86 303.213 1028.94 308.997L1006.26 307.335Z" fill="#FFD85A"/>
<path d="M999.36 291.505C980.494 291.966 965.532 305.995 965.927 322.868C966.003 326.283 966.717 329.56 967.947 332.59C965.623 328.59 964.241 324.053 964.135 319.223C963.74 302.364 978.702 288.321 997.568 287.859C1012.61 287.49 1025.58 295.873 1030.41 307.84C1024.61 297.858 1012.82 291.182 999.36 291.505Z" fill="#DD821F"/>
<path d="M1042.48 308.701C1042.56 311.978 1042.86 314.347 1042.11 317.408C1041.12 314.177 1038.99 304.533 1038.99 304.533L1035.6 296.873L1032.78 294.519L1027.99 290.997L1027.6 279.938C1036.5 286.982 1042.21 297.211 1042.48 308.701Z" fill="#DD821F"/>
<path d="M956.297 307.577L956.114 305.316C956.099 304.993 955.856 304.731 955.552 304.747H955.385C955.081 304.747 954.854 305.024 954.854 305.347L955.036 307.608C955.051 307.931 955.294 308.192 955.598 308.177H955.765C956.069 308.177 956.312 307.9 956.297 307.577Z" fill="#DD821F"/>
<path d="M960.216 298.906L959.988 294.829C959.973 294.46 959.699 294.168 959.35 294.168L958.955 294.183C958.605 294.199 958.347 294.491 958.347 294.876L958.575 298.952C958.59 299.321 958.864 299.613 959.213 299.613L959.608 299.598C959.957 299.582 960.231 299.275 960.216 298.906Z" fill="#DD821F"/>
<path d="M965.638 291.321L965.411 287.368C965.395 286.952 965.076 286.614 964.697 286.629L964.013 286.645C963.618 286.66 963.314 286.999 963.33 287.414L963.557 291.367C963.573 291.782 963.892 292.121 964.271 292.105L964.955 292.09C965.335 292.09 965.654 291.752 965.638 291.321Z" fill="#DD821F"/>
<path d="M973.765 285.214L973.522 280.43C973.507 280.015 973.188 279.677 972.808 279.692L972.125 279.707C971.73 279.723 971.426 280.061 971.441 280.476L971.684 285.26C971.699 285.676 972.018 286.014 972.398 285.999L973.082 285.983C973.461 285.983 973.765 285.629 973.765 285.214Z" fill="#DD821F"/>
<path d="M981.922 281.199L981.664 275.692C981.649 275.277 981.33 274.938 980.95 274.954L980.266 274.969C979.872 274.984 979.568 275.323 979.583 275.738L979.841 281.245C979.856 281.66 980.175 281.998 980.555 281.983L981.239 281.968C981.634 281.968 981.937 281.614 981.922 281.199Z" fill="#DD821F"/>
<path d="M990.14 278.749L989.882 273.458C989.867 273.042 989.548 272.704 989.168 272.719L988.484 272.735C988.089 272.75 987.785 273.088 987.801 273.504L988.059 278.795C988.074 279.21 988.393 279.549 988.773 279.533L989.456 279.518C989.836 279.503 990.14 279.164 990.14 278.749Z" fill="#DD821F"/>
<path d="M998.373 277.908L998.115 272.524C998.1 272.109 997.781 271.77 997.401 271.786L996.717 271.801C996.322 271.816 996.019 272.155 996.034 272.57L996.292 277.954C996.307 278.369 996.626 278.708 997.006 278.692L997.69 278.677C998.085 278.677 998.388 278.338 998.373 277.908Z" fill="#DD821F"/>
<path d="M1006.65 278.093L1006.39 273.047C1006.38 272.632 1006.06 272.294 1005.68 272.309L1005 272.324C1004.6 272.34 1004.3 272.678 1004.31 273.094L1004.57 278.139C1004.59 278.554 1004.9 278.893 1005.28 278.877L1005.97 278.862C1006.35 278.862 1006.65 278.508 1006.65 278.093Z" fill="#DD821F"/>
<path d="M1014.96 279.923L1014.72 275.047C1014.7 274.632 1014.38 274.294 1014 274.309L1013.32 274.324C1012.93 274.34 1012.62 274.678 1012.64 275.094L1012.88 279.97C1012.89 280.385 1013.21 280.723 1013.59 280.708L1014.28 280.693C1014.66 280.693 1014.96 280.339 1014.96 279.923Z" fill="#DD821F"/>
<path d="M1023.32 284.026L1023.06 278.735C1023.04 278.32 1022.72 277.981 1022.34 277.997L1021.66 278.012C1021.26 278.027 1020.96 278.366 1020.98 278.781L1021.23 284.072C1021.25 284.488 1021.57 284.826 1021.95 284.811L1022.63 284.795C1023.01 284.795 1023.33 284.457 1023.32 284.026Z" fill="#DD821F"/>
<path opacity="0.5" d="M1219.52 488.797C1222.06 481.46 1204.97 468.729 1181.36 460.362C1157.74 451.995 1136.54 451.159 1134.01 458.496C1131.47 465.833 1148.56 478.564 1172.17 486.932C1195.79 495.299 1216.99 496.134 1219.52 488.797Z" fill="#0F054C"/>
<path d="M1193.79 431.831L1193.5 424.293L1191.77 419.879L1190.66 423.524L1193.79 431.831Z" fill="#DD821F"/>
<path d="M1115.59 433.278L1115.31 425.879C1115.31 425.879 1121.49 432.124 1121.49 432.278C1121.5 432.416 1115.59 433.278 1115.59 433.278Z" fill="#FFD85A"/>
<path d="M1155.24 455.229C1176.83 454.706 1193.96 443.585 1193.5 424.296C1193.05 404.992 1175.17 389.779 1153.59 390.302C1132 390.825 1114.87 406.899 1115.32 426.203C1115.78 445.492 1133.64 455.752 1155.24 455.229Z" fill="#FFD85A"/>
<path d="M1155.51 467.759C1177.09 467.237 1194.22 451.164 1193.77 431.861C1193.31 412.557 1175.44 397.332 1153.86 397.855C1132.27 398.377 1115.14 414.45 1115.59 433.753C1116.05 453.057 1133.92 468.282 1155.51 467.759Z" fill="#FFD85A"/>
<path d="M1181.99 407.605C1189.08 413.743 1193.58 422.295 1193.79 431.832C1194.25 451.136 1177.11 467.21 1155.53 467.733C1144.85 467.995 1135.08 464.395 1127.88 458.366L1181.99 407.605Z" fill="#DD821F"/>
<path d="M1155.47 466.2C1176.09 465.7 1192.46 450.349 1192.02 431.912C1191.59 413.474 1174.52 398.933 1153.89 399.432C1133.27 399.931 1116.9 415.282 1117.34 433.72C1117.77 452.157 1134.85 466.699 1155.47 466.2Z" fill="#F9BF30"/>
<path d="M1155.32 459.606C1171.87 459.205 1185.01 446.88 1184.66 432.078C1184.31 417.275 1170.61 405.6 1154.05 406.001C1137.5 406.402 1124.36 418.726 1124.71 433.529C1125.06 448.332 1138.76 460.007 1155.32 459.606Z" fill="#F2B42A"/>
<path d="M1124.72 433.507C1124.71 432.892 1124.72 432.292 1124.75 431.676C1126.14 445.597 1139.38 456.318 1155.26 455.933C1171.13 455.549 1183.86 444.213 1184.57 430.23C1184.63 430.83 1184.68 431.446 1184.69 432.046C1185.04 446.843 1171.9 459.179 1155.35 459.579C1138.77 459.994 1125.07 448.319 1124.72 433.507Z" fill="#FFD85A"/>
<path d="M1148.95 435.046L1155.1 429.277C1161.03 430.631 1172.06 433.184 1180.88 435.276C1178.69 441.952 1173.35 447.474 1166.36 450.397L1148.95 435.046Z" fill="#FFD85A"/>
<path d="M1158.63 452.443C1157.66 452.566 1156.65 452.643 1155.65 452.674C1148.41 452.843 1141.78 450.443 1136.86 446.398L1146.9 436.984L1158.63 452.443Z" fill="#FFD85A"/>
<path d="M1161.7 423.078L1173.29 412.219C1177.18 415.664 1180.67 419.464 1181.61 424.54L1161.7 423.078Z" fill="#FFD85A"/>
<path d="M1155.64 409.186C1139.08 409.586 1125.94 421.907 1126.29 436.72C1126.36 439.719 1126.99 442.58 1128.07 445.257C1126.02 441.734 1124.82 437.75 1124.72 433.52C1124.37 418.723 1137.51 406.387 1154.07 405.987C1167.27 405.664 1178.66 413.032 1182.9 423.522C1177.81 414.754 1167.45 408.894 1155.64 409.186Z" fill="#DD821F"/>
<path d="M1193.5 424.296C1193.57 427.172 1193.84 429.249 1193.17 431.941C1192.3 429.11 1190.44 420.635 1190.44 420.635L1187.46 413.898L1184.98 411.837L1180.79 408.745L1180.44 399.039C1188.25 405.223 1193.26 414.19 1193.5 424.296Z" fill="#DD821F"/>
<path d="M1117.84 423.297L1117.68 421.312C1117.68 421.02 1117.45 420.805 1117.19 420.805H1117.04C1116.78 420.805 1116.57 421.051 1116.57 421.328L1116.73 423.312C1116.73 423.604 1116.96 423.82 1117.22 423.82H1117.37C1117.63 423.82 1117.84 423.589 1117.84 423.297Z" fill="#DD821F"/>
<path d="M1121.28 415.681L1121.08 412.113C1121.06 411.79 1120.82 411.528 1120.52 411.544L1120.17 411.559C1119.86 411.559 1119.64 411.836 1119.64 412.159L1119.83 415.727C1119.85 416.05 1120.09 416.312 1120.39 416.297L1120.74 416.281C1121.05 416.281 1121.28 416.004 1121.28 415.681Z" fill="#DD821F"/>
<path d="M1126.03 409.041L1125.83 405.58C1125.82 405.211 1125.54 404.919 1125.19 404.934L1124.6 404.95C1124.27 404.965 1123.99 405.257 1123.99 405.626L1124.19 409.087C1124.21 409.456 1124.48 409.749 1124.83 409.733L1125.42 409.718C1125.77 409.703 1126.05 409.41 1126.03 409.041Z" fill="#DD821F"/>
<path d="M1133.17 403.67L1132.96 399.471C1132.94 399.102 1132.67 398.809 1132.32 398.825L1131.73 398.84C1131.39 398.856 1131.12 399.148 1131.12 399.517L1131.33 403.716C1131.35 404.085 1131.62 404.378 1131.97 404.362L1132.56 404.347C1132.91 404.332 1133.17 404.039 1133.17 403.67Z" fill="#DD821F"/>
<path d="M1140.34 400.148L1140.11 395.303C1140.1 394.934 1139.82 394.641 1139.47 394.657L1138.88 394.672C1138.55 394.688 1138.27 394.98 1138.27 395.349L1138.5 400.194C1138.52 400.563 1138.79 400.856 1139.14 400.84L1139.73 400.825C1140.08 400.81 1140.34 400.517 1140.34 400.148Z" fill="#DD821F"/>
<path d="M1147.54 397.995L1147.31 393.35C1147.3 392.981 1147.02 392.688 1146.67 392.704L1146.08 392.719C1145.75 392.734 1145.47 393.027 1145.47 393.396L1145.7 398.041C1145.72 398.41 1145.99 398.702 1146.34 398.687L1146.93 398.672C1147.28 398.672 1147.55 398.364 1147.54 397.995Z" fill="#DD821F"/>
<path d="M1154.79 397.256L1154.56 392.533C1154.54 392.164 1154.27 391.872 1153.92 391.887L1153.33 391.903C1152.99 391.918 1152.72 392.21 1152.72 392.579L1152.95 397.302C1152.96 397.671 1153.24 397.963 1153.59 397.948L1154.18 397.932C1154.51 397.932 1154.79 397.625 1154.79 397.256Z" fill="#DD821F"/>
<path d="M1162.03 397.405L1161.8 392.975C1161.79 392.606 1161.51 392.313 1161.17 392.329L1160.57 392.344C1160.24 392.359 1159.96 392.652 1159.96 393.021L1160.19 397.451C1160.21 397.82 1160.48 398.112 1160.83 398.097L1161.42 398.082C1161.77 398.082 1162.05 397.774 1162.03 397.405Z" fill="#DD821F"/>
<path d="M1169.34 399.024L1169.12 394.733C1169.11 394.363 1168.84 394.071 1168.49 394.087L1167.89 394.102C1167.56 394.117 1167.29 394.41 1167.29 394.779L1167.5 399.07C1167.51 399.439 1167.79 399.732 1168.14 399.716L1168.73 399.701C1169.06 399.701 1169.34 399.393 1169.34 399.024Z" fill="#DD821F"/>
<path d="M1176.67 402.62L1176.45 397.975C1176.43 397.606 1176.16 397.313 1175.81 397.329L1175.22 397.344C1174.88 397.359 1174.61 397.652 1174.61 398.021L1174.84 402.666C1174.85 403.035 1175.12 403.328 1175.47 403.312L1176.07 403.297C1176.42 403.297 1176.67 402.989 1176.67 402.62Z" fill="#DD821F"/>
<defs>
<radialGradient id="paint0_radial" cx="0" cy="0" r="1" gradientUnits="userSpaceOnUse" gradientTransform="translate(1531.48 -0.335464) rotate(180) scale(1097.62 1111.72)">
<stop stop-color="#FF2C9C"/>
<stop offset="0.0301" stop-color="#F62F9F"/>
<stop offset="0.2023" stop-color="#C63EB0"/>
<stop offset="0.3737" stop-color="#9E4BBE"/>
<stop offset="0.5413" stop-color="#7F54C9"/>
<stop offset="0.7039" stop-color="#695BD1"/>
<stop offset="0.8594" stop-color="#5C60D5"/>
<stop offset="1" stop-color="#5761D7"/>
</radialGradient>
<linearGradient id="paint1_linear" x1="1035.52" y1="465.473" x2="873.781" y2="468.557" gradientUnits="userSpaceOnUse">
<stop stop-color="#5761D7"/>
<stop offset="0.0398" stop-color="#5C66D9"/>
<stop offset="0.0867" stop-color="#6A73DF"/>
<stop offset="0.1372" stop-color="#8289E8"/>
<stop offset="0.1899" stop-color="#A3A7F5"/>
<stop offset="0.2237" stop-color="#BCBEFF"/>
</linearGradient>
<linearGradient id="paint2_linear" x1="987.49" y1="380.729" x2="924.271" y2="477.764" gradientUnits="userSpaceOnUse">
<stop stop-color="#C0BFF6"/>
<stop offset="0.2938" stop-color="#C5C4F7"/>
<stop offset="0.6399" stop-color="#D3D2F9"/>
<stop offset="1" stop-color="#E9E9FD"/>
</linearGradient>
<linearGradient id="paint3_linear" x1="1135.46" y1="204.558" x2="963.586" y2="493.747" gradientUnits="userSpaceOnUse">
<stop stop-color="#C0BFF6"/>
<stop offset="0.1172" stop-color="#D0CFF9"/>
<stop offset="0.2627" stop-color="#E9E9FD"/>
<stop offset="0.5143" stop-color="#C0BFF6"/>
<stop offset="0.6217" stop-color="#D0CFF9"/>
<stop offset="0.755" stop-color="#E9E9FD"/>
<stop offset="1" stop-color="#C0BFF6"/>
</linearGradient>
</defs>
</svg>
