<svg width="204" height="86" viewBox="0 0 204 86" fill="none" xmlns="http://www.w3.org/2000/svg">
<g clip-path="url(#clip0)">
<path d="M143.788 17.8984L139.444 34.7149L109.66 38.5505L143.788 17.8984Z" fill="#BABABA"/>
<path d="M151.851 85.7313L159.252 55.1883L149.652 51.2461L151.851 85.7313Z" fill="#5B5B5B"/>
<path d="M139.445 34.6992L131.632 50.681L109.75 38.6059L139.445 34.6992Z" fill="#D5D6D7"/>
<path d="M151.851 85.7318L149.652 51.2465L131.542 50.625L151.851 85.7318Z" fill="#BCBABA"/>
<path d="M139.444 34.6992L149.742 51.2315L131.632 50.6278L139.444 34.6992Z" fill="#5B5B5B"/>
<path d="M143.789 17.8984L168.442 20.9705L139.444 34.7149L143.789 17.8984Z" fill="#ACA9A9"/>
<path d="M195.401 10.2461L179.901 28.1457L180.991 11.5957L195.401 10.2461Z" fill="#ACA9A9"/>
<path d="M204 0L195.401 10.2461L202.123 11.063L204 0Z" fill="#ACA9A9"/>
<path d="M187.052 19.5315L202.123 11.0434L195.401 10.2266L187.052 19.5315Z" fill="#AFAFAF"/>
<path d="M159.252 55.1901L159.985 34.6445L149.652 51.2479L159.252 55.1901Z" fill="#BCBABA"/>
<path d="M159.986 34.6445L149.652 51.2479L139.444 34.7156L159.986 34.6445Z" fill="#5B5B5B"/>
<path d="M168.442 20.9688L159.986 34.6421L139.444 34.7131L168.442 20.9688Z" fill="#BABABA"/>
<path d="M159.986 34.6445L159.253 55.1901L178.167 74.4038L159.986 34.6445Z" fill="#D2D2D2"/>
<path d="M188.053 63.6606L178.06 39.0664L178.167 74.4217L188.053 63.6606Z" fill="#5B5B5B"/>
<path d="M179.901 28.1445L178.06 39.0655L159.986 34.6438L179.901 28.1445Z" fill="#5B5B5B"/>
<path d="M189.054 42.9522L178.06 39.0633L179.847 28.1602L189.054 42.9522Z" fill="#D2D2D2"/>
<path d="M193.077 62.9857L181.099 43.9141H187.946L193.077 62.9857Z" fill="#ACA9A9"/>
<path d="M170.694 16.9033L179.901 28.1438L180.992 11.5938L170.694 16.9033Z" fill="#BABABA"/>
<path d="M178.06 39.0662L159.986 34.6445L178.167 74.4038L178.06 39.0662Z" fill="#5B5B5B"/>
<path d="M188.053 63.6602L192.04 65.8798L178.203 74.4034L188.053 63.6602Z" fill="#BCBABA"/>
<path d="M193.077 62.755L178.06 39.0664L188.053 63.6784L193.077 62.755Z" fill="#BABABA"/>
<path d="M170.694 16.9023L159.968 34.6599L179.883 28.1606L170.694 16.9023Z" fill="#ACA9A9"/>
<path d="M28.0497 69.1312L30.9458 70.6051L33.8599 69.1312V85.7346H28.0497V69.1312ZM27.6027 63.5198C27.6623 62.6967 28.0473 61.9304 28.6736 61.3881C29.2999 60.8458 30.1167 60.5717 30.9458 60.6254C31.3668 60.5597 31.797 60.5853 32.207 60.7006C32.617 60.8158 32.997 61.0179 33.3208 61.293C33.6447 61.5681 33.9047 61.9096 34.0829 62.294C34.2612 62.6784 34.3535 63.0966 34.3535 63.5198C34.3535 63.9431 34.2612 64.3613 34.0829 64.7457C33.9047 65.1301 33.6447 65.4716 33.3208 65.7467C32.997 66.0217 32.617 66.2239 32.207 66.3391C31.797 66.4544 31.3668 66.48 30.9458 66.4143C30.5385 66.4459 30.1289 66.3974 29.7404 66.2717C29.3519 66.1459 28.9922 65.9454 28.6817 65.6816C28.3713 65.4178 28.1162 65.0958 27.9311 64.734C27.7459 64.3722 27.6344 63.9777 27.6027 63.5731V63.5198Z" fill="#A4A4A4"/>
<path d="M14.4093 60.375V70.0884H6.32863V60.375H0V85.7329H6.32863V75.9839H14.4093V85.7329H20.7379V60.375H14.4093Z" fill="#A4A4A4"/>
<path d="M47.2146 85.7341H41.3687V73.1262H39.0982V67.6747H41.3687V61.6016H47.2146V67.6747H49.4851V73.1262H47.2146V85.7341Z" fill="#A4A4A4"/>
<path d="M61.7488 79.9084H66.9154C68.9356 79.9084 69.5613 78.6831 69.5613 77.6354C69.5613 76.5877 68.8998 75.3979 66.9154 75.3979H61.7488V79.9084ZM61.7488 70.1239H66.4685C66.7268 70.1616 66.99 70.1483 67.2431 70.0848C67.4962 70.0212 67.7342 69.9087 67.9435 69.7536C68.1527 69.5986 68.3291 69.404 68.4626 69.1811C68.596 68.9582 68.6838 68.7114 68.721 68.4547C68.7299 68.3602 68.7299 68.2651 68.721 68.1706C68.721 67.4958 68.3456 66.2173 66.4506 66.2173H61.7488V70.1239ZM65.7712 60.375C73.4764 60.375 74.71 64.9209 74.71 67.2294C74.771 68.3352 74.4971 69.4337 73.9235 70.3833C73.3499 71.3328 72.503 72.0899 71.492 72.5567C72.7105 72.92 73.7686 73.6837 74.493 74.7226C75.2173 75.7614 75.5648 77.0139 75.4787 78.2747C75.4787 82.2524 73.1725 85.6796 65.5388 85.6796H55.4202V60.375H65.7712Z" fill="#5B5B5B"/>
<path d="M91.801 85.7329H85.4724V66.1995H78.8041V60.375H98.4693V66.1462H91.801V85.7329Z" fill="#5B5B5B"/>
<path d="M124.821 64.388L120.727 68.0639C119.143 66.6804 117.097 65.9332 114.988 65.9685C114.099 65.9473 113.215 66.1005 112.385 66.4195C111.556 66.7384 110.798 67.2168 110.156 67.8272C109.513 68.4375 108.998 69.1679 108.64 69.9764C108.282 70.785 108.088 71.6557 108.069 72.5388C108.052 72.7159 108.052 72.8944 108.069 73.0715C108.016 73.9519 108.138 74.8341 108.428 75.6676C108.719 76.5012 109.171 77.2698 109.761 77.9294C110.35 78.5891 111.065 79.1269 111.863 79.5121C112.662 79.8974 113.53 80.1224 114.416 80.1745H114.988C117.091 80.2296 119.138 79.5011 120.727 78.1324L124.821 81.8082C123.555 83.1339 122.03 84.1892 120.339 84.9098C118.648 85.6303 116.828 86.0009 114.988 85.999C111.546 85.999 108.245 84.6407 105.81 82.223C103.376 79.8053 102.009 76.5262 102.009 73.107C102.009 69.6878 103.376 66.4087 105.81 63.991C108.245 61.5733 111.546 60.215 114.988 60.215C116.827 60.2055 118.649 60.571 120.34 61.2888C122.031 62.0066 123.556 63.0614 124.821 64.388Z" fill="#5B5B5B"/>
</g>
<defs>
<clipPath id="clip0">
<rect width="204" height="86" fill="white"/>
</clipPath>
</defs>
</svg>
