<svg width="175" height="61" viewBox="0 0 175 61" fill="none" xmlns="http://www.w3.org/2000/svg">
<path d="M97.818 30.4438C97.818 32.4867 97.4985 34.4145 96.8303 36.1985C96.1621 38.0112 95.2324 39.565 93.9832 40.9174C92.7339 42.2697 91.2232 43.3344 89.393 44.14C87.5627 44.9457 85.5 45.3197 83.1758 45.3197C80.8517 45.3197 78.789 44.9169 76.9587 44.14C75.1284 43.3344 73.6177 42.2697 72.3685 40.9174C71.1193 39.565 70.1605 37.9825 69.5214 36.1985C68.8823 34.3858 68.5627 32.4867 68.5627 30.4438C68.5627 28.4296 68.8823 26.5018 69.5214 24.6891C70.1605 22.8763 71.1193 21.2938 72.3685 19.9414C73.6177 18.5891 75.1575 17.5244 76.9587 16.7188C78.789 15.9131 80.8517 15.5391 83.1758 15.5391C85.5 15.5391 87.5627 15.9419 89.393 16.7188C91.2232 17.5244 92.7339 18.5891 93.9832 19.9414C95.2324 21.2938 96.1621 22.8763 96.8303 24.6891C97.4985 26.5018 97.818 28.4296 97.818 30.4438ZM83.2049 40.6009C84.6284 40.6009 85.8777 40.3419 86.9235 39.824C87.9985 39.306 88.87 38.5867 89.5963 37.6947C90.3226 36.774 90.8456 35.7094 91.1942 34.4721C91.5428 33.2348 91.7171 31.8825 91.7171 30.4438C91.7171 29.0051 91.5428 27.6527 91.1942 26.4155C90.8456 25.1782 90.3226 24.1136 89.5963 23.1928C88.87 22.2721 87.9985 21.5815 86.9235 21.0636C85.8486 20.5457 84.6284 20.2867 83.2049 20.2867C81.7813 20.2867 80.5321 20.5457 79.4862 21.0636C78.4113 21.5815 77.5397 22.3009 76.8134 23.1928C76.0871 24.1136 75.5642 25.1782 75.2156 26.4155C74.867 27.6527 74.6927 29.0051 74.6927 30.4438C74.6927 31.8825 74.867 33.2348 75.2156 34.4721C75.5642 35.7094 76.0871 36.774 76.8134 37.6947C77.5397 38.6155 78.4113 39.306 79.4862 39.824C80.5321 40.3419 81.7813 40.6009 83.2049 40.6009ZM101.653 44.8306V16.057H107.754V29.8683L117.835 16.057H124.894L114.203 30.2711L125.621 44.8306H118.067L107.725 30.7027V44.8306H101.653ZM128.061 16.057H145.521V20.8622H134.191V27.8254H144.998V32.6018H134.191V40.0254H145.667V44.8306H128.09V16.057H128.061ZM167.281 16.057H173.905L164.347 30.3575L174.079 44.8306H167.398L161.122 35.0188L154.847 44.8306H148.165L157.898 30.3575L148.339 16.057H154.963L161.122 25.7825L167.281 16.057Z" fill="#5B5B5B"/>
<path d="M30.7951 27.6227C38.4967 27.6227 44.7401 21.4391 44.7401 13.8113C44.7401 6.18354 38.4967 0 30.7951 0C23.0935 0 16.8502 6.18354 16.8502 13.8113C16.8502 21.4391 23.0935 27.6227 30.7951 27.6227Z" fill="#BCBABA"/>
<path d="M30.7951 61.0016C38.4967 61.0016 44.7401 54.818 44.7401 47.1902C44.7401 39.5625 38.4967 33.3789 30.7951 33.3789C23.0935 33.3789 16.8502 39.5625 16.8502 47.1902C16.8502 54.818 23.0935 61.0016 30.7951 61.0016Z" fill="#A4A4A4"/>
<path d="M47.6453 44.3101C55.3469 44.3101 61.5902 38.1266 61.5902 30.4988C61.5902 22.871 55.3469 16.6875 47.6453 16.6875C39.9437 16.6875 33.7003 22.871 33.7003 30.4988C33.7003 38.1266 39.9437 44.3101 47.6453 44.3101Z" fill="#CECCCC"/>
<path d="M13.945 44.3101C21.6465 44.3101 27.8899 38.1266 27.8899 30.4988C27.8899 22.871 21.6465 16.6875 13.945 16.6875C6.24337 16.6875 0 22.871 0 30.4988C0 38.1266 6.24337 44.3101 13.945 44.3101Z" fill="#5B5B5B"/>
<path fill-rule="evenodd" clip-rule="evenodd" d="M27.4978 27.2354C22.4448 26.0221 18.4674 22.0827 17.2423 17.0781C22.2953 18.2914 26.2728 22.2308 27.4978 27.2354Z" fill="#979797"/>
<path fill-rule="evenodd" clip-rule="evenodd" d="M17.2423 43.9229C18.4674 38.9183 22.4448 34.9789 27.4978 33.7656C26.2728 38.7702 22.2953 42.7096 17.2423 43.9229Z" fill="#979797"/>
<path fill-rule="evenodd" clip-rule="evenodd" d="M34.0925 33.7656C39.1455 34.9789 43.123 38.9183 44.348 43.9229C39.295 42.7096 35.3175 38.7702 34.0925 33.7656Z" fill="#BCBABA"/>
<path fill-rule="evenodd" clip-rule="evenodd" d="M44.348 17.0781C43.123 22.0827 39.1455 26.0221 34.0925 27.2354C35.3175 22.2308 39.295 18.2914 44.348 17.0781Z" fill="#5B5B5B"/>
</svg>
