<svg width="170" height="39" viewBox="0 0 170 39" fill="none" xmlns="http://www.w3.org/2000/svg">
<path d="M0 38.6609H146.446V34.8359H0V38.6609Z" fill="#A4A4A4"/>
<path d="M156.596 38.657H169.171V34.832H156.596V38.657Z" fill="#A4A4A4"/>
<path d="M28.5339 29.0402H33.7782V9.35298H28.5339V29.0402ZM28.0264 3.67183C28.0264 2.77184 28.3083 2.0406 28.9286 1.42186C29.4925 0.85937 30.282 0.578125 31.1842 0.578125C32.1428 0.578125 32.8759 0.85937 33.4398 1.42186C34.0037 1.98435 34.3421 2.71559 34.3421 3.67183C34.3421 4.57181 34.0601 5.30305 33.4398 5.92179C32.8759 6.48428 32.0865 6.76553 31.1842 6.76553C30.282 6.76553 29.5489 6.48428 28.9286 5.92179C28.3083 5.3593 28.0264 4.57181 28.0264 3.67183Z" fill="#333433"/>
<path d="M45.8455 9.29444H51.2026V13.2319H45.8455V22.6817C45.8455 23.5255 46.0711 24.2005 46.5786 24.7067C47.0861 25.2129 47.7064 25.4942 48.5522 25.4942C49.2853 25.4942 50.1312 25.3817 51.0334 25.1567L51.7101 29.0379C50.1876 29.4316 48.7214 29.6566 47.3116 29.6566C46.353 29.6566 45.4508 29.4879 44.6613 29.2066C43.8718 28.9254 43.1951 28.4754 42.5749 27.9129C42.011 27.3504 41.5598 26.6754 41.2215 25.8879C40.8831 25.1004 40.7704 24.2567 40.7704 23.3005V13.3444H37.1614V9.40694H40.7704V3.61328H45.7891V9.29444H45.8455Z" fill="#333433"/>
<path d="M54.3038 14.753C54.3038 13.9093 54.473 13.0656 54.8677 12.3343C55.2624 11.6031 55.77 10.9843 56.3903 10.4218C57.0669 9.91561 57.8564 9.46561 58.7587 9.18437C59.6609 8.90312 60.7323 8.73438 61.8037 8.73438C62.9315 8.73438 64.1157 8.84687 65.2999 9.07187C66.4841 9.29687 67.7247 9.63436 68.9653 10.0844L67.8375 13.7968C66.8789 13.4031 65.9202 13.1218 64.9616 12.8968C64.003 12.6718 63.1007 12.5593 62.2548 12.5593C61.3526 12.5593 60.6195 12.7281 60.0556 13.1218C59.4917 13.5155 59.2662 14.0218 59.2662 14.6968C59.2662 15.3155 59.5481 15.7655 60.0556 16.0468C60.5631 16.328 61.1834 16.6093 61.9729 16.8342C62.7624 17.0592 63.5518 17.2842 64.4541 17.453C65.3563 17.678 66.2022 18.0155 66.9353 18.4655C67.7247 18.9155 68.345 19.5342 68.8525 20.2654C69.36 21.0529 69.642 22.0654 69.642 23.3029C69.642 24.2029 69.4728 24.9904 69.0781 25.7779C68.6834 26.5091 68.1758 27.1841 67.4992 27.7466C66.8225 28.3091 66.033 28.7028 65.018 29.0403C64.0593 29.3215 62.9879 29.4903 61.8601 29.4903C59.4353 29.4903 56.8414 28.9841 54.1346 27.9153L55.2061 24.2591C57.5181 25.2154 59.6045 25.6654 61.4654 25.6654C62.424 25.6654 63.2135 25.4404 63.7774 25.0466C64.3413 24.6529 64.6233 24.0904 64.6233 23.3591C64.6233 22.7404 64.3413 22.2904 63.8338 21.9529C63.3263 21.6154 62.706 21.3342 61.9165 21.1092C61.127 20.8842 60.3376 20.6592 59.4353 20.4342C58.5331 20.2092 57.7436 19.8717 56.9542 19.4217C56.1647 18.9717 55.5444 18.4092 55.0369 17.678C54.5294 17.003 54.3038 15.9905 54.3038 14.753Z" fill="#333433"/>
<path d="M80.1873 9.29444H85.5444V13.2319H80.1873V22.6817C80.1873 23.5255 80.4129 24.2005 80.9204 24.7067C81.4279 25.2129 82.0482 25.4942 82.894 25.4942C83.6271 25.4942 84.473 25.3817 85.3752 25.1567L86.0519 29.0379C84.5294 29.4316 83.0632 29.6566 81.6534 29.6566C80.6948 29.6566 79.7926 29.4879 79.0031 29.2066C78.2136 28.9254 77.5369 28.4754 76.9167 27.9129C76.2964 27.3504 75.9016 26.6754 75.5633 25.8879C75.2249 25.1004 75.1122 24.2567 75.1122 23.3005V13.3444H71.5032V9.40694H75.1122V3.61328H80.1309V9.29444H80.1873Z" fill="#333433"/>
<path d="M93.8333 23.0224C93.8333 23.8099 94.1717 24.4849 94.792 25.0474C95.4687 25.6099 96.2581 25.8911 97.2167 25.8911C98.5701 25.8911 99.6415 25.4411 100.487 24.5974C101.333 23.7537 101.728 22.6287 101.728 21.2787V20.0975C100.769 19.8162 99.6979 19.7037 98.5137 19.7037C97.0476 19.7037 95.9198 19.985 95.0739 20.6037C94.2845 21.1662 93.8333 22.0099 93.8333 23.0224ZM88.9274 23.3037C88.9274 21.2225 89.7168 19.5912 91.2958 18.4663C92.8747 17.3413 95.0739 16.7788 97.9498 16.7788C98.5701 16.7788 99.1904 16.835 99.8107 16.8913C100.431 16.9475 101.108 17.06 101.728 17.1725V16.1038C101.728 15.0913 101.39 14.2476 100.657 13.6288C99.9235 13.0101 98.9649 12.6726 97.7243 12.6726C95.7506 12.6726 93.6078 13.1226 91.2958 14.0788L89.9988 10.4789C92.8183 9.3539 95.5814 8.84766 98.2882 8.84766C99.5288 8.84766 100.6 9.0164 101.615 9.41015C102.63 9.74764 103.476 10.2539 104.209 10.9289C104.942 11.5476 105.506 12.3351 105.901 13.2351C106.296 14.1351 106.521 15.1476 106.521 16.2163V24.2599C106.521 24.7099 106.634 25.0474 106.859 25.2724C107.085 25.5536 107.423 25.6661 107.875 25.6661C108.1 25.6661 108.269 25.6661 108.495 25.6099C108.664 25.6099 108.833 25.5536 108.89 25.5536L109.228 29.3223C108.777 29.3786 108.382 29.4911 107.931 29.5473C107.48 29.6036 107.029 29.6036 106.521 29.6036C105.506 29.6036 104.66 29.3786 103.927 28.8723C103.194 28.4223 102.687 27.7474 102.348 26.9036C101.502 27.7474 100.487 28.4223 99.416 28.8723C98.2882 29.3223 97.1604 29.5473 95.9198 29.5473C94.9047 29.5473 93.9461 29.3786 93.1003 29.0973C92.2544 28.8161 91.5213 28.3661 90.901 27.8036C90.2807 27.2411 89.8296 26.6224 89.4913 25.8349C89.0965 25.0474 88.9274 24.2037 88.9274 23.3037Z" fill="#333433"/>
<path d="M112.161 9.24062H116.221L116.841 11.9406C117.63 10.9281 118.533 10.1406 119.661 9.57811C120.788 9.01562 121.973 8.73438 123.27 8.73438C124.736 8.73438 125.976 9.07187 127.104 9.69061C128.175 10.3094 129.021 11.2093 129.585 12.3343C130.487 11.1531 131.559 10.2531 132.743 9.63436C133.927 9.01562 135.224 8.73438 136.69 8.73438C137.762 8.73438 138.72 8.90312 139.623 9.24062C140.525 9.57811 141.314 10.0844 141.935 10.7593C142.611 11.3781 143.119 12.1656 143.457 13.0656C143.796 13.9655 144.021 14.9218 144.021 15.9905V29.0403H138.89V16.8342C138.89 15.7093 138.551 14.8093 137.818 14.078C137.085 13.4031 136.183 13.0093 135.055 13.0093C133.758 13.0093 132.687 13.4593 131.841 14.3593C130.995 15.2593 130.6 16.3843 130.6 17.8467V29.0403H125.469V16.8342C125.469 15.7093 125.13 14.8093 124.454 14.078C123.777 13.4031 122.875 13.0093 121.747 13.0093C120.394 13.0093 119.322 13.4593 118.476 14.3593C117.631 15.2593 117.236 16.3843 117.236 17.8467V29.0403H112.104V9.24062H112.161Z" fill="#333433"/>
<path d="M163.532 19.0842C163.532 18.1842 163.419 17.3405 163.137 16.553C162.911 15.7655 162.517 15.0905 162.065 14.5843C161.614 14.0218 161.107 13.628 160.487 13.2906C159.866 12.9531 159.19 12.8406 158.456 12.8406C157.103 12.8406 156.032 13.2906 155.129 14.2468C154.284 15.1468 153.832 16.328 153.832 17.7905V20.4342C153.832 21.1654 153.945 21.8404 154.171 22.4029C154.396 23.0216 154.735 23.5279 155.129 23.9779C155.524 24.4279 156.032 24.7654 156.596 24.9904C157.159 25.2154 157.78 25.3279 158.456 25.3279C159.19 25.3279 159.866 25.1591 160.487 24.8779C161.107 24.5966 161.614 24.1466 162.065 23.5841C162.517 23.0216 162.855 22.3467 163.137 21.6154C163.419 20.8842 163.532 19.9842 163.532 19.0842ZM148.87 9.24062H152.93L153.551 11.7718C154.284 10.8156 155.129 10.0844 156.201 9.52186C157.272 9.01562 158.456 8.73438 159.753 8.73438C161.05 8.73438 162.235 9.01562 163.362 9.52186C164.434 10.0281 165.392 10.7593 166.182 11.6593C166.971 12.5593 167.592 13.628 168.043 14.9218C168.494 16.1593 168.72 17.5655 168.72 19.0842C168.72 20.6029 168.494 22.0092 168.043 23.2466C167.592 24.4841 166.971 25.6091 166.182 26.5091C165.392 27.4091 164.434 28.1403 163.362 28.6466C162.291 29.1528 161.05 29.434 159.753 29.434C158.569 29.434 157.441 29.209 156.483 28.7591C155.468 28.3091 154.622 27.6341 153.945 26.7341V38.7152H148.87V9.24062Z" fill="#333433"/>
<path d="M17.2555 23.9723C16.466 24.7598 15.3946 25.0973 14.0412 25.0973H7.72548V16.9412H14.0412C15.3382 16.9412 16.4096 17.3349 17.2555 18.0662C18.0449 18.7974 18.4397 19.8099 18.4397 20.9911C18.496 22.2286 18.1013 23.2411 17.2555 23.9723ZM7.72548 5.91635H13.5337C14.7179 5.91635 15.6765 6.25384 16.466 6.98507C17.2555 7.66006 17.5938 8.6163 17.5938 9.74128C17.5938 10.8663 17.1991 11.7663 16.466 12.4412C15.6765 13.1162 14.7179 13.4537 13.5337 13.4537H7.72548V5.91635ZM22.4434 17.4474C21.5975 16.2662 20.4697 15.4224 19.0599 14.9162C20.1877 14.41 21.0336 13.6787 21.7103 12.6662C22.387 11.6538 22.7253 10.4725 22.7253 9.12254C22.7253 8.05381 22.4998 7.09758 22.105 6.25384C21.7103 5.35385 21.09 4.62261 20.3569 4.00387C19.6238 3.38513 18.7216 2.87889 17.7066 2.5414C16.6915 2.2039 15.5637 2.03516 14.3231 2.03516H0V5.6351C2.19922 5.6351 3.94732 7.43507 3.94732 9.62878C3.94732 11.8225 2.19922 13.6225 0 13.6225V16.8849C2.19922 16.8849 3.94732 18.6849 3.94732 20.8786V21.4973C3.94732 23.6911 2.19922 25.491 0 25.491V29.091H14.9434C16.2404 29.091 17.3682 28.9222 18.4397 28.5285C19.5111 28.191 20.4133 27.6847 21.2028 27.0098C21.9922 26.3348 22.6125 25.5473 23.0073 24.6473C23.4584 23.7473 23.6839 22.7348 23.6839 21.6098C23.6839 19.9786 23.2892 18.6286 22.4434 17.4474Z" fill="#333433"/>
</svg>
