<svg width="255" height="30" viewBox="0 0 255 30" fill="none" xmlns="http://www.w3.org/2000/svg">
<path d="M17.8726 24.6949H5.59047V18.1434H17.8726C20.9419 18.1434 22.5106 19.6149 22.5106 21.5206C22.5106 23.3578 20.976 24.6949 17.8726 24.6949ZM17.4734 14.6349H5.59047V9.11776H17.4734C20.7079 9.11776 21.9772 10.2606 21.9772 11.8263C21.9772 13.2635 20.5082 14.6349 17.4734 14.6349ZM20.611 16.3063C25.785 16.1377 27.6533 13.5635 27.6533 10.7578C27.6506 7.68062 25.2146 5.14062 19.2732 5.14062H0.285095V28.6064H19.8408C24.7126 28.6064 28.3522 26.5692 28.3522 22.1892C28.3522 19.0806 26.3157 16.4406 20.6081 16.3063H20.611ZM33.4779 5.14062V28.6064H38.7919V5.14062H33.4779ZM61.1457 9.58634H72.8403V5.14062H44.1714V9.58634H55.8517V28.6064H61.1571L61.1457 9.58634ZM78.2256 5.14062V28.6064H83.5309V19.4634H95.9815V15.6035H83.5309V9.18633H103.757V5.14062H78.2256ZM109.482 5.14062V28.6064H114.787V5.14062H109.482ZM125.517 10.8549L143.102 28.6035H149.109V5.14062H143.872V22.0549L126.984 5.14062H120.243V28.6064H125.517V10.8549ZM154.569 5.14062V28.6064H180.525V24.6635H159.874V18.2121H172.256V14.5692H159.874V9.18633H180.53V5.14062H154.569ZM217.207 5.14062H210.198L201.256 13.3978L192.377 5.14062H185.269L197.75 16.7063L184.801 28.6064H191.812L201.188 19.9492L210.532 28.6064H217.663L204.693 16.672L217.207 5.14062Z" fill="#A4A4A4"/>
<path d="M253.882 0.57059C253.776 0.524876 242.834 -0.966552 232.018 5.99916C225.305 10.3335 224.415 16.6734 224.722 20.902C240.453 19.1591 253.525 1.07631 253.882 0.57059ZM225.789 25.5992C227.141 27.982 237.361 33.3849 246.409 25.9335C255.457 18.4821 254.698 4.92487 253.882 0.57059C253.596 1.20202 243.719 22.8706 225.789 25.5963" fill="#A4A4A4"/>
<path d="M253.882 0.573233C253.776 0.530376 242.834 -0.96391 232.018 6.00181C225.305 10.3361 224.415 16.6761 224.722 20.9018C240.453 19.1618 253.525 1.07895 253.882 0.573233Z" fill="#5B5B5B"/>
</svg>
