<svg width="217" height="43" viewBox="0 0 217 43" fill="none" xmlns="http://www.w3.org/2000/svg">
<path d="M9.83543 21.5L4.94133 26.3285L0 21.5L4.93952 16.6285L9.83543 21.5ZM21.8 9.70008L30.2293 18.0134L35.1707 13.1437L21.8 0L8.42933 13.1867L13.3707 18.0564L21.8 9.70008ZM38.6605 16.6285L33.7646 21.5L38.7041 26.3715L43.6418 21.5L38.6605 16.6285ZM21.8 33.2999L13.3707 24.9436L8.42933 29.8151L21.8 43L35.1707 29.8133L30.2293 24.9436L21.8 33.2999ZM21.8 26.3303L26.7395 21.457L21.8 16.6302L16.8605 21.5L21.8 26.3285V26.3303ZM73.7458 26.832V26.7496C73.7458 23.5998 72.0417 22.0035 69.275 20.9535C70.9772 20.0308 72.4251 18.5169 72.4251 15.8724V15.79C72.4251 12.0938 69.4021 9.70008 64.548 9.70008H53.4354V33.2587H64.8041C70.2105 33.2999 73.7458 31.1159 73.7458 26.8338V26.832ZM67.1876 16.7557C67.1876 18.5187 65.7397 19.2318 63.398 19.2318H58.5457V14.2348H63.7396C65.9541 14.2348 67.1876 15.1163 67.1876 16.6715V16.7557ZM68.5083 26.1619C68.5083 27.9249 67.104 28.724 64.8023 28.724H58.5457V23.5568H64.6334C67.3166 23.5568 68.5083 24.5243 68.5083 26.1189V26.1619ZM84.7729 33.2999V9.70008H79.4937V33.2587H84.7729V33.2999ZM113.046 33.2999V9.70008H107.85V24.2305L96.6521 9.70008H91.798V33.2587H96.9937V18.309L108.575 33.2999H113.044H113.046ZM142.167 33.2999L131.908 9.57467H127.056L116.794 33.2999H122.202L124.373 28.0091H134.464L136.635 33.2999H142.171H142.167ZM132.588 23.4314H126.244L129.438 15.79L132.588 23.4314ZM167.248 33.2999V9.70008H162.052V24.2305L150.854 9.70008H146V33.2587H151.196V18.309L162.777 33.2999H167.246H167.248ZM194.369 29.4783L191.006 26.1619C189.131 27.8407 187.471 28.9318 184.704 28.9318C180.617 28.9318 177.764 25.5725 177.764 21.5412V21.4158C177.764 17.3845 180.658 14.0682 184.704 14.0682C187.088 14.0682 188.962 15.0751 190.835 16.7127L194.198 12.891C191.985 10.75 189.302 9.23783 184.79 9.23783C177.467 9.23783 172.314 14.7382 172.314 21.4158V21.5C172.314 28.26 177.55 33.635 184.577 33.635C189.175 33.678 191.9 32.0816 194.369 29.4783ZM216.808 33.2999V28.681H203.821V23.7253H215.104V19.1063H203.821V14.319H216.638V9.70008H198.627V33.2587H216.808V33.2999Z" fill="#5B5B5B"/>
</svg>
