<svg width="275" height="41" viewBox="0 0 275 41" fill="none" xmlns="http://www.w3.org/2000/svg">
<path fill-rule="evenodd" clip-rule="evenodd" d="M51.0494 10.6836V22.317H39.4476V12.1801C39.4476 11.3536 38.7697 10.6836 37.934 10.6836H34.018V38.4061C34.018 39.2329 34.6955 39.9029 35.5316 39.9029H39.4476V27.0088H51.0494V38.4061C51.0494 39.2329 51.7269 39.9029 52.5629 39.9029H56.4786V12.1801C56.4786 11.3536 55.8011 10.6836 54.965 10.6836H51.0494Z" fill="#A4A4A4"/>
<path fill-rule="evenodd" clip-rule="evenodd" d="M73.8235 17.5742V31.4206C73.8235 32.6786 73.1747 33.8714 72.0733 34.5007C68.9989 36.2576 65.8174 34.063 65.8174 31.1695V19.0707C65.8174 18.2442 65.14 17.5742 64.3039 17.5742H60.3724V31.6628C60.3724 36.1961 64.1225 39.9049 68.7063 39.9049H70.9346C75.5184 39.9049 79.2686 36.1961 79.2686 31.6628V19.0707C79.2686 18.2442 78.5911 17.5742 77.7554 17.5742H73.8235Z" fill="#A4A4A4"/>
<path fill-rule="evenodd" clip-rule="evenodd" d="M134.215 39.9016H138.131V20.2937C138.131 19.4669 137.453 18.7969 136.618 18.7969H132.702V38.4048C132.702 39.2316 133.379 39.9016 134.215 39.9016Z" fill="#5B5B5B"/>
<path fill-rule="evenodd" clip-rule="evenodd" d="M135.416 16.6729C137.09 16.6729 138.447 15.3311 138.447 13.6761C138.447 12.0211 137.09 10.6797 135.416 10.6797C133.743 10.6797 132.386 12.0211 132.386 13.6761C132.386 15.3311 133.743 16.6729 135.416 16.6729Z" fill="#5B5B5B"/>
<path fill-rule="evenodd" clip-rule="evenodd" d="M98.3751 30.6315C98.3751 33.2954 96.1716 35.0687 93.4779 35.0687C90.7842 35.0687 88.5804 33.2954 88.5804 30.6315V26.8301C88.5804 24.1661 90.7842 22.3928 93.4779 22.3928C96.1716 22.3928 98.3751 24.1661 98.3751 26.8301V30.6315ZM93.4779 17.5586C87.7827 17.5586 83.1233 21.5875 83.1233 27.2196V30.2659C83.1233 35.8979 87.7827 39.9029 93.4779 39.9029C99.1728 39.9029 103.833 35.8979 103.833 30.2659V27.2196C103.833 21.5875 99.1728 17.5586 93.4779 17.5586Z" fill="#A4A4A4"/>
<path fill-rule="evenodd" clip-rule="evenodd" d="M123.02 30.6333C123.02 33.2973 120.816 35.0705 118.122 35.0705C115.429 35.0705 113.225 33.2973 113.225 30.6333V26.8319C113.225 24.1679 115.429 22.3947 118.122 22.3947C120.816 22.3947 123.02 24.1679 123.02 26.8319V30.6333ZM118.122 17.5605C116.343 17.5605 114.664 17.9541 113.197 18.6671V12.157C113.197 11.3302 112.52 10.6602 111.684 10.6602H107.768V30.2677C107.768 35.9001 112.428 39.9048 118.122 39.9048C123.818 39.9048 128.477 35.9001 128.477 30.2677V27.2214C128.477 21.5894 123.818 17.5605 118.122 17.5605Z" fill="#5B5B5B"/>
<path fill-rule="evenodd" clip-rule="evenodd" d="M231.28 30.7249C231.28 33.3612 229.099 35.1164 226.433 35.1164C223.767 35.1164 221.586 33.3612 221.586 30.7249V26.9625C221.586 24.3262 223.767 22.571 226.433 22.571C229.099 22.571 231.28 24.3262 231.28 26.9625V30.7249ZM226.433 17.7867H226.433C224.671 17.7867 223.01 18.1759 221.558 18.8814V12.1608C221.558 11.3429 220.887 10.6797 220.06 10.6797H216.185V30.3631C216.185 35.9374 220.796 39.9007 226.433 39.9007H226.433C232.069 39.9007 236.681 35.9374 236.681 30.3631V27.3479C236.681 21.7739 232.069 17.7867 226.433 17.7867Z" fill="#A4A4A4"/>
<path fill-rule="evenodd" clip-rule="evenodd" d="M274.786 39.7998V36.4282C274.786 35.6301 274.132 34.984 273.325 34.9867C272.509 34.9895 271.485 34.9922 270.619 34.9922C268.412 34.9922 268.516 33.9016 268.516 31.074V12.145C268.516 11.3485 267.863 10.7031 267.058 10.7031H263.083V31.7204C263.083 36.8102 264.41 39.7998 269.965 39.7998C272.112 39.7998 273.669 39.7397 274.785 39.8001L274.786 39.7998Z" fill="#A4A4A4"/>
<path fill-rule="evenodd" clip-rule="evenodd" d="M170.728 22.4398H160.222V25.2708C160.222 26.1219 160.92 26.8117 161.78 26.8117H166.771V29.3148C166.771 31.1615 166.304 32.5244 165.341 33.4848C164.158 34.6929 162.52 35.3312 160.607 35.3312C158.883 35.3312 157.242 34.7408 156.218 33.7523C154.794 32.3723 154.487 30.8738 154.487 25.3111C154.487 19.7802 154.794 18.2885 156.217 16.9099C157.267 15.8962 159.316 15.1291 161.015 15.1291C166.758 15.1291 168.687 17.145 170.126 18.9804H170.314V14.876C170.314 14.2692 170.021 13.702 169.542 13.3231C167.136 11.4186 164.737 10.7227 160.607 10.7227C157.272 10.7227 154.419 11.7593 152.131 13.8035C148.97 16.626 148.97 19.8106 148.971 25.0867V25.5356C148.97 30.8116 148.97 33.9959 152.131 36.8184C154.388 38.8346 157.319 39.8999 160.607 39.8999C164.061 39.8999 167.101 38.7502 169.399 36.5755L169.4 36.5748C171.45 34.6273 172.287 30.8977 172.287 27.0198V23.9803C172.287 23.1296 171.589 22.4398 170.728 22.4398Z" fill="#A4A4A4"/>
<path fill-rule="evenodd" clip-rule="evenodd" d="M187.846 39.7998V36.4282C187.846 35.6301 187.193 34.984 186.386 34.9867C185.57 34.9895 184.545 34.9922 183.68 34.9922C181.474 34.9922 181.577 33.9016 181.577 31.074V12.145C181.577 11.3485 180.924 10.7031 180.119 10.7031H176.144V31.7204C176.144 36.8102 177.471 39.7998 183.026 39.7998C185.173 39.7998 186.73 39.7397 187.846 39.8001L187.846 39.7998Z" fill="#A4A4A4"/>
<path fill-rule="evenodd" clip-rule="evenodd" d="M206.862 30.7234C206.862 33.3597 204.68 35.1148 202.015 35.1148C199.349 35.1148 197.168 33.3597 197.168 30.7234V26.961C197.168 24.3247 199.349 22.5695 202.015 22.5695C204.68 22.5695 206.862 24.3247 206.862 26.961V30.7234ZM202.015 17.7852C196.378 17.7852 191.767 21.7724 191.767 27.3464V30.3616C191.767 35.9358 196.378 39.8992 202.015 39.8992C207.651 39.8992 212.263 35.9358 212.263 30.3616V27.3464C212.263 21.7724 207.651 17.7852 202.015 17.7852Z" fill="#A4A4A4"/>
<path fill-rule="evenodd" clip-rule="evenodd" d="M253.824 29.8876V35.4362C253.405 35.5165 252.942 35.5804 252.44 35.6259C251.211 35.7403 250.108 35.7612 248.83 35.646C248.329 35.6013 247.867 35.4748 247.455 35.2733C247.058 35.0775 246.733 34.7994 246.463 34.4222C246.206 34.0648 246.076 33.5369 246.076 32.8532C246.076 31.7882 246.46 31.0257 247.25 30.521C248.092 29.9836 249.366 29.7106 251.039 29.7106C251.49 29.7106 252.04 29.7362 252.689 29.7871C253.114 29.8206 253.493 29.8541 253.824 29.8876ZM256.73 19.6628C255.12 18.3908 252.765 17.7461 249.732 17.7461C248.604 17.7461 247.418 17.8274 246.207 17.9873C245.236 18.1154 243.862 18.2989 242.909 18.5162C242.522 18.6044 242.451 18.9047 242.451 19.2645V22.1328C242.451 22.6439 242.457 23.1089 243.004 22.977C244.025 22.731 246.005 22.2971 246.543 22.2093C247.394 22.0709 248.32 22.0012 249.296 22.0012C250.815 22.0012 251.974 22.2701 252.74 22.7987C253.459 23.2968 253.824 24.2449 253.824 25.6164V25.7824C253.553 25.7578 253.256 25.7343 252.932 25.7127C252.326 25.6724 251.549 25.6519 250.603 25.6519C249.31 25.6519 248.058 25.7968 246.882 26.0828C245.688 26.3739 244.615 26.8235 243.691 27.4204C242.752 28.0292 241.999 28.8017 241.452 29.7188C240.901 30.6423 240.621 31.724 240.621 32.9322C240.621 34.1594 240.861 35.2278 241.332 36.1069C241.807 36.9939 242.491 37.7336 243.362 38.3045C244.219 38.8683 245.272 39.2803 246.489 39.5311C247.673 39.7744 249.013 39.8977 250.472 39.8977C251.535 39.8977 259.19 39.7911 259.19 36.1882C259.19 32.0134 259.19 25.7732 259.19 25.7732C259.19 23.0095 258.362 20.9537 256.73 19.6628Z" fill="#A4A4A4"/>
<path fill-rule="evenodd" clip-rule="evenodd" d="M17.7177 12.6635C17.7177 6.84494 14.8516 1.84125 12.6717 0.211851C12.6627 0.206726 12.5048 0.118918 12.5183 0.351592L12.5152 0.358767C12.3342 11.5931 6.53083 14.638 3.34035 18.7397C-4.02246 28.2052 2.8249 38.5829 9.79766 40.501C13.6991 41.5742 8.89666 38.6021 8.27825 32.3243C7.53029 24.7366 17.7177 18.9447 17.7177 12.6635Z" fill="#A4A4A4"/>
<path fill-rule="evenodd" clip-rule="evenodd" d="M21.1071 16.5393C21.0626 16.5092 20.999 16.4887 20.9551 16.5605C20.8352 17.9746 19.3745 20.9998 17.5231 23.7775C11.2437 33.1996 14.8222 37.7418 16.8343 40.1813C18.0027 41.5975 16.8343 40.1813 19.7546 38.734C19.9833 38.6205 25.4525 35.5872 26.0447 28.676C26.6182 21.9834 22.5536 17.7649 21.1071 16.5393Z" fill="#5B5B5B"/>
</svg>
