<svg width="40" height="40" viewBox="0 0 40 40" fill="none" xmlns="http://www.w3.org/2000/svg">
<g clip-path="url(#clip0)">
<path d="M24.6667 33.2346H22.7667V29.4346H30.5667V35.3346C30.5667 36.4944 31.5069 37.4346 32.6667 37.4346H38C39.1598 37.4346 40.1 36.4944 40.1 35.3346V22.0013C40.1 20.8415 39.1598 19.9013 38 19.9013H37.4333V6.0013V6.00118C37.4311 4.10605 35.8953 2.5702 34.0001 2.56797H34L6 2.56797L5.99988 2.56797C4.10475 2.5702 2.5689 4.10605 2.56667 6.00118V6.0013V15.9013H2C0.840188 15.9013 -0.1 16.8415 -0.1 18.0013V35.3346C-0.1 36.4944 0.840188 37.4346 2 37.4346H27.3333C27.7567 37.4346 28.1 37.0914 28.1 36.668V36.6679C28.0978 34.7727 26.5619 33.2369 24.6668 33.2346H24.6667ZM16.1 35.3346V34.768H24.6665C25.4234 34.7689 26.1028 35.2172 26.4053 35.9013H16.0158C16.0697 35.7177 16.0981 35.5274 16.1 35.3356V35.3346ZM4.1 15.9013V6.0013C4.1 4.95195 4.95065 4.1013 6 4.1013H34C35.0494 4.1013 35.9 4.95195 35.9 6.0013V19.9013H32.6667C31.5069 19.9013 30.5667 20.8415 30.5667 22.0013V22.568H16.1L16.1 18.0013L16.1 18.0006C16.0978 17.6956 16.0284 17.3953 15.8973 17.1207L17.9775 15.0406C18.4053 14.6284 18.8607 14.1818 19.3111 13.7355C20.1507 12.9036 20.974 12.072 21.5714 11.4651C21.87 11.1616 22.1123 10.9142 22.2718 10.751L22.4459 10.5728L22.4692 10.5488L22.4754 10.5427L22.4754 10.5427L22.4766 10.5414L22.4844 10.5333L22.4864 10.5311C22.4929 10.523 22.4746 10.3867 22.3448 10.3903L22.3412 10.3937L22.3404 10.3945L22.3372 10.3977L22.327 10.4082L17.8373 14.8979C17.4693 15.2525 17.1219 15.5813 16.8161 15.862C16.4854 16.1656 16.2049 16.4115 15.9996 16.5731C15.8964 16.6543 15.8155 16.7117 15.7584 16.7445C15.7456 16.7518 15.735 16.7573 15.7265 16.7614C15.5785 16.6013 15.5523 16.4754 15.5385 16.4092L15.5379 16.4066C15.5377 16.4054 15.5374 16.404 15.5371 16.4025C15.534 16.3873 15.5286 16.3608 15.5189 16.3402C15.5129 16.3274 15.499 16.3022 15.4693 16.2857C15.4358 16.267 15.4023 16.27 15.3801 16.2768C15.3603 16.2828 15.3446 16.293 15.3348 16.2999C15.324 16.3076 15.3132 16.3167 15.3029 16.3258C15.2963 16.3316 15.2891 16.3382 15.2813 16.3454L14.8933 16.1015C14.8876 16.0969 14.8811 16.0928 14.8741 16.0895L14.8219 16.0566L14.8105 16.0685C14.5545 15.959 14.279 15.9021 14.0003 15.9013H14H4.1ZM14.9295 16.2001L14.9295 16.2L14.9295 16.2001ZM15.6992 16.7715C15.6993 16.7714 15.7003 16.7712 15.7021 16.771C15.7001 16.7715 15.6992 16.7716 15.6992 16.7715ZM22.4823 10.5355C22.483 10.5348 22.4828 10.535 22.4822 10.5355L22.4823 10.5355ZM14.5667 35.3346C14.5667 35.6476 14.3129 35.9013 14 35.9013H2C1.68706 35.9013 1.43333 35.6476 1.43333 35.3346V34.768H14.5667V35.3346ZM14.5667 33.2346H1.43333V18.0013C1.43333 17.6884 1.68706 17.4346 2 17.4346H14C14.3129 17.4346 14.5667 17.6884 14.5667 18.0013V33.2346ZM16.1 33.2346V29.4346H17.2333V33.2346H16.1ZM18.7667 33.2346V29.4346H21.2333V33.2346H18.7667ZM30.5667 27.9013H16.1V24.1013H30.5667V27.9013ZM38.5667 35.3346C38.5667 35.6476 38.3129 35.9013 38 35.9013H32.6667C32.3537 35.9013 32.1 35.6476 32.1 35.3346V34.768H38.5667V35.3346ZM38.5667 33.2346H32.1V22.0013C32.1 21.6884 32.3537 21.4346 32.6667 21.4346H38C38.3129 21.4346 38.5667 21.6884 38.5667 22.0013V33.2346Z" fill="#3355FF" stroke="#3355FF" stroke-width="0.2"/>
<path d="M20.0131 25.332H20.0065C19.6383 25.3339 19.3413 25.6339 19.3431 26.002C19.345 26.3702 19.645 26.6672 20.0131 26.6654C20.3813 26.6654 20.6798 26.3669 20.6798 25.9987C20.6798 25.6305 20.3813 25.332 20.0131 25.332Z" fill="#3355FF"/>
<path d="M21.3333 5.33203H18.6667C18.2985 5.33203 18 5.63053 18 5.9987C18 6.36686 18.2985 6.66536 18.6667 6.66536H21.3333C21.7015 6.66536 22 6.36686 22 5.9987C22 5.63053 21.7015 5.33203 21.3333 5.33203Z" fill="#3355FF"/>
</g>
<defs>
<clipPath id="clip0">
<rect width="40" height="40" fill="white"/>
</clipPath>
</defs>
</svg>
