<svg width="40" height="41" viewBox="0 0 40 41" fill="none" xmlns="http://www.w3.org/2000/svg">
<path d="M1.0321 33.337C0.898759 33.337 0.823757 33.3353 0.810423 33.3353C0.350408 33.322 -0.0112705 32.9387 0.000396575 32.4787C0.0137303 32.0188 0.383742 31.6888 0.857091 31.6688C1.13377 31.6655 29.4397 32.1688 35.8599 7.29631C35.9749 6.84969 36.4282 6.58472 36.8749 6.69804C37.3199 6.81303 37.5883 7.26798 37.4733 7.71293C31.0297 32.6821 3.77885 33.337 1.0321 33.337Z" fill="#3355FF"/>
<path d="M39.1683 12.666C38.88 12.666 38.6 12.5176 38.445 12.2493L36.3616 8.64082L32.7531 10.7242C32.3548 10.9526 31.8447 10.8176 31.6147 10.4192C31.3847 10.0209 31.5214 9.51085 31.9197 9.28084L36.2499 6.78076C36.6466 6.54909 37.1566 6.68576 37.3883 7.08577L39.8883 11.4159C40.1183 11.8143 39.9817 12.3243 39.5833 12.5543C39.4533 12.631 39.31 12.666 39.1683 12.666Z" fill="#3355FF"/>
<path d="M35.8348 39.9989C35.3748 39.9989 35.0015 39.6256 35.0015 39.1657V17.5012C35.0015 17.0413 35.3748 16.668 35.8348 16.668C36.2948 16.668 36.6682 17.0413 36.6682 17.5012V39.1657C36.6682 39.6256 36.2948 39.9989 35.8348 39.9989Z" fill="#3355FF"/>
<path d="M25.8346 40.0014C25.3746 40.0014 25.0012 39.6281 25.0012 39.1682V29.1692C25.0012 28.7092 25.3746 28.3359 25.8346 28.3359C26.2946 28.3359 26.6679 28.7092 26.6679 29.1692V39.1682C26.6679 39.6281 26.2946 40.0014 25.8346 40.0014Z" fill="#3355FF"/>
<path d="M15.8342 40.0028C15.3742 40.0028 15.0009 39.6295 15.0009 39.1695V34.1693C15.0009 33.7093 15.3742 33.3359 15.8342 33.3359C16.2942 33.3359 16.6676 33.7093 16.6676 34.1693V39.1695C16.6676 39.6295 16.2942 40.0028 15.8342 40.0028Z" fill="#3355FF"/>
<path d="M5.83385 40.0027C5.37383 40.0027 5.00049 39.6294 5.00049 39.1694V36.6693C5.00049 36.2093 5.37383 35.8359 5.83385 35.8359C6.29386 35.8359 6.66721 36.2093 6.66721 36.6693V39.1694C6.66721 39.6294 6.29386 40.0027 5.83385 40.0027Z" fill="#3355FF"/>
<path d="M12.0974 19.7319C11.884 19.7319 11.6707 19.6503 11.5073 19.4886L5.51382 13.4942C5.20048 13.1809 5.18714 12.676 5.48382 12.3477L10.394 6.89657C13.8824 2.86865 19.4159 0.0922656 24.1528 0.00394131C24.3494 -0.0227226 24.5978 0.0889326 24.7578 0.24725C24.9178 0.4089 25.0045 0.627211 25.0011 0.852188C24.9128 5.58837 22.136 11.1211 18.0942 14.6191L12.6541 19.5186C12.4974 19.6619 12.2974 19.7319 12.0974 19.7319ZM7.25221 12.876L12.129 17.7521L16.9925 13.3709C20.4526 10.3762 22.8961 5.80168 23.2827 1.7221C19.2026 2.10873 14.6291 4.55181 11.644 7.99979L7.25221 12.876Z" fill="#3355FF"/>
<path d="M14.3408 23.6876C14.2658 23.6876 14.1891 23.6777 14.1141 23.656C13.8241 23.5727 13.6008 23.3427 13.5291 23.0477L12.3508 18.1315C12.2441 17.6849 12.5208 17.235 12.9674 17.1267C13.4191 17.0217 13.8658 17.2966 13.9725 17.7433L14.7542 21.0079C16.2025 18.7432 16.4909 15.8451 16.5209 14.1503C16.5292 13.6903 16.9259 13.3304 17.3692 13.332C17.8293 13.3387 18.1959 13.7203 18.1876 14.1786C18.1176 18.1215 16.9609 21.4112 14.9292 23.4427C14.7708 23.601 14.5575 23.6876 14.3408 23.6876Z" fill="#3355FF"/>
<path d="M7.06898 12.6779C7.00398 12.6779 6.93898 12.6713 6.87397 12.6546L1.95715 11.4762C1.66381 11.4062 1.43046 11.1845 1.34879 10.8929C1.26713 10.6029 1.34879 10.2912 1.56047 10.0778C3.5922 8.0461 6.88231 6.8894 10.8274 6.8194C11.2891 6.77773 11.6675 7.17774 11.6741 7.63776C11.6808 8.09777 11.3175 8.47778 10.8558 8.48612C9.15905 8.51612 6.26229 8.80446 3.99721 10.2528L7.26232 11.0345C7.709 11.1412 7.98568 11.5912 7.87901 12.0396C7.78567 12.4212 7.44566 12.6779 7.06898 12.6779Z" fill="#3355FF"/>
<path d="M0.833719 25.0055C0.615379 25.0055 0.403706 24.9189 0.2437 24.7622C0.0270267 24.5456 -0.0529759 24.2273 0.0353603 23.934C0.310369 23.0141 1.74042 18.3712 2.86045 17.2513C4.20883 15.9014 6.4039 15.8998 7.75728 17.2513C9.10732 18.6012 9.10732 20.7976 7.75728 22.1475C6.63891 23.2674 1.99376 24.6955 1.07373 24.9705C0.993725 24.9938 0.913722 25.0055 0.833719 25.0055ZM5.30886 17.9046C4.84885 17.9046 4.38883 18.0796 4.03882 18.4295C3.56547 18.9028 2.75211 20.9893 2.11543 22.8907C4.01716 22.2541 6.10556 21.4409 6.57724 20.9693C7.27726 20.2693 7.27726 19.1294 6.57724 18.4312C6.22723 18.0796 5.76721 17.9046 5.30886 17.9046Z" fill="#3355FF"/>
</svg>
