<svg width="40" height="40" viewBox="0 0 40 40" fill="none" xmlns="http://www.w3.org/2000/svg">
<path d="M39.9822 1.94C39.9498 0.858931 39.0642 -0.0004866 37.9831 2.06707e-07H1.99911C0.895033 2.06707e-07 0 0.895431 0 2V38C0 39.1046 0.895033 40 1.99911 40H37.9831C39.0872 40 39.9822 39.1046 39.9822 38C39.9822 -6.38 40.0222 3.33333 39.9822 1.94ZM38.6495 1.94L35.5442 12.46L31.3194 10.8733V1.33333L37.9831 1.33333C38.3313 1.33222 38.6216 1.59945 38.6495 1.94667V1.94ZM29.9867 11.2133L25.0755 24.72L20.6575 19.7467V1.33333H29.9867V11.2133ZM19.3247 18.1C15.3265 13.1267 15.2332 12.9733 15.1466 12.88C15.021 12.7445 14.8448 12.6673 14.6601 12.6667C14.4869 12.6667 15.4131 12.6667 11.9947 12.6667C11.6266 12.6667 11.3283 12.9651 11.3283 13.3333C11.3283 13.7015 11.6266 14 11.9947 14H13.5473L9.99556 20.6667V1.33333H19.3247V18.1ZM9.99556 23.5L14.7734 14.54L19.3247 20.2333V38.6667H9.99556V23.5ZM20.6575 21.7533C25.1422 26.8 24.8423 26.5 25.0355 26.5933C25.2288 26.6867 25.1422 26.6667 27.9876 26.6667C28.3556 26.6667 28.6539 26.3682 28.6539 26C28.6539 25.6318 28.3556 25.3333 27.9876 25.3333H26.275L29.9867 15.12V38.6667H20.6575V21.7533ZM1.99911 1.33333H8.66282V12.6667H7.33007C6.96205 12.6667 6.6637 12.9651 6.6637 13.3333C6.6637 13.7015 6.96205 14 7.33007 14H8.66282V23.1467L4.87117 29.4733L1.33274 30.9867V2C1.33274 1.63181 1.63109 1.33333 1.99911 1.33333ZM1.33274 38V32.44L5.59085 30.6133C5.87072 30.4933 5.67748 30.7133 8.66282 25.74V38.6667H1.99911C1.63109 38.6667 1.33274 38.3682 1.33274 38ZM37.9831 38.6667H31.3194V26.6667H32.6522C33.0202 26.6667 33.3185 26.3682 33.3185 26C33.3185 25.6318 33.0202 25.3333 32.6522 25.3333H31.3194V12.2933L35.7508 13.96C35.9277 14.0339 36.1279 14.0279 36.3001 13.9437C36.4724 13.8594 36.6 13.7051 36.6504 13.52L38.6495 6.62667V38C38.6495 38.3682 38.3511 38.6667 37.9831 38.6667Z" fill="#3355FF"/>
<path d="M25.7952 28.1933C25.67 28.0671 25.4997 27.9961 25.322 27.9961C25.1444 27.9961 24.974 28.0671 24.8489 28.1933L22.8498 30.1933C22.6808 30.3624 22.6148 30.6089 22.6766 30.8399C22.7385 31.0709 22.9188 31.2513 23.1497 31.3132C23.3806 31.3751 23.627 31.3091 23.796 31.14L24.6557 30.2733V34.6666C24.6557 35.0348 24.954 35.3333 25.322 35.3333C25.6901 35.3333 25.9884 35.0348 25.9884 34.6666V30.2733L26.848 31.14C27.1093 31.4014 27.533 31.4014 27.7943 31.14C28.0556 30.8785 28.0556 30.4547 27.7943 30.1933L25.7952 28.1933Z" fill="#3355FF"/>
<path d="M14.187 11.14C14.3122 11.2662 14.4825 11.3372 14.6602 11.3372C14.8378 11.3372 15.0082 11.2662 15.1333 11.14L17.1324 9.14C17.3014 8.97089 17.3674 8.72442 17.3056 8.49341C17.2437 8.26241 17.0633 8.08198 16.8324 8.02008C16.6015 7.95818 16.3552 8.02423 16.1861 8.19333L15.3265 9.06V4.66667C15.3265 4.29848 15.0282 4 14.6602 4C14.2921 4 13.9938 4.29848 13.9938 4.66667V9.06L13.1342 8.19333C12.8729 7.93192 12.4492 7.93192 12.1879 8.19333C11.9266 8.45475 11.9266 8.87859 12.1879 9.14L14.187 11.14Z" fill="#3355FF"/>
<path d="M36.6504 25.332H35.3176C34.9496 25.332 34.6512 25.6304 34.6512 25.9984C34.6512 26.3664 34.9496 26.6648 35.3176 26.6648H36.6504C37.0184 26.6648 37.3167 26.3664 37.3167 25.9984C37.3167 25.6304 37.0184 25.332 36.6504 25.332Z" fill="#3355FF"/>
<path d="M3.3319 13.9968H4.66464C5.03267 13.9968 5.33101 13.6985 5.33101 13.3304C5.33101 12.9624 5.03267 12.6641 4.66464 12.6641H3.3319C2.96387 12.6641 2.66553 12.9624 2.66553 13.3304C2.66553 13.6985 2.96387 13.9968 3.3319 13.9968Z" fill="#3355FF"/>
</svg>
