<svg width="40" height="40" viewBox="0 0 40 40" fill="none" xmlns="http://www.w3.org/2000/svg">
<path d="M9.375 20.625H11.25V21.875H9.375V20.625Z" fill="#3355FF"/>
<path d="M13.75 23.75H15.625V25H13.75V23.75Z" fill="#3355FF"/>
<path d="M9.375 23.75H12.5V25H9.375V23.75Z" fill="#3355FF"/>
<path d="M4.375 23.75H8.125V25H4.375V23.75Z" fill="#3355FF"/>
<path d="M8.125 26.875H15.625V28.125H8.125V26.875Z" fill="#3355FF"/>
<path d="M4.375 26.875H6.875V28.125H4.375V26.875Z" fill="#3355FF"/>
<path d="M11.875 30H15.625V31.25H11.875V30Z" fill="#3355FF"/>
<path d="M4.375 30H10.625V31.25H4.375V30Z" fill="#3355FF"/>
<path d="M8.125 33.125H11.875V34.375H8.125V33.125Z" fill="#3355FF"/>
<path d="M4.375 33.125H6.875V34.375H4.375V33.125Z" fill="#3355FF"/>
<path d="M37.5 18.75C37.5 18.5842 37.4342 18.4253 37.317 18.3081C37.1997 18.1909 37.0408 18.125 36.875 18.125H33.125C32.9592 18.125 32.8003 18.1909 32.6831 18.3081C32.5659 18.4253 32.5 18.5842 32.5 18.75V21.875H29.375C29.2092 21.875 29.0503 21.9409 28.9331 22.0581C28.8159 22.1753 28.75 22.3342 28.75 22.5V25.625H25.625C25.4592 25.625 25.3003 25.6909 25.1831 25.8081C25.0659 25.9253 25 26.0842 25 26.25V29.375H21.875C21.7092 29.375 21.5503 29.4409 21.4331 29.5581C21.3159 29.6753 21.25 29.8342 21.25 30V33.75H16.7675C16.6201 33.333 16.3299 32.9815 15.9484 32.7577C15.5669 32.5339 15.1186 32.4522 14.6827 32.527C14.2467 32.6018 13.8513 32.8283 13.5662 33.1665C13.2811 33.5046 13.1247 33.9327 13.1247 34.375C13.1247 34.8173 13.2811 35.2454 13.5662 35.5835C13.8513 35.9217 14.2467 36.1482 14.6827 36.223C15.1186 36.2978 15.5669 36.2161 15.9484 35.9923C16.3299 35.7685 16.6201 35.417 16.7675 35H17.5V36.875C17.4998 37.0407 17.4339 37.1996 17.3167 37.3167C17.1996 37.4339 17.0407 37.4998 16.875 37.5H3.12501C2.95931 37.4998 2.80044 37.4339 2.68327 37.3167C2.56611 37.1996 2.5002 37.0407 2.50001 36.875V22.5H5.62501C6.12211 22.4994 6.5987 22.3017 6.9502 21.9502C7.30171 21.5987 7.49944 21.1221 7.50001 20.625V17.5H16.875C17.0407 17.5002 17.1996 17.5661 17.3167 17.6833C17.4339 17.8004 17.4998 17.9593 17.5 18.125V18.75H18.75V18.125C18.7494 17.6279 18.5517 17.1513 18.2002 16.7998C17.8487 16.4483 17.3721 16.2506 16.875 16.25H7.39274C7.14641 16.2493 6.90239 16.2975 6.67481 16.3918C6.44723 16.4861 6.24061 16.6246 6.0669 16.7992L1.79917 21.0669C1.62452 21.2406 1.48605 21.4473 1.39178 21.6749C1.29752 21.9024 1.24933 22.1464 1.25001 22.3928V36.875C1.25058 37.3721 1.4483 37.8487 1.79981 38.2002C2.15132 38.5517 2.6279 38.7494 3.12501 38.75H16.875C17.3721 38.7494 17.8487 38.5517 18.2002 38.2002C18.5517 37.8487 18.7494 37.3721 18.75 36.875V35H38.75V33.75H37.5V18.75ZM6.25001 18.3839V20.625C6.24982 20.7907 6.18391 20.9496 6.06674 21.0667C5.94957 21.1839 5.79071 21.2498 5.62501 21.25H3.38391L6.25001 18.3839ZM15 35C14.8764 35 14.7556 34.9634 14.6528 34.8947C14.55 34.826 14.4699 34.7284 14.4226 34.6142C14.3753 34.5 14.3629 34.3743 14.387 34.2531C14.4111 34.1318 14.4707 34.0205 14.5581 33.9331C14.6455 33.8457 14.7568 33.7861 14.8781 33.762C14.9993 33.7379 15.125 33.7503 15.2392 33.7976C15.3534 33.8449 15.451 33.925 15.5197 34.0278C15.5884 34.1306 15.625 34.2514 15.625 34.375C15.6248 34.5407 15.5589 34.6996 15.4417 34.8167C15.3246 34.9339 15.1657 34.9998 15 35ZM22.5 30.625H25V33.75H22.5V30.625ZM26.25 26.875H28.75V33.75H26.25V26.875ZM30 23.125H32.5V33.75H30V23.125ZM33.75 33.75V19.375H36.25V33.75H33.75Z" fill="#3355FF"/>
<path d="M3.125 16.8758C3.44174 16.8759 3.75333 16.7957 4.03069 16.6428C4.30804 16.4898 4.54212 16.2691 4.71107 16.0012C4.88001 15.7332 4.97832 15.4269 4.9968 15.1107C5.01529 14.7945 4.95335 14.4788 4.81678 14.193L6.69212 12.3176C6.92932 12.431 7.18771 12.4932 7.45052 12.5002C7.71332 12.5072 7.97466 12.4588 8.21755 12.3582C8.46043 12.2576 8.67943 12.107 8.86032 11.9162C9.04121 11.7254 9.17993 11.4987 9.26748 11.2508H11.9825C12.121 11.6427 12.3857 11.9774 12.7351 12.2024C13.0845 12.4273 13.4988 12.5298 13.9128 12.4938C14.3268 12.4577 14.7171 12.285 15.0223 12.003C15.3275 11.721 15.5304 11.3455 15.5989 10.9356L19.1286 7.91025C19.5202 8.11582 19.9718 8.17634 20.4037 8.08112C20.8356 7.98591 21.22 7.74109 21.4888 7.38992C21.7577 7.03876 21.8938 6.60385 21.873 6.16207C21.8523 5.72028 21.676 5.30005 21.3754 4.97564C21.0748 4.65122 20.6692 4.4435 20.2303 4.38919C19.7914 4.33488 19.3474 4.43748 18.9768 4.67884C18.6062 4.92021 18.3328 5.28481 18.205 5.70821C18.0772 6.13162 18.1032 6.58657 18.2783 6.99268L15.2882 9.55561C15.0915 9.27232 14.8203 9.04885 14.5047 8.90981C14.189 8.77078 13.8411 8.72157 13.4993 8.76761C13.1574 8.81365 12.8349 8.95315 12.5673 9.17075C12.2997 9.38834 12.0973 9.67559 11.9825 10.0008H9.26748C9.18268 9.7608 9.04987 9.54055 8.87717 9.35352C8.70447 9.16648 8.49548 9.01658 8.26295 8.91295C8.03042 8.80932 7.77922 8.75413 7.52467 8.75075C7.27011 8.74737 7.01754 8.79587 6.78234 8.8933C6.54714 8.99072 6.33425 9.13502 6.15664 9.31741C5.97903 9.49979 5.84043 9.71644 5.74928 9.95414C5.65813 10.1918 5.61635 10.4456 5.62649 10.7C5.63662 10.9544 5.69845 11.204 5.80822 11.4337L3.93288 13.3091C3.67893 13.1878 3.40095 13.1252 3.11954 13.126C2.83813 13.1269 2.5605 13.191 2.30726 13.3137C2.05402 13.4364 1.83165 13.6146 1.65664 13.835C1.48164 14.0554 1.35848 14.3123 1.29632 14.5868C1.23415 14.8612 1.23457 15.1462 1.29753 15.4204C1.3605 15.6947 1.4844 15.9513 1.66004 16.1712C1.83569 16.391 2.05858 16.5686 2.31218 16.6905C2.56578 16.8125 2.84359 16.8759 3.125 16.8758ZM20 5.62584C20.1236 5.62584 20.2444 5.6625 20.3472 5.73117C20.45 5.79985 20.5301 5.89746 20.5774 6.01166C20.6247 6.12587 20.6371 6.25153 20.613 6.37277C20.5889 6.49401 20.5293 6.60537 20.4419 6.69278C20.3545 6.78019 20.2432 6.83972 20.1219 6.86383C20.0007 6.88795 19.875 6.87557 19.7608 6.82827C19.6466 6.78096 19.549 6.70085 19.4803 6.59807C19.4117 6.49529 19.375 6.37445 19.375 6.25084C19.3752 6.08514 19.4411 5.92628 19.5583 5.80911C19.6754 5.69194 19.8343 5.62603 20 5.62584ZM13.75 10.0008C13.8736 10.0008 13.9944 10.0375 14.0972 10.1062C14.2 10.1748 14.2801 10.2725 14.3274 10.3867C14.3747 10.5009 14.3871 10.6265 14.363 10.7478C14.3389 10.869 14.2793 10.9804 14.1919 11.0678C14.1045 11.1552 13.9932 11.2147 13.8719 11.2388C13.7507 11.2629 13.625 11.2506 13.5108 11.2033C13.3966 11.156 13.299 11.0759 13.2303 10.9731C13.1617 10.8703 13.125 10.7495 13.125 10.6258C13.1252 10.4601 13.1911 10.3013 13.3083 10.1841C13.4254 10.0669 13.5843 10.001 13.75 10.0008ZM7.5 10.0008C7.62361 10.0008 7.74445 10.0375 7.84723 10.1062C7.95001 10.1748 8.03012 10.2725 8.07742 10.3867C8.12473 10.5009 8.13711 10.6265 8.11299 10.7478C8.08887 10.869 8.02935 10.9804 7.94194 11.0678C7.85453 11.1552 7.74317 11.2147 7.62193 11.2388C7.50069 11.2629 7.37503 11.2506 7.26082 11.2033C7.14662 11.156 7.04901 11.0759 6.98033 10.9731C6.91165 10.8703 6.875 10.7495 6.875 10.6258C6.87519 10.4601 6.9411 10.3013 7.05827 10.1841C7.17544 10.0669 7.3343 10.001 7.5 10.0008ZM3.125 14.3758C3.24861 14.3758 3.36945 14.4125 3.47223 14.4812C3.57501 14.5498 3.65512 14.6475 3.70242 14.7617C3.74973 14.8759 3.76211 15.0015 3.73799 15.1228C3.71387 15.244 3.65435 15.3554 3.56694 15.4428C3.47953 15.5302 3.36817 15.5897 3.24693 15.6138C3.12569 15.6379 3.00003 15.6256 2.88582 15.5783C2.77162 15.531 2.67401 15.4509 2.60533 15.3481C2.53665 15.2453 2.5 15.1245 2.5 15.0008C2.50019 14.8351 2.5661 14.6763 2.68327 14.5591C2.80044 14.4419 2.9593 14.376 3.125 14.3758Z" fill="#3355FF"/>
<path d="M25.7473 15.8711L21.6162 20.0023H16.1425C15.9951 19.5853 15.705 19.2339 15.3235 19.0101C14.942 18.7863 14.4936 18.7045 14.0577 18.7793C13.6218 18.8541 13.2263 19.0806 12.9412 19.4188C12.6561 19.757 12.4998 20.185 12.4998 20.6273C12.4998 21.0696 12.6561 21.4977 12.9412 21.8359C13.2263 22.174 13.6218 22.4005 14.0577 22.4753C14.4936 22.5501 14.942 22.4684 15.3235 22.2446C15.705 22.0208 15.9951 21.6693 16.1425 21.2523H17.5V32.5023H18.75V21.2523H21.875C22.0408 21.2523 22.1998 21.1865 22.317 21.0693L26.8278 16.5585C28.6874 17.5455 30.8569 17.7743 32.8815 17.1969C34.9061 16.6196 36.6286 15.2809 37.6879 13.4616C38.7472 11.6422 39.0612 9.48339 38.5639 7.43766C38.0666 5.39194 36.7967 3.61813 35.0204 2.48806C33.2441 1.35799 31.0993 0.959407 29.0356 1.37586C26.9719 1.79231 25.1496 2.99146 23.9505 4.72194C22.7515 6.45243 22.2688 8.57989 22.6038 10.6584C22.9388 12.7369 24.0653 14.605 25.7473 15.8711L25.7473 15.8711ZM14.375 21.2523C14.2514 21.2523 14.1306 21.2157 14.0278 21.147C13.925 21.0783 13.8449 20.9807 13.7976 20.8665C13.7503 20.7523 13.7379 20.6266 13.762 20.5054C13.7862 20.3842 13.8457 20.2728 13.9331 20.1854C14.0205 20.098 14.1319 20.0385 14.2531 20.0143C14.3743 19.9902 14.5 20.0026 14.6142 20.0499C14.7284 20.0972 14.826 20.1773 14.8947 20.2801C14.9634 20.3829 15 20.5037 15 20.6273C14.9999 20.793 14.9339 20.9519 14.8168 21.0691C14.6996 21.1862 14.5407 21.2521 14.375 21.2523ZM35.6384 14.0765L32.0168 10.0023H37.4713C37.3327 11.527 36.6873 12.9614 35.6384 14.0765ZM37.4713 8.75234H31.25V2.53105C32.8499 2.67935 34.3476 3.38244 35.4838 4.5186C36.6199 5.65475 37.323 7.15243 37.4713 8.75234ZM30 2.53105V9.37733C30 9.53037 30.0564 9.67805 30.1584 9.79211L30.1579 9.79256L34.7046 14.9076C33.8512 15.5372 32.8637 15.9608 31.8194 16.1453C30.7751 16.3297 29.7023 16.2701 28.6848 15.9709C27.6674 15.6718 26.733 15.1413 25.9547 14.421C25.1764 13.7006 24.5754 12.81 24.1986 11.8187C23.8218 10.8274 23.6794 9.76236 23.7827 8.70692C23.886 7.65148 24.2321 6.63424 24.7939 5.73481C25.3557 4.83538 26.1181 4.07814 27.0212 3.52235C27.9244 2.96655 28.9439 2.62727 30 2.53105Z" fill="#3355FF"/>
</svg>
